<svg width="312" height="48" viewBox="0 0 312 48" fill="none" xmlns="http://www.w3.org/2000/svg">
<path d="M5.144 3.712L5.288 3.856C5.24 3.904 5.144 3.952 5.144 4L5.096 5.968C5.096 5.968 5.144 6.016 5.144 6.064L5.624 5.68L7.688 4L7.88 3.856C8.456 3.472 8.84 3.616 9.08 4.288C9.512 4 9.8 4.384 10.088 4.624C10.136 4.672 10.136 4.864 10.136 4.912C10.088 5.2 10.04 5.44 9.896 5.728C9.896 5.824 9.896 5.968 9.992 6.16C10.328 6.544 10.376 6.976 10.376 7.456C10.328 9.664 10.424 11.872 10.472 14.032C10.472 15.136 10.424 16.192 10.376 17.296C10.28 18.4 10.232 19.408 10.232 20.416C10.232 21.088 10.136 21.664 10.088 22.288C10.088 22.384 10.04 22.528 9.944 22.576C9.8 22.672 9.752 22.816 9.752 22.96C9.752 24.064 9.752 25.168 9.8 26.272C9.8 26.56 9.896 26.8 9.992 26.992L10.376 28.336C10.664 29.584 11 30.88 11 32.272C11 33.664 11 35.104 11.048 36.544C11.048 37.216 10.808 37.744 10.28 38.224L9.992 38.464C9.848 38.608 9.704 38.704 9.704 38.896C9.704 39.04 9.704 39.184 9.656 39.28C9.608 39.376 9.512 39.568 9.416 39.568C8.888 39.808 8.36 40.048 7.688 40.288C7.64 39.952 7.688 39.664 7.64 39.376C7.64 39.088 7.64 38.752 7.64 38.464H6.728C6.632 38.944 6.968 39.376 6.824 39.904C6.584 39.472 6.68 38.992 6.632 38.512C6.44 38.656 6.344 38.704 6.2 38.8V39.184H6.152C6.104 38.992 6.056 38.8 5.96 38.656C5.912 38.464 5.816 38.368 5.768 38.224C5.768 38.176 5.72 38.176 5.72 38.176C5.336 38.224 5.192 37.888 5.048 37.744C4.808 37.312 4.712 36.832 4.712 36.4L5 30.016C5.048 29.2 4.952 28.432 5.048 27.616C5.144 26.032 5.288 24.496 5.336 22.96C5.384 22.144 5.336 21.328 5.336 20.464C5.096 21.04 5.048 21.616 4.904 22.24V20.8H4.808C4.664 21.328 4.616 21.808 4.424 22.288V21.952L4.616 13.312C4.616 13.12 4.616 13.024 4.76 12.832C4.808 12.736 4.808 12.544 4.808 12.4V11.392H4.904C4.904 11.44 4.904 11.536 4.904 11.632C5.096 12.352 5.192 13.12 5.192 13.936C5.144 14.944 5.24 16.048 5.24 17.104C5.24 17.776 5.144 18.4 5.144 19.072C5.144 19.264 5.096 19.408 5.192 19.504C5.288 19.648 5.288 19.888 5.288 20.08L5.528 17.248C5.528 16.96 5.528 16.72 5.528 16.384C5.432 15.856 5.528 15.328 5.624 14.848C5.72 14.656 5.72 14.416 5.672 14.224C5.576 13.456 5.528 12.688 5.528 11.92C5.528 11.296 5.528 10.72 5.48 10.192L5.336 10.24C4.664 10.72 3.944 11.104 3.08 11.2C2.984 11.2 2.84 11.296 2.744 11.296L2.216 11.584C2.168 11.632 2.072 11.632 1.976 11.632L1.496 11.44C1.352 11.44 1.256 11.44 1.112 11.44C1.112 11.296 1.16 11.2 1.16 11.104C1.352 11.104 1.496 11.056 1.688 10.912C1.688 10.816 1.832 10.768 1.928 10.72C1.688 10.288 2.12 10.192 2.408 9.952C2.12 9.808 1.832 9.664 1.448 9.856L1.592 9.952C1.208 10.192 0.776 10.384 0.344 10.672C0.344 10.576 0.344 10.528 0.296 10.432L0.104 10.336L0.392 10C0.296 9.808 0.152 9.712 0.152 9.616C0.104 9.232 0.152 8.752 0.248 8.368C0.248 8.272 0.344 8.176 0.392 8.08L2.984 5.44L4.28 4.096C4.424 4 4.568 3.808 4.76 3.712C4.904 3.52 4.952 3.52 5.144 3.712ZM4.04 6.736L3.752 7.264L3.8 7.312L4.904 6.304C4.952 6.256 4.952 6.16 4.952 6.112C4.952 5.536 5 4.912 5 4.336C5 4.192 4.952 4.048 4.904 3.904C4.664 4 4.568 4.144 4.424 4.336C4.088 4.72 3.896 5.056 3.512 5.392C2.984 5.968 2.36 6.544 1.784 7.12L1.496 7.456C2.024 7.456 2.216 7.024 2.6 6.784C2.6 7.168 2.648 7.168 2.456 7.456L1.832 8.368L1.256 9.136C2.264 8.464 3.128 7.552 4.04 6.736ZM6.2 14.368C6.2 14.368 6.152 14.368 6.104 14.368C6.056 14.512 6.056 14.704 5.96 14.8C5.816 14.944 5.816 15.136 5.816 15.328L5.864 17.68L5.96 20.704L6.104 23.488L6.2 25.312C6.248 25.456 6.248 25.552 6.248 25.696C6.392 25.168 6.44 24.736 6.44 24.208C6.44 23.728 6.392 23.2 6.392 22.72C6.392 20.56 6.392 18.448 6.344 16.24C6.344 15.664 6.248 14.944 6.2 14.368ZM1.784 11.392L2.216 11.2C2.216 11.152 2.216 11.104 2.216 11.104C2.072 11.104 1.88 11.296 1.736 11.296C1.784 11.344 1.784 11.392 1.784 11.392ZM5.288 3.856C5.24 3.568 5.432 3.424 5.624 3.232C5.768 3.136 5.912 3.184 6.056 3.376C6.056 3.424 6.056 3.52 6.056 3.616C6.104 4.048 6.056 4.528 5.912 4.912C5.864 4.72 5.864 4.432 5.864 4.144L5.816 3.424C5.528 3.472 5.384 3.616 5.288 3.856ZM7.496 39.328L7.16 39.616C6.92 39.376 7.016 39.088 6.968 38.8C7.208 38.944 7.448 38.992 7.496 39.328ZM17.4451 16.768C17.3491 16.624 17.3011 16.48 17.1571 16.384L17.0611 16.528L16.7731 16.192C16.6771 16.576 16.8211 16.912 16.7731 17.296L15.4771 17.248C15.2851 17.248 15.1891 17.104 15.1411 16.912C15.0931 16.768 14.9971 16.672 14.8531 16.576C14.7571 16.576 14.7091 16.48 14.7091 16.384C14.3251 15.808 14.0371 15.184 13.9411 14.512C13.8451 14.032 13.7491 13.456 13.7011 12.928C13.5571 12.208 13.6531 11.488 13.7491 10.768C13.7971 10.384 13.7971 10.048 13.8451 9.664C13.8451 9.616 13.8451 9.568 13.8451 9.568C13.5571 9.472 13.7491 9.28 13.7971 9.136C14.0371 8.08 14.5171 7.072 15.1891 6.304C15.3331 6.16 15.5251 5.968 15.6691 5.872L17.8291 4.72C18.0691 4.528 18.3091 4.528 18.5491 4.72C18.6931 4.816 18.8851 4.816 19.0771 4.72C19.8931 4.096 20.7571 3.664 21.7171 3.472C21.7651 3.472 21.8131 3.424 21.9091 3.376H21.4291C20.6611 3.376 19.9891 3.616 19.2691 3.856L17.4931 4.384L17.6851 4.192C19.5091 2.896 21.5731 2.608 23.7331 3.328C23.8771 3.424 24.0211 3.424 24.1651 3.424C25.3171 3.424 26.3251 3.76 27.3331 4.24C27.6691 4.48 28.1011 4.672 28.4371 4.864L28.8211 5.056C29.7811 5.584 30.2611 6.352 30.5011 7.408L30.6931 7.888C30.9811 8.464 31.1251 9.088 31.1731 9.664L31.4611 11.104C31.6531 12.256 31.5571 13.456 31.3651 14.656C31.1251 16.336 30.6451 17.968 30.1171 19.6C30.1171 19.744 30.0211 19.888 29.9731 20.08C29.9251 20.272 29.8771 20.464 29.5891 20.56C29.4931 20.56 29.3971 20.8 29.3491 20.944C28.9171 22 28.5331 23.056 28.1011 24.064C26.8051 26.944 25.8451 29.968 24.7411 32.992L24.0691 34.72C24.0691 34.864 23.9731 35.008 23.9251 35.152H24.3091L26.2291 35.008C27.5251 35.008 28.8211 35.152 30.1171 35.44L31.1251 35.728L31.1731 35.968L30.8851 36.064L31.5571 36.352C31.3651 36.688 31.5571 36.928 31.7011 37.168C31.9411 37.552 32.0851 37.936 32.2771 38.368C32.3731 38.512 32.3731 38.656 32.2771 38.704L31.3651 39.664C31.6051 39.76 31.6051 39.76 32.0851 39.76C31.9411 39.856 31.8931 39.904 31.7491 40L30.4051 40.816C30.2131 40.96 29.9251 41.008 29.6371 40.96C29.0131 40.816 28.3411 40.72 27.6691 40.576C26.7091 40.48 25.7491 40.432 24.7891 40.48C24.2611 40.48 23.7331 40.48 23.1571 40.48H22.9171L22.9651 40.24C22.9171 40.192 22.8211 40.096 22.6771 40.048C22.4371 39.952 22.2451 39.904 22.0051 39.76C21.9091 39.712 21.7171 39.664 21.5731 39.52C21.4291 39.328 21.1411 39.328 20.9971 39.376C21.0451 39.568 21.0931 39.664 21.1411 39.856C20.8051 39.904 20.3731 39.904 20.0371 39.76C19.9891 39.712 19.8931 39.664 19.8931 39.568L19.5571 38.848H19.1251C18.6931 38.8 18.3091 38.8 17.8771 38.752C17.4931 38.704 17.1571 38.56 17.0611 38.08C17.0611 38.032 17.0131 37.936 16.9651 37.888L16.4851 37.264C16.2931 37.072 16.2931 36.88 16.4371 36.688C16.5811 36.208 16.8691 35.776 17.0611 35.296L18.5971 31.12C19.3651 28.816 20.3251 26.656 21.2371 24.4C22.3891 21.664 23.4451 18.784 24.4051 15.952C24.5011 15.616 24.7411 15.28 24.8371 14.944C25.1731 14.224 25.4611 13.6 25.6531 12.928C25.7491 12.544 25.7971 12.208 25.8451 11.872C25.8931 11.392 25.8931 10.96 25.8931 10.48C25.9411 9.808 25.7971 9.28 25.1731 8.896C25.0771 8.848 24.9811 8.752 24.8851 8.704C24.2611 8.224 23.5411 8.176 22.8211 8.368L22.4371 8.56C21.4291 9.232 20.6131 10.048 19.9411 11.056L19.8451 11.152C19.0771 12.208 18.6451 13.408 18.5011 14.704C18.4051 15.184 18.2611 15.664 18.2131 16.144C18.1171 16.576 17.8771 16.768 17.4451 16.768ZM16.7251 7.312C16.4371 7.552 16.1011 7.84 16.0531 8.176C16.4371 7.984 16.5811 7.696 16.7251 7.312ZM29.2051 5.776C29.3971 6.208 29.6851 6.544 29.9251 6.688C29.7331 6.304 29.5411 6.016 29.2051 5.776ZM23.9251 35.488V35.536L25.7491 35.488V35.392C25.1731 35.44 24.5971 35.488 23.9251 35.488ZM13.8451 10.192C14.1331 9.952 14.0851 9.568 14.1811 9.28H14.0851C14.0371 9.568 13.9411 9.856 13.8451 10.192ZM26.5651 39.28C26.4691 39.184 26.2771 39.088 26.0371 39.232C26.2291 39.424 26.4211 39.376 26.5651 39.28ZM27.6211 35.536L28.7251 35.728C28.3891 35.584 28.0531 35.488 27.6211 35.536ZM15.0451 8.368C14.9971 8.368 14.9971 8.368 14.9491 8.368C14.9011 8.56 14.8531 8.752 14.7571 8.944C14.8051 8.992 14.8531 8.992 14.8531 8.992C14.9491 8.8 14.9971 8.56 15.0451 8.368ZM31.5571 36.064C31.7491 36.064 31.7971 36.064 31.9411 36.064C31.7971 36.256 31.7491 36.16 31.5571 36.064ZM42.1779 4H42.5139H44.0979C44.5299 4 45.0099 3.904 45.4419 3.904L47.8419 3.808C47.9859 3.808 48.0339 3.856 48.1299 3.952C48.2739 4.144 48.5139 4.24 48.8499 4.288C49.1379 4.336 49.5219 4.432 49.8579 4.432C50.2419 4.432 50.5299 4.576 50.7699 4.816C50.7699 4.912 50.7699 4.912 50.7219 5.008C50.7699 5.056 50.9139 5.152 51.0099 5.104C51.4419 5.008 51.5859 5.296 51.7779 5.488C51.7779 5.584 51.7299 5.632 51.6819 5.728C51.5859 5.872 51.5379 5.968 51.6819 6.16C51.8259 6.352 51.7779 6.544 51.6339 6.688C51.3939 6.784 51.2979 6.928 51.1059 7.264C51.3939 7.264 51.5859 7.216 51.6819 7.024C51.7779 7.36 51.7299 7.552 51.4419 7.6C51.3459 7.6 51.2019 7.6 51.0579 7.648C50.9619 7.648 50.8659 7.648 50.8659 7.648C50.7219 7.84 50.4339 7.84 50.1459 7.84C50.0019 7.84 49.9059 7.936 49.8579 8.08C49.7139 8.32 49.5699 8.56 49.3779 8.704C49.0419 8.992 48.6579 9.088 48.2259 9.088C47.6499 9.088 47.0739 9.04 46.4499 8.992C46.0659 8.992 45.6819 8.944 45.2979 8.944H44.9139C44.9139 9.04 44.8659 9.088 44.8659 9.136L45.3939 12.544C45.5379 13.312 45.5859 14.128 45.6819 14.944C46.0659 18.112 46.0659 21.328 46.1619 24.448L46.4979 30.064L46.7379 35.92C46.7379 36.064 46.7859 36.256 46.7859 36.448C46.8339 36.736 46.8339 36.928 46.5459 37.12C46.4979 36.016 46.4499 34.912 46.2099 33.808H46.1619L46.0179 35.056C45.9699 35.728 45.9219 36.304 45.9219 36.88C45.8739 37.264 45.8739 37.6 45.8739 37.936C45.8739 38.368 45.7779 38.704 45.5859 39.04C45.3939 39.376 45.3459 39.712 45.3459 40.144C45.3939 40.48 45.2499 40.576 44.9619 40.624C44.4819 40.816 44.0979 41.008 43.6659 41.2C43.5699 41.2 43.4739 41.2 43.4259 41.248V40.144C43.3779 40.096 43.3299 40.096 43.2819 40.096L43.0419 40.336C42.8499 40.48 42.7539 40.528 42.6579 40.336L42.5139 40.72L42.3219 40.384C42.1779 40.336 42.0819 40.336 41.9379 40.336L41.7459 39.568H41.6499C41.3619 39.568 41.2179 39.376 41.1219 39.136C41.0739 38.992 41.0259 38.848 40.9299 38.752C40.8339 38.608 40.7379 38.464 40.7379 38.272C40.6899 37.888 40.6899 37.504 40.6899 37.12C40.6899 36.448 40.8339 35.872 40.6899 35.152C40.4979 34.48 40.5939 33.808 40.4979 33.088L40.3059 34.432C40.2099 30.4 40.3539 26.368 39.8739 22.336C39.8739 22.576 39.8259 22.864 39.8259 23.152H39.7779C39.7779 22.72 39.8259 22.24 39.7779 21.856C39.7779 20.752 39.7779 19.696 39.7779 18.688C39.7779 18.208 39.7779 17.68 39.8259 17.2C39.8259 16.624 39.8259 16 39.8739 15.472C39.8739 14.608 39.9219 13.792 40.0659 12.928C40.1139 12.544 40.1139 12.208 40.1139 11.824C40.1619 11.056 40.2099 10.288 40.4019 9.472C40.4019 9.376 40.4499 9.184 40.4499 8.992C40.3059 8.992 40.2099 8.944 40.1139 8.944C39.0579 8.848 38.0979 8.656 37.0899 8.368L35.8899 7.984C35.7459 7.984 35.6019 7.888 35.5059 7.84C35.3619 7.792 35.3139 7.648 35.3619 7.6L35.6019 7.168C35.5059 6.976 35.0259 6.928 35.2659 6.592C35.1699 6.544 35.0259 6.496 34.8339 6.448L35.5539 6.256C35.3619 6.064 35.3139 5.92 35.1699 5.824C34.8819 5.68 34.8339 5.536 34.9299 5.248C35.0259 5.008 35.0259 4.768 35.0259 4.528C35.0259 4.144 35.1219 4.144 35.3619 4C35.9379 3.856 36.4659 3.808 36.9939 3.76C38.4819 3.616 39.9219 3.52 41.4099 3.472C42.5139 3.424 43.6659 3.52 44.8179 3.568C44.8659 3.568 44.9139 3.568 44.9619 3.616H43.9539C43.5219 3.664 43.0899 3.664 42.6579 3.664C42.4659 3.664 42.3219 3.76 42.1779 4ZM44.5299 34.144V33.328C44.5299 33.088 44.5299 32.8 44.4819 32.512C44.4819 32.272 44.5779 31.984 44.3859 31.696C44.3859 32.032 44.3859 32.272 44.3859 32.56C44.2899 33.136 44.3859 33.616 44.5299 34.144ZM47.9859 8.848C48.3699 8.8 48.8979 8.896 49.1859 8.512C48.7059 8.368 48.3219 8.704 47.9859 8.848ZM56.945 41.152C56.945 40.96 56.945 40.816 56.945 40.72C56.945 40.48 56.897 40.336 56.897 40.144C56.945 39.664 56.705 39.376 56.369 39.088L56.177 39.232L55.121 38.416C54.785 38.08 54.593 37.6 54.401 37.168C54.353 36.976 54.449 36.736 54.497 36.544L54.593 35.344L54.689 35.008C54.881 34.432 54.833 33.808 54.833 33.184V32.368C54.833 32.272 54.833 32.224 54.785 32.08H54.497V30.976C54.641 26.8 54.641 22.768 54.401 18.592C54.353 17.248 54.401 15.856 54.353 14.512C54.353 14.368 54.353 14.272 54.401 14.176C54.545 13.936 54.545 13.6 54.497 13.264V11.872C54.497 11.776 54.545 11.632 54.449 11.584C54.305 11.392 54.353 11.248 54.353 11.008C54.401 9.712 54.545 8.416 54.833 7.12C54.929 6.592 55.025 6.016 55.409 5.584L55.505 5.248C55.601 5.008 55.697 4.816 55.841 4.576C56.033 4.384 56.129 4.144 56.225 4L56.465 3.616C56.609 3.712 56.705 3.808 56.753 3.856L56.945 3.712C57.233 3.904 57.233 4 57.137 4.24L57.425 4.528L57.857 4.432C58.049 4.864 57.809 5.2 57.905 5.632L58.049 5.248C58.145 5.056 58.241 4.912 58.433 4.912C58.577 4.912 58.721 5.056 58.769 5.344L58.817 6.112C59.057 7.264 58.961 8.512 59.009 9.664C59.009 10.24 59.057 10.816 59.153 11.392L59.249 10.528H59.297C59.345 10.528 59.345 10.576 59.345 10.624L59.489 12.544L59.681 17.68C59.681 18.112 59.729 18.208 60.161 18.208H60.593C61.505 18.064 62.417 18.304 63.281 18.64C63.713 18.832 64.049 18.928 64.529 18.832L63.329 18.544C63.569 18.448 63.905 18.592 64.001 18.304C64.049 18.256 64.241 18.304 64.337 18.304L65.825 18.544H66.065V18.16C66.065 17.632 66.065 17.056 66.065 16.528C66.017 16 66.065 15.568 66.257 15.088C66.305 14.992 66.353 14.944 66.353 14.848L66.689 10.528V10.384C66.593 10.48 66.449 10.528 66.353 10.624C66.305 10.48 66.257 10.384 66.257 10.384L66.353 9.712C66.449 8.992 66.497 8.224 66.689 7.552C66.785 6.88 67.025 6.352 67.265 5.728C67.361 5.488 67.601 5.296 67.697 5.104L67.937 4.864C68.081 4.624 68.225 4.384 68.465 4.24C68.609 4.144 68.753 3.952 68.945 3.76L69.185 3.472L69.473 3.808C69.521 3.808 69.617 3.664 69.665 3.712C69.713 3.76 69.761 3.856 69.809 3.952L69.905 4.528C70.097 4.624 70.337 4.528 70.385 4.768C70.385 4.912 70.385 5.056 70.385 5.296C70.529 5.44 70.625 5.152 70.817 5.152L70.961 5.344C71.105 5.728 71.297 6.064 71.345 6.448C71.441 6.784 71.489 7.168 71.489 7.504C71.537 10.048 71.537 12.64 71.345 15.184C71.297 16.288 71.201 17.392 71.057 18.448C71.057 18.592 71.009 18.784 71.009 18.976C71.009 20.512 71.009 22.048 71.057 23.488C71.057 24.928 71.201 26.272 71.201 27.664C71.201 29.584 71.153 31.552 71.153 33.52C71.153 35.344 71.105 37.12 71.105 38.944C71.105 39.28 71.057 39.568 70.625 39.568C70.625 39.808 70.625 40.048 70.673 40.24C70.721 40.48 70.625 40.528 70.433 40.624C70.289 40.72 70.049 40.864 69.809 41.008C69.569 41.104 69.473 41.296 69.521 41.536V41.824L68.993 41.92C68.993 41.344 69.185 40.672 68.945 40C68.801 40.288 68.801 40.48 68.705 40.624C68.513 39.904 68.321 39.28 67.889 38.656C67.889 38.896 67.649 39.088 67.649 39.376C67.697 39.568 67.649 39.808 67.697 40.096V40.816V41.296L67.409 41.008C67.313 41.392 67.361 41.728 67.313 42.112V41.296L66.641 41.392L66.449 41.152C65.873 41.152 65.873 41.152 65.873 40.576C65.873 40.48 65.873 40.48 65.873 40.384L65.393 39.952C65.345 39.904 65.297 39.808 65.297 39.712C65.345 39.328 64.961 38.992 64.913 38.656C64.865 38.464 64.817 38.272 64.817 38.032C64.817 36.112 64.865 34.24 65.009 32.368C65.105 31.552 65.153 30.784 65.249 29.968C65.345 29.536 65.441 29.104 65.489 28.624C65.585 28 65.633 27.328 65.681 26.704C65.729 25.888 65.729 25.024 65.777 24.208C65.777 24.16 65.729 24.064 65.729 23.968C63.857 23.68 61.985 23.392 60.065 23.296V23.584C60.209 25.408 60.353 27.28 60.449 29.152C60.593 31.024 60.593 32.992 60.641 34.864C60.737 36.064 60.689 37.36 60.737 38.608C60.785 38.848 60.593 39.088 60.401 39.232C60.113 39.472 59.777 39.616 59.441 39.808C59.201 39.904 59.057 40.096 59.153 40.384C59.153 40.576 59.057 40.624 58.913 40.72C58.289 40.816 57.665 41.008 56.945 41.152ZM57.617 10.24C57.665 10.24 57.665 10.288 57.713 10.288C58.001 8.992 58.433 7.792 58.241 6.496C58.049 6.496 58.001 6.544 57.809 6.544L57.617 10.24ZM71.153 6.88C71.153 6.88 71.153 6.88 71.105 6.88V8.56C71.153 8.56 71.153 8.56 71.153 8.56V6.88ZM65.537 22.192C65.681 22.24 65.729 22.24 65.777 22.144C65.777 22.048 65.777 22.048 65.729 21.904L65.537 22.192ZM56.033 39.76L56.225 40.48C55.985 40.288 55.985 40.288 56.033 39.76ZM95.1069 4.912C95.1549 4.864 95.2029 4.816 95.2509 4.768C95.2509 4.864 95.2509 4.912 95.2989 4.912C95.3949 4.912 95.4429 4.96 95.5869 4.96C95.6349 5.056 95.6349 5.2 95.7309 5.344C95.8269 5.296 95.8749 5.248 95.9709 5.248C95.9709 5.248 96.0669 5.344 96.1629 5.44C96.2109 5.248 96.2589 5.104 96.3069 4.96C96.3549 5.056 96.4029 5.056 96.4029 5.104C96.5469 5.344 96.5949 5.536 96.6429 5.776C96.6909 5.872 96.6429 6.016 96.6909 6.16C96.8829 7.312 97.0269 8.464 97.1229 9.616C97.1229 9.664 97.1709 9.808 97.2669 9.856C97.2669 9.136 97.3149 8.368 97.2669 7.648C97.2189 7.072 97.0269 6.592 96.8349 6.064C96.7389 5.824 96.5949 5.44 96.7389 5.008C96.8349 5.104 96.8829 5.2 97.0269 5.248C97.0749 5.344 97.1229 5.44 97.2189 5.44C97.3149 5.536 97.4109 5.536 97.2669 5.68C97.2669 5.728 97.3149 5.824 97.3629 5.92C97.7469 6.88 98.1309 7.888 98.3709 8.944C98.5149 9.472 98.7069 9.808 98.8509 10.336C98.8989 10.288 98.8989 10.288 98.8989 10.288C98.8989 10.144 98.8989 9.952 98.8509 9.808C98.8989 9.808 98.8989 9.808 98.8989 9.76C99.0909 10.144 99.2829 10.432 99.3789 10.816C99.7149 12.112 100.051 13.36 100.387 14.704C100.483 14.992 100.675 15.28 100.723 15.664C100.723 15.856 100.819 16.192 100.867 16.432C101.395 19.12 101.923 21.712 102.451 24.352C102.547 24.976 102.643 25.648 102.739 26.224C102.883 26.704 102.979 27.088 103.123 27.52C103.411 28.816 103.747 30.256 104.131 31.552C104.611 33.28 104.947 35.056 105.235 36.832C105.283 37.168 105.187 37.504 104.995 37.744C104.947 37.84 104.947 37.888 104.899 37.984C104.275 37.888 104.035 37.408 103.459 37.12C103.507 37.216 103.555 37.312 103.603 37.36C103.843 37.744 104.083 38.128 104.275 38.56C104.419 38.8 104.371 38.992 104.131 39.184C103.939 39.328 103.795 39.424 103.843 39.712C103.939 39.952 103.843 40.048 103.555 40.096C103.027 40.288 102.451 40.432 101.875 40.576C101.779 40.288 101.683 39.952 101.635 39.712C101.443 39.712 101.347 39.712 101.203 39.712C101.155 39.808 101.107 39.904 101.011 40.048C100.723 39.76 100.579 39.472 100.723 39.136C100.915 38.752 100.819 38.416 100.819 38.032C100.771 37.888 100.723 37.744 100.723 37.552C100.483 37.888 100.531 38.368 100.195 38.704C100.099 38.56 100.003 38.368 99.9069 38.176C99.7149 37.696 99.5709 37.168 99.2829 36.736C99.2349 36.64 99.2349 36.448 99.1869 36.304C98.8509 35.008 98.5629 33.616 98.2749 32.272C98.1309 31.504 97.9869 30.784 97.8429 30.064C97.4589 29.872 97.0269 29.68 96.5949 29.536C96.4029 29.488 96.2109 29.488 95.9709 29.488C95.8269 29.536 95.5869 29.536 95.3949 29.44C94.8189 29.248 94.2909 29.056 93.7629 28.816C93.6189 28.768 93.5709 28.768 93.4749 28.768C93.4269 28.768 93.4269 28.816 93.4269 28.864C93.0909 30.352 92.7549 31.744 92.4189 33.184C92.0349 34.96 91.6029 36.64 91.2669 38.32C91.2189 38.656 91.0749 38.848 90.7869 38.992C90.4029 39.136 90.0189 39.232 89.6349 39.376C89.4429 39.424 89.2509 39.568 89.2509 39.712C89.2029 40 89.1069 40.096 88.8669 40.096C88.3389 40.048 87.7629 40.048 87.2349 40C87.0429 40 86.9469 39.904 86.9949 39.712C87.0429 39.568 87.0429 39.376 87.0909 39.184C86.7069 39.088 86.7069 39.088 86.4669 39.184C86.4189 39.184 86.3709 39.184 86.3229 39.136C86.2749 38.8 86.0829 38.656 85.9389 38.416C85.8909 38.32 85.8909 38.224 85.9389 38.128C85.9389 37.984 85.9389 37.84 85.9869 37.744C86.0349 37.456 86.0829 37.216 85.9389 36.976C85.8429 36.784 85.8429 36.448 85.9389 36.208C85.9389 36.064 85.9869 35.92 86.0349 35.728C86.0349 35.584 85.9869 35.488 85.9869 35.344C85.9869 35.2 85.9389 35.008 85.9869 34.912C86.0349 34.624 86.1309 34.288 86.1789 34.048C85.9389 34.144 85.9389 34.48 85.6509 34.768C85.6989 34.576 85.6989 34.432 85.7469 34.384C86.6589 30.448 87.6669 26.656 88.8189 22.816C89.1069 21.808 89.4909 20.752 89.7309 19.648C89.9709 18.592 90.1629 17.488 90.4029 16.384C90.7389 14.704 91.1709 12.928 91.5549 11.248C91.6989 10.72 91.7949 10.288 91.9869 9.808C92.0349 9.616 91.9869 9.376 92.2749 9.28C92.3229 9.232 92.3229 9.088 92.3229 8.992C92.4669 8.752 92.5149 8.56 92.6109 8.368C92.7069 8.176 92.8509 7.984 92.9469 7.888C93.1389 7.792 93.1869 7.648 93.2829 7.504C93.4269 7.264 93.5709 7.072 93.6669 6.88C93.7629 6.736 93.8109 6.64 93.8109 6.496C94.0029 5.968 94.0989 5.44 94.4349 4.96C94.5309 4.864 94.6749 4.72 94.8189 4.576C94.9149 4.528 95.0109 4.528 95.0589 4.528C95.0589 4.624 95.0589 4.72 95.1069 4.816C95.1069 4.816 95.1069 4.864 95.1069 4.912ZM94.5309 5.68C94.4829 5.728 94.3389 5.68 94.3389 5.728C94.1949 5.824 94.1469 5.968 94.1949 6.208C94.3389 6.016 94.3869 5.824 94.5309 5.68C94.5309 5.776 94.5309 5.824 94.5309 5.872C94.9149 5.68 95.0589 5.44 94.9149 5.104C94.7709 5.296 94.6749 5.488 94.5309 5.68ZM94.4829 22.384C94.3389 22.912 94.1949 23.344 94.0989 23.92C95.0589 24.16 95.9709 24.4 96.9789 24.64C96.9789 23.968 95.8269 18.304 95.5869 17.824C95.2509 19.456 95.0589 20.944 94.6749 22.48C94.5789 22.432 94.5309 22.384 94.4829 22.384ZM100.195 25.504C99.5709 22.576 98.8989 19.648 98.3709 16.768C98.2749 16.912 98.2749 17.056 98.3229 17.152C98.4669 18.256 98.6109 19.36 98.7069 20.416C98.7069 20.464 98.7069 20.464 98.7549 20.464C98.7549 20.416 98.8029 20.32 98.8029 20.224C98.9949 20.944 99.0909 21.664 99.3789 22.336C99.4749 22.72 99.5229 23.152 99.5709 23.488C99.6669 24.112 99.8109 24.832 99.9069 25.504C100.003 25.504 100.099 25.504 100.195 25.504ZM103.171 35.584C103.171 35.104 102.067 29.344 101.923 28.96C101.875 29.008 101.875 29.008 101.875 29.056C101.923 29.536 101.923 30.064 102.019 30.496C102.211 31.36 102.355 32.272 102.547 33.184C102.739 33.904 102.883 34.624 103.027 35.344C103.075 35.44 103.027 35.584 103.171 35.584ZM100.915 29.536C100.915 29.536 100.915 29.536 100.867 29.536C101.155 30.976 101.395 32.272 101.683 33.712C101.827 33.712 101.875 33.664 101.971 33.616C101.827 32.704 101.635 31.84 101.443 30.976C101.443 30.88 101.443 30.784 101.395 30.784C101.251 30.784 101.299 30.592 101.251 30.496C101.107 30.208 101.011 29.872 100.915 29.536ZM91.6989 32.176C91.7469 32.176 91.7469 32.224 91.7949 32.224C92.1789 30.976 92.6109 29.68 93.0429 28.48C92.9469 28.432 92.8989 28.384 92.8509 28.384C92.8029 28.336 92.7549 28.336 92.7069 28.288C92.3229 29.584 92.0349 30.88 91.6989 32.176ZM100.531 35.68H100.483C100.483 35.92 100.531 36.16 100.579 36.4C100.579 36.4 100.627 36.4 100.675 36.4C100.627 36.112 100.579 35.92 100.531 35.68ZM97.0269 29.152C97.2669 29.296 97.4589 29.392 97.7949 29.344C97.5549 29.2 97.2669 29.152 97.0269 29.152ZM98.8509 20.848C98.8029 20.848 98.8029 20.848 98.8029 20.848C98.8029 20.992 98.8029 21.136 98.8029 21.28C98.8029 21.28 98.8029 21.28 98.8509 21.28C98.8509 21.136 98.8509 20.992 98.8509 20.848ZM97.6989 5.968C98.2269 6.88 98.4669 7.888 98.7069 8.896H98.6589C98.3229 7.936 97.9389 6.976 97.6509 5.968C97.6509 5.968 97.6509 5.968 97.6989 5.968ZM122.519 31.6H122.423L121.991 33.712C121.799 34.528 121.607 35.344 121.319 36.16C121.031 36.832 120.647 37.36 120.119 37.792L119.591 38.416C119.447 38.656 119.255 38.992 119.015 39.232C118.679 39.664 118.151 40 117.623 40.192C116.903 40.432 116.231 40.624 115.559 40.816C114.887 41.008 114.263 40.816 113.735 40.432C113.207 40 112.823 39.52 112.439 38.944C112.295 38.656 112.007 38.416 111.719 38.032C111.671 38.176 111.623 38.224 111.623 38.272C111.623 38.272 111.575 38.272 111.527 38.272C111.383 37.84 111.047 37.456 110.807 36.976C110.087 35.392 109.415 33.712 108.791 32.08C108.359 30.784 108.215 29.488 108.119 28.144C108.071 26.32 108.071 24.448 108.167 22.624C108.215 21.328 108.359 20.08 108.455 18.736C108.551 17.824 108.647 16.912 108.791 16C108.791 15.712 108.935 15.376 108.983 15.04L109.463 12.736C109.511 12.448 109.559 12.208 109.655 11.968C109.751 11.68 109.943 11.488 110.279 11.44C110.423 11.344 110.519 11.296 110.711 11.344C110.663 11.536 110.663 11.824 110.567 11.872C110.471 12.016 110.423 12.208 110.327 12.304C110.471 12.352 110.615 12.256 110.663 12.16L111.335 11.104C111.383 11.056 111.431 11.008 111.479 10.912C111.527 11.056 111.671 11.152 111.671 11.248C111.623 11.344 111.671 11.44 111.719 11.632C111.767 11.872 111.863 12.208 111.671 12.496C111.527 12.688 111.527 12.928 111.479 13.168L111.383 14.8C111.383 15.472 111.383 16.192 111.431 16.816C111.479 17.2 111.383 17.632 111.383 17.968C111.239 18.592 111.191 19.216 111.239 19.84C111.287 20.32 111.239 20.752 111.239 21.232C111.239 21.568 111.287 21.952 111.287 22.24C111.287 23.872 111.239 25.408 111.239 26.944C111.239 27.52 111.287 28.048 111.287 28.624C111.335 28.624 111.335 28.72 111.383 28.768C111.383 28.72 111.383 28.624 111.383 28.624C111.575 26.8 111.527 25.072 111.527 23.296C111.527 22 111.575 20.608 111.671 19.312C111.719 18.208 111.719 17.152 111.911 16.048C111.911 15.952 111.863 15.856 111.863 15.664C111.815 15.52 111.767 15.376 111.815 15.28C111.815 15.088 111.863 14.944 111.911 14.704C111.911 14.56 111.959 14.368 111.959 14.176C112.007 13.312 112.007 12.496 112.007 11.632C112.007 11.44 112.055 11.296 112.055 11.056C112.487 11.104 112.631 11.248 112.679 11.584C112.727 11.872 112.727 12.208 112.727 12.448V12.832L113.063 12.544C113.207 12.256 112.919 12.064 113.015 11.824C113.015 11.776 112.871 11.632 112.823 11.584C112.871 11.44 112.967 11.44 113.111 11.536C113.447 11.824 113.543 12.208 113.543 12.544V12.736C113.495 13.12 113.543 13.408 113.591 13.792C113.735 14.416 113.735 15.088 113.783 15.856C114.071 18.112 114.119 20.416 114.119 22.768C114.119 23.632 114.071 24.448 113.927 25.312C113.927 25.504 113.927 25.648 113.927 25.84C114.023 26.944 114.119 28.048 114.167 29.152C114.263 30.4 114.311 31.504 114.647 32.656C114.743 33.136 114.935 33.52 115.031 33.904C115.079 34 115.127 34.096 115.175 34.096C115.223 34 115.319 33.904 115.367 33.76C115.751 32.56 116.039 31.36 116.279 30.064C116.759 28.048 117.143 26.032 117.575 24.064C117.623 23.872 117.671 23.632 117.767 23.44C117.863 23.344 117.911 23.248 117.911 23.152C118.295 21.664 118.679 20.272 118.871 18.736C118.919 18.736 118.871 18.64 118.823 18.592C118.727 18.928 118.679 19.312 118.487 19.648C118.487 19.648 118.487 19.648 118.439 19.648V19.504C118.775 17.68 119.207 15.856 119.975 14.128C120.263 13.552 120.503 12.976 120.983 12.448C121.127 12.304 121.223 12.16 121.319 12.016C121.415 11.728 121.463 11.44 121.415 11.248C121.415 10.864 121.415 10.528 121.415 10.192C121.559 10.192 121.751 10.24 121.895 10.336C121.943 10.192 121.943 10 121.943 9.808C122.135 10 122.375 10.096 122.423 10.384C122.471 10.48 122.567 10.528 122.663 10.624C122.903 10.528 123.047 10.192 123.383 10.24L123.767 10.672C124.151 10.192 124.199 10.192 124.775 10.48L125.159 10.816C125.351 10.864 125.495 10.864 125.639 10.912C126.023 11.104 126.311 11.44 126.407 11.872C126.551 12.64 126.743 13.36 126.887 14.128L127.367 18.112C127.463 18.832 127.559 19.552 127.607 20.32C127.703 20.56 127.799 20.896 127.799 21.184C127.799 21.232 127.799 21.28 127.799 21.28C128.135 21.376 128.039 21.664 128.087 21.904C128.279 23.44 128.423 24.976 128.567 26.464C128.711 28 128.855 29.536 129.047 31.168C129.047 31.408 129.047 31.744 128.999 32.08C128.999 32.272 128.999 32.56 129.143 32.8C129.191 32.848 129.191 32.944 129.191 33.04C129.239 33.664 129.335 34.288 129.383 35.008L129.239 34.816C129.239 35.68 129.239 36.448 129.431 37.168L129.479 36.592C129.479 36.592 129.479 36.592 129.527 36.592C129.575 37.552 129.623 38.608 129.671 39.568C129.671 39.856 129.623 40.096 129.335 40.288C129.191 40.096 129.239 39.856 129.239 39.664L129.383 38.464C129.431 38.416 129.383 38.368 129.383 38.272L129.047 39.088L128.135 38.896C128.231 39.328 128.327 39.712 128.327 40.096C128.423 40.624 128.519 41.152 128.519 41.632C128.519 41.728 128.471 41.872 128.375 41.92L126.599 42.784C126.503 42.4 126.455 42.064 126.311 41.632L125.975 42.016L125.735 41.92C125.687 42.064 125.687 42.16 125.591 42.304L125.399 41.92H125.063C124.871 41.728 124.919 41.44 124.823 41.2H124.631C124.295 41.2 124.151 41.008 124.055 40.72C123.959 40.48 123.959 40.192 123.911 39.904C123.767 38.752 123.767 37.648 123.767 36.496C123.815 35.296 123.815 34.096 123.911 32.896C123.911 32.272 123.815 31.648 123.767 31.024L123.527 28.24L123.383 27.376C123.287 27.856 123.143 28.432 123.191 28.912C123.239 29.344 123.239 29.68 123.239 30.064C123.287 30.64 123.239 31.264 123.287 31.84C123.287 32.032 123.335 32.176 123.383 32.32C123.527 32.992 123.575 33.616 123.479 34.24C123.383 34.816 123.335 35.392 123.239 35.92C123.191 35.68 123.191 35.344 123.191 35.008C123.143 34.672 123.095 34.336 123.047 34.048L122.855 35.104H122.807L122.519 31.6ZM121.463 12.88C121.463 12.688 121.655 12.448 121.511 12.208C121.031 12.736 120.215 14.368 120.119 15.136C120.551 14.368 121.031 13.648 121.511 12.88C121.415 13.072 121.415 13.216 121.319 13.36C120.887 14.032 120.551 14.848 120.359 15.664C120.119 16.624 119.831 17.584 119.735 18.592V18.832L119.927 18.544C119.735 19.696 119.591 20.944 119.591 22.144L119.735 22.048C119.735 22.192 119.735 22.24 119.687 22.24C119.495 23.584 119.303 24.976 119.015 26.224L118.055 31.36C117.815 32.416 117.575 33.424 117.095 34.384C116.903 34.816 116.663 35.2 116.471 35.68C116.231 36.16 116.231 36.16 116.663 36.64L116.807 36.784C116.855 36.688 116.999 36.64 117.095 36.544C117.191 36.448 117.287 36.256 117.335 36.112C117.575 35.536 117.767 34.864 117.911 34.24C117.911 34.192 117.863 34.144 117.863 34.144C117.767 34.144 117.671 34.144 117.479 34.192C118.007 33.136 118.391 32.032 118.679 30.832C118.487 31.072 118.487 31.36 118.103 31.6C118.247 31.12 118.343 30.64 118.439 30.256L119.591 24.208L120.119 21.088C120.263 20.32 120.359 19.552 120.503 18.736C120.599 17.68 120.647 16.624 120.983 15.568C121.223 14.752 121.271 13.888 121.559 13.12C121.607 12.976 121.559 12.928 121.463 12.88ZM124.679 40.096L124.871 40.864C125.063 40.768 125.207 40.624 125.159 40.48C125.015 40 125.015 39.52 124.919 38.992L124.679 35.872L124.295 31.36C124.247 30.448 124.151 29.632 124.007 28.768C123.767 29.152 123.767 29.2 123.767 29.536C123.815 30.208 123.911 30.928 123.959 31.648C124.055 32.704 124.151 33.76 124.151 34.816L124.391 37.696C124.439 38.032 124.343 38.416 124.487 38.704C124.679 39.184 124.679 39.568 124.679 40.096ZM113.015 31.504L113.159 31.936C113.159 32.032 113.207 32.08 113.159 32.128C113.015 32.464 113.111 32.8 113.207 33.136C113.351 33.328 113.447 33.568 113.591 33.808C113.735 34.096 113.735 34.336 113.591 34.624C113.543 34.672 113.543 34.768 113.543 34.816C113.735 35.2 113.879 35.632 114.071 36.064L114.407 35.728C114.551 35.536 114.551 35.392 114.455 35.152C114.215 34.816 114.023 34.336 113.831 33.904L113.255 31.984C113.207 31.792 113.255 31.6 113.015 31.504ZM126.167 39.52L125.687 38.752C125.639 39.52 125.831 40.288 126.215 41.008C126.263 40.816 126.311 40.624 126.311 40.48C126.311 40.288 126.311 40 126.263 39.76C126.263 39.664 126.263 39.568 126.167 39.52ZM112.151 31.984C112.295 33.136 112.439 34.192 113.063 35.152C112.823 34.096 112.679 32.992 112.151 31.984ZM125.159 33.712H125.207L125.063 31.6C124.823 31.648 124.871 31.792 124.871 31.936C124.967 32.512 125.063 33.136 125.159 33.712ZM116.087 37.36L115.751 37.024C115.559 37.168 115.463 37.36 115.367 37.552C115.607 37.648 115.799 37.6 116.087 37.36ZM121.655 15.232H121.559C121.415 15.712 121.367 16.192 121.223 16.672C121.511 16.192 121.655 15.76 121.655 15.232ZM118.823 33.376C118.679 33.712 118.679 34.096 118.631 34.48C118.871 34.144 118.823 33.76 118.823 33.376ZM125.495 11.248C125.543 11.776 125.543 11.776 125.783 11.776C125.735 11.392 125.735 11.392 125.495 11.248ZM122.039 14.272C122.087 14.272 122.135 14.272 122.135 14.272L122.183 13.456C121.943 13.84 121.943 13.84 122.039 14.272ZM122.375 13.504C122.423 13.36 122.423 13.264 122.471 13.168C122.471 13.12 122.423 13.12 122.375 13.12C122.327 13.216 122.327 13.312 122.375 13.504ZM129.431 35.536V35.824C129.431 35.728 129.431 35.632 129.431 35.536ZM140.982 13.648L140.934 13.408C141.462 12.976 141.99 12.736 142.614 12.784C143.334 12.832 143.958 13.024 144.534 13.312C144.774 13.504 145.062 13.648 145.302 13.792C145.398 13.6 145.398 13.408 145.398 13.264C145.398 12.544 145.494 11.872 145.734 11.248L145.926 10.816C146.07 10.864 146.118 10.912 146.214 10.96C146.214 10.912 146.262 10.912 146.31 10.912C146.358 10.72 146.454 10.72 146.55 10.864C146.646 10.96 146.694 11.104 146.742 11.248C146.79 11.296 146.838 11.344 146.886 11.44C147.366 11.296 147.414 11.296 147.558 11.872L147.846 11.824C148.038 12.112 147.894 12.4 147.942 12.688C148.086 12.736 148.23 12.736 148.374 12.832C148.422 12.928 148.422 13.12 148.47 13.168L148.902 17.68C148.95 17.92 148.95 18.208 149.286 18.544L149.046 15.76C148.95 14.896 148.95 13.984 148.71 13.072C148.854 13.12 148.95 13.264 148.95 13.408C149.046 13.888 149.142 14.32 149.19 14.752C149.382 16 149.526 17.296 149.718 18.592C149.862 19.984 150.006 21.424 150.15 22.912C150.438 25.168 150.582 27.52 150.63 29.776C150.63 30.832 150.63 31.936 150.63 32.992C150.63 33.472 150.582 33.904 150.582 34.384C150.534 34.816 150.582 35.2 150.582 35.632C150.582 37.024 150.534 38.464 150.294 39.856C150.054 41.056 149.574 42.112 148.758 43.024C148.23 43.504 147.75 44.08 147.318 44.656C147.03 45.04 146.694 45.376 146.358 45.712C145.638 46.432 144.774 46.864 143.766 47.008C143.622 47.056 143.478 47.152 143.334 47.2C142.758 47.536 142.23 47.68 141.558 47.392C141.558 47.392 141.558 47.392 141.462 47.296C142.086 47.392 142.662 47.392 143.238 47.056L142.47 46.768C142.47 46.768 142.47 46.72 142.47 46.672C142.71 46.768 142.95 46.816 143.19 46.864C143.526 46.912 143.862 46.864 144.15 46.48H143.91C143.478 46.528 143.142 46.48 142.758 46.384C142.662 46.336 142.518 46.384 142.422 46.384C142.23 46.432 142.038 46.48 141.846 46.48C141.51 46.384 141.174 46.576 140.838 46.672C140.934 46.864 141.03 46.96 141.174 47.104H140.166C140.598 47.392 141.03 47.488 141.462 47.68C140.934 47.632 140.502 47.584 140.022 47.296C139.782 47.104 139.494 46.96 139.158 46.864C138.006 46.432 137.094 45.76 136.278 44.896C136.038 44.608 135.75 44.272 135.51 44.032C135.318 43.84 135.27 43.6 135.174 43.36L134.982 43.024C134.742 42.784 134.598 42.496 134.55 42.208C134.502 41.92 134.31 41.68 134.214 41.392C134.022 41.008 134.022 40.96 134.358 40.624L134.502 40.48C134.742 40.096 134.934 40 135.414 40.192L135.174 40.624C135.462 40.48 135.702 40.432 135.846 40.144C136.038 39.856 136.182 39.808 136.662 40C136.71 39.952 136.758 39.904 136.758 39.904C136.95 39.568 137.286 39.424 137.622 39.568H137.67C137.67 39.856 138.006 39.712 138.15 40C138.006 40.288 138.15 40.48 138.39 40.672C138.87 41.152 139.398 41.536 139.926 41.92C140.262 42.112 140.694 42.304 141.078 42.4C141.174 42.448 141.318 42.448 141.414 42.448C140.598 41.92 139.686 41.392 138.918 40.624L138.966 41.008C138.534 40.624 138.39 40.384 138.774 40C138.774 40.192 138.822 40.384 139.062 40.384C139.11 40.384 139.158 40.48 139.206 40.48C139.926 41.152 140.79 41.584 141.654 42.064C141.654 42.112 141.75 42.112 141.846 42.112C143.142 40.816 143.718 39.328 144.006 37.552C143.91 37.552 143.862 37.552 143.862 37.552C143.19 38.032 142.422 38.128 141.606 38.224L140.262 38.32C139.686 38.416 139.11 38.32 138.582 38.08C138.006 37.888 137.478 37.552 136.998 37.168C135.174 35.68 133.83 33.808 133.206 31.504C132.774 29.92 132.39 28.336 132.534 26.656L132.87 24.4C132.918 24.256 132.918 24.16 132.918 24.064C132.87 23.44 132.966 22.912 133.11 22.336C134.022 19.504 135.222 16.768 137.046 14.416C137.622 13.744 138.198 13.12 138.918 12.64C139.446 12.352 139.974 12.352 140.55 12.448C139.83 12.784 139.206 13.072 138.63 13.456C138.006 13.888 137.622 14.464 137.238 15.088C137.286 15.136 137.382 15.184 137.526 15.28C137.334 15.52 137.142 15.76 136.998 15.904C136.422 16.624 136.038 17.344 135.606 18.112C135.414 18.496 135.222 18.832 135.03 19.216C134.742 19.696 134.502 20.368 134.262 20.944C134.214 20.992 134.214 21.136 134.262 21.136C134.406 21.328 134.262 21.472 134.262 21.616C134.214 21.712 133.974 21.616 134.022 21.856C134.022 21.952 134.022 22.096 134.022 22.24V22.672C134.214 22.384 134.262 22.048 134.454 21.808C134.262 22.288 134.118 22.816 133.974 23.344C133.734 24.112 133.446 24.928 133.302 25.696C133.254 26.32 133.302 26.944 133.302 27.712C133.302 27.712 133.35 27.76 133.302 27.856C133.302 27.76 133.254 27.712 133.11 27.568C133.11 28.24 133.158 28.768 133.398 29.344C133.398 29.248 133.398 29.152 133.446 28.96C133.446 28.96 133.542 28.864 133.542 28.816C133.59 28.672 133.59 28.576 133.59 28.432C133.542 26.8 133.83 25.264 134.358 23.776C135.174 21.52 136.086 19.36 137.238 17.296C137.67 16.48 138.15 15.76 138.774 15.04C139.158 14.56 139.686 14.08 140.31 13.84C140.502 13.744 140.742 13.696 140.982 13.648ZM140.454 32.848C140.934 32.416 141.318 32.032 141.654 31.504L142.422 30.352C143.142 29.248 143.862 28.144 144.39 26.944C144.486 26.752 144.582 26.512 144.582 26.272C144.63 25.312 144.63 24.352 144.726 23.344L144.966 19.504C144.966 18.448 144.966 18.448 144.102 17.728C143.622 17.392 143.718 17.296 143.142 17.68C142.182 18.304 141.414 19.072 140.79 20.032C139.686 21.856 138.822 23.872 138.39 25.984C138.198 26.944 138.054 27.952 138.198 28.96C138.198 29.296 138.198 29.536 138.342 29.824C138.582 30.496 138.918 31.168 139.35 31.744C139.686 32.176 139.974 32.56 140.454 32.848ZM147.318 23.152C147.318 24.064 147.174 25.024 147.222 25.984C147.462 25.984 147.462 25.888 147.51 25.792C147.51 25.36 147.51 24.976 147.51 24.592C147.654 24.064 147.414 23.68 147.318 23.152ZM145.878 45.376L145.494 45.616C145.254 45.856 144.966 46.048 144.678 46.192C144.39 46.336 144.246 46.528 144.054 46.816C144.822 46.576 145.398 46.048 145.878 45.376ZM142.566 31.84C142.086 32.128 141.222 33.04 141.126 33.28L141.174 33.328C141.27 33.328 141.318 33.28 141.366 33.232C141.846 32.8 142.23 32.32 142.566 31.84ZM142.71 43.552L143.142 43.744L144.054 42.832L143.958 42.736C143.43 42.832 143.19 43.312 142.71 43.552ZM144.726 14.992L145.206 15.664C145.206 15.424 145.254 15.232 145.254 15.04C145.062 14.944 144.918 14.944 144.726 14.992ZM138.918 45.856C139.206 46.048 139.494 46.144 139.83 46.192C139.59 46.048 139.302 45.808 138.918 45.856ZM147.606 14.944L147.75 13.84H147.654C147.558 14.176 147.606 14.56 147.606 14.944ZM143.478 15.328C143.478 15.376 143.478 15.424 143.43 15.424C143.478 15.52 143.622 15.664 143.862 15.664C143.718 15.472 143.622 15.424 143.478 15.328ZM144.438 42.112L144.582 41.92C144.582 41.92 144.582 41.92 144.534 41.872L144.39 42.064C144.39 42.112 144.438 42.112 144.438 42.112ZM168.644 31.6H168.548L168.116 33.712C167.924 34.528 167.732 35.344 167.444 36.16C167.156 36.832 166.772 37.36 166.244 37.792L165.716 38.416C165.572 38.656 165.38 38.992 165.14 39.232C164.804 39.664 164.276 40 163.748 40.192C163.028 40.432 162.356 40.624 161.684 40.816C161.012 41.008 160.388 40.816 159.86 40.432C159.332 40 158.948 39.52 158.564 38.944C158.42 38.656 158.132 38.416 157.844 38.032C157.796 38.176 157.748 38.224 157.748 38.272C157.748 38.272 157.7 38.272 157.652 38.272C157.508 37.84 157.172 37.456 156.932 36.976C156.212 35.392 155.54 33.712 154.916 32.08C154.484 30.784 154.34 29.488 154.244 28.144C154.196 26.32 154.196 24.448 154.292 22.624C154.34 21.328 154.484 20.08 154.58 18.736C154.676 17.824 154.772 16.912 154.916 16C154.916 15.712 155.06 15.376 155.108 15.04L155.588 12.736C155.636 12.448 155.684 12.208 155.78 11.968C155.876 11.68 156.068 11.488 156.404 11.44C156.548 11.344 156.644 11.296 156.836 11.344C156.788 11.536 156.788 11.824 156.692 11.872C156.596 12.016 156.548 12.208 156.452 12.304C156.596 12.352 156.74 12.256 156.788 12.16L157.46 11.104C157.508 11.056 157.556 11.008 157.604 10.912C157.652 11.056 157.796 11.152 157.796 11.248C157.748 11.344 157.796 11.44 157.844 11.632C157.892 11.872 157.988 12.208 157.796 12.496C157.652 12.688 157.652 12.928 157.604 13.168L157.508 14.8C157.508 15.472 157.508 16.192 157.556 16.816C157.604 17.2 157.508 17.632 157.508 17.968C157.364 18.592 157.316 19.216 157.364 19.84C157.412 20.32 157.364 20.752 157.364 21.232C157.364 21.568 157.412 21.952 157.412 22.24C157.412 23.872 157.364 25.408 157.364 26.944C157.364 27.52 157.412 28.048 157.412 28.624C157.46 28.624 157.46 28.72 157.508 28.768C157.508 28.72 157.508 28.624 157.508 28.624C157.7 26.8 157.652 25.072 157.652 23.296C157.652 22 157.7 20.608 157.796 19.312C157.844 18.208 157.844 17.152 158.036 16.048C158.036 15.952 157.988 15.856 157.988 15.664C157.94 15.52 157.892 15.376 157.94 15.28C157.94 15.088 157.988 14.944 158.036 14.704C158.036 14.56 158.084 14.368 158.084 14.176C158.132 13.312 158.132 12.496 158.132 11.632C158.132 11.44 158.18 11.296 158.18 11.056C158.612 11.104 158.756 11.248 158.804 11.584C158.852 11.872 158.852 12.208 158.852 12.448V12.832L159.188 12.544C159.332 12.256 159.044 12.064 159.14 11.824C159.14 11.776 158.996 11.632 158.948 11.584C158.996 11.44 159.092 11.44 159.236 11.536C159.572 11.824 159.668 12.208 159.668 12.544V12.736C159.62 13.12 159.668 13.408 159.716 13.792C159.86 14.416 159.86 15.088 159.908 15.856C160.196 18.112 160.244 20.416 160.244 22.768C160.244 23.632 160.196 24.448 160.052 25.312C160.052 25.504 160.052 25.648 160.052 25.84C160.148 26.944 160.244 28.048 160.292 29.152C160.388 30.4 160.436 31.504 160.772 32.656C160.868 33.136 161.06 33.52 161.156 33.904C161.204 34 161.252 34.096 161.3 34.096C161.348 34 161.444 33.904 161.492 33.76C161.876 32.56 162.164 31.36 162.404 30.064C162.884 28.048 163.268 26.032 163.7 24.064C163.748 23.872 163.796 23.632 163.892 23.44C163.988 23.344 164.036 23.248 164.036 23.152C164.42 21.664 164.804 20.272 164.996 18.736C165.044 18.736 164.996 18.64 164.948 18.592C164.852 18.928 164.804 19.312 164.612 19.648C164.612 19.648 164.612 19.648 164.564 19.648V19.504C164.9 17.68 165.332 15.856 166.1 14.128C166.388 13.552 166.628 12.976 167.108 12.448C167.252 12.304 167.348 12.16 167.444 12.016C167.54 11.728 167.588 11.44 167.54 11.248C167.54 10.864 167.54 10.528 167.54 10.192C167.684 10.192 167.876 10.24 168.02 10.336C168.068 10.192 168.068 10 168.068 9.808C168.26 10 168.5 10.096 168.548 10.384C168.596 10.48 168.692 10.528 168.788 10.624C169.028 10.528 169.172 10.192 169.508 10.24L169.892 10.672C170.276 10.192 170.324 10.192 170.9 10.48L171.284 10.816C171.476 10.864 171.62 10.864 171.764 10.912C172.148 11.104 172.436 11.44 172.532 11.872C172.676 12.64 172.868 13.36 173.012 14.128L173.492 18.112C173.588 18.832 173.684 19.552 173.732 20.32C173.828 20.56 173.924 20.896 173.924 21.184C173.924 21.232 173.924 21.28 173.924 21.28C174.26 21.376 174.164 21.664 174.212 21.904C174.404 23.44 174.548 24.976 174.692 26.464C174.836 28 174.98 29.536 175.172 31.168C175.172 31.408 175.172 31.744 175.124 32.08C175.124 32.272 175.124 32.56 175.268 32.8C175.316 32.848 175.316 32.944 175.316 33.04C175.364 33.664 175.46 34.288 175.508 35.008L175.364 34.816C175.364 35.68 175.364 36.448 175.556 37.168L175.604 36.592C175.604 36.592 175.604 36.592 175.652 36.592C175.7 37.552 175.748 38.608 175.796 39.568C175.796 39.856 175.748 40.096 175.46 40.288C175.316 40.096 175.364 39.856 175.364 39.664L175.508 38.464C175.556 38.416 175.508 38.368 175.508 38.272L175.172 39.088L174.26 38.896C174.356 39.328 174.452 39.712 174.452 40.096C174.548 40.624 174.644 41.152 174.644 41.632C174.644 41.728 174.596 41.872 174.5 41.92L172.724 42.784C172.628 42.4 172.58 42.064 172.436 41.632L172.1 42.016L171.86 41.92C171.812 42.064 171.812 42.16 171.716 42.304L171.524 41.92H171.188C170.996 41.728 171.044 41.44 170.948 41.2H170.756C170.42 41.2 170.276 41.008 170.18 40.72C170.084 40.48 170.084 40.192 170.036 39.904C169.892 38.752 169.892 37.648 169.892 36.496C169.94 35.296 169.94 34.096 170.036 32.896C170.036 32.272 169.94 31.648 169.892 31.024L169.652 28.24L169.508 27.376C169.412 27.856 169.268 28.432 169.316 28.912C169.364 29.344 169.364 29.68 169.364 30.064C169.412 30.64 169.364 31.264 169.412 31.84C169.412 32.032 169.46 32.176 169.508 32.32C169.652 32.992 169.7 33.616 169.604 34.24C169.508 34.816 169.46 35.392 169.364 35.92C169.316 35.68 169.316 35.344 169.316 35.008C169.268 34.672 169.22 34.336 169.172 34.048L168.98 35.104H168.932L168.644 31.6ZM167.588 12.88C167.588 12.688 167.78 12.448 167.636 12.208C167.156 12.736 166.34 14.368 166.244 15.136C166.676 14.368 167.156 13.648 167.636 12.88C167.54 13.072 167.54 13.216 167.444 13.36C167.012 14.032 166.676 14.848 166.484 15.664C166.244 16.624 165.956 17.584 165.86 18.592V18.832L166.052 18.544C165.86 19.696 165.716 20.944 165.716 22.144L165.86 22.048C165.86 22.192 165.86 22.24 165.812 22.24C165.62 23.584 165.428 24.976 165.14 26.224L164.18 31.36C163.94 32.416 163.7 33.424 163.22 34.384C163.028 34.816 162.788 35.2 162.596 35.68C162.356 36.16 162.356 36.16 162.788 36.64L162.932 36.784C162.98 36.688 163.124 36.64 163.22 36.544C163.316 36.448 163.412 36.256 163.46 36.112C163.7 35.536 163.892 34.864 164.036 34.24C164.036 34.192 163.988 34.144 163.988 34.144C163.892 34.144 163.796 34.144 163.604 34.192C164.132 33.136 164.516 32.032 164.804 30.832C164.612 31.072 164.612 31.36 164.228 31.6C164.372 31.12 164.468 30.64 164.564 30.256L165.716 24.208L166.244 21.088C166.388 20.32 166.484 19.552 166.628 18.736C166.724 17.68 166.772 16.624 167.108 15.568C167.348 14.752 167.396 13.888 167.684 13.12C167.732 12.976 167.684 12.928 167.588 12.88ZM170.804 40.096L170.996 40.864C171.188 40.768 171.332 40.624 171.284 40.48C171.14 40 171.14 39.52 171.044 38.992L170.804 35.872L170.42 31.36C170.372 30.448 170.276 29.632 170.132 28.768C169.892 29.152 169.892 29.2 169.892 29.536C169.94 30.208 170.036 30.928 170.084 31.648C170.18 32.704 170.276 33.76 170.276 34.816L170.516 37.696C170.564 38.032 170.468 38.416 170.612 38.704C170.804 39.184 170.804 39.568 170.804 40.096ZM159.14 31.504L159.284 31.936C159.284 32.032 159.332 32.08 159.284 32.128C159.14 32.464 159.236 32.8 159.332 33.136C159.476 33.328 159.572 33.568 159.716 33.808C159.86 34.096 159.86 34.336 159.716 34.624C159.668 34.672 159.668 34.768 159.668 34.816C159.86 35.2 160.004 35.632 160.196 36.064L160.532 35.728C160.676 35.536 160.676 35.392 160.58 35.152C160.34 34.816 160.148 34.336 159.956 33.904L159.38 31.984C159.332 31.792 159.38 31.6 159.14 31.504ZM172.292 39.52L171.812 38.752C171.764 39.52 171.956 40.288 172.34 41.008C172.388 40.816 172.436 40.624 172.436 40.48C172.436 40.288 172.436 40 172.388 39.76C172.388 39.664 172.388 39.568 172.292 39.52ZM158.276 31.984C158.42 33.136 158.564 34.192 159.188 35.152C158.948 34.096 158.804 32.992 158.276 31.984ZM171.284 33.712H171.332L171.188 31.6C170.948 31.648 170.996 31.792 170.996 31.936C171.092 32.512 171.188 33.136 171.284 33.712ZM162.212 37.36L161.876 37.024C161.684 37.168 161.588 37.36 161.492 37.552C161.732 37.648 161.924 37.6 162.212 37.36ZM167.78 15.232H167.684C167.54 15.712 167.492 16.192 167.348 16.672C167.636 16.192 167.78 15.76 167.78 15.232ZM164.948 33.376C164.804 33.712 164.804 34.096 164.756 34.48C164.996 34.144 164.948 33.76 164.948 33.376ZM171.62 11.248C171.668 11.776 171.668 11.776 171.908 11.776C171.86 11.392 171.86 11.392 171.62 11.248ZM168.164 14.272C168.212 14.272 168.26 14.272 168.26 14.272L168.308 13.456C168.068 13.84 168.068 13.84 168.164 14.272ZM168.5 13.504C168.548 13.36 168.548 13.264 168.596 13.168C168.596 13.12 168.548 13.12 168.5 13.12C168.452 13.216 168.452 13.312 168.5 13.504ZM175.556 35.536V35.824C175.556 35.728 175.556 35.632 175.556 35.536ZM195.411 35.536C195.267 36.352 194.931 36.976 194.355 37.6C194.067 37.888 193.731 38.176 193.395 38.512C193.251 38.656 193.203 38.704 193.155 38.896C193.059 39.376 192.819 39.712 192.387 40C191.811 40.384 191.235 40.624 190.515 40.816C189.747 41.008 188.979 41.008 188.211 40.72C188.163 40.672 188.115 40.672 188.067 40.672C187.587 40.624 187.011 40.624 186.483 40.624C186.579 40.912 186.819 41.008 187.059 41.296C186.771 41.2 186.627 41.152 186.387 41.056C185.907 40.864 185.523 40.624 185.043 40.48C184.947 40.432 184.707 40.336 184.755 40.096C184.515 39.808 184.323 39.52 184.083 39.376C183.171 38.8 182.451 38.224 181.779 37.504C181.347 37.072 181.107 36.544 180.819 36.016C180.099 34.576 179.475 33.088 178.995 31.504C178.803 30.736 178.611 29.968 178.419 29.152C178.371 29.008 178.371 28.864 178.371 28.672C178.371 28.432 178.371 28.384 178.659 28.384C178.755 28.192 178.803 28 178.851 27.856C179.043 27.856 179.187 27.952 179.139 28.144C178.995 28.624 179.379 28.96 179.523 29.488C179.907 29.056 180.291 28.672 180.627 28.336C180.819 28.96 181.059 29.632 181.251 30.4C181.491 30.208 181.683 30.064 181.875 29.872C181.587 29.008 181.299 28.24 181.299 27.328C181.539 27.328 181.779 27.328 182.115 27.328C182.211 28 182.307 28.672 182.451 29.392C182.787 29.248 182.787 29.248 182.691 28.96C182.643 28.72 182.547 28.528 182.451 28.288C182.403 28.096 182.403 27.904 182.499 27.712C182.595 27.952 182.643 28.144 182.691 28.384C182.787 28.624 182.835 28.768 182.931 29.008C183.075 28.96 183.027 28.864 183.027 28.768C182.835 28.336 182.691 27.856 182.643 27.424C182.931 27.328 182.931 27.328 183.315 27.472C183.363 27.664 183.411 27.808 183.555 28C183.603 28.192 183.795 28.336 183.843 28.528C183.939 28.72 184.035 28.864 184.227 29.008C184.275 29.056 184.323 29.152 184.371 29.248C184.851 30.4 185.187 31.504 185.427 32.656C185.427 32.752 185.427 32.8 185.475 32.848C185.811 33.28 185.907 33.808 186.147 34.24C186.291 34.624 186.531 34.912 186.819 35.104C187.347 35.536 187.923 35.824 188.595 35.968C188.643 35.824 188.691 35.68 188.691 35.488C188.931 34.336 188.835 33.184 188.595 32.08C188.451 31.216 188.211 30.4 187.779 29.536C187.587 29.056 187.203 28.624 186.819 28.24C186.771 28.096 186.675 28.048 186.675 27.856C186.723 27.76 186.627 27.712 186.483 27.616C185.571 26.8 184.947 25.696 184.275 24.736C184.227 24.64 184.179 24.592 184.131 24.496C183.939 23.968 183.939 23.968 183.363 23.536C183.459 23.728 183.555 23.92 183.603 24.064C183.747 24.256 183.795 24.448 183.939 24.688C183.363 24.208 181.827 21.28 181.731 20.416C181.971 20.32 181.971 20.08 181.923 19.84C181.779 19.504 181.731 19.168 181.683 18.736C181.491 18.976 181.587 19.312 181.299 19.504C181.299 19.456 181.251 19.408 181.251 19.312C181.155 18.688 180.819 18.112 180.819 17.44C180.963 17.68 181.011 17.872 181.059 18.112C181.107 18.112 181.155 18.112 181.155 18.112C181.155 17.824 181.155 17.584 181.107 17.296C181.059 16.864 181.059 16.432 181.203 16C181.203 15.856 181.203 15.76 181.203 15.616C181.203 15.28 181.155 14.944 181.107 14.752C181.059 15.088 181.011 15.568 180.963 16C180.915 16.336 180.915 16.576 180.867 16.912C180.819 16.816 180.819 16.768 180.819 16.768C180.387 14.8 180.435 12.88 181.203 11.008C181.443 10.192 181.923 9.472 182.595 8.848C183.459 8.08 184.467 7.792 185.571 8.176C185.859 8.272 186.099 8.224 186.387 8.224C186.867 8.176 187.395 8.08 187.875 8.08C188.211 8.08 188.499 8.128 188.787 8.224C189.555 8.56 190.419 8.896 191.187 9.28C192.243 9.76 193.011 10.672 193.491 11.728C193.827 12.4 194.067 13.12 194.259 13.84C194.355 14.176 194.499 14.56 194.595 14.896C194.835 15.376 194.835 15.856 194.931 16.432C195.027 16.912 195.027 17.488 195.075 18.016C195.123 18.16 195.027 18.256 195.027 18.4H194.979C194.979 18.208 194.931 18.016 194.883 17.824C194.691 18.016 194.739 18.208 194.691 18.4C194.691 18.64 194.691 18.832 194.595 19.12C194.499 19.264 194.595 19.504 194.643 19.744C194.403 19.84 194.211 19.936 194.067 20.032C193.731 20.224 193.731 20.224 193.779 20.56C193.779 20.608 193.779 20.656 193.779 20.752C193.587 20.752 193.443 20.8 193.299 20.848C192.915 20.896 192.483 20.944 192.147 21.04C191.811 21.088 191.763 21.088 191.667 20.752C191.523 20.416 191.331 19.936 191.235 19.504C191.187 19.456 191.139 19.36 191.091 19.264C190.851 19.264 190.659 19.12 190.659 18.832C190.611 18.592 190.515 18.352 190.467 18.064C190.323 18.016 190.323 18.304 190.131 18.16C189.843 18.208 189.795 17.968 189.747 17.776C189.555 16.912 189.411 16.144 189.171 15.328C188.979 14.656 188.691 13.984 188.499 13.264C188.451 13.12 188.355 12.976 188.115 13.024C188.067 13.024 187.923 12.928 187.827 12.88C187.731 12.784 187.683 12.736 187.539 12.64C187.491 12.832 187.443 12.928 187.395 13.072C187.251 13.312 187.107 13.648 186.915 13.984C186.531 14.608 186.243 15.28 186.099 16.048C186.003 16.48 186.051 16.864 186.195 17.248C186.531 18.544 187.155 19.648 187.827 20.8C188.643 22.192 189.651 23.392 190.659 24.592C191.427 25.648 192.243 26.656 192.819 27.808C192.915 28 192.963 28.192 193.059 28.384C193.107 28.528 193.155 28.672 193.251 28.816C193.731 29.44 194.067 30.112 194.355 30.784C194.499 31.264 194.787 31.696 194.979 32.128C195.363 33.232 195.555 34.336 195.411 35.536ZM188.739 30.592C188.691 30.784 188.739 30.976 188.643 31.072C188.595 31.36 188.595 31.552 188.643 31.84C188.979 33.184 189.171 34.48 189.219 35.92C189.219 35.92 189.219 35.968 189.219 36.064C189.459 36.064 189.603 36.064 189.843 36.064C190.035 35.296 189.987 34.528 189.843 33.76C189.651 32.8 189.363 31.888 189.219 30.976C189.219 30.88 189.219 30.784 189.219 30.736C189.171 30.64 189.075 30.592 189.027 30.544C189.075 31.168 189.219 31.744 189.123 32.368C189.027 31.792 188.883 31.264 188.739 30.592ZM181.251 33.328C181.443 34.432 182.979 36.784 183.795 37.072C183.123 36.448 182.691 35.728 182.355 34.864C182.259 34.72 182.211 34.48 182.115 34.336C181.827 34 181.491 33.616 181.251 33.328ZM187.059 40.288L187.107 40.24C186.819 40 186.627 39.808 186.339 39.616C186.291 39.568 186.243 39.568 186.147 39.568C185.907 39.568 185.667 39.616 185.379 39.664C185.571 39.952 185.763 40.096 186.003 40.144C186.387 40.192 186.771 40.24 187.059 40.288ZM187.347 39.184C187.731 39.472 188.403 39.52 188.691 39.28C188.499 39.184 188.307 39.04 188.067 38.992C187.971 38.944 187.875 38.944 187.779 38.944C187.683 38.992 187.491 39.136 187.347 39.184ZM191.427 9.76C191.379 9.808 191.379 9.808 191.331 9.856C191.523 10.048 191.715 10.192 191.907 10.384C191.955 10.384 191.955 10.384 191.955 10.336C191.763 10.144 191.619 9.952 191.427 9.76ZM180.291 27.712C180.291 27.952 180.243 28.144 180.243 28.384C180.003 28.048 180.003 28 180.291 27.712ZM179.523 28.768C179.475 28.528 179.475 28.432 179.667 28.288C179.715 28.48 179.667 28.624 179.523 28.768ZM202.807 35.92C202.279 35.392 202.039 34.816 201.895 34.144C201.607 33.184 201.559 32.176 201.415 31.168C201.175 28.048 201.175 24.976 201.367 21.856L201.607 19.792C201.703 18.352 201.991 16.864 202.039 15.376C202.039 15.28 202.039 15.088 201.991 14.944C201.943 15.136 201.895 15.376 201.847 15.568H201.799L201.943 14.032L201.559 13.936L199.399 13.552C199.255 13.504 199.015 13.456 198.919 13.216C199.015 13.12 199.063 13.072 199.207 12.976V12.736C198.919 12.688 198.679 12.64 198.439 12.544C198.295 12.544 198.151 12.448 198.247 12.208C198.295 12.016 198.055 12.016 198.007 11.824L198.583 11.488C198.439 11.296 198.055 11.296 197.911 10.912L198.439 10.528H198.631C198.967 10.528 199.303 10.528 199.543 10.48L197.911 10.336C197.911 10.048 197.911 9.808 197.911 9.52C198.103 9.472 198.343 9.472 198.439 9.28C198.583 9.184 198.823 9.184 198.967 9.184H201.943H202.423L202.615 7.888C202.855 6.304 203.047 4.72 203.335 3.088C203.383 2.704 203.479 2.32 203.575 1.984L203.767 1.264C203.863 0.879997 204.199 0.879997 204.535 0.783998C204.631 0.783998 204.727 0.927999 204.823 1.024L204.679 1.168V1.264L205.399 1.168L205.639 1.504L205.831 1.264C205.879 1.264 205.927 1.264 205.927 1.264L206.791 1.888C207.079 2.176 207.223 2.464 207.271 2.8C207.367 3.232 207.463 3.712 207.463 4.144C207.511 4.912 207.511 5.68 207.559 6.448C207.559 7.12 207.511 7.792 207.559 8.56C207.559 8.896 207.559 9.28 207.607 9.616C207.943 9.712 208.231 9.76 208.471 9.808C209.047 9.904 209.575 10 210.151 10.288C210.679 10.528 211.255 10.624 211.927 10.72L213.127 10.912C213.511 11.056 213.895 11.248 214.135 11.44C214.135 11.824 213.895 11.536 213.799 11.584C213.895 11.872 214.231 12.016 214.279 12.352L214.087 12.4L214.423 13.072L213.799 13.648L214.087 13.744C214.087 13.744 214.087 13.792 214.039 13.792L212.983 14.032L212.263 14.08L212.695 14.368C212.503 14.416 212.359 14.56 212.263 14.56C211.975 14.608 211.591 14.752 211.255 14.752C210.247 14.752 209.239 14.8 208.231 14.656C208.039 14.656 207.799 14.656 207.511 14.608L207.415 15.376C207.415 15.424 207.415 15.472 207.415 15.472C207.607 15.664 207.511 15.856 207.511 16C207.511 17.104 207.511 18.208 207.511 19.312C207.511 19.456 207.559 19.552 207.559 19.696C207.607 19.84 207.607 20.032 207.607 20.224L207.511 24.496C207.511 26.464 207.511 28.48 207.607 30.448C207.751 31.696 207.943 32.992 208.087 34.192C208.135 34.432 208.231 34.72 208.327 35.008C208.327 35.056 208.423 35.152 208.519 35.056C208.519 35.008 208.615 35.056 208.663 35.104C208.711 35.248 208.855 35.2 208.999 35.104L209.527 34.432C209.575 34.384 209.575 34.24 209.575 34.192C209.575 34.096 209.527 34.048 209.527 33.904C209.623 33.952 209.671 34.048 209.767 34.096C209.959 33.76 210.199 33.472 209.959 33.04L210.583 33.184C210.823 32.8 211.351 32.56 211.015 31.984C211.159 31.792 211.543 31.696 211.783 31.792C211.975 31.888 212.023 32.08 211.975 32.464L212.455 32.176C212.551 32.08 212.695 32.08 212.887 32.128C213.223 32.272 213.511 32.416 213.751 32.704C213.847 32.848 213.943 32.992 214.087 33.088C214.327 33.28 214.519 33.568 214.519 33.952C214.519 34.096 214.519 34.144 214.567 34.24C214.807 34.624 214.711 34.96 214.519 35.248C213.943 36.016 213.367 36.832 212.647 37.504C212.455 37.648 212.311 37.792 212.167 38.08C212.119 38.272 212.023 38.512 211.927 38.704C211.687 39.088 211.399 39.376 211.015 39.568L208.999 40.48C208.567 40.576 208.231 40.624 207.799 40.48C206.791 40.192 205.783 39.616 204.967 38.944C205.015 38.944 205.159 38.992 205.255 38.992C205.015 38.464 204.583 38.128 204.055 37.84C204.199 38.176 204.487 38.416 204.679 38.704C203.815 38.08 203.239 37.36 202.999 36.352C202.951 36.16 202.999 35.92 202.759 35.92C202.807 35.824 202.903 35.776 202.855 35.728L202.759 34.912L202.615 34.768C202.519 35.008 202.519 35.248 202.663 35.536C202.711 35.632 202.759 35.776 202.807 35.92ZM209.575 38.992C209.767 38.992 209.911 38.8 210.055 38.656C209.815 38.656 209.623 38.656 209.479 38.704C209.335 38.752 209.335 38.8 209.431 38.944C209.191 38.896 209.047 39.04 208.951 39.28C209.239 39.376 209.383 39.28 209.575 38.992ZM201.751 24.064L202.087 26.656C202.087 26.8 202.087 26.944 202.087 27.088C202.087 28.048 202.135 28.96 202.183 29.92C202.231 30.736 202.279 31.504 202.279 32.272L202.327 32.992C202.327 33.136 202.375 33.232 202.471 33.328L202.615 30.448V29.68L202.471 26.8C202.471 25.696 202.471 24.64 202.471 23.584C202.519 22.768 202.471 21.952 202.711 21.184C202.807 20.944 202.855 20.752 202.855 20.512C202.855 20.416 202.855 20.224 202.807 20.176C202.615 19.936 202.615 19.696 202.663 19.504C202.663 18.832 202.711 18.208 202.711 17.536C202.759 17.296 202.807 17.2 202.999 17.152V14.128L202.423 14.032L202.279 15.568C202.279 16.384 202.231 17.248 202.135 18.064C202.135 18.4 202.087 18.688 202.087 19.024C202.087 19.312 202.135 19.504 202.087 19.696C202.087 20.416 201.991 21.088 201.943 21.712H201.895V21.328C201.751 21.712 201.607 22.24 201.511 22.624C201.463 22.768 201.415 22.96 201.415 23.104L201.607 24.4L201.655 24.448C201.655 24.304 201.703 24.208 201.751 24.064ZM203.719 35.728V35.392C203.575 34.336 203.383 33.28 203.383 32.272C203.335 31.264 203.047 30.304 202.951 29.344C202.855 29.488 202.807 29.584 202.807 29.728C202.807 30.064 202.807 30.448 202.855 30.736C202.903 31.648 202.951 32.56 202.999 33.472C203.095 34.096 203.239 34.624 203.383 35.152C203.383 35.344 203.479 35.536 203.719 35.728ZM204.103 33.664L203.863 32.32H203.815C203.863 32.608 203.863 32.848 203.911 33.136L204.343 35.536C204.391 35.728 204.487 35.92 204.727 35.968C205.207 36.112 205.591 36.448 205.879 36.832C205.975 36.976 206.167 37.168 206.311 37.312C206.455 37.408 206.551 37.456 206.647 37.264L205.735 36.496C205.399 36.16 205.015 35.872 204.823 35.392L204.295 34.096C204.295 34 204.295 33.904 204.295 33.856C204.295 33.712 204.151 33.808 204.151 33.76C204.103 33.76 204.103 33.712 204.103 33.664ZM208.855 38.704L208.375 38.464C208.135 38.416 208.135 38.416 207.895 38.656L208.183 38.848C208.519 39.088 208.519 39.088 208.855 38.704ZM207.751 36.112L207.031 35.632C207.031 35.92 207.175 36.256 207.463 36.496L207.751 36.112ZM211.447 33.28L211.207 33.568L211.495 33.76C211.543 33.568 211.543 33.424 211.543 33.28C211.543 33.28 211.495 33.28 211.447 33.28ZM200.311 10.48C200.311 10.528 200.311 10.528 200.311 10.528L200.887 10.624V10.528C200.695 10.432 200.503 10.48 200.311 10.48ZM202.039 19.312V19.504V19.312ZM232.133 16.768C232.037 16.624 231.989 16.48 231.845 16.384L231.749 16.528L231.461 16.192C231.365 16.576 231.509 16.912 231.461 17.296L230.165 17.248C229.973 17.248 229.877 17.104 229.829 16.912C229.781 16.768 229.685 16.672 229.541 16.576C229.445 16.576 229.397 16.48 229.397 16.384C229.013 15.808 228.725 15.184 228.629 14.512C228.533 14.032 228.437 13.456 228.389 12.928C228.245 12.208 228.341 11.488 228.437 10.768C228.485 10.384 228.485 10.048 228.533 9.664C228.533 9.616 228.533 9.568 228.533 9.568C228.245 9.472 228.437 9.28 228.485 9.136C228.725 8.08 229.205 7.072 229.877 6.304C230.021 6.16 230.213 5.968 230.357 5.872L232.517 4.72C232.757 4.528 232.997 4.528 233.237 4.72C233.381 4.816 233.573 4.816 233.765 4.72C234.581 4.096 235.445 3.664 236.405 3.472C236.453 3.472 236.501 3.424 236.597 3.376H236.117C235.349 3.376 234.677 3.616 233.957 3.856L232.181 4.384L232.373 4.192C234.197 2.896 236.261 2.608 238.421 3.328C238.565 3.424 238.709 3.424 238.853 3.424C240.005 3.424 241.013 3.76 242.021 4.24C242.357 4.48 242.789 4.672 243.125 4.864L243.509 5.056C244.469 5.584 244.949 6.352 245.189 7.408L245.381 7.888C245.669 8.464 245.813 9.088 245.861 9.664L246.149 11.104C246.341 12.256 246.245 13.456 246.053 14.656C245.813 16.336 245.333 17.968 244.805 19.6C244.805 19.744 244.709 19.888 244.661 20.08C244.613 20.272 244.565 20.464 244.277 20.56C244.181 20.56 244.085 20.8 244.037 20.944C243.605 22 243.221 23.056 242.789 24.064C241.493 26.944 240.533 29.968 239.429 32.992L238.757 34.72C238.757 34.864 238.661 35.008 238.613 35.152H238.997L240.917 35.008C242.213 35.008 243.509 35.152 244.805 35.44L245.813 35.728L245.861 35.968L245.573 36.064L246.245 36.352C246.053 36.688 246.245 36.928 246.389 37.168C246.629 37.552 246.773 37.936 246.965 38.368C247.061 38.512 247.061 38.656 246.965 38.704L246.053 39.664C246.293 39.76 246.293 39.76 246.773 39.76C246.629 39.856 246.581 39.904 246.437 40L245.093 40.816C244.901 40.96 244.613 41.008 244.325 40.96C243.701 40.816 243.029 40.72 242.357 40.576C241.397 40.48 240.437 40.432 239.477 40.48C238.949 40.48 238.421 40.48 237.845 40.48H237.605L237.653 40.24C237.605 40.192 237.509 40.096 237.365 40.048C237.125 39.952 236.933 39.904 236.693 39.76C236.597 39.712 236.405 39.664 236.261 39.52C236.117 39.328 235.829 39.328 235.685 39.376C235.733 39.568 235.781 39.664 235.829 39.856C235.493 39.904 235.061 39.904 234.725 39.76C234.677 39.712 234.581 39.664 234.581 39.568L234.245 38.848H233.813C233.381 38.8 232.997 38.8 232.565 38.752C232.181 38.704 231.845 38.56 231.749 38.08C231.749 38.032 231.701 37.936 231.653 37.888L231.173 37.264C230.981 37.072 230.981 36.88 231.125 36.688C231.269 36.208 231.557 35.776 231.749 35.296L233.285 31.12C234.053 28.816 235.013 26.656 235.925 24.4C237.077 21.664 238.133 18.784 239.093 15.952C239.189 15.616 239.429 15.28 239.525 14.944C239.861 14.224 240.149 13.6 240.341 12.928C240.437 12.544 240.485 12.208 240.533 11.872C240.581 11.392 240.581 10.96 240.581 10.48C240.629 9.808 240.485 9.28 239.861 8.896C239.765 8.848 239.669 8.752 239.573 8.704C238.949 8.224 238.229 8.176 237.509 8.368L237.125 8.56C236.117 9.232 235.301 10.048 234.629 11.056L234.533 11.152C233.765 12.208 233.333 13.408 233.189 14.704C233.093 15.184 232.949 15.664 232.901 16.144C232.805 16.576 232.565 16.768 232.133 16.768ZM231.413 7.312C231.125 7.552 230.789 7.84 230.741 8.176C231.125 7.984 231.269 7.696 231.413 7.312ZM243.893 5.776C244.085 6.208 244.373 6.544 244.613 6.688C244.421 6.304 244.229 6.016 243.893 5.776ZM238.613 35.488V35.536L240.437 35.488V35.392C239.861 35.44 239.285 35.488 238.613 35.488ZM228.533 10.192C228.821 9.952 228.773 9.568 228.869 9.28H228.773C228.725 9.568 228.629 9.856 228.533 10.192ZM241.253 39.28C241.157 39.184 240.965 39.088 240.725 39.232C240.917 39.424 241.109 39.376 241.253 39.28ZM242.309 35.536L243.413 35.728C243.077 35.584 242.741 35.488 242.309 35.536ZM229.733 8.368C229.685 8.368 229.685 8.368 229.637 8.368C229.589 8.56 229.541 8.752 229.445 8.944C229.493 8.992 229.541 8.992 229.541 8.992C229.637 8.8 229.685 8.56 229.733 8.368ZM246.245 36.064C246.437 36.064 246.485 36.064 246.629 36.064C246.485 36.256 246.437 36.16 246.245 36.064ZM265.121 7.648C265.265 7.744 265.361 7.792 265.457 7.888C265.841 8.368 266.321 8.848 266.705 9.376C267.185 10 267.329 10.72 267.569 11.44C268.001 12.928 268.241 14.368 268.481 15.856C268.577 16.72 268.913 17.536 269.105 18.4C269.153 18.736 269.297 19.024 269.393 19.408C269.489 19.696 269.537 20.032 269.585 20.416C269.729 21.664 269.777 22.96 269.777 24.208C269.825 25.84 269.729 27.424 269.537 28.96C269.297 31.024 268.865 33.04 267.905 34.96C267.665 35.392 267.329 35.824 267.041 36.256C266.897 36.448 266.753 36.64 266.657 36.832C266.513 37.072 266.369 37.36 266.225 37.648C265.841 38.224 265.361 38.656 264.689 38.944C263.969 39.328 263.153 39.664 262.337 39.952C261.521 40.288 260.705 40.288 259.841 39.904C259.361 39.616 258.881 39.568 258.305 39.568C258.161 39.568 257.921 39.568 257.681 39.568C257.489 39.568 257.345 39.52 257.249 39.328C257.249 39.184 257.105 39.184 257.009 39.088C256.337 38.8 255.761 38.464 255.233 37.936C254.705 37.552 254.225 37.12 253.697 36.736C253.025 36.112 252.497 35.392 252.065 34.576C251.201 32.608 250.625 30.496 250.385 28.336C250.289 27.712 250.241 26.992 250.289 26.32C250.289 26.272 250.289 26.224 250.385 26.176C250.433 26.704 250.481 27.184 250.481 27.712C250.529 27.712 250.529 27.712 250.529 27.712C250.529 27.472 250.529 27.184 250.529 26.944C250.481 26.08 250.481 25.264 250.673 24.4C250.673 24.352 250.673 24.256 250.673 24.208C250.481 23.968 250.577 23.68 250.577 23.392C250.577 22.768 250.625 22.192 250.625 21.52C250.625 21.376 250.625 21.28 250.529 21.136C250.481 22 250.385 22.864 250.289 23.728H250.241C250.241 23.584 250.241 23.44 250.241 23.296C250.289 22 250.385 20.656 250.481 19.36C250.673 17.872 250.865 16.384 251.057 14.944C251.393 12.88 251.777 10.864 252.689 8.944C253.121 7.888 253.601 6.88 254.321 5.968C254.753 5.44 255.233 4.96 255.761 4.624C257.057 3.856 258.305 3.616 259.793 4.048C260.225 4.192 260.705 4.336 261.137 4.528C261.233 4.528 261.281 4.624 261.329 4.72C261.521 4.912 261.665 5.104 261.809 5.344C261.761 5.488 261.665 5.584 261.569 5.68C261.761 5.728 261.905 5.776 262.049 5.824C262.241 5.824 262.337 5.872 262.289 6.016C262.145 6.256 262.337 6.352 262.433 6.544C262.817 6.976 263.249 7.456 263.633 7.936C263.777 8.08 263.969 8.224 264.161 8.368C264.881 9.04 265.457 9.808 265.889 10.72C266.081 11.248 266.369 11.632 266.561 12.16C266.657 12.256 266.801 12.352 266.897 12.496C267.041 12.592 267.137 12.688 267.281 12.784C267.233 12.688 267.233 12.592 267.185 12.496C266.993 11.824 266.801 11.152 266.561 10.48C266.177 9.424 265.457 8.56 264.593 7.84C264.545 7.792 264.401 7.696 264.305 7.648C264.593 7.6 264.593 7.6 264.881 7.792C265.121 8.032 265.457 8.32 265.697 8.56C265.601 8.32 265.457 8.176 265.361 7.984C265.265 7.84 265.217 7.744 265.121 7.648ZM258.737 9.28C258.689 9.376 258.689 9.424 258.641 9.472C258.353 10.144 258.161 10.72 257.969 11.392C257.249 13.552 256.817 15.712 256.673 17.968C256.625 19.12 256.481 20.368 256.433 21.472C256.337 23.872 256.241 26.224 256.433 28.624C256.577 29.872 256.721 31.168 257.057 32.416C257.201 32.752 257.249 33.04 257.489 33.232C258.401 34.192 259.553 34.672 260.753 35.008C260.897 35.056 260.945 35.008 261.041 34.912C261.185 34.624 261.329 34.384 261.473 34.096C261.953 32.992 262.337 31.84 262.625 30.592C263.057 28.288 263.249 25.888 263.393 23.488C263.537 21.712 263.345 19.936 263.441 18.16C263.489 17.2 263.249 16.24 263.057 15.28C262.817 14.32 262.481 13.36 262.145 12.352C262.049 12.064 261.809 11.776 261.617 11.488C260.849 10.624 259.889 9.952 258.881 9.28C258.881 9.28 258.833 9.28 258.737 9.28ZM254.417 19.312C254.369 19.312 254.369 19.312 254.321 19.312C254.321 19.408 254.321 19.504 254.321 19.552C254.225 20.272 254.129 20.992 254.129 21.664C254.081 22.096 254.081 22.432 254.033 22.816C254.033 23.008 254.033 23.152 254.321 23.152C254.321 23.152 254.321 23.056 254.321 23.008C254.417 22.192 254.465 21.328 254.513 20.464C254.609 19.744 254.705 19.072 254.849 18.4C255.425 15.088 256.385 12.016 257.873 8.992C257.921 8.896 257.969 8.8 257.969 8.704C257.777 8.56 257.585 8.512 257.393 8.368C257.489 8.272 257.585 8.176 257.633 8.032C257.873 8.032 257.969 8.272 258.161 8.224C258.161 7.888 257.777 7.888 257.633 7.648C257.345 7.888 257.201 8.224 257.057 8.56C256.673 9.28 256.385 10 256.145 10.72C255.425 12.544 255.041 14.368 254.849 16.288C254.657 17.44 254.561 18.592 254.465 19.696C254.465 19.552 254.417 19.456 254.417 19.312ZM264.929 27.472C264.977 26.848 265.025 26.368 265.073 25.888C265.073 25.888 265.073 25.888 265.121 25.888C265.169 25.984 265.217 26.176 265.217 26.368C265.265 26.368 265.265 26.368 265.313 26.368C265.313 25.456 265.361 24.544 265.313 23.632C265.313 22.384 265.121 21.232 265.169 20.032C265.169 19.744 265.169 19.504 265.169 19.312C265.121 19.216 265.073 19.12 265.073 18.976C265.073 18.976 265.025 18.976 264.977 18.976C264.977 19.168 264.977 19.312 264.977 19.504C264.977 20.224 264.929 20.944 264.929 21.664C264.881 22.24 264.833 22.72 264.833 23.2C264.881 24.448 264.833 25.744 264.689 26.944C264.689 27.184 264.737 27.328 264.929 27.472ZM263.441 15.136C263.441 14.992 263.441 14.944 263.441 14.944C263.105 13.696 262.817 12.544 262.481 11.344C262.433 11.152 262.289 10.96 262.145 10.816C261.761 10.432 261.329 10.144 260.897 9.808C260.897 9.808 260.897 9.76 260.849 9.76C261.425 10.528 261.809 11.44 262.337 12.304C262.817 13.168 263.009 14.176 263.441 15.136ZM253.793 10.384C253.025 12.016 252.497 13.648 252.305 15.424C252.401 15.28 252.449 15.232 252.449 15.136C252.641 14.368 252.833 13.648 253.169 12.928C253.601 12.112 253.601 11.296 253.793 10.384ZM264.449 29.68C264.353 30.16 264.257 30.592 264.161 31.024C264.497 30.592 264.545 30.208 264.449 29.68ZM260.225 9.808C259.985 9.472 259.601 9.136 259.265 9.088C259.601 9.328 259.937 9.568 260.225 9.808ZM265.793 12.16C265.793 12.112 265.793 12.112 265.841 12.112C265.793 11.776 265.601 11.344 265.457 11.104C265.505 11.44 265.649 11.824 265.793 12.16ZM260.705 36.784C260.705 36.832 260.705 36.832 260.705 36.832C260.849 36.976 260.945 36.928 261.089 36.832C260.945 36.784 260.849 36.784 260.705 36.784ZM250.577 28.432V28.384C250.577 28.24 250.577 28.144 250.577 28.048C250.577 28.144 250.577 28.288 250.577 28.432ZM265.121 7.648C265.025 7.6 264.881 7.504 264.689 7.408C264.689 7.36 264.737 7.36 264.785 7.312C264.881 7.456 265.025 7.6 265.121 7.648ZM276.289 16.768C276.193 16.624 276.145 16.48 276.001 16.384L275.905 16.528L275.617 16.192C275.521 16.576 275.665 16.912 275.617 17.296L274.321 17.248C274.129 17.248 274.033 17.104 273.985 16.912C273.937 16.768 273.841 16.672 273.697 16.576C273.601 16.576 273.553 16.48 273.553 16.384C273.169 15.808 272.881 15.184 272.785 14.512C272.689 14.032 272.593 13.456 272.545 12.928C272.401 12.208 272.497 11.488 272.593 10.768C272.641 10.384 272.641 10.048 272.689 9.664C272.689 9.616 272.689 9.568 272.689 9.568C272.401 9.472 272.593 9.28 272.641 9.136C272.881 8.08 273.361 7.072 274.033 6.304C274.177 6.16 274.369 5.968 274.513 5.872L276.673 4.72C276.913 4.528 277.153 4.528 277.393 4.72C277.537 4.816 277.729 4.816 277.921 4.72C278.737 4.096 279.601 3.664 280.561 3.472C280.609 3.472 280.657 3.424 280.753 3.376H280.273C279.505 3.376 278.833 3.616 278.113 3.856L276.337 4.384L276.529 4.192C278.353 2.896 280.417 2.608 282.577 3.328C282.721 3.424 282.865 3.424 283.009 3.424C284.161 3.424 285.169 3.76 286.177 4.24C286.513 4.48 286.945 4.672 287.281 4.864L287.665 5.056C288.625 5.584 289.105 6.352 289.345 7.408L289.537 7.888C289.825 8.464 289.969 9.088 290.017 9.664L290.305 11.104C290.497 12.256 290.401 13.456 290.209 14.656C289.969 16.336 289.489 17.968 288.961 19.6C288.961 19.744 288.865 19.888 288.817 20.08C288.769 20.272 288.721 20.464 288.433 20.56C288.337 20.56 288.241 20.8 288.193 20.944C287.761 22 287.377 23.056 286.945 24.064C285.649 26.944 284.689 29.968 283.585 32.992L282.913 34.72C282.913 34.864 282.817 35.008 282.769 35.152H283.153L285.073 35.008C286.369 35.008 287.665 35.152 288.961 35.44L289.969 35.728L290.017 35.968L289.729 36.064L290.401 36.352C290.209 36.688 290.401 36.928 290.545 37.168C290.785 37.552 290.929 37.936 291.121 38.368C291.217 38.512 291.217 38.656 291.121 38.704L290.209 39.664C290.449 39.76 290.449 39.76 290.929 39.76C290.785 39.856 290.737 39.904 290.593 40L289.249 40.816C289.057 40.96 288.769 41.008 288.481 40.96C287.857 40.816 287.185 40.72 286.513 40.576C285.553 40.48 284.593 40.432 283.633 40.48C283.105 40.48 282.577 40.48 282.001 40.48H281.761L281.809 40.24C281.761 40.192 281.665 40.096 281.521 40.048C281.281 39.952 281.089 39.904 280.849 39.76C280.753 39.712 280.561 39.664 280.417 39.52C280.273 39.328 279.985 39.328 279.841 39.376C279.889 39.568 279.937 39.664 279.985 39.856C279.649 39.904 279.217 39.904 278.881 39.76C278.833 39.712 278.737 39.664 278.737 39.568L278.401 38.848H277.969C277.537 38.8 277.153 38.8 276.721 38.752C276.337 38.704 276.001 38.56 275.905 38.08C275.905 38.032 275.857 37.936 275.809 37.888L275.329 37.264C275.137 37.072 275.137 36.88 275.281 36.688C275.425 36.208 275.713 35.776 275.905 35.296L277.441 31.12C278.209 28.816 279.169 26.656 280.081 24.4C281.233 21.664 282.289 18.784 283.249 15.952C283.345 15.616 283.585 15.28 283.681 14.944C284.017 14.224 284.305 13.6 284.497 12.928C284.593 12.544 284.641 12.208 284.689 11.872C284.737 11.392 284.737 10.96 284.737 10.48C284.785 9.808 284.641 9.28 284.017 8.896C283.921 8.848 283.825 8.752 283.729 8.704C283.105 8.224 282.385 8.176 281.665 8.368L281.281 8.56C280.273 9.232 279.457 10.048 278.785 11.056L278.689 11.152C277.921 12.208 277.489 13.408 277.345 14.704C277.249 15.184 277.105 15.664 277.057 16.144C276.961 16.576 276.721 16.768 276.289 16.768ZM275.569 7.312C275.281 7.552 274.945 7.84 274.897 8.176C275.281 7.984 275.425 7.696 275.569 7.312ZM288.049 5.776C288.241 6.208 288.529 6.544 288.769 6.688C288.577 6.304 288.385 6.016 288.049 5.776ZM282.769 35.488V35.536L284.593 35.488V35.392C284.017 35.44 283.441 35.488 282.769 35.488ZM272.689 10.192C272.977 9.952 272.929 9.568 273.025 9.28H272.929C272.881 9.568 272.785 9.856 272.689 10.192ZM285.409 39.28C285.313 39.184 285.121 39.088 284.881 39.232C285.073 39.424 285.265 39.376 285.409 39.28ZM286.465 35.536L287.569 35.728C287.233 35.584 286.897 35.488 286.465 35.536ZM273.889 8.368C273.841 8.368 273.841 8.368 273.793 8.368C273.745 8.56 273.697 8.752 273.601 8.944C273.649 8.992 273.697 8.992 273.697 8.992C273.793 8.8 273.841 8.56 273.889 8.368ZM290.401 36.064C290.593 36.064 290.641 36.064 290.785 36.064C290.641 36.256 290.593 36.16 290.401 36.064ZM295.934 31.984C295.694 31.408 295.598 30.784 295.55 30.208C295.502 29.776 295.694 29.488 295.886 29.152C295.982 28.864 296.222 28.768 296.654 28.864C296.798 28.624 296.99 28.432 297.326 28.48C297.47 28.528 297.614 28.432 297.662 28.624C297.662 28.624 297.854 28.672 297.854 28.624C298.046 28.432 298.334 28.528 298.574 28.576C298.574 28.624 298.622 28.72 298.622 28.768C298.622 28.96 298.622 29.008 298.766 29.056V29.104C299.054 29.152 298.91 29.488 299.102 29.536C299.342 29.68 299.342 29.824 299.342 30.064C299.342 30.256 299.342 30.448 299.438 30.544L299.966 31.648L300.302 32.272C300.638 32.992 300.974 33.76 301.406 34.528C301.79 35.296 302.462 35.728 303.278 35.968C303.518 36.016 303.662 36.016 303.806 35.92C304.094 35.68 304.382 35.44 304.622 35.152C304.766 35.104 304.814 35.008 304.814 34.912L304.43 35.104L304.526 34.912C304.67 34.672 304.814 34.432 305.006 34.24C305.534 33.52 305.774 32.608 305.918 31.696C305.918 31.6 305.966 31.504 305.918 31.456C305.822 30.88 305.678 30.304 305.534 29.68C305.534 29.68 305.486 29.68 305.39 29.536C305.246 30.544 305.246 31.504 304.766 32.416C304.862 31.888 305.054 31.36 305.006 30.832C304.91 31.36 304.862 31.792 304.622 32.272C304.622 31.84 304.718 31.408 304.718 31.024C304.766 29.536 304.526 28.096 304.094 26.704C304.046 26.512 303.902 26.416 303.758 26.32C302.894 25.744 301.934 25.312 300.878 25.12C300.59 25.024 300.398 24.976 300.11 24.976L299.582 24.88C299.966 24.496 300.254 24.16 300.59 23.872L300.974 23.632C300.974 23.632 300.974 23.584 300.974 23.536L300.158 23.44L300.59 23.872L300.014 23.728C299.582 23.632 299.246 23.536 298.814 23.632C298.622 23.632 298.574 23.488 298.478 23.296C298.43 23.152 298.478 23.056 298.622 22.96C298.67 22.912 298.766 22.816 298.91 22.768L298.622 22.576L298.238 22.336C298.142 22.24 297.95 22.144 297.854 22C297.854 21.856 297.902 21.664 297.854 21.472L297.758 20.704C297.71 20.416 297.71 20.416 297.902 20.224C298.622 19.84 299.246 19.456 299.87 19.072C301.214 18.4 302.222 17.344 302.942 16.096C303.134 15.856 303.278 15.472 303.518 15.184C303.902 14.656 304.142 14.032 304.334 13.456C304.43 13.168 304.526 12.928 304.622 12.736C304.91 12.016 305.054 11.296 305.054 10.528C305.054 10.144 305.006 9.712 304.718 9.424C304.286 8.944 303.902 8.56 303.326 8.272C303.182 8.128 302.942 8.08 302.702 8.032C302.03 7.984 301.502 8.224 301.022 8.704C300.35 9.424 299.966 10.24 299.774 11.152C299.63 11.824 299.534 12.448 299.438 13.12C299.342 13.552 299.198 13.984 299.006 14.368C298.958 14.56 298.814 14.704 298.622 14.704L297.662 14.8C297.614 14.944 297.614 14.992 297.614 15.088C297.566 15.088 297.518 15.088 297.518 15.088L296.846 14.944C296.846 14.944 296.798 14.944 296.702 14.944C296.222 14.944 295.982 14.8 295.838 14.368L295.55 13.984C295.358 13.648 295.166 13.264 295.07 12.928C294.686 11.68 294.59 10.432 294.686 9.184C294.734 8.8 294.878 8.512 295.022 8.224C295.166 8.032 295.214 7.84 295.214 7.648C295.262 7.264 295.31 6.88 295.358 6.496C294.974 6.64 294.974 7.024 294.782 7.312C294.782 6.448 295.07 5.728 295.55 5.008C296.174 4 296.99 3.376 298.094 3.04C299.342 2.608 300.59 2.416 301.886 2.704C302.318 2.848 302.702 2.992 303.086 3.088C303.278 3.184 303.47 3.232 303.662 3.28C304.622 3.376 305.534 3.664 306.35 4.144C307.022 4.624 307.742 5.056 308.414 5.584C309.326 6.208 309.806 7.12 310.046 8.224L310.478 10.72C310.526 11.392 310.574 12.016 310.478 12.688L310.238 14.128C310.046 15.136 309.902 16.192 309.614 17.152C309.374 17.968 309.086 18.736 308.654 19.504C308.75 18.928 308.942 18.496 309.134 17.968C309.086 17.968 309.038 17.968 309.038 17.92L308.75 18.448C308.318 19.504 307.55 20.32 306.638 20.944C306.446 21.088 306.254 21.136 306.206 21.376C306.254 21.424 306.35 21.472 306.446 21.52C307.358 22 308.03 22.624 308.51 23.488C309.086 24.64 309.662 25.792 310.094 26.992C310.334 27.904 310.526 28.816 310.622 29.728C310.67 30.4 310.718 30.976 310.766 31.552V31.888C310.67 32.176 310.718 32.416 310.814 32.656C311.006 32.944 310.958 33.184 310.862 33.472C310.67 34.24 310.286 35.008 309.758 35.68C309.566 35.968 309.374 36.304 309.182 36.64C308.75 37.552 308.222 38.32 307.55 38.992C307.166 39.472 306.734 39.808 306.206 40.096C305.87 40.288 305.438 40.48 305.054 40.624C304.478 40.96 303.854 40.96 303.182 40.816C302.99 40.816 302.798 40.816 302.606 40.864C302.318 40.96 302.078 41.008 301.886 41.008C301.886 41.056 301.838 41.056 301.838 41.104L302.894 41.392C302.318 41.44 301.886 41.344 301.406 41.152C301.214 41.008 300.974 40.96 300.782 40.864C300.206 40.672 299.678 40.384 299.294 39.952C299.198 39.904 299.15 39.808 299.15 39.712L299.966 40.24C299.678 39.856 299.438 39.52 298.91 39.328C298.142 39.088 297.614 38.608 297.47 37.744L297.374 37.504C297.23 36.832 297.23 36.832 296.606 36.4C296.654 36.544 296.654 36.64 296.702 36.784C296.75 36.832 296.798 36.976 296.798 37.12L296.654 36.976C296.462 36.688 296.222 36.448 296.078 36.112C295.79 35.392 295.502 34.672 295.166 33.904C295.07 33.712 295.07 33.376 294.83 33.232C294.686 32.848 294.494 32.416 294.398 32.032C294.302 31.696 294.302 31.36 294.206 31.072C294.206 30.544 294.206 30.064 294.542 29.584C294.734 29.344 294.878 29.152 295.166 29.056C295.214 29.056 295.31 29.056 295.406 29.104C295.31 29.152 295.214 29.2 295.166 29.296C295.118 29.344 295.022 29.344 295.118 29.488C295.118 29.536 295.118 29.536 295.07 29.536C294.782 29.776 294.926 30.112 294.926 30.448C295.022 30.304 295.166 30.208 295.31 30.112L295.358 30.16L295.118 30.448C294.974 30.544 294.974 30.736 294.974 30.928C294.974 31.12 295.022 31.312 295.022 31.456C295.118 32.08 295.31 32.608 295.454 33.232C295.502 33.616 295.694 33.904 295.934 34.24L295.694 32.992C295.694 32.608 295.694 32.272 295.934 31.984C295.886 32.224 295.838 32.368 295.934 32.608C295.934 32.368 295.934 32.224 295.934 31.984ZM309.182 26.176C309.182 26.176 309.182 26.176 309.134 26.176L309.326 27.136C309.566 28.336 309.518 29.536 309.47 30.688C309.422 31.168 309.518 31.504 309.614 31.936C309.614 32.032 309.662 32.128 309.71 32.224C310.286 32.08 310.286 32.032 310.286 31.6L310.046 31.888C310.19 30.544 310.19 29.344 309.902 28.048L309.71 28.192C309.614 27.52 309.518 26.8 309.182 26.176ZM299.87 39.568H299.822C300.062 39.808 300.254 40 300.446 40.24C300.974 40.816 301.55 40.672 302.222 40.624C301.646 40.384 301.166 40 300.686 39.568C300.638 39.568 300.59 39.52 300.59 39.52C300.35 39.568 300.11 39.568 299.87 39.568ZM307.07 36.88L305.534 38.368C305.966 38.464 306.206 38.368 306.398 38.08C306.59 37.744 306.83 37.504 306.974 37.168C307.022 37.12 307.07 36.976 307.118 36.928C307.07 36.88 307.07 36.88 307.07 36.88ZM298.958 4.912C298.67 5.152 298.382 5.392 298.19 5.728C298.67 5.68 298.67 5.2 298.958 4.912ZM306.926 22.432C306.686 22.144 306.35 21.904 305.966 21.76C306.206 22.096 306.638 22.24 306.926 22.432ZM302.846 36.736C303.134 36.832 303.326 36.976 303.662 36.832C303.326 36.592 303.134 36.64 302.846 36.736ZM302.558 36.256L301.742 35.92C301.934 36.256 302.078 36.304 302.558 36.256ZM308.654 6.304L308.942 6.784C308.99 6.784 308.99 6.736 308.99 6.736C308.942 6.544 308.798 6.352 308.654 6.256C308.654 6.256 308.654 6.256 308.654 6.304ZM294.782 32.224C294.782 32.272 294.734 32.272 294.686 32.272L294.782 32.8C294.83 32.8 294.878 32.8 294.878 32.8C294.83 32.608 294.782 32.416 294.782 32.224ZM296.558 29.872L296.654 29.392C296.462 29.536 296.462 29.536 296.558 29.872ZM296.558 5.44L296.846 5.008L296.798 4.96C296.654 5.056 296.51 5.2 296.558 5.44ZM303.518 36.64C303.71 36.64 303.806 36.64 303.902 36.4C303.71 36.496 303.662 36.544 303.518 36.64ZM296.606 6.256L296.654 6.352L296.846 5.968C296.798 5.968 296.798 5.968 296.798 5.968C296.702 6.064 296.654 6.16 296.606 6.256Z" fill="white"/>
</svg>
