<svg width="320" height="56" viewBox="0 0 320 56" fill="none" xmlns="http://www.w3.org/2000/svg">
<g filter="url(#filter0_d_2_2)">
<path d="M9.144 3.712L9.288 3.856C9.24 3.904 9.144 3.952 9.144 4L9.096 5.968C9.096 5.968 9.144 6.016 9.144 6.064L9.624 5.68L11.688 4L11.88 3.856C12.456 3.472 12.84 3.616 13.08 4.288C13.512 4 13.8 4.384 14.088 4.624C14.136 4.672 14.136 4.864 14.136 4.912C14.088 5.2 14.04 5.44 13.896 5.728C13.896 5.824 13.896 5.968 13.992 6.16C14.328 6.544 14.376 6.976 14.376 7.456C14.328 9.664 14.424 11.872 14.472 14.032C14.472 15.136 14.424 16.192 14.376 17.296C14.28 18.4 14.232 19.408 14.232 20.416C14.232 21.088 14.136 21.664 14.088 22.288C14.088 22.384 14.04 22.528 13.944 22.576C13.8 22.672 13.752 22.816 13.752 22.96C13.752 24.064 13.752 25.168 13.8 26.272C13.8 26.56 13.896 26.8 13.992 26.992L14.376 28.336C14.664 29.584 15 30.88 15 32.272C15 33.664 15 35.104 15.048 36.544C15.048 37.216 14.808 37.744 14.28 38.224L13.992 38.464C13.848 38.608 13.704 38.704 13.704 38.896C13.704 39.04 13.704 39.184 13.656 39.28C13.608 39.376 13.512 39.568 13.416 39.568C12.888 39.808 12.36 40.048 11.688 40.288C11.64 39.952 11.688 39.664 11.64 39.376C11.64 39.088 11.64 38.752 11.64 38.464H10.728C10.632 38.944 10.968 39.376 10.824 39.904C10.584 39.472 10.68 38.992 10.632 38.512C10.44 38.656 10.344 38.704 10.2 38.8V39.184H10.152C10.104 38.992 10.056 38.8 9.96 38.656C9.912 38.464 9.816 38.368 9.768 38.224C9.768 38.176 9.72 38.176 9.72 38.176C9.336 38.224 9.192 37.888 9.048 37.744C8.808 37.312 8.712 36.832 8.712 36.4L9 30.016C9.048 29.2 8.952 28.432 9.048 27.616C9.144 26.032 9.288 24.496 9.336 22.96C9.384 22.144 9.336 21.328 9.336 20.464C9.096 21.04 9.048 21.616 8.904 22.24V20.8H8.808C8.664 21.328 8.616 21.808 8.424 22.288V21.952L8.616 13.312C8.616 13.12 8.616 13.024 8.76 12.832C8.808 12.736 8.808 12.544 8.808 12.4V11.392H8.904C8.904 11.44 8.904 11.536 8.904 11.632C9.096 12.352 9.192 13.12 9.192 13.936C9.144 14.944 9.24 16.048 9.24 17.104C9.24 17.776 9.144 18.4 9.144 19.072C9.144 19.264 9.096 19.408 9.192 19.504C9.288 19.648 9.288 19.888 9.288 20.08L9.528 17.248C9.528 16.96 9.528 16.72 9.528 16.384C9.432 15.856 9.528 15.328 9.624 14.848C9.72 14.656 9.72 14.416 9.672 14.224C9.576 13.456 9.528 12.688 9.528 11.92C9.528 11.296 9.528 10.72 9.48 10.192L9.336 10.24C8.664 10.72 7.944 11.104 7.08 11.2C6.984 11.2 6.84 11.296 6.744 11.296L6.216 11.584C6.168 11.632 6.072 11.632 5.976 11.632L5.496 11.44C5.352 11.44 5.256 11.44 5.112 11.44C5.112 11.296 5.16 11.2 5.16 11.104C5.352 11.104 5.496 11.056 5.688 10.912C5.688 10.816 5.832 10.768 5.928 10.72C5.688 10.288 6.12 10.192 6.408 9.952C6.12 9.808 5.832 9.664 5.448 9.856L5.592 9.952C5.208 10.192 4.776 10.384 4.344 10.672C4.344 10.576 4.344 10.528 4.296 10.432L4.104 10.336L4.392 10C4.296 9.808 4.152 9.712 4.152 9.616C4.104 9.232 4.152 8.752 4.248 8.368C4.248 8.272 4.344 8.176 4.392 8.08L6.984 5.44L8.28 4.096C8.424 4 8.568 3.808 8.76 3.712C8.904 3.52 8.952 3.52 9.144 3.712ZM8.04 6.736L7.752 7.264L7.8 7.312L8.904 6.304C8.952 6.256 8.952 6.16 8.952 6.112C8.952 5.536 9 4.912 9 4.336C9 4.192 8.952 4.048 8.904 3.904C8.664 4 8.568 4.144 8.424 4.336C8.088 4.72 7.896 5.056 7.512 5.392C6.984 5.968 6.36 6.544 5.784 7.12L5.496 7.456C6.024 7.456 6.216 7.024 6.6 6.784C6.6 7.168 6.648 7.168 6.456 7.456L5.832 8.368L5.256 9.136C6.264 8.464 7.128 7.552 8.04 6.736ZM10.2 14.368C10.2 14.368 10.152 14.368 10.104 14.368C10.056 14.512 10.056 14.704 9.96 14.8C9.816 14.944 9.816 15.136 9.816 15.328L9.864 17.68L9.96 20.704L10.104 23.488L10.2 25.312C10.248 25.456 10.248 25.552 10.248 25.696C10.392 25.168 10.44 24.736 10.44 24.208C10.44 23.728 10.392 23.2 10.392 22.72C10.392 20.56 10.392 18.448 10.344 16.24C10.344 15.664 10.248 14.944 10.2 14.368ZM5.784 11.392L6.216 11.2C6.216 11.152 6.216 11.104 6.216 11.104C6.072 11.104 5.88 11.296 5.736 11.296C5.784 11.344 5.784 11.392 5.784 11.392ZM9.288 3.856C9.24 3.568 9.432 3.424 9.624 3.232C9.768 3.136 9.912 3.184 10.056 3.376C10.056 3.424 10.056 3.52 10.056 3.616C10.104 4.048 10.056 4.528 9.912 4.912C9.864 4.72 9.864 4.432 9.864 4.144L9.816 3.424C9.528 3.472 9.384 3.616 9.288 3.856ZM11.496 39.328L11.16 39.616C10.92 39.376 11.016 39.088 10.968 38.8C11.208 38.944 11.448 38.992 11.496 39.328ZM21.4451 16.768C21.3491 16.624 21.3011 16.48 21.1571 16.384L21.0611 16.528L20.7731 16.192C20.6771 16.576 20.8211 16.912 20.7731 17.296L19.4771 17.248C19.2851 17.248 19.1891 17.104 19.1411 16.912C19.0931 16.768 18.9971 16.672 18.8531 16.576C18.7571 16.576 18.7091 16.48 18.7091 16.384C18.3251 15.808 18.0371 15.184 17.9411 14.512C17.8451 14.032 17.7491 13.456 17.7011 12.928C17.5571 12.208 17.6531 11.488 17.7491 10.768C17.7971 10.384 17.7971 10.048 17.8451 9.664C17.8451 9.616 17.8451 9.568 17.8451 9.568C17.5571 9.472 17.7491 9.28 17.7971 9.136C18.0371 8.08 18.5171 7.072 19.1891 6.304C19.3331 6.16 19.5251 5.968 19.6691 5.872L21.8291 4.72C22.0691 4.528 22.3091 4.528 22.5491 4.72C22.6931 4.816 22.8851 4.816 23.0771 4.72C23.8931 4.096 24.7571 3.664 25.7171 3.472C25.7651 3.472 25.8131 3.424 25.9091 3.376H25.4291C24.6611 3.376 23.9891 3.616 23.2691 3.856L21.4931 4.384L21.6851 4.192C23.5091 2.896 25.5731 2.608 27.7331 3.328C27.8771 3.424 28.0211 3.424 28.1651 3.424C29.3171 3.424 30.3251 3.76 31.3331 4.24C31.6691 4.48 32.1011 4.672 32.4371 4.864L32.8211 5.056C33.7811 5.584 34.2611 6.352 34.5011 7.408L34.6931 7.888C34.9811 8.464 35.1251 9.088 35.1731 9.664L35.4611 11.104C35.6531 12.256 35.5571 13.456 35.3651 14.656C35.1251 16.336 34.6451 17.968 34.1171 19.6C34.1171 19.744 34.0211 19.888 33.9731 20.08C33.9251 20.272 33.8771 20.464 33.5891 20.56C33.4931 20.56 33.3971 20.8 33.3491 20.944C32.9171 22 32.5331 23.056 32.1011 24.064C30.8051 26.944 29.8451 29.968 28.7411 32.992L28.0691 34.72C28.0691 34.864 27.9731 35.008 27.9251 35.152H28.3091L30.2291 35.008C31.5251 35.008 32.8211 35.152 34.1171 35.44L35.1251 35.728L35.1731 35.968L34.8851 36.064L35.5571 36.352C35.3651 36.688 35.5571 36.928 35.7011 37.168C35.9411 37.552 36.0851 37.936 36.2771 38.368C36.3731 38.512 36.3731 38.656 36.2771 38.704L35.3651 39.664C35.6051 39.76 35.6051 39.76 36.0851 39.76C35.9411 39.856 35.8931 39.904 35.7491 40L34.4051 40.816C34.2131 40.96 33.9251 41.008 33.6371 40.96C33.0131 40.816 32.3411 40.72 31.6691 40.576C30.7091 40.48 29.7491 40.432 28.7891 40.48C28.2611 40.48 27.7331 40.48 27.1571 40.48H26.9171L26.9651 40.24C26.9171 40.192 26.8211 40.096 26.6771 40.048C26.4371 39.952 26.2451 39.904 26.0051 39.76C25.9091 39.712 25.7171 39.664 25.5731 39.52C25.4291 39.328 25.1411 39.328 24.9971 39.376C25.0451 39.568 25.0931 39.664 25.1411 39.856C24.8051 39.904 24.3731 39.904 24.0371 39.76C23.9891 39.712 23.8931 39.664 23.8931 39.568L23.5571 38.848H23.1251C22.6931 38.8 22.3091 38.8 21.8771 38.752C21.4931 38.704 21.1571 38.56 21.0611 38.08C21.0611 38.032 21.0131 37.936 20.9651 37.888L20.4851 37.264C20.2931 37.072 20.2931 36.88 20.4371 36.688C20.5811 36.208 20.8691 35.776 21.0611 35.296L22.5971 31.12C23.3651 28.816 24.3251 26.656 25.2371 24.4C26.3891 21.664 27.4451 18.784 28.4051 15.952C28.5011 15.616 28.7411 15.28 28.8371 14.944C29.1731 14.224 29.4611 13.6 29.6531 12.928C29.7491 12.544 29.7971 12.208 29.8451 11.872C29.8931 11.392 29.8931 10.96 29.8931 10.48C29.9411 9.808 29.7971 9.28 29.1731 8.896C29.0771 8.848 28.9811 8.752 28.8851 8.704C28.2611 8.224 27.5411 8.176 26.8211 8.368L26.4371 8.56C25.4291 9.232 24.6131 10.048 23.9411 11.056L23.8451 11.152C23.0771 12.208 22.6451 13.408 22.5011 14.704C22.4051 15.184 22.2611 15.664 22.2131 16.144C22.1171 16.576 21.8771 16.768 21.4451 16.768ZM20.7251 7.312C20.4371 7.552 20.1011 7.84 20.0531 8.176C20.4371 7.984 20.5811 7.696 20.7251 7.312ZM33.2051 5.776C33.3971 6.208 33.6851 6.544 33.9251 6.688C33.7331 6.304 33.5411 6.016 33.2051 5.776ZM27.9251 35.488V35.536L29.7491 35.488V35.392C29.1731 35.44 28.5971 35.488 27.9251 35.488ZM17.8451 10.192C18.1331 9.952 18.0851 9.568 18.1811 9.28H18.0851C18.0371 9.568 17.9411 9.856 17.8451 10.192ZM30.5651 39.28C30.4691 39.184 30.2771 39.088 30.0371 39.232C30.2291 39.424 30.4211 39.376 30.5651 39.28ZM31.6211 35.536L32.7251 35.728C32.3891 35.584 32.0531 35.488 31.6211 35.536ZM19.0451 8.368C18.9971 8.368 18.9971 8.368 18.9491 8.368C18.9011 8.56 18.8531 8.752 18.7571 8.944C18.8051 8.992 18.8531 8.992 18.8531 8.992C18.9491 8.8 18.9971 8.56 19.0451 8.368ZM35.5571 36.064C35.7491 36.064 35.7971 36.064 35.9411 36.064C35.7971 36.256 35.7491 36.16 35.5571 36.064ZM46.1779 4H46.5139H48.0979C48.5299 4 49.0099 3.904 49.4419 3.904L51.8419 3.808C51.9859 3.808 52.0339 3.856 52.1299 3.952C52.2739 4.144 52.5139 4.24 52.8499 4.288C53.1379 4.336 53.5219 4.432 53.8579 4.432C54.2419 4.432 54.5299 4.576 54.7699 4.816C54.7699 4.912 54.7699 4.912 54.7219 5.008C54.7699 5.056 54.9139 5.152 55.0099 5.104C55.4419 5.008 55.5859 5.296 55.7779 5.488C55.7779 5.584 55.7299 5.632 55.6819 5.728C55.5859 5.872 55.5379 5.968 55.6819 6.16C55.8259 6.352 55.7779 6.544 55.6339 6.688C55.3939 6.784 55.2979 6.928 55.1059 7.264C55.3939 7.264 55.5859 7.216 55.6819 7.024C55.7779 7.36 55.7299 7.552 55.4419 7.6C55.3459 7.6 55.2019 7.6 55.0579 7.648C54.9619 7.648 54.8659 7.648 54.8659 7.648C54.7219 7.84 54.4339 7.84 54.1459 7.84C54.0019 7.84 53.9059 7.936 53.8579 8.08C53.7139 8.32 53.5699 8.56 53.3779 8.704C53.0419 8.992 52.6579 9.088 52.2259 9.088C51.6499 9.088 51.0739 9.04 50.4499 8.992C50.0659 8.992 49.6819 8.944 49.2979 8.944H48.9139C48.9139 9.04 48.8659 9.088 48.8659 9.136L49.3939 12.544C49.5379 13.312 49.5859 14.128 49.6819 14.944C50.0659 18.112 50.0659 21.328 50.1619 24.448L50.4979 30.064L50.7379 35.92C50.7379 36.064 50.7859 36.256 50.7859 36.448C50.8339 36.736 50.8339 36.928 50.5459 37.12C50.4979 36.016 50.4499 34.912 50.2099 33.808H50.1619L50.0179 35.056C49.9699 35.728 49.9219 36.304 49.9219 36.88C49.8739 37.264 49.8739 37.6 49.8739 37.936C49.8739 38.368 49.7779 38.704 49.5859 39.04C49.3939 39.376 49.3459 39.712 49.3459 40.144C49.3939 40.48 49.2499 40.576 48.9619 40.624C48.4819 40.816 48.0979 41.008 47.6659 41.2C47.5699 41.2 47.4739 41.2 47.4259 41.248V40.144C47.3779 40.096 47.3299 40.096 47.2819 40.096L47.0419 40.336C46.8499 40.48 46.7539 40.528 46.6579 40.336L46.5139 40.72L46.3219 40.384C46.1779 40.336 46.0819 40.336 45.9379 40.336L45.7459 39.568H45.6499C45.3619 39.568 45.2179 39.376 45.1219 39.136C45.0739 38.992 45.0259 38.848 44.9299 38.752C44.8339 38.608 44.7379 38.464 44.7379 38.272C44.6899 37.888 44.6899 37.504 44.6899 37.12C44.6899 36.448 44.8339 35.872 44.6899 35.152C44.4979 34.48 44.5939 33.808 44.4979 33.088L44.3059 34.432C44.2099 30.4 44.3539 26.368 43.8739 22.336C43.8739 22.576 43.8259 22.864 43.8259 23.152H43.7779C43.7779 22.72 43.8259 22.24 43.7779 21.856C43.7779 20.752 43.7779 19.696 43.7779 18.688C43.7779 18.208 43.7779 17.68 43.8259 17.2C43.8259 16.624 43.8259 16 43.8739 15.472C43.8739 14.608 43.9219 13.792 44.0659 12.928C44.1139 12.544 44.1139 12.208 44.1139 11.824C44.1619 11.056 44.2099 10.288 44.4019 9.472C44.4019 9.376 44.4499 9.184 44.4499 8.992C44.3059 8.992 44.2099 8.944 44.1139 8.944C43.0579 8.848 42.0979 8.656 41.0899 8.368L39.8899 7.984C39.7459 7.984 39.6019 7.888 39.5059 7.84C39.3619 7.792 39.3139 7.648 39.3619 7.6L39.6019 7.168C39.5059 6.976 39.0259 6.928 39.2659 6.592C39.1699 6.544 39.0259 6.496 38.8339 6.448L39.5539 6.256C39.3619 6.064 39.3139 5.92 39.1699 5.824C38.8819 5.68 38.8339 5.536 38.9299 5.248C39.0259 5.008 39.0259 4.768 39.0259 4.528C39.0259 4.144 39.1219 4.144 39.3619 4C39.9379 3.856 40.4659 3.808 40.9939 3.76C42.4819 3.616 43.9219 3.52 45.4099 3.472C46.5139 3.424 47.6659 3.52 48.8179 3.568C48.8659 3.568 48.9139 3.568 48.9619 3.616H47.9539C47.5219 3.664 47.0899 3.664 46.6579 3.664C46.4659 3.664 46.3219 3.76 46.1779 4ZM48.5299 34.144V33.328C48.5299 33.088 48.5299 32.8 48.4819 32.512C48.4819 32.272 48.5779 31.984 48.3859 31.696C48.3859 32.032 48.3859 32.272 48.3859 32.56C48.2899 33.136 48.3859 33.616 48.5299 34.144ZM51.9859 8.848C52.3699 8.8 52.8979 8.896 53.1859 8.512C52.7059 8.368 52.3219 8.704 51.9859 8.848ZM60.945 41.152C60.945 40.96 60.945 40.816 60.945 40.72C60.945 40.48 60.897 40.336 60.897 40.144C60.945 39.664 60.705 39.376 60.369 39.088L60.177 39.232L59.121 38.416C58.785 38.08 58.593 37.6 58.401 37.168C58.353 36.976 58.449 36.736 58.497 36.544L58.593 35.344L58.689 35.008C58.881 34.432 58.833 33.808 58.833 33.184V32.368C58.833 32.272 58.833 32.224 58.785 32.08H58.497V30.976C58.641 26.8 58.641 22.768 58.401 18.592C58.353 17.248 58.401 15.856 58.353 14.512C58.353 14.368 58.353 14.272 58.401 14.176C58.545 13.936 58.545 13.6 58.497 13.264V11.872C58.497 11.776 58.545 11.632 58.449 11.584C58.305 11.392 58.353 11.248 58.353 11.008C58.401 9.712 58.545 8.416 58.833 7.12C58.929 6.592 59.025 6.016 59.409 5.584L59.505 5.248C59.601 5.008 59.697 4.816 59.841 4.576C60.033 4.384 60.129 4.144 60.225 4L60.465 3.616C60.609 3.712 60.705 3.808 60.753 3.856L60.945 3.712C61.233 3.904 61.233 4 61.137 4.24L61.425 4.528L61.857 4.432C62.049 4.864 61.809 5.2 61.905 5.632L62.049 5.248C62.145 5.056 62.241 4.912 62.433 4.912C62.577 4.912 62.721 5.056 62.769 5.344L62.817 6.112C63.057 7.264 62.961 8.512 63.009 9.664C63.009 10.24 63.057 10.816 63.153 11.392L63.249 10.528H63.297C63.345 10.528 63.345 10.576 63.345 10.624L63.489 12.544L63.681 17.68C63.681 18.112 63.729 18.208 64.161 18.208H64.593C65.505 18.064 66.417 18.304 67.281 18.64C67.713 18.832 68.049 18.928 68.529 18.832L67.329 18.544C67.569 18.448 67.905 18.592 68.001 18.304C68.049 18.256 68.241 18.304 68.337 18.304L69.825 18.544H70.065V18.16C70.065 17.632 70.065 17.056 70.065 16.528C70.017 16 70.065 15.568 70.257 15.088C70.305 14.992 70.353 14.944 70.353 14.848L70.689 10.528V10.384C70.593 10.48 70.449 10.528 70.353 10.624C70.305 10.48 70.257 10.384 70.257 10.384L70.353 9.712C70.449 8.992 70.497 8.224 70.689 7.552C70.785 6.88 71.025 6.352 71.265 5.728C71.361 5.488 71.601 5.296 71.697 5.104L71.937 4.864C72.081 4.624 72.225 4.384 72.465 4.24C72.609 4.144 72.753 3.952 72.945 3.76L73.185 3.472L73.473 3.808C73.521 3.808 73.617 3.664 73.665 3.712C73.713 3.76 73.761 3.856 73.809 3.952L73.905 4.528C74.097 4.624 74.337 4.528 74.385 4.768C74.385 4.912 74.385 5.056 74.385 5.296C74.529 5.44 74.625 5.152 74.817 5.152L74.961 5.344C75.105 5.728 75.297 6.064 75.345 6.448C75.441 6.784 75.489 7.168 75.489 7.504C75.537 10.048 75.537 12.64 75.345 15.184C75.297 16.288 75.201 17.392 75.057 18.448C75.057 18.592 75.009 18.784 75.009 18.976C75.009 20.512 75.009 22.048 75.057 23.488C75.057 24.928 75.201 26.272 75.201 27.664C75.201 29.584 75.153 31.552 75.153 33.52C75.153 35.344 75.105 37.12 75.105 38.944C75.105 39.28 75.057 39.568 74.625 39.568C74.625 39.808 74.625 40.048 74.673 40.24C74.721 40.48 74.625 40.528 74.433 40.624C74.289 40.72 74.049 40.864 73.809 41.008C73.569 41.104 73.473 41.296 73.521 41.536V41.824L72.993 41.92C72.993 41.344 73.185 40.672 72.945 40C72.801 40.288 72.801 40.48 72.705 40.624C72.513 39.904 72.321 39.28 71.889 38.656C71.889 38.896 71.649 39.088 71.649 39.376C71.697 39.568 71.649 39.808 71.697 40.096V40.816V41.296L71.409 41.008C71.313 41.392 71.361 41.728 71.313 42.112V41.296L70.641 41.392L70.449 41.152C69.873 41.152 69.873 41.152 69.873 40.576C69.873 40.48 69.873 40.48 69.873 40.384L69.393 39.952C69.345 39.904 69.297 39.808 69.297 39.712C69.345 39.328 68.961 38.992 68.913 38.656C68.865 38.464 68.817 38.272 68.817 38.032C68.817 36.112 68.865 34.24 69.009 32.368C69.105 31.552 69.153 30.784 69.249 29.968C69.345 29.536 69.441 29.104 69.489 28.624C69.585 28 69.633 27.328 69.681 26.704C69.729 25.888 69.729 25.024 69.777 24.208C69.777 24.16 69.729 24.064 69.729 23.968C67.857 23.68 65.985 23.392 64.065 23.296V23.584C64.209 25.408 64.353 27.28 64.449 29.152C64.593 31.024 64.593 32.992 64.641 34.864C64.737 36.064 64.689 37.36 64.737 38.608C64.785 38.848 64.593 39.088 64.401 39.232C64.113 39.472 63.777 39.616 63.441 39.808C63.201 39.904 63.057 40.096 63.153 40.384C63.153 40.576 63.057 40.624 62.913 40.72C62.289 40.816 61.665 41.008 60.945 41.152ZM61.617 10.24C61.665 10.24 61.665 10.288 61.713 10.288C62.001 8.992 62.433 7.792 62.241 6.496C62.049 6.496 62.001 6.544 61.809 6.544L61.617 10.24ZM75.153 6.88C75.153 6.88 75.153 6.88 75.105 6.88V8.56C75.153 8.56 75.153 8.56 75.153 8.56V6.88ZM69.537 22.192C69.681 22.24 69.729 22.24 69.777 22.144C69.777 22.048 69.777 22.048 69.729 21.904L69.537 22.192ZM60.033 39.76L60.225 40.48C59.985 40.288 59.985 40.288 60.033 39.76ZM99.1069 4.912C99.1549 4.864 99.2029 4.816 99.2509 4.768C99.2509 4.864 99.2509 4.912 99.2989 4.912C99.3949 4.912 99.4429 4.96 99.5869 4.96C99.6349 5.056 99.6349 5.2 99.7309 5.344C99.8269 5.296 99.8749 5.248 99.9709 5.248C99.9709 5.248 100.067 5.344 100.163 5.44C100.211 5.248 100.259 5.104 100.307 4.96C100.355 5.056 100.403 5.056 100.403 5.104C100.547 5.344 100.595 5.536 100.643 5.776C100.691 5.872 100.643 6.016 100.691 6.16C100.883 7.312 101.027 8.464 101.123 9.616C101.123 9.664 101.171 9.808 101.267 9.856C101.267 9.136 101.315 8.368 101.267 7.648C101.219 7.072 101.027 6.592 100.835 6.064C100.739 5.824 100.595 5.44 100.739 5.008C100.835 5.104 100.883 5.2 101.027 5.248C101.075 5.344 101.123 5.44 101.219 5.44C101.315 5.536 101.411 5.536 101.267 5.68C101.267 5.728 101.315 5.824 101.363 5.92C101.747 6.88 102.131 7.888 102.371 8.944C102.515 9.472 102.707 9.808 102.851 10.336C102.899 10.288 102.899 10.288 102.899 10.288C102.899 10.144 102.899 9.952 102.851 9.808C102.899 9.808 102.899 9.808 102.899 9.76C103.091 10.144 103.283 10.432 103.379 10.816C103.715 12.112 104.051 13.36 104.387 14.704C104.483 14.992 104.675 15.28 104.723 15.664C104.723 15.856 104.819 16.192 104.867 16.432C105.395 19.12 105.923 21.712 106.451 24.352C106.547 24.976 106.643 25.648 106.739 26.224C106.883 26.704 106.979 27.088 107.123 27.52C107.411 28.816 107.747 30.256 108.131 31.552C108.611 33.28 108.947 35.056 109.235 36.832C109.283 37.168 109.187 37.504 108.995 37.744C108.947 37.84 108.947 37.888 108.899 37.984C108.275 37.888 108.035 37.408 107.459 37.12C107.507 37.216 107.555 37.312 107.603 37.36C107.843 37.744 108.083 38.128 108.275 38.56C108.419 38.8 108.371 38.992 108.131 39.184C107.939 39.328 107.795 39.424 107.843 39.712C107.939 39.952 107.843 40.048 107.555 40.096C107.027 40.288 106.451 40.432 105.875 40.576C105.779 40.288 105.683 39.952 105.635 39.712C105.443 39.712 105.347 39.712 105.203 39.712C105.155 39.808 105.107 39.904 105.011 40.048C104.723 39.76 104.579 39.472 104.723 39.136C104.915 38.752 104.819 38.416 104.819 38.032C104.771 37.888 104.723 37.744 104.723 37.552C104.483 37.888 104.531 38.368 104.195 38.704C104.099 38.56 104.003 38.368 103.907 38.176C103.715 37.696 103.571 37.168 103.283 36.736C103.235 36.64 103.235 36.448 103.187 36.304C102.851 35.008 102.563 33.616 102.275 32.272C102.131 31.504 101.987 30.784 101.843 30.064C101.459 29.872 101.027 29.68 100.595 29.536C100.403 29.488 100.211 29.488 99.9709 29.488C99.8269 29.536 99.5869 29.536 99.3949 29.44C98.8189 29.248 98.2909 29.056 97.7629 28.816C97.6189 28.768 97.5709 28.768 97.4749 28.768C97.4269 28.768 97.4269 28.816 97.4269 28.864C97.0909 30.352 96.7549 31.744 96.4189 33.184C96.0349 34.96 95.6029 36.64 95.2669 38.32C95.2189 38.656 95.0749 38.848 94.7869 38.992C94.4029 39.136 94.0189 39.232 93.6349 39.376C93.4429 39.424 93.2509 39.568 93.2509 39.712C93.2029 40 93.1069 40.096 92.8669 40.096C92.3389 40.048 91.7629 40.048 91.2349 40C91.0429 40 90.9469 39.904 90.9949 39.712C91.0429 39.568 91.0429 39.376 91.0909 39.184C90.7069 39.088 90.7069 39.088 90.4669 39.184C90.4189 39.184 90.3709 39.184 90.3229 39.136C90.2749 38.8 90.0829 38.656 89.9389 38.416C89.8909 38.32 89.8909 38.224 89.9389 38.128C89.9389 37.984 89.9389 37.84 89.9869 37.744C90.0349 37.456 90.0829 37.216 89.9389 36.976C89.8429 36.784 89.8429 36.448 89.9389 36.208C89.9389 36.064 89.9869 35.92 90.0349 35.728C90.0349 35.584 89.9869 35.488 89.9869 35.344C89.9869 35.2 89.9389 35.008 89.9869 34.912C90.0349 34.624 90.1309 34.288 90.1789 34.048C89.9389 34.144 89.9389 34.48 89.6509 34.768C89.6989 34.576 89.6989 34.432 89.7469 34.384C90.6589 30.448 91.6669 26.656 92.8189 22.816C93.1069 21.808 93.4909 20.752 93.7309 19.648C93.9709 18.592 94.1629 17.488 94.4029 16.384C94.7389 14.704 95.1709 12.928 95.5549 11.248C95.6989 10.72 95.7949 10.288 95.9869 9.808C96.0349 9.616 95.9869 9.376 96.2749 9.28C96.3229 9.232 96.3229 9.088 96.3229 8.992C96.4669 8.752 96.5149 8.56 96.6109 8.368C96.7069 8.176 96.8509 7.984 96.9469 7.888C97.1389 7.792 97.1869 7.648 97.2829 7.504C97.4269 7.264 97.5709 7.072 97.6669 6.88C97.7629 6.736 97.8109 6.64 97.8109 6.496C98.0029 5.968 98.0989 5.44 98.4349 4.96C98.5309 4.864 98.6749 4.72 98.8189 4.576C98.9149 4.528 99.0109 4.528 99.0589 4.528C99.0589 4.624 99.0589 4.72 99.1069 4.816C99.1069 4.816 99.1069 4.864 99.1069 4.912ZM98.5309 5.68C98.4829 5.728 98.3389 5.68 98.3389 5.728C98.1949 5.824 98.1469 5.968 98.1949 6.208C98.3389 6.016 98.3869 5.824 98.5309 5.68C98.5309 5.776 98.5309 5.824 98.5309 5.872C98.9149 5.68 99.0589 5.44 98.9149 5.104C98.7709 5.296 98.6749 5.488 98.5309 5.68ZM98.4829 22.384C98.3389 22.912 98.1949 23.344 98.0989 23.92C99.0589 24.16 99.9709 24.4 100.979 24.64C100.979 23.968 99.8269 18.304 99.5869 17.824C99.2509 19.456 99.0589 20.944 98.6749 22.48C98.5789 22.432 98.5309 22.384 98.4829 22.384ZM104.195 25.504C103.571 22.576 102.899 19.648 102.371 16.768C102.275 16.912 102.275 17.056 102.323 17.152C102.467 18.256 102.611 19.36 102.707 20.416C102.707 20.464 102.707 20.464 102.755 20.464C102.755 20.416 102.803 20.32 102.803 20.224C102.995 20.944 103.091 21.664 103.379 22.336C103.475 22.72 103.523 23.152 103.571 23.488C103.667 24.112 103.811 24.832 103.907 25.504C104.003 25.504 104.099 25.504 104.195 25.504ZM107.171 35.584C107.171 35.104 106.067 29.344 105.923 28.96C105.875 29.008 105.875 29.008 105.875 29.056C105.923 29.536 105.923 30.064 106.019 30.496C106.211 31.36 106.355 32.272 106.547 33.184C106.739 33.904 106.883 34.624 107.027 35.344C107.075 35.44 107.027 35.584 107.171 35.584ZM104.915 29.536C104.915 29.536 104.915 29.536 104.867 29.536C105.155 30.976 105.395 32.272 105.683 33.712C105.827 33.712 105.875 33.664 105.971 33.616C105.827 32.704 105.635 31.84 105.443 30.976C105.443 30.88 105.443 30.784 105.395 30.784C105.251 30.784 105.299 30.592 105.251 30.496C105.107 30.208 105.011 29.872 104.915 29.536ZM95.6989 32.176C95.7469 32.176 95.7469 32.224 95.7949 32.224C96.1789 30.976 96.6109 29.68 97.0429 28.48C96.9469 28.432 96.8989 28.384 96.8509 28.384C96.8029 28.336 96.7549 28.336 96.7069 28.288C96.3229 29.584 96.0349 30.88 95.6989 32.176ZM104.531 35.68H104.483C104.483 35.92 104.531 36.16 104.579 36.4C104.579 36.4 104.627 36.4 104.675 36.4C104.627 36.112 104.579 35.92 104.531 35.68ZM101.027 29.152C101.267 29.296 101.459 29.392 101.795 29.344C101.555 29.2 101.267 29.152 101.027 29.152ZM102.851 20.848C102.803 20.848 102.803 20.848 102.803 20.848C102.803 20.992 102.803 21.136 102.803 21.28C102.803 21.28 102.803 21.28 102.851 21.28C102.851 21.136 102.851 20.992 102.851 20.848ZM101.699 5.968C102.227 6.88 102.467 7.888 102.707 8.896H102.659C102.323 7.936 101.939 6.976 101.651 5.968C101.651 5.968 101.651 5.968 101.699 5.968ZM126.519 31.6H126.423L125.991 33.712C125.799 34.528 125.607 35.344 125.319 36.16C125.031 36.832 124.647 37.36 124.119 37.792L123.591 38.416C123.447 38.656 123.255 38.992 123.015 39.232C122.679 39.664 122.151 40 121.623 40.192C120.903 40.432 120.231 40.624 119.559 40.816C118.887 41.008 118.263 40.816 117.735 40.432C117.207 40 116.823 39.52 116.439 38.944C116.295 38.656 116.007 38.416 115.719 38.032C115.671 38.176 115.623 38.224 115.623 38.272C115.623 38.272 115.575 38.272 115.527 38.272C115.383 37.84 115.047 37.456 114.807 36.976C114.087 35.392 113.415 33.712 112.791 32.08C112.359 30.784 112.215 29.488 112.119 28.144C112.071 26.32 112.071 24.448 112.167 22.624C112.215 21.328 112.359 20.08 112.455 18.736C112.551 17.824 112.647 16.912 112.791 16C112.791 15.712 112.935 15.376 112.983 15.04L113.463 12.736C113.511 12.448 113.559 12.208 113.655 11.968C113.751 11.68 113.943 11.488 114.279 11.44C114.423 11.344 114.519 11.296 114.711 11.344C114.663 11.536 114.663 11.824 114.567 11.872C114.471 12.016 114.423 12.208 114.327 12.304C114.471 12.352 114.615 12.256 114.663 12.16L115.335 11.104C115.383 11.056 115.431 11.008 115.479 10.912C115.527 11.056 115.671 11.152 115.671 11.248C115.623 11.344 115.671 11.44 115.719 11.632C115.767 11.872 115.863 12.208 115.671 12.496C115.527 12.688 115.527 12.928 115.479 13.168L115.383 14.8C115.383 15.472 115.383 16.192 115.431 16.816C115.479 17.2 115.383 17.632 115.383 17.968C115.239 18.592 115.191 19.216 115.239 19.84C115.287 20.32 115.239 20.752 115.239 21.232C115.239 21.568 115.287 21.952 115.287 22.24C115.287 23.872 115.239 25.408 115.239 26.944C115.239 27.52 115.287 28.048 115.287 28.624C115.335 28.624 115.335 28.72 115.383 28.768C115.383 28.72 115.383 28.624 115.383 28.624C115.575 26.8 115.527 25.072 115.527 23.296C115.527 22 115.575 20.608 115.671 19.312C115.719 18.208 115.719 17.152 115.911 16.048C115.911 15.952 115.863 15.856 115.863 15.664C115.815 15.52 115.767 15.376 115.815 15.28C115.815 15.088 115.863 14.944 115.911 14.704C115.911 14.56 115.959 14.368 115.959 14.176C116.007 13.312 116.007 12.496 116.007 11.632C116.007 11.44 116.055 11.296 116.055 11.056C116.487 11.104 116.631 11.248 116.679 11.584C116.727 11.872 116.727 12.208 116.727 12.448V12.832L117.063 12.544C117.207 12.256 116.919 12.064 117.015 11.824C117.015 11.776 116.871 11.632 116.823 11.584C116.871 11.44 116.967 11.44 117.111 11.536C117.447 11.824 117.543 12.208 117.543 12.544V12.736C117.495 13.12 117.543 13.408 117.591 13.792C117.735 14.416 117.735 15.088 117.783 15.856C118.071 18.112 118.119 20.416 118.119 22.768C118.119 23.632 118.071 24.448 117.927 25.312C117.927 25.504 117.927 25.648 117.927 25.84C118.023 26.944 118.119 28.048 118.167 29.152C118.263 30.4 118.311 31.504 118.647 32.656C118.743 33.136 118.935 33.52 119.031 33.904C119.079 34 119.127 34.096 119.175 34.096C119.223 34 119.319 33.904 119.367 33.76C119.751 32.56 120.039 31.36 120.279 30.064C120.759 28.048 121.143 26.032 121.575 24.064C121.623 23.872 121.671 23.632 121.767 23.44C121.863 23.344 121.911 23.248 121.911 23.152C122.295 21.664 122.679 20.272 122.871 18.736C122.919 18.736 122.871 18.64 122.823 18.592C122.727 18.928 122.679 19.312 122.487 19.648C122.487 19.648 122.487 19.648 122.439 19.648V19.504C122.775 17.68 123.207 15.856 123.975 14.128C124.263 13.552 124.503 12.976 124.983 12.448C125.127 12.304 125.223 12.16 125.319 12.016C125.415 11.728 125.463 11.44 125.415 11.248C125.415 10.864 125.415 10.528 125.415 10.192C125.559 10.192 125.751 10.24 125.895 10.336C125.943 10.192 125.943 10 125.943 9.808C126.135 10 126.375 10.096 126.423 10.384C126.471 10.48 126.567 10.528 126.663 10.624C126.903 10.528 127.047 10.192 127.383 10.24L127.767 10.672C128.151 10.192 128.199 10.192 128.775 10.48L129.159 10.816C129.351 10.864 129.495 10.864 129.639 10.912C130.023 11.104 130.311 11.44 130.407 11.872C130.551 12.64 130.743 13.36 130.887 14.128L131.367 18.112C131.463 18.832 131.559 19.552 131.607 20.32C131.703 20.56 131.799 20.896 131.799 21.184C131.799 21.232 131.799 21.28 131.799 21.28C132.135 21.376 132.039 21.664 132.087 21.904C132.279 23.44 132.423 24.976 132.567 26.464C132.711 28 132.855 29.536 133.047 31.168C133.047 31.408 133.047 31.744 132.999 32.08C132.999 32.272 132.999 32.56 133.143 32.8C133.191 32.848 133.191 32.944 133.191 33.04C133.239 33.664 133.335 34.288 133.383 35.008L133.239 34.816C133.239 35.68 133.239 36.448 133.431 37.168L133.479 36.592C133.479 36.592 133.479 36.592 133.527 36.592C133.575 37.552 133.623 38.608 133.671 39.568C133.671 39.856 133.623 40.096 133.335 40.288C133.191 40.096 133.239 39.856 133.239 39.664L133.383 38.464C133.431 38.416 133.383 38.368 133.383 38.272L133.047 39.088L132.135 38.896C132.231 39.328 132.327 39.712 132.327 40.096C132.423 40.624 132.519 41.152 132.519 41.632C132.519 41.728 132.471 41.872 132.375 41.92L130.599 42.784C130.503 42.4 130.455 42.064 130.311 41.632L129.975 42.016L129.735 41.92C129.687 42.064 129.687 42.16 129.591 42.304L129.399 41.92H129.063C128.871 41.728 128.919 41.44 128.823 41.2H128.631C128.295 41.2 128.151 41.008 128.055 40.72C127.959 40.48 127.959 40.192 127.911 39.904C127.767 38.752 127.767 37.648 127.767 36.496C127.815 35.296 127.815 34.096 127.911 32.896C127.911 32.272 127.815 31.648 127.767 31.024L127.527 28.24L127.383 27.376C127.287 27.856 127.143 28.432 127.191 28.912C127.239 29.344 127.239 29.68 127.239 30.064C127.287 30.64 127.239 31.264 127.287 31.84C127.287 32.032 127.335 32.176 127.383 32.32C127.527 32.992 127.575 33.616 127.479 34.24C127.383 34.816 127.335 35.392 127.239 35.92C127.191 35.68 127.191 35.344 127.191 35.008C127.143 34.672 127.095 34.336 127.047 34.048L126.855 35.104H126.807L126.519 31.6ZM125.463 12.88C125.463 12.688 125.655 12.448 125.511 12.208C125.031 12.736 124.215 14.368 124.119 15.136C124.551 14.368 125.031 13.648 125.511 12.88C125.415 13.072 125.415 13.216 125.319 13.36C124.887 14.032 124.551 14.848 124.359 15.664C124.119 16.624 123.831 17.584 123.735 18.592V18.832L123.927 18.544C123.735 19.696 123.591 20.944 123.591 22.144L123.735 22.048C123.735 22.192 123.735 22.24 123.687 22.24C123.495 23.584 123.303 24.976 123.015 26.224L122.055 31.36C121.815 32.416 121.575 33.424 121.095 34.384C120.903 34.816 120.663 35.2 120.471 35.68C120.231 36.16 120.231 36.16 120.663 36.64L120.807 36.784C120.855 36.688 120.999 36.64 121.095 36.544C121.191 36.448 121.287 36.256 121.335 36.112C121.575 35.536 121.767 34.864 121.911 34.24C121.911 34.192 121.863 34.144 121.863 34.144C121.767 34.144 121.671 34.144 121.479 34.192C122.007 33.136 122.391 32.032 122.679 30.832C122.487 31.072 122.487 31.36 122.103 31.6C122.247 31.12 122.343 30.64 122.439 30.256L123.591 24.208L124.119 21.088C124.263 20.32 124.359 19.552 124.503 18.736C124.599 17.68 124.647 16.624 124.983 15.568C125.223 14.752 125.271 13.888 125.559 13.12C125.607 12.976 125.559 12.928 125.463 12.88ZM128.679 40.096L128.871 40.864C129.063 40.768 129.207 40.624 129.159 40.48C129.015 40 129.015 39.52 128.919 38.992L128.679 35.872L128.295 31.36C128.247 30.448 128.151 29.632 128.007 28.768C127.767 29.152 127.767 29.2 127.767 29.536C127.815 30.208 127.911 30.928 127.959 31.648C128.055 32.704 128.151 33.76 128.151 34.816L128.391 37.696C128.439 38.032 128.343 38.416 128.487 38.704C128.679 39.184 128.679 39.568 128.679 40.096ZM117.015 31.504L117.159 31.936C117.159 32.032 117.207 32.08 117.159 32.128C117.015 32.464 117.111 32.8 117.207 33.136C117.351 33.328 117.447 33.568 117.591 33.808C117.735 34.096 117.735 34.336 117.591 34.624C117.543 34.672 117.543 34.768 117.543 34.816C117.735 35.2 117.879 35.632 118.071 36.064L118.407 35.728C118.551 35.536 118.551 35.392 118.455 35.152C118.215 34.816 118.023 34.336 117.831 33.904L117.255 31.984C117.207 31.792 117.255 31.6 117.015 31.504ZM130.167 39.52L129.687 38.752C129.639 39.52 129.831 40.288 130.215 41.008C130.263 40.816 130.311 40.624 130.311 40.48C130.311 40.288 130.311 40 130.263 39.76C130.263 39.664 130.263 39.568 130.167 39.52ZM116.151 31.984C116.295 33.136 116.439 34.192 117.063 35.152C116.823 34.096 116.679 32.992 116.151 31.984ZM129.159 33.712H129.207L129.063 31.6C128.823 31.648 128.871 31.792 128.871 31.936C128.967 32.512 129.063 33.136 129.159 33.712ZM120.087 37.36L119.751 37.024C119.559 37.168 119.463 37.36 119.367 37.552C119.607 37.648 119.799 37.6 120.087 37.36ZM125.655 15.232H125.559C125.415 15.712 125.367 16.192 125.223 16.672C125.511 16.192 125.655 15.76 125.655 15.232ZM122.823 33.376C122.679 33.712 122.679 34.096 122.631 34.48C122.871 34.144 122.823 33.76 122.823 33.376ZM129.495 11.248C129.543 11.776 129.543 11.776 129.783 11.776C129.735 11.392 129.735 11.392 129.495 11.248ZM126.039 14.272C126.087 14.272 126.135 14.272 126.135 14.272L126.183 13.456C125.943 13.84 125.943 13.84 126.039 14.272ZM126.375 13.504C126.423 13.36 126.423 13.264 126.471 13.168C126.471 13.12 126.423 13.12 126.375 13.12C126.327 13.216 126.327 13.312 126.375 13.504ZM133.431 35.536V35.824C133.431 35.728 133.431 35.632 133.431 35.536ZM144.982 13.648L144.934 13.408C145.462 12.976 145.99 12.736 146.614 12.784C147.334 12.832 147.958 13.024 148.534 13.312C148.774 13.504 149.062 13.648 149.302 13.792C149.398 13.6 149.398 13.408 149.398 13.264C149.398 12.544 149.494 11.872 149.734 11.248L149.926 10.816C150.07 10.864 150.118 10.912 150.214 10.96C150.214 10.912 150.262 10.912 150.31 10.912C150.358 10.72 150.454 10.72 150.55 10.864C150.646 10.96 150.694 11.104 150.742 11.248C150.79 11.296 150.838 11.344 150.886 11.44C151.366 11.296 151.414 11.296 151.558 11.872L151.846 11.824C152.038 12.112 151.894 12.4 151.942 12.688C152.086 12.736 152.23 12.736 152.374 12.832C152.422 12.928 152.422 13.12 152.47 13.168L152.902 17.68C152.95 17.92 152.95 18.208 153.286 18.544L153.046 15.76C152.95 14.896 152.95 13.984 152.71 13.072C152.854 13.12 152.95 13.264 152.95 13.408C153.046 13.888 153.142 14.32 153.19 14.752C153.382 16 153.526 17.296 153.718 18.592C153.862 19.984 154.006 21.424 154.15 22.912C154.438 25.168 154.582 27.52 154.63 29.776C154.63 30.832 154.63 31.936 154.63 32.992C154.63 33.472 154.582 33.904 154.582 34.384C154.534 34.816 154.582 35.2 154.582 35.632C154.582 37.024 154.534 38.464 154.294 39.856C154.054 41.056 153.574 42.112 152.758 43.024C152.23 43.504 151.75 44.08 151.318 44.656C151.03 45.04 150.694 45.376 150.358 45.712C149.638 46.432 148.774 46.864 147.766 47.008C147.622 47.056 147.478 47.152 147.334 47.2C146.758 47.536 146.23 47.68 145.558 47.392C145.558 47.392 145.558 47.392 145.462 47.296C146.086 47.392 146.662 47.392 147.238 47.056L146.47 46.768C146.47 46.768 146.47 46.72 146.47 46.672C146.71 46.768 146.95 46.816 147.19 46.864C147.526 46.912 147.862 46.864 148.15 46.48H147.91C147.478 46.528 147.142 46.48 146.758 46.384C146.662 46.336 146.518 46.384 146.422 46.384C146.23 46.432 146.038 46.48 145.846 46.48C145.51 46.384 145.174 46.576 144.838 46.672C144.934 46.864 145.03 46.96 145.174 47.104H144.166C144.598 47.392 145.03 47.488 145.462 47.68C144.934 47.632 144.502 47.584 144.022 47.296C143.782 47.104 143.494 46.96 143.158 46.864C142.006 46.432 141.094 45.76 140.278 44.896C140.038 44.608 139.75 44.272 139.51 44.032C139.318 43.84 139.27 43.6 139.174 43.36L138.982 43.024C138.742 42.784 138.598 42.496 138.55 42.208C138.502 41.92 138.31 41.68 138.214 41.392C138.022 41.008 138.022 40.96 138.358 40.624L138.502 40.48C138.742 40.096 138.934 40 139.414 40.192L139.174 40.624C139.462 40.48 139.702 40.432 139.846 40.144C140.038 39.856 140.182 39.808 140.662 40C140.71 39.952 140.758 39.904 140.758 39.904C140.95 39.568 141.286 39.424 141.622 39.568H141.67C141.67 39.856 142.006 39.712 142.15 40C142.006 40.288 142.15 40.48 142.39 40.672C142.87 41.152 143.398 41.536 143.926 41.92C144.262 42.112 144.694 42.304 145.078 42.4C145.174 42.448 145.318 42.448 145.414 42.448C144.598 41.92 143.686 41.392 142.918 40.624L142.966 41.008C142.534 40.624 142.39 40.384 142.774 40C142.774 40.192 142.822 40.384 143.062 40.384C143.11 40.384 143.158 40.48 143.206 40.48C143.926 41.152 144.79 41.584 145.654 42.064C145.654 42.112 145.75 42.112 145.846 42.112C147.142 40.816 147.718 39.328 148.006 37.552C147.91 37.552 147.862 37.552 147.862 37.552C147.19 38.032 146.422 38.128 145.606 38.224L144.262 38.32C143.686 38.416 143.11 38.32 142.582 38.08C142.006 37.888 141.478 37.552 140.998 37.168C139.174 35.68 137.83 33.808 137.206 31.504C136.774 29.92 136.39 28.336 136.534 26.656L136.87 24.4C136.918 24.256 136.918 24.16 136.918 24.064C136.87 23.44 136.966 22.912 137.11 22.336C138.022 19.504 139.222 16.768 141.046 14.416C141.622 13.744 142.198 13.12 142.918 12.64C143.446 12.352 143.974 12.352 144.55 12.448C143.83 12.784 143.206 13.072 142.63 13.456C142.006 13.888 141.622 14.464 141.238 15.088C141.286 15.136 141.382 15.184 141.526 15.28C141.334 15.52 141.142 15.76 140.998 15.904C140.422 16.624 140.038 17.344 139.606 18.112C139.414 18.496 139.222 18.832 139.03 19.216C138.742 19.696 138.502 20.368 138.262 20.944C138.214 20.992 138.214 21.136 138.262 21.136C138.406 21.328 138.262 21.472 138.262 21.616C138.214 21.712 137.974 21.616 138.022 21.856C138.022 21.952 138.022 22.096 138.022 22.24V22.672C138.214 22.384 138.262 22.048 138.454 21.808C138.262 22.288 138.118 22.816 137.974 23.344C137.734 24.112 137.446 24.928 137.302 25.696C137.254 26.32 137.302 26.944 137.302 27.712C137.302 27.712 137.35 27.76 137.302 27.856C137.302 27.76 137.254 27.712 137.11 27.568C137.11 28.24 137.158 28.768 137.398 29.344C137.398 29.248 137.398 29.152 137.446 28.96C137.446 28.96 137.542 28.864 137.542 28.816C137.59 28.672 137.59 28.576 137.59 28.432C137.542 26.8 137.83 25.264 138.358 23.776C139.174 21.52 140.086 19.36 141.238 17.296C141.67 16.48 142.15 15.76 142.774 15.04C143.158 14.56 143.686 14.08 144.31 13.84C144.502 13.744 144.742 13.696 144.982 13.648ZM144.454 32.848C144.934 32.416 145.318 32.032 145.654 31.504L146.422 30.352C147.142 29.248 147.862 28.144 148.39 26.944C148.486 26.752 148.582 26.512 148.582 26.272C148.63 25.312 148.63 24.352 148.726 23.344L148.966 19.504C148.966 18.448 148.966 18.448 148.102 17.728C147.622 17.392 147.718 17.296 147.142 17.68C146.182 18.304 145.414 19.072 144.79 20.032C143.686 21.856 142.822 23.872 142.39 25.984C142.198 26.944 142.054 27.952 142.198 28.96C142.198 29.296 142.198 29.536 142.342 29.824C142.582 30.496 142.918 31.168 143.35 31.744C143.686 32.176 143.974 32.56 144.454 32.848ZM151.318 23.152C151.318 24.064 151.174 25.024 151.222 25.984C151.462 25.984 151.462 25.888 151.51 25.792C151.51 25.36 151.51 24.976 151.51 24.592C151.654 24.064 151.414 23.68 151.318 23.152ZM149.878 45.376L149.494 45.616C149.254 45.856 148.966 46.048 148.678 46.192C148.39 46.336 148.246 46.528 148.054 46.816C148.822 46.576 149.398 46.048 149.878 45.376ZM146.566 31.84C146.086 32.128 145.222 33.04 145.126 33.28L145.174 33.328C145.27 33.328 145.318 33.28 145.366 33.232C145.846 32.8 146.23 32.32 146.566 31.84ZM146.71 43.552L147.142 43.744L148.054 42.832L147.958 42.736C147.43 42.832 147.19 43.312 146.71 43.552ZM148.726 14.992L149.206 15.664C149.206 15.424 149.254 15.232 149.254 15.04C149.062 14.944 148.918 14.944 148.726 14.992ZM142.918 45.856C143.206 46.048 143.494 46.144 143.83 46.192C143.59 46.048 143.302 45.808 142.918 45.856ZM151.606 14.944L151.75 13.84H151.654C151.558 14.176 151.606 14.56 151.606 14.944ZM147.478 15.328C147.478 15.376 147.478 15.424 147.43 15.424C147.478 15.52 147.622 15.664 147.862 15.664C147.718 15.472 147.622 15.424 147.478 15.328ZM148.438 42.112L148.582 41.92C148.582 41.92 148.582 41.92 148.534 41.872L148.39 42.064C148.39 42.112 148.438 42.112 148.438 42.112ZM172.644 31.6H172.548L172.116 33.712C171.924 34.528 171.732 35.344 171.444 36.16C171.156 36.832 170.772 37.36 170.244 37.792L169.716 38.416C169.572 38.656 169.38 38.992 169.14 39.232C168.804 39.664 168.276 40 167.748 40.192C167.028 40.432 166.356 40.624 165.684 40.816C165.012 41.008 164.388 40.816 163.86 40.432C163.332 40 162.948 39.52 162.564 38.944C162.42 38.656 162.132 38.416 161.844 38.032C161.796 38.176 161.748 38.224 161.748 38.272C161.748 38.272 161.7 38.272 161.652 38.272C161.508 37.84 161.172 37.456 160.932 36.976C160.212 35.392 159.54 33.712 158.916 32.08C158.484 30.784 158.34 29.488 158.244 28.144C158.196 26.32 158.196 24.448 158.292 22.624C158.34 21.328 158.484 20.08 158.58 18.736C158.676 17.824 158.772 16.912 158.916 16C158.916 15.712 159.06 15.376 159.108 15.04L159.588 12.736C159.636 12.448 159.684 12.208 159.78 11.968C159.876 11.68 160.068 11.488 160.404 11.44C160.548 11.344 160.644 11.296 160.836 11.344C160.788 11.536 160.788 11.824 160.692 11.872C160.596 12.016 160.548 12.208 160.452 12.304C160.596 12.352 160.74 12.256 160.788 12.16L161.46 11.104C161.508 11.056 161.556 11.008 161.604 10.912C161.652 11.056 161.796 11.152 161.796 11.248C161.748 11.344 161.796 11.44 161.844 11.632C161.892 11.872 161.988 12.208 161.796 12.496C161.652 12.688 161.652 12.928 161.604 13.168L161.508 14.8C161.508 15.472 161.508 16.192 161.556 16.816C161.604 17.2 161.508 17.632 161.508 17.968C161.364 18.592 161.316 19.216 161.364 19.84C161.412 20.32 161.364 20.752 161.364 21.232C161.364 21.568 161.412 21.952 161.412 22.24C161.412 23.872 161.364 25.408 161.364 26.944C161.364 27.52 161.412 28.048 161.412 28.624C161.46 28.624 161.46 28.72 161.508 28.768C161.508 28.72 161.508 28.624 161.508 28.624C161.7 26.8 161.652 25.072 161.652 23.296C161.652 22 161.7 20.608 161.796 19.312C161.844 18.208 161.844 17.152 162.036 16.048C162.036 15.952 161.988 15.856 161.988 15.664C161.94 15.52 161.892 15.376 161.94 15.28C161.94 15.088 161.988 14.944 162.036 14.704C162.036 14.56 162.084 14.368 162.084 14.176C162.132 13.312 162.132 12.496 162.132 11.632C162.132 11.44 162.18 11.296 162.18 11.056C162.612 11.104 162.756 11.248 162.804 11.584C162.852 11.872 162.852 12.208 162.852 12.448V12.832L163.188 12.544C163.332 12.256 163.044 12.064 163.14 11.824C163.14 11.776 162.996 11.632 162.948 11.584C162.996 11.44 163.092 11.44 163.236 11.536C163.572 11.824 163.668 12.208 163.668 12.544V12.736C163.62 13.12 163.668 13.408 163.716 13.792C163.86 14.416 163.86 15.088 163.908 15.856C164.196 18.112 164.244 20.416 164.244 22.768C164.244 23.632 164.196 24.448 164.052 25.312C164.052 25.504 164.052 25.648 164.052 25.84C164.148 26.944 164.244 28.048 164.292 29.152C164.388 30.4 164.436 31.504 164.772 32.656C164.868 33.136 165.06 33.52 165.156 33.904C165.204 34 165.252 34.096 165.3 34.096C165.348 34 165.444 33.904 165.492 33.76C165.876 32.56 166.164 31.36 166.404 30.064C166.884 28.048 167.268 26.032 167.7 24.064C167.748 23.872 167.796 23.632 167.892 23.44C167.988 23.344 168.036 23.248 168.036 23.152C168.42 21.664 168.804 20.272 168.996 18.736C169.044 18.736 168.996 18.64 168.948 18.592C168.852 18.928 168.804 19.312 168.612 19.648C168.612 19.648 168.612 19.648 168.564 19.648V19.504C168.9 17.68 169.332 15.856 170.1 14.128C170.388 13.552 170.628 12.976 171.108 12.448C171.252 12.304 171.348 12.16 171.444 12.016C171.54 11.728 171.588 11.44 171.54 11.248C171.54 10.864 171.54 10.528 171.54 10.192C171.684 10.192 171.876 10.24 172.02 10.336C172.068 10.192 172.068 10 172.068 9.808C172.26 10 172.5 10.096 172.548 10.384C172.596 10.48 172.692 10.528 172.788 10.624C173.028 10.528 173.172 10.192 173.508 10.24L173.892 10.672C174.276 10.192 174.324 10.192 174.9 10.48L175.284 10.816C175.476 10.864 175.62 10.864 175.764 10.912C176.148 11.104 176.436 11.44 176.532 11.872C176.676 12.64 176.868 13.36 177.012 14.128L177.492 18.112C177.588 18.832 177.684 19.552 177.732 20.32C177.828 20.56 177.924 20.896 177.924 21.184C177.924 21.232 177.924 21.28 177.924 21.28C178.26 21.376 178.164 21.664 178.212 21.904C178.404 23.44 178.548 24.976 178.692 26.464C178.836 28 178.98 29.536 179.172 31.168C179.172 31.408 179.172 31.744 179.124 32.08C179.124 32.272 179.124 32.56 179.268 32.8C179.316 32.848 179.316 32.944 179.316 33.04C179.364 33.664 179.46 34.288 179.508 35.008L179.364 34.816C179.364 35.68 179.364 36.448 179.556 37.168L179.604 36.592C179.604 36.592 179.604 36.592 179.652 36.592C179.7 37.552 179.748 38.608 179.796 39.568C179.796 39.856 179.748 40.096 179.46 40.288C179.316 40.096 179.364 39.856 179.364 39.664L179.508 38.464C179.556 38.416 179.508 38.368 179.508 38.272L179.172 39.088L178.26 38.896C178.356 39.328 178.452 39.712 178.452 40.096C178.548 40.624 178.644 41.152 178.644 41.632C178.644 41.728 178.596 41.872 178.5 41.92L176.724 42.784C176.628 42.4 176.58 42.064 176.436 41.632L176.1 42.016L175.86 41.92C175.812 42.064 175.812 42.16 175.716 42.304L175.524 41.92H175.188C174.996 41.728 175.044 41.44 174.948 41.2H174.756C174.42 41.2 174.276 41.008 174.18 40.72C174.084 40.48 174.084 40.192 174.036 39.904C173.892 38.752 173.892 37.648 173.892 36.496C173.94 35.296 173.94 34.096 174.036 32.896C174.036 32.272 173.94 31.648 173.892 31.024L173.652 28.24L173.508 27.376C173.412 27.856 173.268 28.432 173.316 28.912C173.364 29.344 173.364 29.68 173.364 30.064C173.412 30.64 173.364 31.264 173.412 31.84C173.412 32.032 173.46 32.176 173.508 32.32C173.652 32.992 173.7 33.616 173.604 34.24C173.508 34.816 173.46 35.392 173.364 35.92C173.316 35.68 173.316 35.344 173.316 35.008C173.268 34.672 173.22 34.336 173.172 34.048L172.98 35.104H172.932L172.644 31.6ZM171.588 12.88C171.588 12.688 171.78 12.448 171.636 12.208C171.156 12.736 170.34 14.368 170.244 15.136C170.676 14.368 171.156 13.648 171.636 12.88C171.54 13.072 171.54 13.216 171.444 13.36C171.012 14.032 170.676 14.848 170.484 15.664C170.244 16.624 169.956 17.584 169.86 18.592V18.832L170.052 18.544C169.86 19.696 169.716 20.944 169.716 22.144L169.86 22.048C169.86 22.192 169.86 22.24 169.812 22.24C169.62 23.584 169.428 24.976 169.14 26.224L168.18 31.36C167.94 32.416 167.7 33.424 167.22 34.384C167.028 34.816 166.788 35.2 166.596 35.68C166.356 36.16 166.356 36.16 166.788 36.64L166.932 36.784C166.98 36.688 167.124 36.64 167.22 36.544C167.316 36.448 167.412 36.256 167.46 36.112C167.7 35.536 167.892 34.864 168.036 34.24C168.036 34.192 167.988 34.144 167.988 34.144C167.892 34.144 167.796 34.144 167.604 34.192C168.132 33.136 168.516 32.032 168.804 30.832C168.612 31.072 168.612 31.36 168.228 31.6C168.372 31.12 168.468 30.64 168.564 30.256L169.716 24.208L170.244 21.088C170.388 20.32 170.484 19.552 170.628 18.736C170.724 17.68 170.772 16.624 171.108 15.568C171.348 14.752 171.396 13.888 171.684 13.12C171.732 12.976 171.684 12.928 171.588 12.88ZM174.804 40.096L174.996 40.864C175.188 40.768 175.332 40.624 175.284 40.48C175.14 40 175.14 39.52 175.044 38.992L174.804 35.872L174.42 31.36C174.372 30.448 174.276 29.632 174.132 28.768C173.892 29.152 173.892 29.2 173.892 29.536C173.94 30.208 174.036 30.928 174.084 31.648C174.18 32.704 174.276 33.76 174.276 34.816L174.516 37.696C174.564 38.032 174.468 38.416 174.612 38.704C174.804 39.184 174.804 39.568 174.804 40.096ZM163.14 31.504L163.284 31.936C163.284 32.032 163.332 32.08 163.284 32.128C163.14 32.464 163.236 32.8 163.332 33.136C163.476 33.328 163.572 33.568 163.716 33.808C163.86 34.096 163.86 34.336 163.716 34.624C163.668 34.672 163.668 34.768 163.668 34.816C163.86 35.2 164.004 35.632 164.196 36.064L164.532 35.728C164.676 35.536 164.676 35.392 164.58 35.152C164.34 34.816 164.148 34.336 163.956 33.904L163.38 31.984C163.332 31.792 163.38 31.6 163.14 31.504ZM176.292 39.52L175.812 38.752C175.764 39.52 175.956 40.288 176.34 41.008C176.388 40.816 176.436 40.624 176.436 40.48C176.436 40.288 176.436 40 176.388 39.76C176.388 39.664 176.388 39.568 176.292 39.52ZM162.276 31.984C162.42 33.136 162.564 34.192 163.188 35.152C162.948 34.096 162.804 32.992 162.276 31.984ZM175.284 33.712H175.332L175.188 31.6C174.948 31.648 174.996 31.792 174.996 31.936C175.092 32.512 175.188 33.136 175.284 33.712ZM166.212 37.36L165.876 37.024C165.684 37.168 165.588 37.36 165.492 37.552C165.732 37.648 165.924 37.6 166.212 37.36ZM171.78 15.232H171.684C171.54 15.712 171.492 16.192 171.348 16.672C171.636 16.192 171.78 15.76 171.78 15.232ZM168.948 33.376C168.804 33.712 168.804 34.096 168.756 34.48C168.996 34.144 168.948 33.76 168.948 33.376ZM175.62 11.248C175.668 11.776 175.668 11.776 175.908 11.776C175.86 11.392 175.86 11.392 175.62 11.248ZM172.164 14.272C172.212 14.272 172.26 14.272 172.26 14.272L172.308 13.456C172.068 13.84 172.068 13.84 172.164 14.272ZM172.5 13.504C172.548 13.36 172.548 13.264 172.596 13.168C172.596 13.12 172.548 13.12 172.5 13.12C172.452 13.216 172.452 13.312 172.5 13.504ZM179.556 35.536V35.824C179.556 35.728 179.556 35.632 179.556 35.536ZM199.411 35.536C199.267 36.352 198.931 36.976 198.355 37.6C198.067 37.888 197.731 38.176 197.395 38.512C197.251 38.656 197.203 38.704 197.155 38.896C197.059 39.376 196.819 39.712 196.387 40C195.811 40.384 195.235 40.624 194.515 40.816C193.747 41.008 192.979 41.008 192.211 40.72C192.163 40.672 192.115 40.672 192.067 40.672C191.587 40.624 191.011 40.624 190.483 40.624C190.579 40.912 190.819 41.008 191.059 41.296C190.771 41.2 190.627 41.152 190.387 41.056C189.907 40.864 189.523 40.624 189.043 40.48C188.947 40.432 188.707 40.336 188.755 40.096C188.515 39.808 188.323 39.52 188.083 39.376C187.171 38.8 186.451 38.224 185.779 37.504C185.347 37.072 185.107 36.544 184.819 36.016C184.099 34.576 183.475 33.088 182.995 31.504C182.803 30.736 182.611 29.968 182.419 29.152C182.371 29.008 182.371 28.864 182.371 28.672C182.371 28.432 182.371 28.384 182.659 28.384C182.755 28.192 182.803 28 182.851 27.856C183.043 27.856 183.187 27.952 183.139 28.144C182.995 28.624 183.379 28.96 183.523 29.488C183.907 29.056 184.291 28.672 184.627 28.336C184.819 28.96 185.059 29.632 185.251 30.4C185.491 30.208 185.683 30.064 185.875 29.872C185.587 29.008 185.299 28.24 185.299 27.328C185.539 27.328 185.779 27.328 186.115 27.328C186.211 28 186.307 28.672 186.451 29.392C186.787 29.248 186.787 29.248 186.691 28.96C186.643 28.72 186.547 28.528 186.451 28.288C186.403 28.096 186.403 27.904 186.499 27.712C186.595 27.952 186.643 28.144 186.691 28.384C186.787 28.624 186.835 28.768 186.931 29.008C187.075 28.96 187.027 28.864 187.027 28.768C186.835 28.336 186.691 27.856 186.643 27.424C186.931 27.328 186.931 27.328 187.315 27.472C187.363 27.664 187.411 27.808 187.555 28C187.603 28.192 187.795 28.336 187.843 28.528C187.939 28.72 188.035 28.864 188.227 29.008C188.275 29.056 188.323 29.152 188.371 29.248C188.851 30.4 189.187 31.504 189.427 32.656C189.427 32.752 189.427 32.8 189.475 32.848C189.811 33.28 189.907 33.808 190.147 34.24C190.291 34.624 190.531 34.912 190.819 35.104C191.347 35.536 191.923 35.824 192.595 35.968C192.643 35.824 192.691 35.68 192.691 35.488C192.931 34.336 192.835 33.184 192.595 32.08C192.451 31.216 192.211 30.4 191.779 29.536C191.587 29.056 191.203 28.624 190.819 28.24C190.771 28.096 190.675 28.048 190.675 27.856C190.723 27.76 190.627 27.712 190.483 27.616C189.571 26.8 188.947 25.696 188.275 24.736C188.227 24.64 188.179 24.592 188.131 24.496C187.939 23.968 187.939 23.968 187.363 23.536C187.459 23.728 187.555 23.92 187.603 24.064C187.747 24.256 187.795 24.448 187.939 24.688C187.363 24.208 185.827 21.28 185.731 20.416C185.971 20.32 185.971 20.08 185.923 19.84C185.779 19.504 185.731 19.168 185.683 18.736C185.491 18.976 185.587 19.312 185.299 19.504C185.299 19.456 185.251 19.408 185.251 19.312C185.155 18.688 184.819 18.112 184.819 17.44C184.963 17.68 185.011 17.872 185.059 18.112C185.107 18.112 185.155 18.112 185.155 18.112C185.155 17.824 185.155 17.584 185.107 17.296C185.059 16.864 185.059 16.432 185.203 16C185.203 15.856 185.203 15.76 185.203 15.616C185.203 15.28 185.155 14.944 185.107 14.752C185.059 15.088 185.011 15.568 184.963 16C184.915 16.336 184.915 16.576 184.867 16.912C184.819 16.816 184.819 16.768 184.819 16.768C184.387 14.8 184.435 12.88 185.203 11.008C185.443 10.192 185.923 9.472 186.595 8.848C187.459 8.08 188.467 7.792 189.571 8.176C189.859 8.272 190.099 8.224 190.387 8.224C190.867 8.176 191.395 8.08 191.875 8.08C192.211 8.08 192.499 8.128 192.787 8.224C193.555 8.56 194.419 8.896 195.187 9.28C196.243 9.76 197.011 10.672 197.491 11.728C197.827 12.4 198.067 13.12 198.259 13.84C198.355 14.176 198.499 14.56 198.595 14.896C198.835 15.376 198.835 15.856 198.931 16.432C199.027 16.912 199.027 17.488 199.075 18.016C199.123 18.16 199.027 18.256 199.027 18.4H198.979C198.979 18.208 198.931 18.016 198.883 17.824C198.691 18.016 198.739 18.208 198.691 18.4C198.691 18.64 198.691 18.832 198.595 19.12C198.499 19.264 198.595 19.504 198.643 19.744C198.403 19.84 198.211 19.936 198.067 20.032C197.731 20.224 197.731 20.224 197.779 20.56C197.779 20.608 197.779 20.656 197.779 20.752C197.587 20.752 197.443 20.8 197.299 20.848C196.915 20.896 196.483 20.944 196.147 21.04C195.811 21.088 195.763 21.088 195.667 20.752C195.523 20.416 195.331 19.936 195.235 19.504C195.187 19.456 195.139 19.36 195.091 19.264C194.851 19.264 194.659 19.12 194.659 18.832C194.611 18.592 194.515 18.352 194.467 18.064C194.323 18.016 194.323 18.304 194.131 18.16C193.843 18.208 193.795 17.968 193.747 17.776C193.555 16.912 193.411 16.144 193.171 15.328C192.979 14.656 192.691 13.984 192.499 13.264C192.451 13.12 192.355 12.976 192.115 13.024C192.067 13.024 191.923 12.928 191.827 12.88C191.731 12.784 191.683 12.736 191.539 12.64C191.491 12.832 191.443 12.928 191.395 13.072C191.251 13.312 191.107 13.648 190.915 13.984C190.531 14.608 190.243 15.28 190.099 16.048C190.003 16.48 190.051 16.864 190.195 17.248C190.531 18.544 191.155 19.648 191.827 20.8C192.643 22.192 193.651 23.392 194.659 24.592C195.427 25.648 196.243 26.656 196.819 27.808C196.915 28 196.963 28.192 197.059 28.384C197.107 28.528 197.155 28.672 197.251 28.816C197.731 29.44 198.067 30.112 198.355 30.784C198.499 31.264 198.787 31.696 198.979 32.128C199.363 33.232 199.555 34.336 199.411 35.536ZM192.739 30.592C192.691 30.784 192.739 30.976 192.643 31.072C192.595 31.36 192.595 31.552 192.643 31.84C192.979 33.184 193.171 34.48 193.219 35.92C193.219 35.92 193.219 35.968 193.219 36.064C193.459 36.064 193.603 36.064 193.843 36.064C194.035 35.296 193.987 34.528 193.843 33.76C193.651 32.8 193.363 31.888 193.219 30.976C193.219 30.88 193.219 30.784 193.219 30.736C193.171 30.64 193.075 30.592 193.027 30.544C193.075 31.168 193.219 31.744 193.123 32.368C193.027 31.792 192.883 31.264 192.739 30.592ZM185.251 33.328C185.443 34.432 186.979 36.784 187.795 37.072C187.123 36.448 186.691 35.728 186.355 34.864C186.259 34.72 186.211 34.48 186.115 34.336C185.827 34 185.491 33.616 185.251 33.328ZM191.059 40.288L191.107 40.24C190.819 40 190.627 39.808 190.339 39.616C190.291 39.568 190.243 39.568 190.147 39.568C189.907 39.568 189.667 39.616 189.379 39.664C189.571 39.952 189.763 40.096 190.003 40.144C190.387 40.192 190.771 40.24 191.059 40.288ZM191.347 39.184C191.731 39.472 192.403 39.52 192.691 39.28C192.499 39.184 192.307 39.04 192.067 38.992C191.971 38.944 191.875 38.944 191.779 38.944C191.683 38.992 191.491 39.136 191.347 39.184ZM195.427 9.76C195.379 9.808 195.379 9.808 195.331 9.856C195.523 10.048 195.715 10.192 195.907 10.384C195.955 10.384 195.955 10.384 195.955 10.336C195.763 10.144 195.619 9.952 195.427 9.76ZM184.291 27.712C184.291 27.952 184.243 28.144 184.243 28.384C184.003 28.048 184.003 28 184.291 27.712ZM183.523 28.768C183.475 28.528 183.475 28.432 183.667 28.288C183.715 28.48 183.667 28.624 183.523 28.768ZM206.807 35.92C206.279 35.392 206.039 34.816 205.895 34.144C205.607 33.184 205.559 32.176 205.415 31.168C205.175 28.048 205.175 24.976 205.367 21.856L205.607 19.792C205.703 18.352 205.991 16.864 206.039 15.376C206.039 15.28 206.039 15.088 205.991 14.944C205.943 15.136 205.895 15.376 205.847 15.568H205.799L205.943 14.032L205.559 13.936L203.399 13.552C203.255 13.504 203.015 13.456 202.919 13.216C203.015 13.12 203.063 13.072 203.207 12.976V12.736C202.919 12.688 202.679 12.64 202.439 12.544C202.295 12.544 202.151 12.448 202.247 12.208C202.295 12.016 202.055 12.016 202.007 11.824L202.583 11.488C202.439 11.296 202.055 11.296 201.911 10.912L202.439 10.528H202.631C202.967 10.528 203.303 10.528 203.543 10.48L201.911 10.336C201.911 10.048 201.911 9.808 201.911 9.52C202.103 9.472 202.343 9.472 202.439 9.28C202.583 9.184 202.823 9.184 202.967 9.184H205.943H206.423L206.615 7.888C206.855 6.304 207.047 4.72 207.335 3.088C207.383 2.704 207.479 2.32 207.575 1.984L207.767 1.264C207.863 0.879997 208.199 0.879997 208.535 0.783998C208.631 0.783998 208.727 0.927999 208.823 1.024L208.679 1.168V1.264L209.399 1.168L209.639 1.504L209.831 1.264C209.879 1.264 209.927 1.264 209.927 1.264L210.791 1.888C211.079 2.176 211.223 2.464 211.271 2.8C211.367 3.232 211.463 3.712 211.463 4.144C211.511 4.912 211.511 5.68 211.559 6.448C211.559 7.12 211.511 7.792 211.559 8.56C211.559 8.896 211.559 9.28 211.607 9.616C211.943 9.712 212.231 9.76 212.471 9.808C213.047 9.904 213.575 10 214.151 10.288C214.679 10.528 215.255 10.624 215.927 10.72L217.127 10.912C217.511 11.056 217.895 11.248 218.135 11.44C218.135 11.824 217.895 11.536 217.799 11.584C217.895 11.872 218.231 12.016 218.279 12.352L218.087 12.4L218.423 13.072L217.799 13.648L218.087 13.744C218.087 13.744 218.087 13.792 218.039 13.792L216.983 14.032L216.263 14.08L216.695 14.368C216.503 14.416 216.359 14.56 216.263 14.56C215.975 14.608 215.591 14.752 215.255 14.752C214.247 14.752 213.239 14.8 212.231 14.656C212.039 14.656 211.799 14.656 211.511 14.608L211.415 15.376C211.415 15.424 211.415 15.472 211.415 15.472C211.607 15.664 211.511 15.856 211.511 16C211.511 17.104 211.511 18.208 211.511 19.312C211.511 19.456 211.559 19.552 211.559 19.696C211.607 19.84 211.607 20.032 211.607 20.224L211.511 24.496C211.511 26.464 211.511 28.48 211.607 30.448C211.751 31.696 211.943 32.992 212.087 34.192C212.135 34.432 212.231 34.72 212.327 35.008C212.327 35.056 212.423 35.152 212.519 35.056C212.519 35.008 212.615 35.056 212.663 35.104C212.711 35.248 212.855 35.2 212.999 35.104L213.527 34.432C213.575 34.384 213.575 34.24 213.575 34.192C213.575 34.096 213.527 34.048 213.527 33.904C213.623 33.952 213.671 34.048 213.767 34.096C213.959 33.76 214.199 33.472 213.959 33.04L214.583 33.184C214.823 32.8 215.351 32.56 215.015 31.984C215.159 31.792 215.543 31.696 215.783 31.792C215.975 31.888 216.023 32.08 215.975 32.464L216.455 32.176C216.551 32.08 216.695 32.08 216.887 32.128C217.223 32.272 217.511 32.416 217.751 32.704C217.847 32.848 217.943 32.992 218.087 33.088C218.327 33.28 218.519 33.568 218.519 33.952C218.519 34.096 218.519 34.144 218.567 34.24C218.807 34.624 218.711 34.96 218.519 35.248C217.943 36.016 217.367 36.832 216.647 37.504C216.455 37.648 216.311 37.792 216.167 38.08C216.119 38.272 216.023 38.512 215.927 38.704C215.687 39.088 215.399 39.376 215.015 39.568L212.999 40.48C212.567 40.576 212.231 40.624 211.799 40.48C210.791 40.192 209.783 39.616 208.967 38.944C209.015 38.944 209.159 38.992 209.255 38.992C209.015 38.464 208.583 38.128 208.055 37.84C208.199 38.176 208.487 38.416 208.679 38.704C207.815 38.08 207.239 37.36 206.999 36.352C206.951 36.16 206.999 35.92 206.759 35.92C206.807 35.824 206.903 35.776 206.855 35.728L206.759 34.912L206.615 34.768C206.519 35.008 206.519 35.248 206.663 35.536C206.711 35.632 206.759 35.776 206.807 35.92ZM213.575 38.992C213.767 38.992 213.911 38.8 214.055 38.656C213.815 38.656 213.623 38.656 213.479 38.704C213.335 38.752 213.335 38.8 213.431 38.944C213.191 38.896 213.047 39.04 212.951 39.28C213.239 39.376 213.383 39.28 213.575 38.992ZM205.751 24.064L206.087 26.656C206.087 26.8 206.087 26.944 206.087 27.088C206.087 28.048 206.135 28.96 206.183 29.92C206.231 30.736 206.279 31.504 206.279 32.272L206.327 32.992C206.327 33.136 206.375 33.232 206.471 33.328L206.615 30.448V29.68L206.471 26.8C206.471 25.696 206.471 24.64 206.471 23.584C206.519 22.768 206.471 21.952 206.711 21.184C206.807 20.944 206.855 20.752 206.855 20.512C206.855 20.416 206.855 20.224 206.807 20.176C206.615 19.936 206.615 19.696 206.663 19.504C206.663 18.832 206.711 18.208 206.711 17.536C206.759 17.296 206.807 17.2 206.999 17.152V14.128L206.423 14.032L206.279 15.568C206.279 16.384 206.231 17.248 206.135 18.064C206.135 18.4 206.087 18.688 206.087 19.024C206.087 19.312 206.135 19.504 206.087 19.696C206.087 20.416 205.991 21.088 205.943 21.712H205.895V21.328C205.751 21.712 205.607 22.24 205.511 22.624C205.463 22.768 205.415 22.96 205.415 23.104L205.607 24.4L205.655 24.448C205.655 24.304 205.703 24.208 205.751 24.064ZM207.719 35.728V35.392C207.575 34.336 207.383 33.28 207.383 32.272C207.335 31.264 207.047 30.304 206.951 29.344C206.855 29.488 206.807 29.584 206.807 29.728C206.807 30.064 206.807 30.448 206.855 30.736C206.903 31.648 206.951 32.56 206.999 33.472C207.095 34.096 207.239 34.624 207.383 35.152C207.383 35.344 207.479 35.536 207.719 35.728ZM208.103 33.664L207.863 32.32H207.815C207.863 32.608 207.863 32.848 207.911 33.136L208.343 35.536C208.391 35.728 208.487 35.92 208.727 35.968C209.207 36.112 209.591 36.448 209.879 36.832C209.975 36.976 210.167 37.168 210.311 37.312C210.455 37.408 210.551 37.456 210.647 37.264L209.735 36.496C209.399 36.16 209.015 35.872 208.823 35.392L208.295 34.096C208.295 34 208.295 33.904 208.295 33.856C208.295 33.712 208.151 33.808 208.151 33.76C208.103 33.76 208.103 33.712 208.103 33.664ZM212.855 38.704L212.375 38.464C212.135 38.416 212.135 38.416 211.895 38.656L212.183 38.848C212.519 39.088 212.519 39.088 212.855 38.704ZM211.751 36.112L211.031 35.632C211.031 35.92 211.175 36.256 211.463 36.496L211.751 36.112ZM215.447 33.28L215.207 33.568L215.495 33.76C215.543 33.568 215.543 33.424 215.543 33.28C215.543 33.28 215.495 33.28 215.447 33.28ZM204.311 10.48C204.311 10.528 204.311 10.528 204.311 10.528L204.887 10.624V10.528C204.695 10.432 204.503 10.48 204.311 10.48ZM206.039 19.312V19.504V19.312ZM236.133 16.768C236.037 16.624 235.989 16.48 235.845 16.384L235.749 16.528L235.461 16.192C235.365 16.576 235.509 16.912 235.461 17.296L234.165 17.248C233.973 17.248 233.877 17.104 233.829 16.912C233.781 16.768 233.685 16.672 233.541 16.576C233.445 16.576 233.397 16.48 233.397 16.384C233.013 15.808 232.725 15.184 232.629 14.512C232.533 14.032 232.437 13.456 232.389 12.928C232.245 12.208 232.341 11.488 232.437 10.768C232.485 10.384 232.485 10.048 232.533 9.664C232.533 9.616 232.533 9.568 232.533 9.568C232.245 9.472 232.437 9.28 232.485 9.136C232.725 8.08 233.205 7.072 233.877 6.304C234.021 6.16 234.213 5.968 234.357 5.872L236.517 4.72C236.757 4.528 236.997 4.528 237.237 4.72C237.381 4.816 237.573 4.816 237.765 4.72C238.581 4.096 239.445 3.664 240.405 3.472C240.453 3.472 240.501 3.424 240.597 3.376H240.117C239.349 3.376 238.677 3.616 237.957 3.856L236.181 4.384L236.373 4.192C238.197 2.896 240.261 2.608 242.421 3.328C242.565 3.424 242.709 3.424 242.853 3.424C244.005 3.424 245.013 3.76 246.021 4.24C246.357 4.48 246.789 4.672 247.125 4.864L247.509 5.056C248.469 5.584 248.949 6.352 249.189 7.408L249.381 7.888C249.669 8.464 249.813 9.088 249.861 9.664L250.149 11.104C250.341 12.256 250.245 13.456 250.053 14.656C249.813 16.336 249.333 17.968 248.805 19.6C248.805 19.744 248.709 19.888 248.661 20.08C248.613 20.272 248.565 20.464 248.277 20.56C248.181 20.56 248.085 20.8 248.037 20.944C247.605 22 247.221 23.056 246.789 24.064C245.493 26.944 244.533 29.968 243.429 32.992L242.757 34.72C242.757 34.864 242.661 35.008 242.613 35.152H242.997L244.917 35.008C246.213 35.008 247.509 35.152 248.805 35.44L249.813 35.728L249.861 35.968L249.573 36.064L250.245 36.352C250.053 36.688 250.245 36.928 250.389 37.168C250.629 37.552 250.773 37.936 250.965 38.368C251.061 38.512 251.061 38.656 250.965 38.704L250.053 39.664C250.293 39.76 250.293 39.76 250.773 39.76C250.629 39.856 250.581 39.904 250.437 40L249.093 40.816C248.901 40.96 248.613 41.008 248.325 40.96C247.701 40.816 247.029 40.72 246.357 40.576C245.397 40.48 244.437 40.432 243.477 40.48C242.949 40.48 242.421 40.48 241.845 40.48H241.605L241.653 40.24C241.605 40.192 241.509 40.096 241.365 40.048C241.125 39.952 240.933 39.904 240.693 39.76C240.597 39.712 240.405 39.664 240.261 39.52C240.117 39.328 239.829 39.328 239.685 39.376C239.733 39.568 239.781 39.664 239.829 39.856C239.493 39.904 239.061 39.904 238.725 39.76C238.677 39.712 238.581 39.664 238.581 39.568L238.245 38.848H237.813C237.381 38.8 236.997 38.8 236.565 38.752C236.181 38.704 235.845 38.56 235.749 38.08C235.749 38.032 235.701 37.936 235.653 37.888L235.173 37.264C234.981 37.072 234.981 36.88 235.125 36.688C235.269 36.208 235.557 35.776 235.749 35.296L237.285 31.12C238.053 28.816 239.013 26.656 239.925 24.4C241.077 21.664 242.133 18.784 243.093 15.952C243.189 15.616 243.429 15.28 243.525 14.944C243.861 14.224 244.149 13.6 244.341 12.928C244.437 12.544 244.485 12.208 244.533 11.872C244.581 11.392 244.581 10.96 244.581 10.48C244.629 9.808 244.485 9.28 243.861 8.896C243.765 8.848 243.669 8.752 243.573 8.704C242.949 8.224 242.229 8.176 241.509 8.368L241.125 8.56C240.117 9.232 239.301 10.048 238.629 11.056L238.533 11.152C237.765 12.208 237.333 13.408 237.189 14.704C237.093 15.184 236.949 15.664 236.901 16.144C236.805 16.576 236.565 16.768 236.133 16.768ZM235.413 7.312C235.125 7.552 234.789 7.84 234.741 8.176C235.125 7.984 235.269 7.696 235.413 7.312ZM247.893 5.776C248.085 6.208 248.373 6.544 248.613 6.688C248.421 6.304 248.229 6.016 247.893 5.776ZM242.613 35.488V35.536L244.437 35.488V35.392C243.861 35.44 243.285 35.488 242.613 35.488ZM232.533 10.192C232.821 9.952 232.773 9.568 232.869 9.28H232.773C232.725 9.568 232.629 9.856 232.533 10.192ZM245.253 39.28C245.157 39.184 244.965 39.088 244.725 39.232C244.917 39.424 245.109 39.376 245.253 39.28ZM246.309 35.536L247.413 35.728C247.077 35.584 246.741 35.488 246.309 35.536ZM233.733 8.368C233.685 8.368 233.685 8.368 233.637 8.368C233.589 8.56 233.541 8.752 233.445 8.944C233.493 8.992 233.541 8.992 233.541 8.992C233.637 8.8 233.685 8.56 233.733 8.368ZM250.245 36.064C250.437 36.064 250.485 36.064 250.629 36.064C250.485 36.256 250.437 36.16 250.245 36.064ZM269.121 7.648C269.265 7.744 269.361 7.792 269.457 7.888C269.841 8.368 270.321 8.848 270.705 9.376C271.185 10 271.329 10.72 271.569 11.44C272.001 12.928 272.241 14.368 272.481 15.856C272.577 16.72 272.913 17.536 273.105 18.4C273.153 18.736 273.297 19.024 273.393 19.408C273.489 19.696 273.537 20.032 273.585 20.416C273.729 21.664 273.777 22.96 273.777 24.208C273.825 25.84 273.729 27.424 273.537 28.96C273.297 31.024 272.865 33.04 271.905 34.96C271.665 35.392 271.329 35.824 271.041 36.256C270.897 36.448 270.753 36.64 270.657 36.832C270.513 37.072 270.369 37.36 270.225 37.648C269.841 38.224 269.361 38.656 268.689 38.944C267.969 39.328 267.153 39.664 266.337 39.952C265.521 40.288 264.705 40.288 263.841 39.904C263.361 39.616 262.881 39.568 262.305 39.568C262.161 39.568 261.921 39.568 261.681 39.568C261.489 39.568 261.345 39.52 261.249 39.328C261.249 39.184 261.105 39.184 261.009 39.088C260.337 38.8 259.761 38.464 259.233 37.936C258.705 37.552 258.225 37.12 257.697 36.736C257.025 36.112 256.497 35.392 256.065 34.576C255.201 32.608 254.625 30.496 254.385 28.336C254.289 27.712 254.241 26.992 254.289 26.32C254.289 26.272 254.289 26.224 254.385 26.176C254.433 26.704 254.481 27.184 254.481 27.712C254.529 27.712 254.529 27.712 254.529 27.712C254.529 27.472 254.529 27.184 254.529 26.944C254.481 26.08 254.481 25.264 254.673 24.4C254.673 24.352 254.673 24.256 254.673 24.208C254.481 23.968 254.577 23.68 254.577 23.392C254.577 22.768 254.625 22.192 254.625 21.52C254.625 21.376 254.625 21.28 254.529 21.136C254.481 22 254.385 22.864 254.289 23.728H254.241C254.241 23.584 254.241 23.44 254.241 23.296C254.289 22 254.385 20.656 254.481 19.36C254.673 17.872 254.865 16.384 255.057 14.944C255.393 12.88 255.777 10.864 256.689 8.944C257.121 7.888 257.601 6.88 258.321 5.968C258.753 5.44 259.233 4.96 259.761 4.624C261.057 3.856 262.305 3.616 263.793 4.048C264.225 4.192 264.705 4.336 265.137 4.528C265.233 4.528 265.281 4.624 265.329 4.72C265.521 4.912 265.665 5.104 265.809 5.344C265.761 5.488 265.665 5.584 265.569 5.68C265.761 5.728 265.905 5.776 266.049 5.824C266.241 5.824 266.337 5.872 266.289 6.016C266.145 6.256 266.337 6.352 266.433 6.544C266.817 6.976 267.249 7.456 267.633 7.936C267.777 8.08 267.969 8.224 268.161 8.368C268.881 9.04 269.457 9.808 269.889 10.72C270.081 11.248 270.369 11.632 270.561 12.16C270.657 12.256 270.801 12.352 270.897 12.496C271.041 12.592 271.137 12.688 271.281 12.784C271.233 12.688 271.233 12.592 271.185 12.496C270.993 11.824 270.801 11.152 270.561 10.48C270.177 9.424 269.457 8.56 268.593 7.84C268.545 7.792 268.401 7.696 268.305 7.648C268.593 7.6 268.593 7.6 268.881 7.792C269.121 8.032 269.457 8.32 269.697 8.56C269.601 8.32 269.457 8.176 269.361 7.984C269.265 7.84 269.217 7.744 269.121 7.648ZM262.737 9.28C262.689 9.376 262.689 9.424 262.641 9.472C262.353 10.144 262.161 10.72 261.969 11.392C261.249 13.552 260.817 15.712 260.673 17.968C260.625 19.12 260.481 20.368 260.433 21.472C260.337 23.872 260.241 26.224 260.433 28.624C260.577 29.872 260.721 31.168 261.057 32.416C261.201 32.752 261.249 33.04 261.489 33.232C262.401 34.192 263.553 34.672 264.753 35.008C264.897 35.056 264.945 35.008 265.041 34.912C265.185 34.624 265.329 34.384 265.473 34.096C265.953 32.992 266.337 31.84 266.625 30.592C267.057 28.288 267.249 25.888 267.393 23.488C267.537 21.712 267.345 19.936 267.441 18.16C267.489 17.2 267.249 16.24 267.057 15.28C266.817 14.32 266.481 13.36 266.145 12.352C266.049 12.064 265.809 11.776 265.617 11.488C264.849 10.624 263.889 9.952 262.881 9.28C262.881 9.28 262.833 9.28 262.737 9.28ZM258.417 19.312C258.369 19.312 258.369 19.312 258.321 19.312C258.321 19.408 258.321 19.504 258.321 19.552C258.225 20.272 258.129 20.992 258.129 21.664C258.081 22.096 258.081 22.432 258.033 22.816C258.033 23.008 258.033 23.152 258.321 23.152C258.321 23.152 258.321 23.056 258.321 23.008C258.417 22.192 258.465 21.328 258.513 20.464C258.609 19.744 258.705 19.072 258.849 18.4C259.425 15.088 260.385 12.016 261.873 8.992C261.921 8.896 261.969 8.8 261.969 8.704C261.777 8.56 261.585 8.512 261.393 8.368C261.489 8.272 261.585 8.176 261.633 8.032C261.873 8.032 261.969 8.272 262.161 8.224C262.161 7.888 261.777 7.888 261.633 7.648C261.345 7.888 261.201 8.224 261.057 8.56C260.673 9.28 260.385 10 260.145 10.72C259.425 12.544 259.041 14.368 258.849 16.288C258.657 17.44 258.561 18.592 258.465 19.696C258.465 19.552 258.417 19.456 258.417 19.312ZM268.929 27.472C268.977 26.848 269.025 26.368 269.073 25.888C269.073 25.888 269.073 25.888 269.121 25.888C269.169 25.984 269.217 26.176 269.217 26.368C269.265 26.368 269.265 26.368 269.313 26.368C269.313 25.456 269.361 24.544 269.313 23.632C269.313 22.384 269.121 21.232 269.169 20.032C269.169 19.744 269.169 19.504 269.169 19.312C269.121 19.216 269.073 19.12 269.073 18.976C269.073 18.976 269.025 18.976 268.977 18.976C268.977 19.168 268.977 19.312 268.977 19.504C268.977 20.224 268.929 20.944 268.929 21.664C268.881 22.24 268.833 22.72 268.833 23.2C268.881 24.448 268.833 25.744 268.689 26.944C268.689 27.184 268.737 27.328 268.929 27.472ZM267.441 15.136C267.441 14.992 267.441 14.944 267.441 14.944C267.105 13.696 266.817 12.544 266.481 11.344C266.433 11.152 266.289 10.96 266.145 10.816C265.761 10.432 265.329 10.144 264.897 9.808C264.897 9.808 264.897 9.76 264.849 9.76C265.425 10.528 265.809 11.44 266.337 12.304C266.817 13.168 267.009 14.176 267.441 15.136ZM257.793 10.384C257.025 12.016 256.497 13.648 256.305 15.424C256.401 15.28 256.449 15.232 256.449 15.136C256.641 14.368 256.833 13.648 257.169 12.928C257.601 12.112 257.601 11.296 257.793 10.384ZM268.449 29.68C268.353 30.16 268.257 30.592 268.161 31.024C268.497 30.592 268.545 30.208 268.449 29.68ZM264.225 9.808C263.985 9.472 263.601 9.136 263.265 9.088C263.601 9.328 263.937 9.568 264.225 9.808ZM269.793 12.16C269.793 12.112 269.793 12.112 269.841 12.112C269.793 11.776 269.601 11.344 269.457 11.104C269.505 11.44 269.649 11.824 269.793 12.16ZM264.705 36.784C264.705 36.832 264.705 36.832 264.705 36.832C264.849 36.976 264.945 36.928 265.089 36.832C264.945 36.784 264.849 36.784 264.705 36.784ZM254.577 28.432V28.384C254.577 28.24 254.577 28.144 254.577 28.048C254.577 28.144 254.577 28.288 254.577 28.432ZM269.121 7.648C269.025 7.6 268.881 7.504 268.689 7.408C268.689 7.36 268.737 7.36 268.785 7.312C268.881 7.456 269.025 7.6 269.121 7.648ZM280.289 16.768C280.193 16.624 280.145 16.48 280.001 16.384L279.905 16.528L279.617 16.192C279.521 16.576 279.665 16.912 279.617 17.296L278.321 17.248C278.129 17.248 278.033 17.104 277.985 16.912C277.937 16.768 277.841 16.672 277.697 16.576C277.601 16.576 277.553 16.48 277.553 16.384C277.169 15.808 276.881 15.184 276.785 14.512C276.689 14.032 276.593 13.456 276.545 12.928C276.401 12.208 276.497 11.488 276.593 10.768C276.641 10.384 276.641 10.048 276.689 9.664C276.689 9.616 276.689 9.568 276.689 9.568C276.401 9.472 276.593 9.28 276.641 9.136C276.881 8.08 277.361 7.072 278.033 6.304C278.177 6.16 278.369 5.968 278.513 5.872L280.673 4.72C280.913 4.528 281.153 4.528 281.393 4.72C281.537 4.816 281.729 4.816 281.921 4.72C282.737 4.096 283.601 3.664 284.561 3.472C284.609 3.472 284.657 3.424 284.753 3.376H284.273C283.505 3.376 282.833 3.616 282.113 3.856L280.337 4.384L280.529 4.192C282.353 2.896 284.417 2.608 286.577 3.328C286.721 3.424 286.865 3.424 287.009 3.424C288.161 3.424 289.169 3.76 290.177 4.24C290.513 4.48 290.945 4.672 291.281 4.864L291.665 5.056C292.625 5.584 293.105 6.352 293.345 7.408L293.537 7.888C293.825 8.464 293.969 9.088 294.017 9.664L294.305 11.104C294.497 12.256 294.401 13.456 294.209 14.656C293.969 16.336 293.489 17.968 292.961 19.6C292.961 19.744 292.865 19.888 292.817 20.08C292.769 20.272 292.721 20.464 292.433 20.56C292.337 20.56 292.241 20.8 292.193 20.944C291.761 22 291.377 23.056 290.945 24.064C289.649 26.944 288.689 29.968 287.585 32.992L286.913 34.72C286.913 34.864 286.817 35.008 286.769 35.152H287.153L289.073 35.008C290.369 35.008 291.665 35.152 292.961 35.44L293.969 35.728L294.017 35.968L293.729 36.064L294.401 36.352C294.209 36.688 294.401 36.928 294.545 37.168C294.785 37.552 294.929 37.936 295.121 38.368C295.217 38.512 295.217 38.656 295.121 38.704L294.209 39.664C294.449 39.76 294.449 39.76 294.929 39.76C294.785 39.856 294.737 39.904 294.593 40L293.249 40.816C293.057 40.96 292.769 41.008 292.481 40.96C291.857 40.816 291.185 40.72 290.513 40.576C289.553 40.48 288.593 40.432 287.633 40.48C287.105 40.48 286.577 40.48 286.001 40.48H285.761L285.809 40.24C285.761 40.192 285.665 40.096 285.521 40.048C285.281 39.952 285.089 39.904 284.849 39.76C284.753 39.712 284.561 39.664 284.417 39.52C284.273 39.328 283.985 39.328 283.841 39.376C283.889 39.568 283.937 39.664 283.985 39.856C283.649 39.904 283.217 39.904 282.881 39.76C282.833 39.712 282.737 39.664 282.737 39.568L282.401 38.848H281.969C281.537 38.8 281.153 38.8 280.721 38.752C280.337 38.704 280.001 38.56 279.905 38.08C279.905 38.032 279.857 37.936 279.809 37.888L279.329 37.264C279.137 37.072 279.137 36.88 279.281 36.688C279.425 36.208 279.713 35.776 279.905 35.296L281.441 31.12C282.209 28.816 283.169 26.656 284.081 24.4C285.233 21.664 286.289 18.784 287.249 15.952C287.345 15.616 287.585 15.28 287.681 14.944C288.017 14.224 288.305 13.6 288.497 12.928C288.593 12.544 288.641 12.208 288.689 11.872C288.737 11.392 288.737 10.96 288.737 10.48C288.785 9.808 288.641 9.28 288.017 8.896C287.921 8.848 287.825 8.752 287.729 8.704C287.105 8.224 286.385 8.176 285.665 8.368L285.281 8.56C284.273 9.232 283.457 10.048 282.785 11.056L282.689 11.152C281.921 12.208 281.489 13.408 281.345 14.704C281.249 15.184 281.105 15.664 281.057 16.144C280.961 16.576 280.721 16.768 280.289 16.768ZM279.569 7.312C279.281 7.552 278.945 7.84 278.897 8.176C279.281 7.984 279.425 7.696 279.569 7.312ZM292.049 5.776C292.241 6.208 292.529 6.544 292.769 6.688C292.577 6.304 292.385 6.016 292.049 5.776ZM286.769 35.488V35.536L288.593 35.488V35.392C288.017 35.44 287.441 35.488 286.769 35.488ZM276.689 10.192C276.977 9.952 276.929 9.568 277.025 9.28H276.929C276.881 9.568 276.785 9.856 276.689 10.192ZM289.409 39.28C289.313 39.184 289.121 39.088 288.881 39.232C289.073 39.424 289.265 39.376 289.409 39.28ZM290.465 35.536L291.569 35.728C291.233 35.584 290.897 35.488 290.465 35.536ZM277.889 8.368C277.841 8.368 277.841 8.368 277.793 8.368C277.745 8.56 277.697 8.752 277.601 8.944C277.649 8.992 277.697 8.992 277.697 8.992C277.793 8.8 277.841 8.56 277.889 8.368ZM294.401 36.064C294.593 36.064 294.641 36.064 294.785 36.064C294.641 36.256 294.593 36.16 294.401 36.064ZM299.934 31.984C299.694 31.408 299.598 30.784 299.55 30.208C299.502 29.776 299.694 29.488 299.886 29.152C299.982 28.864 300.222 28.768 300.654 28.864C300.798 28.624 300.99 28.432 301.326 28.48C301.47 28.528 301.614 28.432 301.662 28.624C301.662 28.624 301.854 28.672 301.854 28.624C302.046 28.432 302.334 28.528 302.574 28.576C302.574 28.624 302.622 28.72 302.622 28.768C302.622 28.96 302.622 29.008 302.766 29.056V29.104C303.054 29.152 302.91 29.488 303.102 29.536C303.342 29.68 303.342 29.824 303.342 30.064C303.342 30.256 303.342 30.448 303.438 30.544L303.966 31.648L304.302 32.272C304.638 32.992 304.974 33.76 305.406 34.528C305.79 35.296 306.462 35.728 307.278 35.968C307.518 36.016 307.662 36.016 307.806 35.92C308.094 35.68 308.382 35.44 308.622 35.152C308.766 35.104 308.814 35.008 308.814 34.912L308.43 35.104L308.526 34.912C308.67 34.672 308.814 34.432 309.006 34.24C309.534 33.52 309.774 32.608 309.918 31.696C309.918 31.6 309.966 31.504 309.918 31.456C309.822 30.88 309.678 30.304 309.534 29.68C309.534 29.68 309.486 29.68 309.39 29.536C309.246 30.544 309.246 31.504 308.766 32.416C308.862 31.888 309.054 31.36 309.006 30.832C308.91 31.36 308.862 31.792 308.622 32.272C308.622 31.84 308.718 31.408 308.718 31.024C308.766 29.536 308.526 28.096 308.094 26.704C308.046 26.512 307.902 26.416 307.758 26.32C306.894 25.744 305.934 25.312 304.878 25.12C304.59 25.024 304.398 24.976 304.11 24.976L303.582 24.88C303.966 24.496 304.254 24.16 304.59 23.872L304.974 23.632C304.974 23.632 304.974 23.584 304.974 23.536L304.158 23.44L304.59 23.872L304.014 23.728C303.582 23.632 303.246 23.536 302.814 23.632C302.622 23.632 302.574 23.488 302.478 23.296C302.43 23.152 302.478 23.056 302.622 22.96C302.67 22.912 302.766 22.816 302.91 22.768L302.622 22.576L302.238 22.336C302.142 22.24 301.95 22.144 301.854 22C301.854 21.856 301.902 21.664 301.854 21.472L301.758 20.704C301.71 20.416 301.71 20.416 301.902 20.224C302.622 19.84 303.246 19.456 303.87 19.072C305.214 18.4 306.222 17.344 306.942 16.096C307.134 15.856 307.278 15.472 307.518 15.184C307.902 14.656 308.142 14.032 308.334 13.456C308.43 13.168 308.526 12.928 308.622 12.736C308.91 12.016 309.054 11.296 309.054 10.528C309.054 10.144 309.006 9.712 308.718 9.424C308.286 8.944 307.902 8.56 307.326 8.272C307.182 8.128 306.942 8.08 306.702 8.032C306.03 7.984 305.502 8.224 305.022 8.704C304.35 9.424 303.966 10.24 303.774 11.152C303.63 11.824 303.534 12.448 303.438 13.12C303.342 13.552 303.198 13.984 303.006 14.368C302.958 14.56 302.814 14.704 302.622 14.704L301.662 14.8C301.614 14.944 301.614 14.992 301.614 15.088C301.566 15.088 301.518 15.088 301.518 15.088L300.846 14.944C300.846 14.944 300.798 14.944 300.702 14.944C300.222 14.944 299.982 14.8 299.838 14.368L299.55 13.984C299.358 13.648 299.166 13.264 299.07 12.928C298.686 11.68 298.59 10.432 298.686 9.184C298.734 8.8 298.878 8.512 299.022 8.224C299.166 8.032 299.214 7.84 299.214 7.648C299.262 7.264 299.31 6.88 299.358 6.496C298.974 6.64 298.974 7.024 298.782 7.312C298.782 6.448 299.07 5.728 299.55 5.008C300.174 4 300.99 3.376 302.094 3.04C303.342 2.608 304.59 2.416 305.886 2.704C306.318 2.848 306.702 2.992 307.086 3.088C307.278 3.184 307.47 3.232 307.662 3.28C308.622 3.376 309.534 3.664 310.35 4.144C311.022 4.624 311.742 5.056 312.414 5.584C313.326 6.208 313.806 7.12 314.046 8.224L314.478 10.72C314.526 11.392 314.574 12.016 314.478 12.688L314.238 14.128C314.046 15.136 313.902 16.192 313.614 17.152C313.374 17.968 313.086 18.736 312.654 19.504C312.75 18.928 312.942 18.496 313.134 17.968C313.086 17.968 313.038 17.968 313.038 17.92L312.75 18.448C312.318 19.504 311.55 20.32 310.638 20.944C310.446 21.088 310.254 21.136 310.206 21.376C310.254 21.424 310.35 21.472 310.446 21.52C311.358 22 312.03 22.624 312.51 23.488C313.086 24.64 313.662 25.792 314.094 26.992C314.334 27.904 314.526 28.816 314.622 29.728C314.67 30.4 314.718 30.976 314.766 31.552V31.888C314.67 32.176 314.718 32.416 314.814 32.656C315.006 32.944 314.958 33.184 314.862 33.472C314.67 34.24 314.286 35.008 313.758 35.68C313.566 35.968 313.374 36.304 313.182 36.64C312.75 37.552 312.222 38.32 311.55 38.992C311.166 39.472 310.734 39.808 310.206 40.096C309.87 40.288 309.438 40.48 309.054 40.624C308.478 40.96 307.854 40.96 307.182 40.816C306.99 40.816 306.798 40.816 306.606 40.864C306.318 40.96 306.078 41.008 305.886 41.008C305.886 41.056 305.838 41.056 305.838 41.104L306.894 41.392C306.318 41.44 305.886 41.344 305.406 41.152C305.214 41.008 304.974 40.96 304.782 40.864C304.206 40.672 303.678 40.384 303.294 39.952C303.198 39.904 303.15 39.808 303.15 39.712L303.966 40.24C303.678 39.856 303.438 39.52 302.91 39.328C302.142 39.088 301.614 38.608 301.47 37.744L301.374 37.504C301.23 36.832 301.23 36.832 300.606 36.4C300.654 36.544 300.654 36.64 300.702 36.784C300.75 36.832 300.798 36.976 300.798 37.12L300.654 36.976C300.462 36.688 300.222 36.448 300.078 36.112C299.79 35.392 299.502 34.672 299.166 33.904C299.07 33.712 299.07 33.376 298.83 33.232C298.686 32.848 298.494 32.416 298.398 32.032C298.302 31.696 298.302 31.36 298.206 31.072C298.206 30.544 298.206 30.064 298.542 29.584C298.734 29.344 298.878 29.152 299.166 29.056C299.214 29.056 299.31 29.056 299.406 29.104C299.31 29.152 299.214 29.2 299.166 29.296C299.118 29.344 299.022 29.344 299.118 29.488C299.118 29.536 299.118 29.536 299.07 29.536C298.782 29.776 298.926 30.112 298.926 30.448C299.022 30.304 299.166 30.208 299.31 30.112L299.358 30.16L299.118 30.448C298.974 30.544 298.974 30.736 298.974 30.928C298.974 31.12 299.022 31.312 299.022 31.456C299.118 32.08 299.31 32.608 299.454 33.232C299.502 33.616 299.694 33.904 299.934 34.24L299.694 32.992C299.694 32.608 299.694 32.272 299.934 31.984C299.886 32.224 299.838 32.368 299.934 32.608C299.934 32.368 299.934 32.224 299.934 31.984ZM313.182 26.176C313.182 26.176 313.182 26.176 313.134 26.176L313.326 27.136C313.566 28.336 313.518 29.536 313.47 30.688C313.422 31.168 313.518 31.504 313.614 31.936C313.614 32.032 313.662 32.128 313.71 32.224C314.286 32.08 314.286 32.032 314.286 31.6L314.046 31.888C314.19 30.544 314.19 29.344 313.902 28.048L313.71 28.192C313.614 27.52 313.518 26.8 313.182 26.176ZM303.87 39.568H303.822C304.062 39.808 304.254 40 304.446 40.24C304.974 40.816 305.55 40.672 306.222 40.624C305.646 40.384 305.166 40 304.686 39.568C304.638 39.568 304.59 39.52 304.59 39.52C304.35 39.568 304.11 39.568 303.87 39.568ZM311.07 36.88L309.534 38.368C309.966 38.464 310.206 38.368 310.398 38.08C310.59 37.744 310.83 37.504 310.974 37.168C311.022 37.12 311.07 36.976 311.118 36.928C311.07 36.88 311.07 36.88 311.07 36.88ZM302.958 4.912C302.67 5.152 302.382 5.392 302.19 5.728C302.67 5.68 302.67 5.2 302.958 4.912ZM310.926 22.432C310.686 22.144 310.35 21.904 309.966 21.76C310.206 22.096 310.638 22.24 310.926 22.432ZM306.846 36.736C307.134 36.832 307.326 36.976 307.662 36.832C307.326 36.592 307.134 36.64 306.846 36.736ZM306.558 36.256L305.742 35.92C305.934 36.256 306.078 36.304 306.558 36.256ZM312.654 6.304L312.942 6.784C312.99 6.784 312.99 6.736 312.99 6.736C312.942 6.544 312.798 6.352 312.654 6.256C312.654 6.256 312.654 6.256 312.654 6.304ZM298.782 32.224C298.782 32.272 298.734 32.272 298.686 32.272L298.782 32.8C298.83 32.8 298.878 32.8 298.878 32.8C298.83 32.608 298.782 32.416 298.782 32.224ZM300.558 29.872L300.654 29.392C300.462 29.536 300.462 29.536 300.558 29.872ZM300.558 5.44L300.846 5.008L300.798 4.96C300.654 5.056 300.51 5.2 300.558 5.44ZM307.518 36.64C307.71 36.64 307.806 36.64 307.902 36.4C307.71 36.496 307.662 36.544 307.518 36.64ZM300.606 6.256L300.654 6.352L300.846 5.968C300.798 5.968 300.798 5.968 300.798 5.968C300.702 6.064 300.654 6.16 300.606 6.256Z" fill="white"/>
</g>
<defs>
<filter id="filter0_d_2_2" x="0.104004" y="0.783997" width="318.902" height="54.896" filterUnits="userSpaceOnUse" color-interpolation-filters="sRGB">
<feFlood flood-opacity="0" result="BackgroundImageFix"/>
<feColorMatrix in="SourceAlpha" type="matrix" values="0 0 0 0 0 0 0 0 0 0 0 0 0 0 0 0 0 0 127 0" result="hardAlpha"/>
<feOffset dy="4"/>
<feGaussianBlur stdDeviation="2"/>
<feComposite in2="hardAlpha" operator="out"/>
<feColorMatrix type="matrix" values="0 0 0 0 0 0 0 0 0 0 0 0 0 0 0 0 0 0 0.25 0"/>
<feBlend mode="normal" in2="BackgroundImageFix" result="effect1_dropShadow_2_2"/>
<feBlend mode="normal" in="SourceGraphic" in2="effect1_dropShadow_2_2" result="shape"/>
</filter>
</defs>
</svg>
