<svg width="510" height="66" viewBox="0 0 510 66" fill="none" xmlns="http://www.w3.org/2000/svg">
<g filter="url(#filter0_d_1_3)">
<path d="M22.712 19.592L22.776 19.656V19.4L22.264 19.592C22.2 19.464 22.2 19.4 22.008 19.336L22.2 19.784C22.392 20.232 22.456 20.232 21.944 20.488C21.752 20.296 21.496 19.912 21.304 19.592C20.984 18.824 20.6 18.056 20.344 17.16C19.704 15.496 19.064 13.768 18.168 12.296C17.848 11.656 17.336 11.272 16.888 10.888C16.376 11.08 16.12 11.528 15.8 11.912C14.712 13.32 14.456 14.92 14.264 16.712C14.2 18.376 14.584 19.784 15.416 21.128C16.312 22.664 17.208 24.2 18.232 25.672C19.704 27.912 20.984 30.28 22.2 32.712C22.456 33.16 22.712 33.8 22.904 34.312C23.352 35.592 23.8 36.808 24.248 38.024C24.824 39.752 25.208 41.416 25.4 43.08C25.464 44.808 25.144 46.344 23.992 47.624C23.736 48.008 23.544 48.328 23.352 48.776C22.776 50.184 21.816 51.4 20.28 52.104C19.64 52.424 19.064 52.68 18.488 53C17.784 53.448 16.952 53.576 16.12 53.384C15.096 53.064 14.072 52.616 13.048 52.168C12.984 52.168 12.856 52.04 12.728 51.912C12.92 51.912 13.048 51.912 13.304 51.912C12.728 51.4 12.216 50.888 11.512 50.696C11.512 50.632 11.448 50.632 11.384 50.632C10.872 50.76 10.616 50.44 10.36 50.12C9.848 49.608 9.336 49.096 9.016 48.52C8.376 47.432 7.352 46.408 6.904 45.192C6.328 43.912 5.88 42.504 5.56 41.032C5.176 39.112 4.92 37.192 4.792 35.272C4.728 34.888 4.792 34.504 4.92 34.184C4.92 33.992 5.112 33.8 5.176 33.672C5.24 33.544 5.368 33.416 5.432 33.352C5.752 32.904 6.136 32.712 6.776 32.84C7.032 32.968 7.224 32.968 7.416 32.712C7.672 32.328 8.12 32.456 8.44 32.456C8.696 31.944 9.08 31.816 9.72 32.008C9.784 32.264 9.784 32.456 9.592 32.648C9.656 32.712 9.656 32.712 9.656 32.712L10.232 33.16C10.168 33.672 10.424 34.184 10.232 34.632C10.104 34.76 10.104 34.888 10.104 35.08C10.36 36.616 10.552 38.088 10.872 39.688C11.064 40.712 11.448 41.672 11.832 42.696C12.024 43.272 12.344 43.784 12.664 44.232L12.856 44.552C12.856 44.552 12.92 44.488 12.984 44.488C12.92 44.36 12.92 44.36 12.92 44.232C12.408 42.888 12.152 41.48 12.024 40.2L11.32 36.488L10.808 33.608L10.488 32.392C10.488 32.264 10.424 32.2 10.424 32.008C10.744 31.816 11 32.008 11.256 31.944C11.32 32.2 11.32 32.328 11.384 32.456C11.448 32.584 11.512 32.712 11.704 32.84C11.96 32.968 12.088 33.032 11.832 33.288L12.216 33.608C12.472 33.672 12.6 33.8 12.536 34.12C12.472 34.184 12.536 34.248 12.6 34.312C13.24 35.144 13.304 36.104 13.432 37.064L14.008 40.84C14.392 42.44 14.84 43.912 15.672 45.128L16.12 45.832C16.184 45.576 16.312 45.384 16.376 45.192C16.824 43.912 16.888 42.632 16.696 41.288C16.44 38.792 15.736 36.488 14.904 34.184C14.712 33.672 14.456 33.16 14.2 32.776C12.856 30.728 11.512 28.744 10.232 26.696C9.272 25.224 8.44 23.688 7.864 22.024C7.224 20.232 6.904 18.376 6.84 16.392C6.776 15.496 6.712 14.536 6.84 13.64C6.968 11.976 7.416 10.376 8.376 8.904C8.568 8.52 8.696 8.072 8.44 7.56C8.376 7.432 8.44 7.368 8.44 7.24C9.016 6.28 9.592 5.448 10.424 4.808C10.616 4.68 10.808 4.552 11.064 4.744C11.192 4.872 11.448 4.872 11.576 4.808C11.768 4.808 11.896 4.936 12.024 5.128C11.064 5.576 10.232 6.152 9.72 7.048C10.36 6.536 11 6.152 11.768 5.96C12.152 5.832 12.472 5.64 12.728 5.384C13.24 4.936 13.752 4.552 14.456 4.296L14.776 4.104C14.328 3.912 13.816 3.976 13.368 3.976C13.944 3.784 14.584 3.784 15.16 3.848C15.928 3.976 16.696 4.04 17.464 4.04C18.296 4.104 19.128 4.424 19.896 4.808C20.728 5.192 21.56 5.832 22.008 6.664C22.072 6.792 22.2 6.92 22.264 6.92C22.904 7.432 23.352 7.88 23.736 8.456C23.736 8.456 23.8 8.52 23.928 8.584C23.672 7.88 23.16 7.432 22.84 6.92L23.352 7.368V6.92L23.736 7.432C24.376 8.136 24.76 9.096 25.016 10.056L25.336 11.528L25.592 12.872C26.104 14.344 26.232 15.816 25.976 17.288C25.848 18.056 25.592 18.568 25.144 19.208L24.696 19.848C24.632 19.976 24.632 20.04 24.504 20.104C24.248 20.232 24.12 20.36 23.992 20.68C23.928 20.808 23.672 20.808 23.48 20.808C23.416 20.552 23.672 20.168 23.224 20.04L23.096 20.424L22.712 19.592ZM12.024 21.64C11.896 21.512 11.832 21.32 11.768 21.192C11.768 21.192 11.768 21.256 11.704 21.256C12.024 21.704 12.024 21.832 12.024 21.896C12.728 22.984 13.304 24.072 13.944 25.16L14.136 25.224C14.2 25.48 14.392 25.672 14.52 25.928C14.52 25.928 14.52 25.928 14.584 25.864C14.52 25.672 14.392 25.416 14.136 25.224C14.008 24.968 13.944 24.712 13.88 24.52L12.216 21.896C12.152 21.768 12.024 21.768 12.024 21.64ZM20.024 45.32C20.216 45.128 20.28 45.064 20.344 44.872C20.728 44.36 20.792 43.912 20.6 43.272C20.344 42.696 20.28 42.184 20.536 41.48L20.6 41.032C20.792 40.008 20.984 39.048 20.536 38.024V37.832C20.344 36.68 20.024 35.592 19.576 34.632C19.384 34.184 19.192 33.672 19 33.224C18.808 33.352 18.872 33.48 18.808 33.608C18.552 33.864 18.744 34.12 18.808 34.312C19.128 35.272 19.384 36.168 19.64 37.064C19.96 38.28 20.088 39.56 20.152 40.776C20.216 41.544 20.28 42.376 20.024 43.08C19.832 43.848 20.024 44.552 20.024 45.32ZM18.232 40.008C18.232 40.712 18.232 41.48 18.296 42.184C18.296 42.888 18.168 43.656 18.296 44.36C18.552 43.912 18.808 43.336 18.68 42.76L18.424 40.648C18.36 40.392 18.296 40.264 18.232 40.008ZM11.512 49.992C11.256 49.416 10.808 49.16 9.912 48.968C10.36 49.48 10.872 49.8 11.512 49.992ZM16.248 28.936C16.056 28.04 15.416 27.336 14.968 26.568C14.904 26.568 14.904 26.632 14.904 26.632C15.416 27.336 15.8 28.104 16.248 28.936ZM21.944 18.568C21.944 18.632 21.88 18.632 21.88 18.696C21.944 18.76 21.944 18.824 21.944 18.952C22.008 18.824 22.072 18.824 22.008 18.824C22.008 18.696 21.944 18.632 21.944 18.568ZM22.712 19.592C22.776 19.784 22.712 19.912 22.52 20.04C22.456 19.784 22.648 19.656 22.776 19.656L22.712 19.592ZM49.629 41.8H49.501L48.925 44.616C48.669 45.704 48.413 46.792 48.029 47.88C47.645 48.776 47.133 49.48 46.429 50.056L45.725 50.888C45.533 51.208 45.277 51.656 44.957 51.976C44.509 52.552 43.805 53 43.101 53.256C42.141 53.576 41.245 53.832 40.349 54.088C39.453 54.344 38.621 54.088 37.917 53.576C37.213 53 36.701 52.36 36.189 51.592C35.997 51.208 35.613 50.888 35.229 50.376C35.165 50.568 35.101 50.632 35.101 50.696C35.101 50.696 35.037 50.696 34.973 50.696C34.781 50.12 34.333 49.608 34.013 48.968C33.053 46.856 32.157 44.616 31.325 42.44C30.749 40.712 30.557 38.984 30.429 37.192C30.365 34.76 30.365 32.264 30.493 29.832C30.557 28.104 30.749 26.44 30.877 24.648C31.005 23.432 31.133 22.216 31.325 21C31.325 20.616 31.517 20.168 31.581 19.72L32.221 16.648C32.285 16.264 32.349 15.944 32.477 15.624C32.605 15.24 32.861 14.984 33.309 14.92C33.501 14.792 33.629 14.728 33.885 14.792C33.821 15.048 33.821 15.432 33.693 15.496C33.565 15.688 33.501 15.944 33.373 16.072C33.565 16.136 33.757 16.008 33.821 15.88L34.717 14.472C34.781 14.408 34.845 14.344 34.909 14.216C34.973 14.408 35.165 14.536 35.165 14.664C35.101 14.792 35.165 14.92 35.229 15.176C35.293 15.496 35.421 15.944 35.165 16.328C34.973 16.584 34.973 16.904 34.909 17.224L34.781 19.4C34.781 20.296 34.781 21.256 34.845 22.088C34.909 22.6 34.781 23.176 34.781 23.624C34.589 24.456 34.525 25.288 34.589 26.12C34.653 26.76 34.589 27.336 34.589 27.976C34.589 28.424 34.653 28.936 34.653 29.32C34.653 31.496 34.589 33.544 34.589 35.592C34.589 36.36 34.653 37.064 34.653 37.832C34.717 37.832 34.717 37.96 34.781 38.024C34.781 37.96 34.781 37.832 34.781 37.832C35.037 35.4 34.973 33.096 34.973 30.728C34.973 29 35.037 27.144 35.165 25.416C35.229 23.944 35.229 22.536 35.485 21.064C35.485 20.936 35.421 20.808 35.421 20.552C35.357 20.36 35.293 20.168 35.357 20.04C35.357 19.784 35.421 19.592 35.485 19.272C35.485 19.08 35.549 18.824 35.549 18.568C35.613 17.416 35.613 16.328 35.613 15.176C35.613 14.92 35.677 14.728 35.677 14.408C36.253 14.472 36.445 14.664 36.509 15.112C36.573 15.496 36.573 15.944 36.573 16.264V16.776L37.021 16.392C37.213 16.008 36.829 15.752 36.957 15.432C36.957 15.368 36.765 15.176 36.701 15.112C36.765 14.92 36.893 14.92 37.085 15.048C37.533 15.432 37.661 15.944 37.661 16.392V16.648C37.597 17.16 37.661 17.544 37.725 18.056C37.917 18.888 37.917 19.784 37.981 20.808C38.365 23.816 38.429 26.888 38.429 30.024C38.429 31.176 38.365 32.264 38.173 33.416C38.173 33.672 38.173 33.864 38.173 34.12C38.301 35.592 38.429 37.064 38.493 38.536C38.621 40.2 38.685 41.672 39.133 43.208C39.261 43.848 39.517 44.36 39.645 44.872C39.709 45 39.773 45.128 39.837 45.128C39.901 45 40.029 44.872 40.093 44.68C40.605 43.08 40.989 41.48 41.309 39.752C41.949 37.064 42.461 34.376 43.037 31.752C43.101 31.496 43.165 31.176 43.293 30.92C43.421 30.792 43.485 30.664 43.485 30.536C43.997 28.552 44.509 26.696 44.765 24.648C44.829 24.648 44.765 24.52 44.701 24.456C44.573 24.904 44.509 25.416 44.253 25.864C44.253 25.864 44.253 25.864 44.189 25.864V25.672C44.637 23.24 45.213 20.808 46.237 18.504C46.621 17.736 46.941 16.968 47.581 16.264C47.773 16.072 47.901 15.88 48.029 15.688C48.157 15.304 48.221 14.92 48.157 14.664C48.157 14.152 48.157 13.704 48.157 13.256C48.349 13.256 48.605 13.32 48.797 13.448C48.861 13.256 48.861 13 48.861 12.744C49.117 13 49.437 13.128 49.501 13.512C49.565 13.64 49.693 13.704 49.821 13.832C50.141 13.704 50.333 13.256 50.781 13.32L51.293 13.896C51.805 13.256 51.869 13.256 52.637 13.64L53.149 14.088C53.405 14.152 53.597 14.152 53.789 14.216C54.301 14.472 54.685 14.92 54.813 15.496C55.005 16.52 55.261 17.48 55.453 18.504L56.093 23.816C56.221 24.776 56.349 25.736 56.413 26.76C56.541 27.08 56.669 27.528 56.669 27.912C56.669 27.976 56.669 28.04 56.669 28.04C57.117 28.168 56.989 28.552 57.053 28.872C57.309 30.92 57.501 32.968 57.693 34.952C57.885 37 58.077 39.048 58.333 41.224C58.333 41.544 58.333 41.992 58.269 42.44C58.269 42.696 58.269 43.08 58.461 43.4C58.525 43.464 58.525 43.592 58.525 43.72C58.589 44.552 58.717 45.384 58.781 46.344L58.589 46.088C58.589 47.24 58.589 48.264 58.845 49.224L58.909 48.456C58.909 48.456 58.909 48.456 58.973 48.456C59.037 49.736 59.101 51.144 59.165 52.424C59.165 52.808 59.101 53.128 58.717 53.384C58.525 53.128 58.589 52.808 58.589 52.552L58.781 50.952C58.845 50.888 58.781 50.824 58.781 50.696L58.333 51.784L57.117 51.528C57.245 52.104 57.373 52.616 57.373 53.128C57.501 53.832 57.629 54.536 57.629 55.176C57.629 55.304 57.565 55.496 57.437 55.56L55.069 56.712C54.941 56.2 54.877 55.752 54.685 55.176L54.237 55.688L53.917 55.56C53.853 55.752 53.853 55.88 53.725 56.072L53.469 55.56H53.021C52.765 55.304 52.829 54.92 52.701 54.6H52.445C51.997 54.6 51.805 54.344 51.677 53.96C51.549 53.64 51.549 53.256 51.485 52.872C51.293 51.336 51.293 49.864 51.293 48.328C51.357 46.728 51.357 45.128 51.485 43.528C51.485 42.696 51.357 41.864 51.293 41.032L50.973 37.32L50.781 36.168C50.653 36.808 50.461 37.576 50.525 38.216C50.589 38.792 50.589 39.24 50.589 39.752C50.653 40.52 50.589 41.352 50.653 42.12C50.653 42.376 50.717 42.568 50.781 42.76C50.973 43.656 51.037 44.488 50.909 45.32C50.781 46.088 50.717 46.856 50.589 47.56C50.525 47.24 50.525 46.792 50.525 46.344C50.461 45.896 50.397 45.448 50.333 45.064L50.077 46.472H50.013L49.629 41.8ZM48.221 16.84C48.221 16.584 48.477 16.264 48.285 15.944C47.645 16.648 46.557 18.824 46.429 19.848C47.005 18.824 47.645 17.864 48.285 16.84C48.157 17.096 48.157 17.288 48.029 17.48C47.453 18.376 47.005 19.464 46.749 20.552C46.429 21.832 46.045 23.112 45.917 24.456V24.776L46.173 24.392C45.917 25.928 45.725 27.592 45.725 29.192L45.917 29.064C45.917 29.256 45.917 29.32 45.853 29.32C45.597 31.112 45.341 32.968 44.957 34.632L43.677 41.48C43.357 42.888 43.037 44.232 42.397 45.512C42.141 46.088 41.821 46.6 41.565 47.24C41.245 47.88 41.245 47.88 41.821 48.52L42.013 48.712C42.077 48.584 42.269 48.52 42.397 48.392C42.525 48.264 42.653 48.008 42.717 47.816C43.037 47.048 43.293 46.152 43.485 45.32C43.485 45.256 43.421 45.192 43.421 45.192C43.293 45.192 43.165 45.192 42.909 45.256C43.613 43.848 44.125 42.376 44.509 40.776C44.253 41.096 44.253 41.48 43.741 41.8C43.933 41.16 44.061 40.52 44.189 40.008L45.725 31.944L46.429 27.784C46.621 26.76 46.749 25.736 46.941 24.648C47.069 23.24 47.133 21.832 47.581 20.424C47.901 19.336 47.965 18.184 48.349 17.16C48.413 16.968 48.349 16.904 48.221 16.84ZM52.509 53.128L52.765 54.152C53.021 54.024 53.213 53.832 53.149 53.64C52.957 53 52.957 52.36 52.829 51.656L52.509 47.496L51.997 41.48C51.933 40.264 51.805 39.176 51.613 38.024C51.293 38.536 51.293 38.6 51.293 39.048C51.357 39.944 51.485 40.904 51.549 41.864C51.677 43.272 51.805 44.68 51.805 46.088L52.125 49.928C52.189 50.376 52.061 50.888 52.253 51.272C52.509 51.912 52.509 52.424 52.509 53.128ZM36.957 41.672L37.149 42.248C37.149 42.376 37.213 42.44 37.149 42.504C36.957 42.952 37.085 43.4 37.213 43.848C37.405 44.104 37.533 44.424 37.725 44.744C37.917 45.128 37.917 45.448 37.725 45.832C37.661 45.896 37.661 46.024 37.661 46.088C37.917 46.6 38.109 47.176 38.365 47.752L38.813 47.304C39.005 47.048 39.005 46.856 38.877 46.536C38.557 46.088 38.301 45.448 38.045 44.872L37.277 42.312C37.213 42.056 37.277 41.8 36.957 41.672ZM54.493 52.36L53.853 51.336C53.789 52.36 54.045 53.384 54.557 54.344C54.621 54.088 54.685 53.832 54.685 53.64C54.685 53.384 54.685 53 54.621 52.68C54.621 52.552 54.621 52.424 54.493 52.36ZM35.805 42.312C35.997 43.848 36.189 45.256 37.021 46.536C36.701 45.128 36.509 43.656 35.805 42.312ZM53.149 44.616H53.213L53.021 41.8C52.701 41.864 52.765 42.056 52.765 42.248C52.893 43.016 53.021 43.848 53.149 44.616ZM41.053 49.48L40.605 49.032C40.349 49.224 40.221 49.48 40.093 49.736C40.413 49.864 40.669 49.8 41.053 49.48ZM48.477 19.976H48.349C48.157 20.616 48.093 21.256 47.901 21.896C48.285 21.256 48.477 20.68 48.477 19.976ZM44.701 44.168C44.509 44.616 44.509 45.128 44.445 45.64C44.765 45.192 44.701 44.68 44.701 44.168ZM53.597 14.664C53.661 15.368 53.661 15.368 53.981 15.368C53.917 14.856 53.917 14.856 53.597 14.664ZM48.989 18.696C49.053 18.696 49.117 18.696 49.117 18.696L49.181 17.608C48.861 18.12 48.861 18.12 48.989 18.696ZM49.437 17.672C49.501 17.48 49.501 17.352 49.565 17.224C49.565 17.16 49.501 17.16 49.437 17.16C49.373 17.288 49.373 17.416 49.437 17.672ZM58.845 47.048V47.432C58.845 47.304 58.845 47.176 58.845 47.048ZM87.9425 48.968V47.688C87.6865 47.944 87.8785 48.264 87.4945 48.52L87.1745 48.2C86.7905 48.776 87.0465 49.416 86.9185 49.992C86.9185 50.184 86.8545 50.312 86.6625 50.44C86.4065 50.568 86.3425 50.824 86.3425 51.144C86.2785 51.72 86.2145 51.784 85.5745 51.912L85.2545 51.016C85.1905 51.016 85.1905 51.08 85.1265 51.08V51.72C85.1265 52.04 84.9985 52.168 84.7425 52.296C84.4225 52.424 84.0385 52.488 83.6545 52.616C83.5265 52.168 83.5265 51.72 83.4625 51.208L82.8865 51.656L82.5665 51.464C82.5025 51.656 82.4385 51.784 82.3745 51.976C82.3105 51.784 82.2465 51.656 82.1185 51.464C81.9905 51.4 81.7985 51.4 81.6065 51.4L81.4145 50.44L81.0945 50.376C80.8385 50.312 80.5825 50.12 80.5185 49.864C80.4545 49.672 80.4545 49.48 80.3265 49.352C79.8785 48.968 79.8785 48.456 79.8785 47.944C79.8785 47.56 80.0065 47.304 80.0065 46.856C80.0705 46.536 80.0705 46.28 79.8785 45.896C79.8785 45.832 79.8785 45.576 79.8785 45.448V43.144V42.632C79.3665 42.504 79.3665 42.184 79.3665 41.8L79.4945 34.632C79.4945 34.248 79.6225 33.992 79.6225 33.672C79.6865 32.776 79.8145 31.816 79.8145 30.92C79.8145 29.896 79.6865 28.936 79.4305 27.976C79.3025 27.528 79.2385 27.016 79.2385 26.568C79.2385 25.416 78.9825 24.392 78.6625 23.304C78.5345 22.792 78.2785 22.28 77.8945 21.96C77.8305 21.832 77.8305 21.768 77.7665 21.704C77.1265 22.024 76.6145 22.472 76.1665 22.984C73.7985 25.416 72.1985 28.232 71.3665 31.496C71.3025 31.752 71.2385 32.136 71.3025 32.456C71.4945 34.632 71.8145 36.872 72.0705 39.112L72.7745 46.344C72.8385 46.92 72.9025 47.56 72.9025 48.2C72.9665 48.968 72.8385 49.8 72.8385 50.632C72.7745 50.952 72.7105 51.208 72.4545 51.336C72.0065 51.144 71.8145 50.632 71.5585 50.184V50.568C71.5585 50.952 71.5585 51.272 71.5585 51.656C71.5585 51.912 71.5585 52.04 71.3665 52.168C71.3025 52.296 71.2385 52.424 71.1745 52.616C71.1105 53.384 71.1105 53.384 70.2785 53.576C70.1505 53.064 70.4065 52.488 70.1505 51.976C69.6385 52.168 69.6385 52.744 69.0625 52.808L68.9345 52.296C68.6785 52.936 69.0625 53.64 68.6785 54.152C68.3585 53.768 68.4865 53.32 68.2305 52.872L67.8465 53.192L67.5905 53.064L67.3985 53.576L67.1425 53C66.9505 53 66.8225 53 66.6945 52.936C66.5665 52.616 66.5025 52.424 66.5025 52.04C65.9905 51.976 65.7345 51.656 65.6065 51.208C65.4785 50.888 65.2865 50.632 65.0305 50.312L64.8385 49.8C64.4545 48.456 64.1985 47.048 64.0705 45.576C64.0065 43.208 63.8145 40.84 63.5585 38.472C63.5585 37.704 63.4945 36.872 63.4945 36.104L63.6225 31.496C63.6225 31.176 63.6225 30.792 63.5585 30.536C63.4945 29.384 63.5585 28.36 63.6865 27.336C63.7505 26.888 63.8145 26.248 63.7505 25.672C63.7505 25.16 63.6865 24.648 63.6865 24.136C63.6865 23.688 63.8145 23.24 63.8145 22.856C63.8145 22.472 63.8785 22.024 63.8145 21.704C63.4945 20.296 63.6865 19.016 63.8785 17.608C64.0065 16.712 64.1345 15.816 64.2625 14.856C64.3265 14.6 64.5185 14.344 64.6465 14.024C64.7105 13.896 64.8385 13.768 65.0305 13.896L64.5185 14.792C64.7105 14.856 64.7745 14.92 64.9025 14.984L64.5185 16.136L65.0945 15.816C64.7105 17.032 64.3265 18.12 64.4545 19.4L64.5825 19.08L64.7745 18.312C64.9025 17.608 65.2225 17.032 65.7345 16.584C65.8625 16.392 65.9905 16.2 65.9905 15.944C66.0545 15.432 66.2465 14.984 66.3105 14.536L66.5025 14.152C66.8865 14.28 66.7585 14.728 66.9505 14.984C67.0785 14.728 67.2065 14.536 67.2065 14.408C67.2705 14.344 67.3345 14.344 67.3985 14.344C67.6545 14.472 67.7825 14.728 67.9745 14.856C68.1665 14.984 68.5505 15.048 68.6785 15.304C68.8705 15.432 68.9345 15.688 68.9345 15.88C69.1265 16.712 69.3185 17.608 69.4465 18.504L69.6385 19.656L69.7665 20.36C70.1505 19.72 70.6625 19.08 71.1105 18.376C71.3025 18.12 71.3665 17.736 71.5585 17.352C71.6225 17.224 71.8145 17.16 71.8785 17.032L72.0065 17.16L71.4305 17.864C71.4945 17.864 71.4945 17.928 71.4945 17.928C71.8145 17.608 72.1985 17.352 72.5185 17.16C73.1585 16.392 73.9265 15.816 74.9505 15.432C74.9505 15.432 75.0145 15.432 75.0145 15.368C74.8865 15.368 74.7585 15.304 74.6305 15.304V15.176H75.7185C75.9745 15.24 76.2305 15.176 76.4225 15.112C77.1905 14.792 77.8945 14.728 78.6625 14.92C78.6625 14.984 78.8545 14.984 78.9185 14.984C79.6225 14.92 80.2625 15.176 80.8385 15.56C81.6065 16.008 82.3745 16.52 83.2065 17.096C83.7185 17.416 84.1665 17.992 84.4865 18.568C85.1905 19.72 85.7025 21 85.9585 22.408C86.0865 23.752 86.4065 25.16 86.7265 26.44C87.3025 28.616 87.5585 30.856 87.7505 33.032C88.1345 37.704 88.1345 42.312 88.1345 46.92C88.1345 47.432 88.1345 47.944 88.1345 48.456C88.1345 48.648 88.0705 48.776 88.0705 48.968C88.0065 48.968 88.0065 48.968 87.9425 48.968ZM78.2145 16.136L78.8545 16.648L79.4945 16.136C79.2385 15.88 78.8545 15.88 78.2145 16.136ZM71.1745 51.016C71.3665 49.672 71.3665 49.416 70.9825 49.16C71.0465 49.736 71.1105 50.312 71.1745 51.016ZM83.0145 17.608L83.5265 18.376C83.5265 18.376 83.5905 18.376 83.6545 18.312L83.0785 17.544L83.0145 17.608ZM81.7985 19.208C81.6065 19.144 81.5425 19.08 81.5425 19.08H81.2865C81.3505 19.336 81.5425 19.336 81.7985 19.208ZM71.1745 47.88C71.1105 48.264 71.1105 48.264 71.2385 48.392C71.2385 48.2 71.2385 48.072 71.1745 47.88ZM115.91 51.848C115.91 51.912 115.846 52.04 115.846 52.168C115.846 52.232 115.91 52.424 115.91 52.424C115.974 52.616 115.91 52.808 115.718 52.872C115.462 52.936 115.334 52.872 115.334 52.616L115.142 52.296L114.886 51.592L114.374 51.912C114.118 52.04 114.054 52.168 114.118 52.424C114.118 52.744 114.246 53.064 114.31 53.384C114.118 53.512 114.054 53.64 113.926 53.64C113.67 53.64 113.542 53.704 113.35 53.832C112.966 53.576 113.094 53.064 112.902 52.616C112.71 52.872 112.39 52.68 112.198 53.064C112.134 52.872 112.006 52.808 111.942 52.68C111.43 52.616 111.366 52.616 111.174 52.104L110.854 50.952C110.662 51.208 110.47 51.208 110.406 51.08L109.83 50.248C109.766 50.12 109.638 49.992 109.51 49.864C109.382 49.928 109.318 49.928 109.253 49.992C108.55 50.696 107.718 51.208 106.694 51.4C106.438 51.4 106.246 51.592 106.054 51.848C105.606 52.424 104.966 53.064 104.134 53.128C103.686 53.192 103.302 53.256 102.982 52.872C102.79 52.68 102.47 52.616 102.214 52.424C102.15 52.424 101.958 52.424 101.958 52.424C100.87 52.808 100.038 52.488 99.1415 51.976C98.3735 51.464 97.7335 51.016 96.9655 50.568C96.8375 50.44 96.5815 50.312 96.3895 50.312C96.1335 50.312 95.8775 50.248 95.8775 50.056C95.5575 49.672 95.1735 49.16 94.9175 48.712C93.6375 46.344 92.8055 43.72 92.2295 41.096C91.7815 38.984 91.6535 36.808 91.8455 34.632C91.9095 33.928 92.1015 33.16 92.2295 32.456V31.944L91.8455 32.712C91.8455 32.712 91.7815 32.712 91.7815 32.648C91.7815 32.2 91.8455 31.816 91.9095 31.432C92.2295 28.936 92.8055 26.44 93.6375 24.072C93.7655 23.56 94.0855 23.176 94.2775 22.728C94.8535 21.704 95.4295 20.616 96.1975 19.72L97.2855 18.568L97.0295 18.376L97.2215 17.864C97.8615 17.096 98.5015 16.328 99.3335 15.752C99.8455 15.368 100.486 15.368 100.998 15.432C101.446 15.496 101.766 15.688 102.086 15.688C102.47 15.752 102.918 15.624 103.174 15.624C103.814 15.624 104.39 15.688 104.902 15.752C105.606 15.88 106.118 16.136 106.758 16.456L107.333 16.84C107.462 16.264 107.462 15.88 107.526 15.432C107.846 12.744 108.038 10.12 108.678 7.56L109.126 6.152C109.253 5.256 109.702 4.616 110.534 4.232L111.11 4.872L111.558 4.744C111.686 4.936 111.686 5.064 111.878 5.256L112.198 5C112.198 5 112.198 5 112.262 5C112.71 5.192 112.902 5.576 113.222 5.832C113.414 5.896 113.478 6.216 113.542 6.408C113.67 7.112 113.798 7.816 113.862 8.584C113.926 10.184 113.99 11.784 114.054 13.448L114.118 16.136L114.374 19.272L114.822 24.264L115.142 27.784C115.142 27.976 115.142 28.104 115.078 28.296C114.822 25.352 114.566 22.28 114.246 19.272V21C114.31 22.408 114.438 23.688 114.438 25.096C114.374 26.888 114.694 28.68 114.886 30.536C115.078 32.328 115.334 34.184 115.462 35.912L116.102 41.032V41.352C116.038 42.824 116.358 44.296 116.55 45.768L117.126 48.328C117.318 48.968 117.126 49.544 116.806 50.12C116.806 50.184 116.806 50.184 116.742 50.184C116.23 50.44 116.166 51.144 115.654 51.4C115.782 51.592 115.846 51.656 115.91 51.848ZM104.07 21.512L103.558 21.96C102.47 23.176 101.574 24.456 100.998 25.992C99.2055 30.984 98.7575 36.168 99.6535 41.48C100.038 43.144 100.678 44.872 101.766 46.28L101.958 46.536C102.15 46.28 102.342 46.088 102.47 45.768C102.854 45 103.174 44.104 103.558 43.336C103.878 42.632 104.198 41.928 104.582 41.288C104.774 40.968 104.902 40.712 105.03 40.392C105.35 39.816 105.606 39.176 105.798 38.6C106.182 37.704 106.63 36.744 107.27 36.04C107.333 35.912 107.398 35.784 107.333 35.72L107.206 32.712C107.078 29.768 107.078 26.952 107.014 24.2C107.014 23.88 106.885 23.688 106.758 23.496L104.902 22.024C104.646 21.832 104.39 21.704 104.07 21.512ZM100.806 46.472C100.038 43.144 98.6935 40.136 98.0535 36.744C98.0535 36.936 97.9895 37.128 98.0535 37.32L98.8215 40.968C98.8215 41.032 98.8215 41.16 98.8215 41.224C98.8215 41.288 98.8215 41.288 98.7575 41.288L97.8615 38.408V38.728C98.1175 40.456 98.4375 42.184 99.0775 43.848C99.5255 44.808 100.038 45.704 100.806 46.472ZM101.958 16.584C101.126 15.944 100.294 15.944 99.5255 16.52C99.1415 16.84 98.8215 17.16 98.5015 17.352C98.3735 17.416 98.3095 17.608 98.3095 17.608C98.5015 17.608 98.6935 17.544 98.8215 17.416C99.5255 17.032 100.294 16.968 101.062 17.032C101.51 17.096 101.766 16.904 101.958 16.584ZM112.774 12.872C112.518 14.536 112.646 16.136 112.71 17.864C112.838 16.136 112.966 14.536 112.774 12.872ZM108.038 50.632C108.486 50.44 108.806 50.184 108.998 49.736C108.55 49.992 108.294 50.248 108.038 50.632ZM99.6535 53.128C98.5655 52.808 97.6695 52.168 96.9655 51.208C97.9255 51.848 98.8855 52.424 99.6535 53.128ZM115.91 51.848C115.846 51.592 115.974 51.4 116.23 51.208C116.422 51.592 116.038 51.656 115.91 51.848ZM138.133 16.584H138.645C138.709 16.648 138.837 16.712 138.965 16.776C139.349 16.904 139.733 17.16 140.117 17.416C141.205 18.504 141.973 19.784 142.549 21.256C142.805 22.28 143.125 23.24 143.253 24.392C143.381 25.16 143.637 25.992 143.765 26.888C143.957 27.848 144.021 28.68 144.021 29.576C144.213 31.048 144.021 32.456 143.893 33.928C143.893 34.184 143.957 34.376 143.957 34.632C143.957 35.72 144.021 36.808 143.957 37.96C143.893 38.92 143.637 39.816 143.509 40.712C143.509 40.776 143.445 40.904 143.509 40.968C144.469 38.024 144.725 35.08 144.469 31.944C144.981 32.008 145.237 32.2 145.493 32.648L145.621 31.688C145.877 33.48 145.813 35.336 145.493 37.064C145.109 40.072 143.765 42.696 141.973 45.064L141.589 45.512L141.077 46.344C140.885 46.664 140.757 46.984 140.501 47.304C140.565 47.112 140.629 46.92 140.693 46.792L140.629 46.728C140.565 46.856 140.437 47.048 140.373 47.176C139.925 47.88 139.541 48.648 139.093 49.288C138.261 50.312 137.237 51.016 136.085 51.4C135.445 51.656 134.741 51.912 134.037 52.168C133.141 52.488 132.245 52.552 131.349 52.36C131.029 52.232 130.773 52.168 130.581 51.912C130.389 51.72 130.133 51.656 129.941 51.592C129.045 51.336 128.213 50.824 127.445 50.184C126.101 49.16 125.013 47.752 124.117 46.344C122.901 44.36 122.069 42.184 121.365 40.008C120.917 38.856 120.853 37.704 120.789 36.552C120.725 34.888 120.789 33.16 120.917 31.56C120.917 30.728 121.109 30.024 121.365 29.32C121.749 28.232 122.133 27.08 122.261 25.992C122.453 25.16 122.773 24.328 123.221 23.496C123.349 23.24 123.413 23.112 123.349 22.728C123.349 22.664 123.349 22.472 123.413 22.344L124.501 19.208C124.565 19.016 124.629 18.76 124.629 18.504C124.629 18.12 124.757 17.736 125.013 17.352L126.293 15.176C126.613 14.728 126.997 14.472 127.445 14.216C128.917 13.512 130.453 13.192 132.053 13.256C132.821 13.256 133.525 13.512 134.101 13.832C134.613 14.152 135.189 14.28 135.701 14.344C136.469 14.472 137.109 14.728 137.749 15.048C137.877 15.112 137.941 15.176 137.941 15.304C138.133 15.624 138.389 15.688 138.645 15.816C140.053 16.392 141.077 17.352 141.845 18.696C142.229 19.272 142.549 19.784 142.549 20.488L142.037 19.656C141.589 19.08 141.269 18.44 140.757 17.864C140.245 17.16 139.413 16.776 138.645 16.584L138.133 16.392V16.584ZM133.077 45.192C133.781 44.616 134.293 43.912 134.741 43.144C135.317 41.928 135.829 40.648 136.213 39.304C137.109 36.488 137.621 33.544 137.941 30.536C137.941 29.32 137.941 28.104 137.749 26.952C137.237 24.904 136.469 23.176 135.125 21.64C134.229 20.616 133.845 20.488 132.501 20.36C131.925 20.36 131.605 20.552 131.349 21C131.349 21.064 131.285 21.128 131.285 21.256C131.093 21.512 130.965 21.704 130.645 21.704C130.453 21.64 130.325 21.768 130.261 22.024L129.429 24.648C129.429 24.648 129.365 24.712 129.429 24.712C129.685 24.968 129.429 25.224 129.429 25.48C128.789 28.296 128.469 31.304 128.533 34.184C128.597 37 129.173 39.752 130.197 42.312C130.773 43.656 131.861 44.488 133.077 45.192ZM137.109 15.176C137.429 15.816 137.429 15.816 137.941 15.56C137.685 15.432 137.429 15.304 137.109 15.176ZM125.013 20.296L125.589 19.336L125.461 19.208C125.269 19.592 125.141 19.848 124.949 20.232C125.013 20.232 125.013 20.296 125.013 20.296ZM137.173 16.328H136.469C136.725 16.584 136.853 16.52 137.173 16.328ZM123.989 21.768L123.669 22.408C123.733 22.472 123.797 22.472 123.797 22.472C123.925 22.216 123.989 22.024 124.053 21.768C124.053 21.768 124.053 21.768 123.989 21.768ZM136.213 15.88C136.149 15.816 136.085 15.752 136.085 15.688C136.021 15.688 135.957 15.752 135.957 15.752L136.085 15.944C136.085 15.944 136.149 15.944 136.213 15.88ZM142.613 19.592C143.189 20.488 143.637 21.384 144.021 22.344C144.789 24.648 145.173 27.016 145.109 29.512V30.536C145.109 30.728 145.045 30.984 144.725 31.048C144.661 31.048 144.597 31.112 144.469 31.24C144.213 30.28 144.277 29.32 144.405 28.488C144.597 29.064 144.725 29.704 144.981 30.344C145.109 28.424 144.789 26.632 144.405 24.84C144.021 23.048 143.509 21.256 142.613 19.592ZM120.405 32.968L120.597 33.736H120.469L120.405 32.968ZM182.507 50.056L182.187 49.8C182.251 49.8 182.315 49.864 182.507 49.928L182.826 47.752C182.507 48.264 182.379 48.84 181.739 48.968L181.483 50.248C181.419 50.568 181.354 50.824 181.163 51.08C181.035 51.208 180.971 51.4 180.971 51.656C180.843 52.168 180.587 52.424 180.075 52.424C179.819 52.488 179.691 52.424 179.627 52.168L179.179 52.68C179.115 52.616 178.987 52.552 178.859 52.488L178.539 52.872C178.283 52.616 178.283 52.424 178.219 52.104C178.027 51.272 177.835 50.504 177.643 49.736L177.515 49.288L177.387 49.608L177.195 50.568C177.067 50.952 176.939 51.208 176.683 51.4C176.427 51.592 176.427 51.848 176.235 52.104C176.107 51.848 176.043 51.528 175.723 51.528C175.595 51.528 175.467 51.272 175.467 51.208C175.211 50.76 175.019 50.312 174.763 49.992C174.571 49.864 174.507 49.672 174.507 49.48L173.867 48.136C173.739 48.008 173.739 47.816 173.675 47.624C173.355 46.152 172.715 44.68 172.267 43.208C171.115 39.816 169.835 36.552 168.491 33.16L168.299 32.776C168.171 32.968 168.171 32.968 168.171 33.096L166.187 40.392L164.715 45.96C164.267 47.56 163.819 49.288 163.115 50.952L162.731 51.656C162.667 51.912 162.603 52.04 162.347 52.168C162.603 51.464 162.795 50.888 163.051 50.248C162.987 50.184 162.923 50.184 162.859 50.184L162.475 50.952C162.219 51.272 161.963 51.592 161.771 51.912C161.515 52.36 161.259 52.424 160.875 52.04L160.747 51.912C160.555 52.424 160.363 52.872 160.299 53.384L159.979 54.088C159.659 54.792 159.083 54.856 158.571 54.344C158.315 54.536 158.123 54.792 157.867 54.856C157.675 54.92 157.355 54.984 157.099 55.048C156.843 55.048 156.651 54.984 156.587 54.856L156.139 54.088C155.627 54.28 155.371 54.024 155.179 53.64L155.051 53.448C154.539 53.192 154.411 52.68 154.219 52.296L153.899 51.592C153.707 51.208 153.515 50.76 153.323 50.312C152.747 48.648 152.491 46.792 151.979 45.064C151.275 42.376 150.827 39.624 150.443 36.872C149.931 34.056 149.611 31.176 149.419 28.232C149.291 26.632 149.227 25.032 149.163 23.368C149.163 23.112 149.227 22.792 149.227 22.472C149.227 22.408 149.227 22.28 149.227 22.216C149.355 20.616 149.419 19.08 149.419 17.48C149.419 16.84 149.611 16.136 149.803 15.56C149.995 15.048 150.187 14.984 150.635 14.984L150.891 14.472C151.019 14.344 151.083 14.344 151.275 14.472C151.147 14.728 151.083 14.92 150.891 15.24C151.147 15.432 151.403 15.624 151.659 15.752C151.659 15.432 151.786 15.176 151.595 14.92L151.851 14.792C151.979 14.728 152.171 14.728 152.235 14.728C152.363 14.856 152.363 15.048 152.363 15.176C152.427 15.304 152.363 15.432 152.299 15.56C152.171 15.944 152.107 16.136 152.363 16.456C152.363 16.584 152.363 16.648 152.363 16.84L152.043 16.968C152.363 17.16 152.619 17.16 152.875 17.032C152.747 16.648 152.939 16.264 153.003 15.944C153.067 15.688 153.003 15.56 153.003 15.368V14.984C153.579 15.048 153.707 15.496 153.835 15.944C153.963 15.88 154.091 15.816 154.091 15.688C154.475 15.944 154.667 16.136 154.731 16.648C154.859 17.352 155.051 18.184 155.115 19.016C155.499 22.024 155.755 25.16 156.267 28.104C156.651 30.664 157.227 33.16 157.739 35.592C157.803 36.168 157.867 36.68 158.123 37.256L158.443 36.104L159.083 34.568L160.619 31.048C160.747 30.664 160.811 30.28 160.875 29.832L161.323 28.36C161.387 28.168 161.387 27.976 161.195 27.848C161.067 27.592 161.131 27.464 161.131 27.272L162.347 22.92C162.731 21.384 163.179 19.848 163.435 18.376C163.755 16.52 164.267 14.792 164.587 13.064C164.587 13 164.651 13 164.651 12.936L165.227 13.256C165.355 13 165.419 12.872 165.483 12.552C165.739 13 166.187 13.192 166.123 13.576C166.123 13.704 166.315 13.896 166.378 14.024C166.827 13.96 167.019 13.512 167.595 13.512L168.171 14.728C168.427 14.664 168.555 14.472 168.683 14.216C168.747 13.832 168.811 13.768 169.131 13.96C169.323 14.088 169.451 14.216 169.643 14.344C169.707 14.472 169.899 14.664 169.899 14.728C169.899 15.048 170.091 15.24 170.219 15.624L170.475 14.984C170.859 15.24 171.243 15.432 171.307 15.944C171.435 18.568 172.139 21.192 172.843 23.688C173.035 24.328 173.163 24.904 173.355 25.608C173.675 26.888 173.995 28.168 174.507 29.384C175.275 31.24 176.043 33.096 176.747 34.952C176.811 35.144 176.939 35.336 176.939 35.4H177.131L177.643 33.736L178.155 32.392C178.283 31.944 178.411 31.56 178.539 31.112C178.539 30.856 178.539 30.536 178.539 30.408C178.411 30.024 178.411 29.768 178.539 29.384C179.115 26.888 179.755 24.392 180.331 21.832C180.971 19.592 181.419 17.224 181.995 14.92C182.187 14.216 182.379 13.512 182.635 12.872C182.699 12.68 182.826 12.488 182.955 12.296L183.403 12.552L183.722 12.04L184.107 12.552C184.107 12.68 184.043 12.808 183.979 13L184.555 13.256C184.811 13.192 185.003 12.744 185.515 12.872C185.643 13.192 185.835 13.512 185.899 13.768C186.155 13.704 186.347 13.64 186.411 13.384C186.411 13.128 186.603 13.128 186.795 13.256C187.115 13.448 187.243 13.512 187.115 13.96C187.115 14.664 187.051 15.24 186.923 15.944C186.923 16.072 186.923 16.2 186.923 16.52C187.371 15.944 187.627 15.432 187.819 14.856C188.267 15.432 188.523 16.008 188.523 16.776C188.587 18.952 188.267 21 187.883 23.176C187.179 26.568 186.603 29.96 185.899 33.352L184.491 41.48L183.722 45.448C183.467 46.728 183.275 48.008 183.019 49.224C182.955 49.544 182.826 49.864 182.507 50.056ZM173.867 41.48C173.803 41.48 173.803 41.48 173.739 41.48C174.123 42.504 174.507 43.528 174.891 44.488C174.955 44.424 174.955 44.36 174.955 44.36C174.635 43.4 174.251 42.44 173.867 41.48ZM159.083 53.512C159.211 53.576 159.339 53.64 159.467 53.64L159.659 53.128C159.211 53 159.211 53.256 159.083 53.512ZM165.099 17.48C165.035 17.608 164.843 17.8 165.035 17.992C165.227 17.8 165.099 17.608 165.099 17.48ZM165.675 15.944H165.739V15.624C165.739 15.688 165.675 15.88 165.675 15.944ZM182.187 49.8C182.187 49.672 181.995 49.544 182.123 49.352C182.251 49.48 182.251 49.672 182.187 49.8ZM216.943 48.968V47.688C216.687 47.944 216.879 48.264 216.495 48.52L216.175 48.2C215.791 48.776 216.047 49.416 215.919 49.992C215.919 50.184 215.855 50.312 215.663 50.44C215.407 50.568 215.343 50.824 215.343 51.144C215.279 51.72 215.215 51.784 214.575 51.912L214.255 51.016C214.191 51.016 214.191 51.08 214.127 51.08V51.72C214.127 52.04 213.999 52.168 213.743 52.296C213.423 52.424 213.039 52.488 212.655 52.616C212.527 52.168 212.527 51.72 212.463 51.208L211.887 51.656L211.567 51.464C211.503 51.656 211.439 51.784 211.375 51.976C211.311 51.784 211.247 51.656 211.119 51.464C210.991 51.4 210.799 51.4 210.607 51.4L210.415 50.44L210.095 50.376C209.839 50.312 209.583 50.12 209.519 49.864C209.455 49.672 209.455 49.48 209.327 49.352C208.878 48.968 208.878 48.456 208.878 47.944C208.878 47.56 209.007 47.304 209.007 46.856C209.071 46.536 209.071 46.28 208.878 45.896C208.878 45.832 208.878 45.576 208.878 45.448V43.144V42.632C208.367 42.504 208.367 42.184 208.367 41.8L208.495 34.632C208.495 34.248 208.623 33.992 208.623 33.672C208.687 32.776 208.815 31.816 208.815 30.92C208.815 29.896 208.687 28.936 208.431 27.976C208.303 27.528 208.239 27.016 208.239 26.568C208.239 25.416 207.983 24.392 207.663 23.304C207.535 22.792 207.279 22.28 206.895 21.96C206.831 21.832 206.831 21.768 206.767 21.704C206.127 22.024 205.615 22.472 205.167 22.984C202.799 25.416 201.199 28.232 200.367 31.496C200.303 31.752 200.239 32.136 200.303 32.456C200.495 34.632 200.815 36.872 201.071 39.112L201.775 46.344C201.839 46.92 201.903 47.56 201.903 48.2C201.967 48.968 201.839 49.8 201.839 50.632C201.775 50.952 201.711 51.208 201.455 51.336C201.007 51.144 200.815 50.632 200.559 50.184V50.568C200.559 50.952 200.559 51.272 200.559 51.656C200.559 51.912 200.559 52.04 200.367 52.168C200.303 52.296 200.239 52.424 200.175 52.616C200.111 53.384 200.111 53.384 199.279 53.576C199.151 53.064 199.407 52.488 199.151 51.976C198.639 52.168 198.639 52.744 198.062 52.808L197.935 52.296C197.679 52.936 198.062 53.64 197.679 54.152C197.359 53.768 197.487 53.32 197.231 52.872L196.847 53.192L196.591 53.064L196.399 53.576L196.143 53C195.951 53 195.823 53 195.695 52.936C195.567 52.616 195.503 52.424 195.503 52.04C194.991 51.976 194.735 51.656 194.607 51.208C194.479 50.888 194.286 50.632 194.031 50.312L193.839 49.8C193.455 48.456 193.199 47.048 193.071 45.576C193.007 43.208 192.815 40.84 192.559 38.472C192.559 37.704 192.495 36.872 192.495 36.104L192.623 31.496C192.623 31.176 192.623 30.792 192.559 30.536C192.495 29.384 192.559 28.36 192.687 27.336C192.751 26.888 192.815 26.248 192.751 25.672C192.751 25.16 192.687 24.648 192.687 24.136C192.687 23.688 192.815 23.24 192.815 22.856C192.815 22.472 192.879 22.024 192.815 21.704C192.495 20.296 192.687 19.016 192.879 17.608C193.007 16.712 193.135 15.816 193.263 14.856C193.327 14.6 193.519 14.344 193.647 14.024C193.711 13.896 193.839 13.768 194.031 13.896L193.519 14.792C193.711 14.856 193.775 14.92 193.903 14.984L193.519 16.136L194.095 15.816C193.711 17.032 193.327 18.12 193.455 19.4L193.583 19.08L193.775 18.312C193.903 17.608 194.223 17.032 194.735 16.584C194.863 16.392 194.991 16.2 194.991 15.944C195.055 15.432 195.247 14.984 195.311 14.536L195.503 14.152C195.887 14.28 195.759 14.728 195.951 14.984C196.079 14.728 196.207 14.536 196.207 14.408C196.271 14.344 196.335 14.344 196.399 14.344C196.655 14.472 196.783 14.728 196.975 14.856C197.167 14.984 197.551 15.048 197.679 15.304C197.871 15.432 197.935 15.688 197.935 15.88C198.127 16.712 198.319 17.608 198.447 18.504L198.639 19.656L198.767 20.36C199.151 19.72 199.663 19.08 200.111 18.376C200.303 18.12 200.367 17.736 200.559 17.352C200.623 17.224 200.815 17.16 200.879 17.032L201.007 17.16L200.431 17.864C200.495 17.864 200.495 17.928 200.495 17.928C200.815 17.608 201.199 17.352 201.519 17.16C202.159 16.392 202.927 15.816 203.951 15.432C203.951 15.432 204.015 15.432 204.015 15.368C203.887 15.368 203.759 15.304 203.631 15.304V15.176H204.719C204.975 15.24 205.231 15.176 205.423 15.112C206.191 14.792 206.895 14.728 207.663 14.92C207.663 14.984 207.855 14.984 207.919 14.984C208.623 14.92 209.263 15.176 209.839 15.56C210.607 16.008 211.375 16.52 212.207 17.096C212.719 17.416 213.167 17.992 213.487 18.568C214.191 19.72 214.703 21 214.959 22.408C215.087 23.752 215.407 25.16 215.727 26.44C216.303 28.616 216.559 30.856 216.751 33.032C217.135 37.704 217.135 42.312 217.135 46.92C217.135 47.432 217.135 47.944 217.135 48.456C217.135 48.648 217.071 48.776 217.071 48.968C217.007 48.968 217.007 48.968 216.943 48.968ZM207.215 16.136L207.855 16.648L208.495 16.136C208.239 15.88 207.855 15.88 207.215 16.136ZM200.175 51.016C200.367 49.672 200.367 49.416 199.983 49.16C200.047 49.736 200.111 50.312 200.175 51.016ZM212.015 17.608L212.527 18.376C212.527 18.376 212.591 18.376 212.655 18.312L212.079 17.544L212.015 17.608ZM210.799 19.208C210.607 19.144 210.543 19.08 210.543 19.08H210.287C210.351 19.336 210.543 19.336 210.799 19.208ZM200.175 47.88C200.111 48.264 200.111 48.264 200.239 48.392C200.239 48.2 200.239 48.072 200.175 47.88ZM269.632 50.056L269.312 49.8C269.376 49.8 269.44 49.864 269.632 49.928L269.951 47.752C269.632 48.264 269.504 48.84 268.864 48.968L268.608 50.248C268.544 50.568 268.479 50.824 268.288 51.08C268.16 51.208 268.096 51.4 268.096 51.656C267.968 52.168 267.712 52.424 267.2 52.424C266.944 52.488 266.816 52.424 266.752 52.168L266.304 52.68C266.24 52.616 266.112 52.552 265.984 52.488L265.664 52.872C265.408 52.616 265.408 52.424 265.344 52.104C265.152 51.272 264.96 50.504 264.768 49.736L264.64 49.288L264.512 49.608L264.32 50.568C264.192 50.952 264.064 51.208 263.808 51.4C263.552 51.592 263.552 51.848 263.36 52.104C263.232 51.848 263.168 51.528 262.848 51.528C262.72 51.528 262.592 51.272 262.592 51.208C262.336 50.76 262.144 50.312 261.888 49.992C261.696 49.864 261.632 49.672 261.632 49.48L260.992 48.136C260.864 48.008 260.864 47.816 260.8 47.624C260.48 46.152 259.84 44.68 259.392 43.208C258.24 39.816 256.96 36.552 255.616 33.16L255.424 32.776C255.296 32.968 255.296 32.968 255.296 33.096L253.312 40.392L251.84 45.96C251.392 47.56 250.944 49.288 250.24 50.952L249.856 51.656C249.792 51.912 249.728 52.04 249.472 52.168C249.728 51.464 249.92 50.888 250.176 50.248C250.112 50.184 250.048 50.184 249.984 50.184L249.6 50.952C249.344 51.272 249.088 51.592 248.896 51.912C248.64 52.36 248.384 52.424 248 52.04L247.872 51.912C247.68 52.424 247.488 52.872 247.424 53.384L247.104 54.088C246.784 54.792 246.208 54.856 245.696 54.344C245.44 54.536 245.248 54.792 244.992 54.856C244.8 54.92 244.48 54.984 244.224 55.048C243.968 55.048 243.776 54.984 243.712 54.856L243.264 54.088C242.752 54.28 242.496 54.024 242.304 53.64L242.176 53.448C241.664 53.192 241.536 52.68 241.344 52.296L241.024 51.592C240.832 51.208 240.64 50.76 240.448 50.312C239.872 48.648 239.616 46.792 239.104 45.064C238.4 42.376 237.952 39.624 237.568 36.872C237.056 34.056 236.736 31.176 236.544 28.232C236.416 26.632 236.352 25.032 236.288 23.368C236.288 23.112 236.352 22.792 236.352 22.472C236.352 22.408 236.352 22.28 236.352 22.216C236.48 20.616 236.544 19.08 236.544 17.48C236.544 16.84 236.736 16.136 236.928 15.56C237.12 15.048 237.312 14.984 237.76 14.984L238.016 14.472C238.144 14.344 238.208 14.344 238.4 14.472C238.272 14.728 238.208 14.92 238.016 15.24C238.272 15.432 238.528 15.624 238.784 15.752C238.784 15.432 238.911 15.176 238.72 14.92L238.976 14.792C239.104 14.728 239.296 14.728 239.36 14.728C239.488 14.856 239.488 15.048 239.488 15.176C239.552 15.304 239.488 15.432 239.424 15.56C239.296 15.944 239.232 16.136 239.488 16.456C239.488 16.584 239.488 16.648 239.488 16.84L239.168 16.968C239.488 17.16 239.744 17.16 240 17.032C239.872 16.648 240.064 16.264 240.128 15.944C240.192 15.688 240.128 15.56 240.128 15.368V14.984C240.704 15.048 240.832 15.496 240.96 15.944C241.088 15.88 241.216 15.816 241.216 15.688C241.6 15.944 241.792 16.136 241.856 16.648C241.984 17.352 242.176 18.184 242.24 19.016C242.624 22.024 242.88 25.16 243.392 28.104C243.776 30.664 244.352 33.16 244.864 35.592C244.928 36.168 244.992 36.68 245.248 37.256L245.568 36.104L246.208 34.568L247.744 31.048C247.872 30.664 247.936 30.28 248 29.832L248.448 28.36C248.512 28.168 248.512 27.976 248.32 27.848C248.192 27.592 248.256 27.464 248.256 27.272L249.472 22.92C249.856 21.384 250.304 19.848 250.56 18.376C250.88 16.52 251.392 14.792 251.712 13.064C251.712 13 251.776 13 251.776 12.936L252.352 13.256C252.48 13 252.544 12.872 252.608 12.552C252.864 13 253.312 13.192 253.248 13.576C253.248 13.704 253.44 13.896 253.503 14.024C253.952 13.96 254.144 13.512 254.72 13.512L255.296 14.728C255.552 14.664 255.68 14.472 255.808 14.216C255.872 13.832 255.936 13.768 256.256 13.96C256.448 14.088 256.576 14.216 256.768 14.344C256.832 14.472 257.024 14.664 257.024 14.728C257.024 15.048 257.216 15.24 257.344 15.624L257.6 14.984C257.984 15.24 258.368 15.432 258.432 15.944C258.56 18.568 259.264 21.192 259.968 23.688C260.16 24.328 260.288 24.904 260.48 25.608C260.8 26.888 261.12 28.168 261.632 29.384C262.4 31.24 263.168 33.096 263.872 34.952C263.936 35.144 264.064 35.336 264.064 35.4H264.256L264.768 33.736L265.28 32.392C265.408 31.944 265.536 31.56 265.664 31.112C265.664 30.856 265.664 30.536 265.664 30.408C265.536 30.024 265.536 29.768 265.664 29.384C266.24 26.888 266.88 24.392 267.456 21.832C268.096 19.592 268.544 17.224 269.12 14.92C269.312 14.216 269.504 13.512 269.76 12.872C269.824 12.68 269.951 12.488 270.08 12.296L270.528 12.552L270.847 12.04L271.232 12.552C271.232 12.68 271.168 12.808 271.104 13L271.68 13.256C271.936 13.192 272.128 12.744 272.64 12.872C272.768 13.192 272.96 13.512 273.024 13.768C273.28 13.704 273.472 13.64 273.536 13.384C273.536 13.128 273.728 13.128 273.92 13.256C274.24 13.448 274.368 13.512 274.24 13.96C274.24 14.664 274.176 15.24 274.048 15.944C274.048 16.072 274.048 16.2 274.048 16.52C274.496 15.944 274.752 15.432 274.944 14.856C275.392 15.432 275.648 16.008 275.648 16.776C275.712 18.952 275.392 21 275.008 23.176C274.304 26.568 273.728 29.96 273.024 33.352L271.616 41.48L270.847 45.448C270.592 46.728 270.4 48.008 270.144 49.224C270.08 49.544 269.951 49.864 269.632 50.056ZM260.992 41.48C260.928 41.48 260.928 41.48 260.864 41.48C261.248 42.504 261.632 43.528 262.016 44.488C262.08 44.424 262.08 44.36 262.08 44.36C261.76 43.4 261.376 42.44 260.992 41.48ZM246.208 53.512C246.336 53.576 246.464 53.64 246.592 53.64L246.784 53.128C246.336 53 246.336 53.256 246.208 53.512ZM252.224 17.48C252.16 17.608 251.968 17.8 252.16 17.992C252.352 17.8 252.224 17.608 252.224 17.48ZM252.8 15.944H252.864V15.624C252.864 15.688 252.8 15.88 252.8 15.944ZM269.312 49.8C269.312 49.672 269.12 49.544 269.248 49.352C269.376 49.48 269.376 49.672 269.312 49.8ZM282.18 15.176C282.116 15.432 281.668 15.432 281.86 15.816C282.052 15.56 282.308 15.432 282.628 15.496C282.628 15.496 282.692 15.432 282.756 15.304C282.884 15.176 283.012 15.112 283.204 14.984C283.396 15.24 283.652 15.432 283.844 15.688C284.036 15.688 284.036 15.496 284.036 15.304C284.1 14.984 284.164 14.984 284.484 15.048C284.804 15.176 285.06 15.24 285.188 15.688C285.188 15.688 285.252 15.688 285.316 15.816C285.444 15.688 285.508 15.624 285.635 15.56C285.7 15.56 285.828 15.624 285.956 15.688C286.34 15.88 286.595 16.2 286.724 16.648C286.916 17.352 287.044 18.184 287.236 18.888C287.556 21.32 287.556 23.752 287.492 26.184C287.364 27.976 287.364 29.768 287.3 31.56C287.3 31.752 287.3 31.88 287.3 32.2C287.236 32.008 287.172 31.944 287.108 31.88H287.044C287.044 32.008 287.044 32.136 287.108 32.264C287.172 33.352 287.236 34.376 287.236 35.4C287.3 35.592 287.364 35.784 287.044 35.784C287.044 35.784 286.98 35.976 286.98 36.104C286.98 37.384 286.98 38.664 286.916 40.008C286.788 42.184 286.724 44.488 286.66 46.792C286.595 47.176 286.66 47.56 286.595 48.008C286.468 48.776 286.595 49.608 286.595 50.376C286.66 50.888 286.532 51.272 286.404 51.72C286.276 51.912 286.276 52.168 286.276 52.424C286.276 52.744 286.276 53.192 286.276 53.64C285.764 53.768 285.316 53.832 284.932 54.024C284.868 53.832 284.804 53.704 284.804 53.64C284.292 53.576 283.716 53.96 283.524 53.128C283.14 53.32 282.82 53.512 282.564 53.64C282.436 53.64 282.372 53.576 282.372 53.448C282.244 53.256 282.116 53.128 281.924 53.064C281.604 53 281.54 52.68 281.476 52.424C281.411 52.168 281.22 51.912 280.964 51.656C280.836 51.464 280.644 51.208 280.58 51.016C280.26 50.44 280.068 49.928 279.812 49.288C279.684 48.968 279.62 48.648 279.62 48.328C279.62 43.4 279.62 38.536 279.684 33.608C279.684 29.512 279.94 25.608 280.196 21.576C280.196 20.168 280.196 18.824 280.26 17.352C280.324 16.904 280.388 16.328 280.516 15.88C280.58 15.496 280.708 15.176 281.156 15.176C281.22 15.176 281.284 15.112 281.348 15.048C281.604 14.728 281.604 14.728 281.988 14.984C282.052 15.048 282.116 15.112 282.18 15.176ZM282.884 8.648C283.012 9.608 283.076 10.504 283.14 11.464C282.564 11.336 282.052 11.272 281.411 11.144C281.411 10.76 281.476 10.312 281.476 9.864C281.411 9.8 281.284 9.672 281.092 9.544C280.964 9.608 280.836 9.736 280.644 9.864C280.644 9.608 280.644 9.416 280.644 9.224C280.26 9.096 280.196 8.776 280.388 8.392C280.388 8.264 280.388 8.008 280.452 7.816C280.196 7.496 280.132 7.176 280.196 6.728C280.26 6.344 280.196 5.896 280.196 5.448C280.196 5.064 280.26 4.808 280.388 4.488C280.452 4.168 280.708 4.296 280.9 4.36C281.028 4.232 281.092 4.04 281.156 3.976C281.284 3.912 281.411 3.976 281.604 3.976C281.604 3.912 281.732 3.784 281.796 3.72C281.924 3.784 282.052 3.848 282.18 3.976C282.18 4.04 282.116 4.232 282.116 4.36C282.308 4.36 282.5 4.424 282.628 4.488C282.692 4.424 282.82 4.296 282.884 4.232C283.012 4.104 283.14 3.976 283.332 4.04C283.524 4.232 283.716 4.296 283.652 4.552C283.652 4.744 283.652 4.936 283.588 5.128C283.844 5 284.036 5 284.164 5C284.42 4.808 284.612 4.744 284.932 5C285.06 5.064 285.252 5 285.252 5.128C285.444 5.448 285.764 5.256 285.892 5.512C286.02 5.704 286.212 5.96 286.276 6.152C286.276 6.216 286.404 6.28 286.468 6.344C286.468 6.28 286.468 6.216 286.532 6.216C286.724 6.408 286.98 6.664 286.852 7.048C286.788 7.176 286.98 7.368 286.98 7.432C287.108 7.688 287.364 7.88 287.044 8.2C287.044 8.264 287.108 8.392 287.172 8.456C287.236 8.712 287.364 9.032 287.492 9.288C287.236 9.544 286.98 9.8 286.724 9.992C286.66 10.056 286.66 10.312 286.595 10.568C286.468 10.568 286.276 10.632 286.02 10.696C285.956 10.248 285.892 9.864 285.828 9.48C285.764 9.032 285.508 8.648 285.252 8.392C285.188 8.328 285.06 8.392 285.06 8.328C284.932 8.648 284.74 8.776 284.484 8.84C284.1 9.096 283.844 9.288 283.716 9.608C283.844 9.736 283.844 9.864 283.908 9.928C283.972 9.864 284.036 9.864 284.1 9.864C284.292 10.44 284.228 11.08 284.228 11.656C283.908 11.592 283.716 11.528 283.332 11.528C283.332 11.08 283.332 10.632 283.332 10.184C283.332 10.12 283.332 10.056 283.396 10.056C283.524 9.544 283.46 9.096 282.884 8.648ZM282.692 7.752C282.756 7.496 282.692 7.432 282.5 7.432C282.564 7.496 282.628 7.624 282.692 7.752ZM282.628 6.92C282.628 6.92 282.628 6.856 282.628 6.792C282.5 6.728 282.372 6.728 282.244 6.984C282.372 6.92 282.564 6.92 282.628 6.92ZM287.876 38.216C287.94 39.176 287.94 40.2 287.94 41.096C288.068 43.4 288.132 45.576 288.196 47.88C288.196 48.776 288.196 49.544 288.196 50.376C288.196 50.632 288.132 50.888 288.004 51.08C287.94 51.336 287.684 51.4 287.492 51.272C287.428 51.4 287.3 51.592 287.236 51.72C287.236 51.72 287.172 51.72 287.108 51.72C287.044 49.48 287.236 47.304 287.364 45C287.492 42.696 287.62 40.456 287.748 38.216C287.812 38.216 287.812 38.216 287.876 38.216ZM284.356 10.76C284.42 10.696 284.484 10.632 284.484 10.632C284.548 10.696 284.548 10.696 284.548 10.76V10.824C284.484 10.824 284.42 10.824 284.356 10.76ZM297.555 47.56C296.851 46.856 296.531 46.088 296.339 45.192C295.955 43.912 295.891 42.568 295.699 41.224C295.379 37.064 295.379 32.968 295.635 28.808L295.955 26.056C296.083 24.136 296.467 22.152 296.531 20.168C296.531 20.04 296.531 19.784 296.467 19.592C296.403 19.848 296.339 20.168 296.275 20.424H296.211L296.403 18.376L295.891 18.248L293.011 17.736C292.819 17.672 292.499 17.608 292.371 17.288C292.499 17.16 292.563 17.096 292.755 16.968V16.648C292.371 16.584 292.051 16.52 291.731 16.392C291.539 16.392 291.347 16.264 291.475 15.944C291.539 15.688 291.219 15.688 291.155 15.432L291.923 14.984C291.731 14.728 291.219 14.728 291.027 14.216L291.731 13.704H291.987C292.435 13.704 292.883 13.704 293.203 13.64L291.027 13.448C291.027 13.064 291.027 12.744 291.027 12.36C291.283 12.296 291.603 12.296 291.731 12.04C291.923 11.912 292.243 11.912 292.435 11.912H296.403H297.043L297.299 10.184C297.619 8.072 297.875 5.96 298.259 3.784C298.323 3.272 298.451 2.76 298.579 2.312L298.835 1.352C298.963 0.839996 299.411 0.839996 299.859 0.711998C299.987 0.711998 300.115 0.903999 300.243 1.032L300.051 1.224V1.352L301.011 1.224L301.331 1.672L301.587 1.352C301.651 1.352 301.715 1.352 301.715 1.352L302.867 2.184C303.251 2.568 303.443 2.952 303.507 3.4C303.635 3.976 303.763 4.616 303.763 5.192C303.827 6.216 303.827 7.24 303.891 8.264C303.891 9.16 303.827 10.056 303.891 11.08C303.891 11.528 303.891 12.04 303.955 12.488C304.403 12.616 304.787 12.68 305.107 12.744C305.875 12.872 306.579 13 307.347 13.384C308.051 13.704 308.819 13.832 309.715 13.96L311.315 14.216C311.827 14.408 312.339 14.664 312.659 14.92C312.659 15.432 312.339 15.048 312.211 15.112C312.339 15.496 312.787 15.688 312.851 16.136L312.595 16.2L313.043 17.096L312.211 17.864L312.595 17.992C312.595 17.992 312.595 18.056 312.531 18.056L311.123 18.376L310.163 18.44L310.739 18.824C310.483 18.888 310.291 19.08 310.163 19.08C309.779 19.144 309.267 19.336 308.819 19.336C307.475 19.336 306.131 19.4 304.787 19.208C304.531 19.208 304.211 19.208 303.827 19.144L303.699 20.168C303.699 20.232 303.699 20.296 303.699 20.296C303.955 20.552 303.827 20.808 303.827 21C303.827 22.472 303.827 23.944 303.827 25.416C303.827 25.608 303.891 25.736 303.891 25.928C303.955 26.12 303.955 26.376 303.955 26.632L303.827 32.328C303.827 34.952 303.827 37.64 303.955 40.264C304.147 41.928 304.403 43.656 304.595 45.256C304.659 45.576 304.787 45.96 304.915 46.344C304.915 46.408 305.043 46.536 305.171 46.408C305.171 46.344 305.299 46.408 305.363 46.472C305.427 46.664 305.619 46.6 305.811 46.472L306.515 45.576C306.579 45.512 306.579 45.32 306.579 45.256C306.579 45.128 306.515 45.064 306.515 44.872C306.643 44.936 306.707 45.064 306.835 45.128C307.091 44.68 307.411 44.296 307.091 43.72L307.923 43.912C308.243 43.4 308.947 43.08 308.499 42.312C308.691 42.056 309.203 41.928 309.523 42.056C309.779 42.184 309.843 42.44 309.779 42.952L310.419 42.568C310.547 42.44 310.739 42.44 310.995 42.504C311.443 42.696 311.827 42.888 312.147 43.272C312.275 43.464 312.403 43.656 312.595 43.784C312.915 44.04 313.171 44.424 313.171 44.936C313.171 45.128 313.171 45.192 313.235 45.32C313.555 45.832 313.427 46.28 313.171 46.664C312.403 47.688 311.635 48.776 310.675 49.672C310.419 49.864 310.227 50.056 310.035 50.44C309.971 50.696 309.843 51.016 309.715 51.272C309.395 51.784 309.011 52.168 308.499 52.424L305.811 53.64C305.235 53.768 304.787 53.832 304.211 53.64C302.867 53.256 301.523 52.488 300.435 51.592C300.499 51.592 300.691 51.656 300.819 51.656C300.499 50.952 299.923 50.504 299.219 50.12C299.411 50.568 299.795 50.888 300.051 51.272C298.899 50.44 298.131 49.48 297.811 48.136C297.747 47.88 297.811 47.56 297.491 47.56C297.555 47.432 297.683 47.368 297.619 47.304L297.491 46.216L297.299 46.024C297.171 46.344 297.171 46.664 297.363 47.048C297.427 47.176 297.491 47.368 297.555 47.56ZM306.579 51.656C306.835 51.656 307.027 51.4 307.219 51.208C306.899 51.208 306.643 51.208 306.451 51.272C306.259 51.336 306.259 51.4 306.387 51.592C306.067 51.528 305.875 51.72 305.747 52.04C306.131 52.168 306.323 52.04 306.579 51.656ZM296.147 31.752L296.595 35.208C296.595 35.4 296.595 35.592 296.595 35.784C296.595 37.064 296.659 38.28 296.723 39.56C296.787 40.648 296.851 41.672 296.851 42.696L296.915 43.656C296.915 43.848 296.979 43.976 297.107 44.104L297.299 40.264V39.24L297.107 35.4C297.107 33.928 297.107 32.52 297.107 31.112C297.171 30.024 297.107 28.936 297.427 27.912C297.555 27.592 297.619 27.336 297.619 27.016C297.619 26.888 297.619 26.632 297.555 26.568C297.299 26.248 297.299 25.928 297.363 25.672C297.363 24.776 297.427 23.944 297.427 23.048C297.491 22.728 297.555 22.6 297.811 22.536V18.504L297.043 18.376L296.851 20.424C296.851 21.512 296.787 22.664 296.659 23.752C296.659 24.2 296.595 24.584 296.595 25.032C296.595 25.416 296.659 25.672 296.595 25.928C296.595 26.888 296.467 27.784 296.403 28.616H296.339V28.104C296.147 28.616 295.955 29.32 295.827 29.832C295.763 30.024 295.699 30.28 295.699 30.472L295.955 32.2L296.019 32.264C296.019 32.072 296.083 31.944 296.147 31.752ZM298.771 47.304V46.856C298.579 45.448 298.323 44.04 298.323 42.696C298.259 41.352 297.875 40.072 297.747 38.792C297.619 38.984 297.555 39.112 297.555 39.304C297.555 39.752 297.555 40.264 297.619 40.648C297.683 41.864 297.747 43.08 297.811 44.296C297.939 45.128 298.131 45.832 298.323 46.536C298.323 46.792 298.451 47.048 298.771 47.304ZM299.283 44.552L298.963 42.76H298.899C298.963 43.144 298.963 43.464 299.027 43.848L299.603 47.048C299.667 47.304 299.795 47.56 300.115 47.624C300.755 47.816 301.267 48.264 301.651 48.776C301.779 48.968 302.035 49.224 302.227 49.416C302.419 49.544 302.547 49.608 302.675 49.352L301.459 48.328C301.011 47.88 300.499 47.496 300.243 46.856L299.539 45.128C299.539 45 299.539 44.872 299.539 44.808C299.539 44.616 299.347 44.744 299.347 44.68C299.283 44.68 299.283 44.616 299.283 44.552ZM305.619 51.272L304.979 50.952C304.659 50.888 304.659 50.888 304.339 51.208L304.723 51.464C305.171 51.784 305.171 51.784 305.619 51.272ZM304.147 47.816L303.187 47.176C303.187 47.56 303.379 48.008 303.763 48.328L304.147 47.816ZM309.075 44.04L308.755 44.424L309.139 44.68C309.203 44.424 309.203 44.232 309.203 44.04C309.203 44.04 309.139 44.04 309.075 44.04ZM294.227 13.64C294.227 13.704 294.227 13.704 294.227 13.704L294.995 13.832V13.704C294.739 13.576 294.483 13.64 294.227 13.64ZM296.531 25.416V25.672V25.416ZM334.91 52.808C334.91 52.296 334.91 51.656 335.166 51.208C335.422 50.568 335.23 50.12 334.846 49.672L334.59 49.48C334.334 49.864 334.27 50.12 334.206 50.44C334.206 50.952 334.206 51.336 334.142 51.784L333.758 53C333.63 53 333.502 53.064 333.246 53.064L333.438 50.696C333.31 50.696 333.246 50.696 333.118 50.76C333.118 50.568 332.99 50.44 332.862 50.312C332.67 50.12 332.478 49.864 332.478 49.48C332.414 49.16 332.286 48.776 332.286 48.52V47.944C332.222 48.008 332.094 48.008 332.03 48.008C332.03 48.712 332.03 49.288 332.03 49.928C332.094 49.928 332.094 49.992 332.158 49.992L332.286 49.736H332.35C332.286 50.44 332.478 51.208 332.222 51.976L332.03 51.4L331.518 51.208L331.646 49.544L331.774 47.816C331.39 47.88 331.262 48.008 331.262 48.264C331.326 48.648 331.39 48.968 331.39 49.288V50.056C331.134 49.992 330.942 49.8 331.006 49.544C331.006 49.032 330.814 48.648 330.622 48.264C330.43 47.752 330.366 47.304 330.43 46.792C330.558 46.088 330.622 45.256 330.686 44.488L331.07 40.456L331.454 34.76C331.518 33.736 331.518 32.712 331.454 31.688C331.262 30.216 331.134 28.808 331.006 27.336C330.814 26.376 330.494 25.416 330.046 24.52L329.854 24.2C329.342 24.456 328.958 24.84 328.638 25.16C328.638 25.224 328.574 25.352 328.574 25.352C328.766 25.416 328.638 25.544 328.574 25.672L327.55 26.696C327.422 26.888 327.294 27.08 327.166 27.272C326.462 28.424 325.822 29.512 325.31 30.792C325.182 31.112 325.054 31.368 324.99 31.624C324.99 31.752 324.798 31.944 324.926 32.2C324.99 32.264 324.926 32.456 324.862 32.648L324.478 33.928C324.222 34.632 324.222 35.336 324.222 36.04L324.35 39.368L324.478 45.384C324.542 46.92 324.67 48.456 324.734 49.928C324.734 50.184 324.734 50.568 324.478 50.824C324.35 50.952 324.286 51.208 324.286 51.336C324.222 51.848 323.902 52.168 323.454 52.36L322.046 52.936C321.982 52.424 322.046 52.04 322.046 51.528C322.11 51.144 322.174 50.632 322.174 50.12C322.238 49.992 322.174 49.736 321.982 49.736C321.534 50.504 321.406 51.4 321.406 52.36C321.406 52.616 321.342 53 321.342 53.384C321.278 53.512 321.15 53.64 320.958 53.64C320.702 53.64 320.446 53.64 320.19 53.64L319.934 52.808L319.614 52.616L319.358 52.872H319.294C319.102 52.616 319.102 52.424 318.91 52.424C318.846 52.36 318.782 52.168 318.718 52.04C318.59 51.656 318.462 51.208 318.142 50.952C318.078 50.824 318.014 50.568 318.014 50.376C318.014 49.992 317.886 49.8 317.694 49.48C317.566 49.352 317.438 49.096 317.438 48.904C317.374 48.392 317.118 47.88 316.926 47.368C316.862 47.112 316.798 46.792 316.798 46.536C316.798 42.184 316.798 37.832 316.99 33.416C317.118 30.6 317.182 27.848 317.374 25.032C317.502 21 317.694 17.032 317.886 13C318.014 11.592 318.206 10.248 318.398 8.84C318.526 8.2 318.654 7.56 319.102 7.048C319.102 6.984 319.102 6.856 319.166 6.728C319.294 6.28 319.486 5.96 319.87 5.704C320.126 5.96 320.254 6.216 320.51 6.472C320.702 6.024 320.574 5.448 320.83 5C321.022 5.256 321.022 5.512 320.894 5.896C320.702 6.216 320.83 6.408 321.214 6.664C321.342 6.6 321.406 6.472 321.47 6.408V7.816C321.918 7.368 322.11 6.792 322.622 6.408C322.75 6.536 322.814 6.664 322.814 6.728C323.006 7.24 323.134 7.688 323.198 8.2C323.262 9.16 323.262 10.184 323.262 11.144C323.262 12.36 323.198 13.576 323.198 14.856C323.198 15.432 323.262 15.944 323.262 16.584L323.39 18.376C323.774 18.12 324.094 17.864 323.966 17.352C323.966 17.16 324.03 16.968 324.094 16.776L324.222 17.672C324.478 17.608 324.542 17.48 324.734 17.352C325.63 16.84 326.59 16.392 327.678 16.264C327.998 16.2 328.318 16.264 328.638 16.328C328.766 16.328 329.022 16.456 329.022 16.712C329.022 16.84 329.086 16.904 329.086 16.968C329.342 17.352 329.342 17.352 329.854 17.288C331.006 17.16 332.03 17.288 332.798 18.312C332.926 18.376 333.054 18.376 333.246 18.376C333.694 18.376 334.142 18.632 334.462 19.08L336.126 20.808C336.638 21.256 336.894 21.896 337.214 22.536C337.918 24.392 338.302 26.248 338.43 28.168L338.558 30.472C338.558 31.816 338.622 33.224 338.814 34.632C339.134 37 339.134 39.432 339.07 41.8L338.75 48.776C338.686 49.288 338.622 49.864 338.558 50.312C338.558 50.696 338.43 50.952 338.11 51.08L336.894 51.592C336.83 51.656 336.702 51.656 336.574 51.528C336.382 51.4 336.254 51.464 336.126 51.656L335.742 52.104L335.55 52.424C335.422 52.872 335.422 52.872 334.91 52.808ZM323.006 41.672C323.006 41.672 322.942 41.672 322.878 41.672L322.686 42.888C322.686 43.784 322.622 44.616 322.558 45.448C322.494 45.704 322.494 45.96 322.494 46.216V46.92C322.558 47.176 322.558 47.368 322.558 47.56H322.622C322.75 45.576 322.878 43.656 323.006 41.672ZM325.694 19.08C325.694 19.016 325.694 19.016 325.63 18.952C325.246 19.144 324.99 19.4 324.67 19.592C324.286 19.784 324.222 20.104 324.414 20.552L325.694 19.08ZM325.118 25.928C325.694 25.672 326.206 25.16 326.334 24.456C325.694 24.776 325.438 25.416 325.118 25.928ZM323.39 21.96C323.902 21.512 323.838 21 323.774 20.552C323.262 20.808 323.39 21.32 323.39 21.96ZM333.886 24.456C333.822 23.688 333.566 23.24 333.118 22.664C333.182 23.176 333.566 24.2 333.886 24.456ZM336.574 22.92C336.51 22.408 336.382 22.024 336.062 21.768C336.254 22.088 336.382 22.472 336.574 22.92ZM331.838 46.472C331.902 46.472 331.902 46.472 331.902 46.472C331.966 46.408 331.966 46.344 331.966 46.344C331.966 46.344 331.902 46.28 331.838 46.152V46.344C331.838 46.344 331.838 46.408 331.838 46.472ZM324.99 42.12V44.872V42.12ZM375.712 19.592L375.776 19.656V19.4L375.264 19.592C375.2 19.464 375.2 19.4 375.008 19.336L375.2 19.784C375.392 20.232 375.456 20.232 374.944 20.488C374.752 20.296 374.496 19.912 374.304 19.592C373.984 18.824 373.6 18.056 373.344 17.16C372.704 15.496 372.064 13.768 371.168 12.296C370.848 11.656 370.336 11.272 369.888 10.888C369.376 11.08 369.12 11.528 368.8 11.912C367.712 13.32 367.456 14.92 367.264 16.712C367.2 18.376 367.584 19.784 368.416 21.128C369.312 22.664 370.208 24.2 371.232 25.672C372.704 27.912 373.984 30.28 375.2 32.712C375.456 33.16 375.712 33.8 375.904 34.312C376.352 35.592 376.8 36.808 377.248 38.024C377.824 39.752 378.208 41.416 378.4 43.08C378.464 44.808 378.144 46.344 376.992 47.624C376.736 48.008 376.544 48.328 376.352 48.776C375.776 50.184 374.816 51.4 373.28 52.104C372.64 52.424 372.064 52.68 371.488 53C370.784 53.448 369.952 53.576 369.12 53.384C368.096 53.064 367.072 52.616 366.048 52.168C365.984 52.168 365.856 52.04 365.728 51.912C365.92 51.912 366.048 51.912 366.304 51.912C365.728 51.4 365.216 50.888 364.512 50.696C364.512 50.632 364.448 50.632 364.384 50.632C363.872 50.76 363.616 50.44 363.36 50.12C362.848 49.608 362.336 49.096 362.016 48.52C361.376 47.432 360.352 46.408 359.904 45.192C359.328 43.912 358.88 42.504 358.56 41.032C358.176 39.112 357.92 37.192 357.792 35.272C357.728 34.888 357.792 34.504 357.92 34.184C357.92 33.992 358.112 33.8 358.176 33.672C358.24 33.544 358.368 33.416 358.432 33.352C358.752 32.904 359.136 32.712 359.776 32.84C360.032 32.968 360.224 32.968 360.416 32.712C360.672 32.328 361.12 32.456 361.44 32.456C361.696 31.944 362.08 31.816 362.72 32.008C362.784 32.264 362.784 32.456 362.592 32.648C362.656 32.712 362.656 32.712 362.656 32.712L363.232 33.16C363.168 33.672 363.424 34.184 363.232 34.632C363.104 34.76 363.104 34.888 363.104 35.08C363.36 36.616 363.552 38.088 363.872 39.688C364.064 40.712 364.448 41.672 364.832 42.696C365.024 43.272 365.344 43.784 365.664 44.232L365.856 44.552C365.856 44.552 365.92 44.488 365.984 44.488C365.92 44.36 365.92 44.36 365.92 44.232C365.408 42.888 365.152 41.48 365.024 40.2L364.32 36.488L363.808 33.608L363.488 32.392C363.488 32.264 363.424 32.2 363.424 32.008C363.744 31.816 364 32.008 364.256 31.944C364.32 32.2 364.32 32.328 364.384 32.456C364.448 32.584 364.512 32.712 364.704 32.84C364.96 32.968 365.088 33.032 364.832 33.288L365.216 33.608C365.472 33.672 365.6 33.8 365.536 34.12C365.472 34.184 365.536 34.248 365.6 34.312C366.24 35.144 366.304 36.104 366.432 37.064L367.008 40.84C367.392 42.44 367.84 43.912 368.672 45.128L369.12 45.832C369.184 45.576 369.312 45.384 369.376 45.192C369.824 43.912 369.888 42.632 369.696 41.288C369.44 38.792 368.736 36.488 367.904 34.184C367.712 33.672 367.456 33.16 367.2 32.776C365.856 30.728 364.512 28.744 363.232 26.696C362.272 25.224 361.44 23.688 360.864 22.024C360.224 20.232 359.904 18.376 359.84 16.392C359.776 15.496 359.712 14.536 359.84 13.64C359.968 11.976 360.416 10.376 361.376 8.904C361.568 8.52 361.696 8.072 361.44 7.56C361.376 7.432 361.44 7.368 361.44 7.24C362.016 6.28 362.592 5.448 363.424 4.808C363.616 4.68 363.808 4.552 364.064 4.744C364.192 4.872 364.448 4.872 364.576 4.808C364.768 4.808 364.896 4.936 365.024 5.128C364.064 5.576 363.232 6.152 362.72 7.048C363.36 6.536 364 6.152 364.768 5.96C365.152 5.832 365.472 5.64 365.728 5.384C366.24 4.936 366.752 4.552 367.456 4.296L367.776 4.104C367.328 3.912 366.816 3.976 366.368 3.976C366.944 3.784 367.584 3.784 368.16 3.848C368.928 3.976 369.696 4.04 370.464 4.04C371.296 4.104 372.128 4.424 372.896 4.808C373.728 5.192 374.56 5.832 375.008 6.664C375.072 6.792 375.2 6.92 375.264 6.92C375.904 7.432 376.352 7.88 376.736 8.456C376.736 8.456 376.8 8.52 376.928 8.584C376.672 7.88 376.16 7.432 375.84 6.92L376.352 7.368V6.92L376.736 7.432C377.376 8.136 377.76 9.096 378.016 10.056L378.336 11.528L378.592 12.872C379.104 14.344 379.232 15.816 378.976 17.288C378.848 18.056 378.592 18.568 378.144 19.208L377.696 19.848C377.632 19.976 377.632 20.04 377.504 20.104C377.248 20.232 377.12 20.36 376.992 20.68C376.928 20.808 376.672 20.808 376.48 20.808C376.416 20.552 376.672 20.168 376.224 20.04L376.096 20.424L375.712 19.592ZM365.024 21.64C364.896 21.512 364.832 21.32 364.768 21.192C364.768 21.192 364.768 21.256 364.704 21.256C365.024 21.704 365.024 21.832 365.024 21.896C365.728 22.984 366.304 24.072 366.944 25.16L367.136 25.224C367.2 25.48 367.392 25.672 367.52 25.928C367.52 25.928 367.52 25.928 367.584 25.864C367.52 25.672 367.392 25.416 367.136 25.224C367.008 24.968 366.944 24.712 366.88 24.52L365.216 21.896C365.152 21.768 365.024 21.768 365.024 21.64ZM373.024 45.32C373.216 45.128 373.28 45.064 373.344 44.872C373.728 44.36 373.792 43.912 373.6 43.272C373.344 42.696 373.28 42.184 373.536 41.48L373.6 41.032C373.792 40.008 373.984 39.048 373.536 38.024V37.832C373.344 36.68 373.024 35.592 372.576 34.632C372.384 34.184 372.192 33.672 372 33.224C371.808 33.352 371.872 33.48 371.808 33.608C371.552 33.864 371.744 34.12 371.808 34.312C372.128 35.272 372.384 36.168 372.64 37.064C372.96 38.28 373.088 39.56 373.152 40.776C373.216 41.544 373.28 42.376 373.024 43.08C372.832 43.848 373.024 44.552 373.024 45.32ZM371.232 40.008C371.232 40.712 371.232 41.48 371.296 42.184C371.296 42.888 371.168 43.656 371.296 44.36C371.552 43.912 371.808 43.336 371.68 42.76L371.424 40.648C371.36 40.392 371.296 40.264 371.232 40.008ZM364.512 49.992C364.256 49.416 363.808 49.16 362.912 48.968C363.36 49.48 363.872 49.8 364.512 49.992ZM369.248 28.936C369.056 28.04 368.416 27.336 367.968 26.568C367.904 26.568 367.904 26.632 367.904 26.632C368.416 27.336 368.8 28.104 369.248 28.936ZM374.944 18.568C374.944 18.632 374.88 18.632 374.88 18.696C374.944 18.76 374.944 18.824 374.944 18.952C375.008 18.824 375.072 18.824 375.008 18.824C375.008 18.696 374.944 18.632 374.944 18.568ZM375.712 19.592C375.776 19.784 375.712 19.912 375.52 20.04C375.456 19.784 375.648 19.656 375.776 19.656L375.712 19.592ZM410.821 22.472C410.437 23.176 409.989 23.688 409.669 24.392C408.965 25.672 408.389 27.016 408.261 28.552C408.197 29.32 408.005 29.96 407.877 30.6L407.237 37.192L407.045 38.92C407.045 39.368 407.109 39.88 407.173 40.264C407.237 41.288 407.237 42.184 406.981 43.144C406.725 43.976 406.533 44.936 406.661 45.896C406.725 46.024 406.661 46.088 406.661 46.216C406.661 46.28 406.661 46.344 406.661 46.344C405.957 46.664 405.829 46.6 405.701 45.832C405.573 44.36 405.573 42.888 405.573 41.48C405.637 40.776 405.509 40.072 405.445 39.304C405.445 39.304 405.381 39.304 405.317 39.304C405.317 40.008 405.317 40.712 405.253 41.416C405.125 42.696 405.317 43.976 405.381 45.32C405.445 45.832 405.445 46.344 405.445 46.792C405.509 46.856 405.445 47.048 405.509 47.048C405.893 47.432 405.701 47.88 405.829 48.328L405.893 48.904C406.021 48.52 406.021 48.008 406.213 47.56C406.277 48.264 406.341 48.84 406.277 49.48C406.277 49.544 406.277 49.608 406.213 49.672C405.893 49.8 405.957 50.056 406.021 50.376C406.021 50.888 406.021 50.888 405.445 51.016C405.253 49.992 405.381 48.776 405.573 47.56C405.061 47.944 404.741 48.328 404.357 48.712C404.357 48.776 404.357 48.904 404.357 49.032V49.736C404.101 49.608 404.101 49.736 404.037 49.928L403.589 51.144C403.589 51.208 403.589 51.272 403.461 51.528C403.397 51.208 403.269 51.144 403.269 50.952C403.269 50.44 402.949 49.992 402.693 49.736C402.437 49.288 402.309 48.84 402.181 48.456C402.053 48.2 401.925 47.944 401.797 47.688C401.797 47.752 401.733 47.88 401.797 48.008C401.861 48.776 401.925 49.48 402.053 50.184C402.053 50.44 402.117 50.824 401.925 51.144C401.669 50.696 401.413 50.376 401.477 49.928C401.541 48.968 401.477 48.008 401.413 47.112C401.349 46.536 401.157 46.024 401.093 45.32C401.157 45.832 401.157 46.344 401.157 46.728C401.157 47.176 401.157 47.56 401.093 48.072C401.093 48.52 400.965 48.968 400.965 49.416C400.261 49.48 400.133 49.288 399.941 48.776L399.749 48.328L399.173 47.496C399.045 47.368 399.045 47.24 399.045 47.048L398.341 35.464L397.509 25.864C397.509 24.968 397.189 24.136 396.869 23.24L396.613 22.728L396.165 23.24C394.629 25.288 393.541 27.4 392.837 29.768C392.197 31.816 391.877 33.928 391.621 36.04C391.557 36.36 391.557 36.616 391.621 36.872L392.389 44.104C392.453 45.128 392.453 46.28 392.453 47.304C392.453 47.56 392.389 47.688 392.325 47.944L392.133 48.904C392.133 49.16 392.069 49.48 391.877 49.672C391.749 49.736 391.685 49.928 391.685 49.992C391.493 50.568 391.493 50.568 390.981 50.824L390.533 50.056C390.533 50.696 390.789 51.208 390.661 51.912L388.293 52.552C387.845 52.168 387.973 51.528 387.781 51.016L387.461 51.208L387.205 50.76L386.885 51.4C386.437 51.336 386.245 50.952 386.053 50.504C385.989 50.312 385.861 50.184 385.733 49.992L385.157 48.968C384.965 48.648 384.901 48.264 384.645 47.88C384.197 47.112 384.133 46.216 384.133 45.32C383.813 42.44 383.557 39.624 383.301 36.808C383.109 34.568 383.045 32.328 383.045 30.024C383.045 29.768 383.109 29.448 383.173 29.192C383.237 27.272 383.557 25.416 383.621 23.56C383.621 22.984 383.813 22.408 383.877 21.832L384.197 19.272C384.389 18.568 384.581 17.864 384.773 17.16L384.901 16.328L385.477 14.28C385.605 14.024 385.669 13.704 386.117 13.576L386.629 14.408L387.333 14.024L387.781 14.728C387.845 14.664 387.973 14.472 388.101 14.408L388.549 15.176L388.805 14.92C388.997 14.984 389.189 14.984 389.509 14.984C389.509 15.176 389.573 15.368 389.573 15.496C389.509 16.136 389.637 16.712 389.829 17.288C390.021 17.864 390.021 18.376 390.021 19.016C390.021 19.208 390.085 19.336 390.085 19.592L390.341 19.272L391.429 17.864C392.197 17.032 393.157 16.456 394.181 16.136C395.013 15.88 395.781 15.944 396.357 16.52C396.741 16.904 397.061 17.16 397.381 17.48C397.509 17.672 397.701 17.736 398.021 17.736C398.469 17.736 398.853 17.544 399.237 17.352C400.581 16.904 402.245 18.12 402.373 19.08C402.053 18.952 401.861 18.568 401.605 18.376C401.285 18.12 400.965 17.928 400.581 17.928C400.645 17.992 400.709 18.056 400.773 18.056C401.413 18.376 401.861 18.888 402.181 19.592L402.629 21C402.693 21.128 402.693 21.256 402.821 21.384C402.949 20.936 403.141 20.616 403.333 20.232C403.461 19.72 403.717 19.336 403.909 18.824C404.037 18.696 404.101 18.568 404.293 18.504L405.317 17.608C405.317 17.544 405.381 17.48 405.381 17.416C405.957 16.136 406.853 15.24 407.941 14.472L408.453 14.152C409.029 13.832 409.669 13.896 410.181 14.472C410.437 14.664 410.629 14.728 410.885 14.664C411.141 14.6 411.397 14.728 411.717 14.728C411.909 14.728 411.973 14.792 412.101 14.792C412.677 14.728 413.189 14.856 413.637 15.176L415.685 16.392C416.133 16.648 416.517 17.16 416.837 17.608C417.669 18.824 418.181 20.296 418.629 21.768C418.885 22.536 419.013 23.368 419.269 24.2C419.333 24.456 419.397 24.712 419.397 24.968C420.421 27.528 420.933 30.088 421.189 32.776C421.381 34.888 421.509 37 421.637 39.112C421.637 39.752 421.573 40.392 421.573 41.032C421.509 41.672 421.445 42.248 421.445 42.888C421.381 44.168 421.381 45.448 421.381 46.792C421.381 47.048 421.317 47.304 421.573 47.496L421.637 47.624C421.637 48.2 421.637 48.712 421.445 49.224C421.445 48.776 421.381 48.328 421.381 47.88C420.997 48.2 421.317 48.776 420.677 48.968V49.992C420.741 50.376 420.613 50.568 420.357 50.76C420.165 50.888 420.101 51.016 419.909 51.144C419.589 51.016 419.397 50.76 419.205 50.44V52.424C418.821 52.552 418.757 52.552 418.757 52.232C418.693 51.976 418.693 51.656 418.693 51.4H418.629C418.501 51.656 418.437 51.912 418.437 52.232C418.181 51.784 418.309 51.4 418.309 50.952C418.245 50.504 418.373 50.12 418.373 49.736V48.328L417.861 48.456V53.128L417.157 53.384C417.093 53.128 417.093 53 417.093 52.808C417.221 50.824 417.157 48.776 417.093 46.792C417.093 46.088 417.221 45.256 417.221 44.488C417.285 43.4 417.349 42.312 417.349 41.224C417.349 39.944 417.349 38.664 417.285 37.448C417.221 35.528 417.093 33.672 416.837 31.752C416.837 31.496 416.773 31.304 416.709 31.048C416.645 31.112 416.645 31.176 416.645 31.24C416.581 32.008 416.581 32.904 416.581 33.736C416.581 34.312 416.709 34.952 416.773 35.592C416.901 36.232 416.773 36.872 416.773 37.576C416.773 37.768 416.773 37.896 416.773 38.088C416.965 39.88 416.965 41.608 416.965 43.4C416.965 44.616 416.901 45.768 416.901 46.92C416.901 47.624 416.837 48.456 416.837 49.224C416.837 49.416 416.773 49.544 416.645 49.672C416.581 49.672 416.581 49.672 416.581 49.672C416.325 49.928 416.005 50.12 415.813 50.44C415.749 50.696 415.749 51.08 415.749 51.464C415.749 51.208 415.685 50.952 415.621 50.696H415.557L415.237 52.168H415.109L414.981 51.208C414.789 51.208 414.661 51.208 414.533 51.208C414.341 51.208 414.085 51.016 414.021 50.696C413.957 50.568 413.893 50.44 413.829 50.312C413.253 49.8 413.189 49.032 413.061 48.328C412.805 46.984 412.869 45.576 412.869 44.296C412.869 40.264 412.869 36.104 412.869 32.072C412.805 30.088 412.677 28.104 412.357 26.12C412.165 25.16 411.781 24.2 411.461 23.24C411.397 22.92 411.205 22.664 411.077 22.28C410.885 22.408 410.885 22.472 410.821 22.536C410.885 22.344 410.885 22.216 410.949 22.024L410.373 21.192C409.669 21.512 409.093 22.216 408.837 22.856C408.261 24.392 407.813 25.864 407.493 27.464L407.365 27.976C407.621 27.592 407.749 27.272 407.941 26.888C408.581 25.544 409.413 24.2 410.373 22.92C410.437 22.728 410.693 22.664 410.821 22.472ZM406.277 32.52H406.405L407.237 25.416L407.173 25.48L406.981 25.864C406.533 27.08 406.277 28.296 406.021 29.576C405.893 30.536 406.085 31.56 406.277 32.52ZM407.173 17.672C407.237 17.736 407.237 17.736 407.301 17.736L407.365 17.672C407.877 17.288 408.389 16.968 409.029 16.968C409.093 16.968 409.221 16.904 409.221 16.904L409.861 16.136C409.349 15.496 408.325 15.752 407.749 16.392L408.197 16.648C407.813 17.032 407.493 17.352 407.173 17.672ZM417.221 29.32L416.261 27.784L416.453 29.192C416.453 29.256 416.517 29.32 416.517 29.384L416.837 30.408C416.965 30.6 416.965 30.856 416.965 31.112C417.093 30.856 417.157 30.6 417.221 30.408C417.477 30.024 417.413 29.64 417.221 29.32ZM415.365 21.896L415.941 26.12C416.133 24.904 415.749 22.472 415.365 21.896ZM408.453 15.304C407.685 15.368 407.237 15.944 406.789 16.584C407.493 16.392 407.941 15.688 408.453 15.304ZM386.117 14.792C385.861 14.92 385.733 15.176 385.861 15.688C386.053 15.432 386.373 15.176 386.117 14.792ZM391.621 19.4L391.429 19.336L390.853 20.296C390.917 20.296 390.917 20.36 390.981 20.36C391.237 20.04 391.429 19.72 391.621 19.4ZM415.429 16.904L415.941 17.544C415.941 17.544 416.005 17.48 416.005 17.416C415.877 17.224 415.749 17.032 415.557 16.84C415.557 16.904 415.493 16.904 415.429 16.904ZM390.213 21L390.469 20.36C390.213 20.552 390.149 20.68 390.213 21ZM386.373 14.088C386.309 14.088 386.245 14.152 386.245 14.152C386.245 14.216 386.245 14.344 386.309 14.472C386.565 14.344 386.373 14.216 386.373 14.088ZM433.795 31.368C433.795 31.752 433.795 32.008 433.795 32.456C435.971 30.536 438.467 29.384 441.347 29.128C441.347 29 441.347 28.808 441.347 28.68C441.347 27.336 441.411 26.056 441.347 24.712C441.347 24.136 441.091 23.432 440.963 22.92C440.835 22.6 440.707 22.28 440.579 22.024C440.323 21 439.555 20.424 438.659 19.912C438.403 19.784 438.083 19.784 437.827 19.976C436.867 20.808 435.843 21.576 435.267 22.728C434.819 23.496 434.435 24.392 434.051 25.16C433.795 25.672 433.539 26.312 433.283 26.888C433.155 27.016 433.027 27.144 432.835 27.208C432.579 27.272 432.387 27.336 432.131 27.336C431.875 27.4 431.683 27.464 431.747 27.848C431.235 27.848 430.787 27.848 430.403 27.784C430.275 27.72 430.147 27.656 430.083 27.592C429.827 27.144 429.507 26.824 429.315 26.376C429.187 26.12 429.123 25.864 429.059 25.672C428.611 23.304 428.611 21.064 429.251 18.824C429.635 17.416 430.211 16.136 431.363 15.176C433.027 13.64 435.011 13 437.379 13.768C438.083 14.024 438.915 14.28 439.619 14.536C439.747 14.6 439.875 14.664 440.003 14.664C440.451 14.6 440.963 14.728 441.411 14.92C442.307 15.432 443.139 15.88 443.971 16.392C444.867 16.904 445.507 17.672 445.955 18.632C446.019 18.824 446.147 18.888 446.211 19.016C446.595 19.528 446.915 19.976 447.363 20.488C447.491 20.616 447.555 20.744 447.747 20.872C447.747 20.68 447.683 20.488 447.683 20.296C448.131 21.192 448.195 22.088 448.387 23.112C448.451 23.624 448.579 24.2 448.707 24.712C449.283 26.888 449.347 28.936 449.155 31.048C449.091 30.344 449.091 29.512 449.027 28.808C449.027 28.808 449.027 28.808 448.963 28.808C448.899 30.472 448.835 32.008 448.835 33.672C448.835 34.056 448.835 34.12 449.347 34.184C449.539 33.672 449.411 33.096 449.539 32.584C449.603 33.864 449.603 35.144 449.603 36.488C449.603 38.984 449.603 41.48 449.603 43.912C449.603 45.448 449.603 47.048 449.603 48.648C449.603 49.608 450.051 50.312 450.371 51.208C450.499 51.592 450.563 51.912 450.563 52.36C450.499 52.488 450.563 52.744 450.563 53.064C450.627 53.576 450.499 54.024 450.179 54.472C450.115 54.6 450.051 54.728 449.987 54.856C449.859 55.048 449.731 55.304 449.859 55.688C449.859 55.816 449.923 56.008 449.923 56.072C449.923 56.264 449.859 56.392 449.603 56.52C449.539 56.072 449.539 55.624 449.475 55.112C449.347 54.728 448.963 54.216 448.515 54.088C448.451 54.28 448.323 54.536 448.195 54.792C448.323 55.688 448.771 56.456 448.579 57.416C448.515 57.608 448.259 57.8 448.131 57.928C447.747 57.48 447.555 57.16 447.363 56.712C447.235 57.224 447.235 57.288 446.851 57.352C446.787 57.48 446.787 57.608 446.787 57.736C446.659 57.672 446.531 57.544 446.403 57.416C445.827 57.736 445.763 57.288 445.443 56.904C445.123 56.904 444.803 56.904 444.611 56.52C444.547 56.392 444.483 56.264 444.355 56.328C443.907 56.072 443.395 55.368 443.075 55.048C441.923 53.896 441.539 51.912 441.347 50.76C440.835 51.016 441.155 51.464 440.963 51.848C440.899 51.592 440.835 51.4 440.835 51.208C440.707 51.208 440.579 51.208 440.515 51.336C440.195 51.592 439.875 51.912 439.491 52.168C438.467 53.064 437.315 53.512 436.035 53.832C435.843 53.832 435.587 53.896 435.395 54.024C434.563 54.344 433.795 54.6 432.835 54.6C432.131 54.536 431.619 54.28 431.043 53.832C430.723 53.64 430.403 53.576 430.083 53.32C428.995 52.488 427.971 51.592 427.331 50.312C427.203 50.056 427.011 49.8 426.883 49.544C426.243 48.008 425.539 46.536 425.411 44.872C425.347 44.168 425.411 43.592 425.667 42.952C426.179 41.864 426.755 40.776 427.459 39.88C427.715 39.496 427.843 39.24 427.715 38.856C427.587 38.536 427.651 38.28 427.779 37.96C427.971 37.768 428.035 37.512 428.163 37.256C428.227 37 428.419 36.744 428.419 36.424C428.419 36.36 428.419 35.976 428.803 36.104H428.867C429.187 35.592 429.443 35.144 429.763 34.632C429.891 34.504 429.891 34.376 430.019 34.248C431.043 33.16 432.195 32.328 433.411 31.56C433.539 31.496 433.667 31.496 433.795 31.368ZM434.499 47.496C435.459 46.792 436.483 46.28 437.443 45.576C438.467 44.872 439.555 43.976 440.579 43.272C440.835 43.144 440.835 42.888 440.835 42.696C440.899 40.264 441.027 37.768 441.091 35.272C441.091 35.08 441.091 34.888 441.091 34.632C440.387 34.952 440.003 35.4 439.555 35.848C438.403 37.064 437.315 38.472 436.419 39.944C435.395 41.544 434.499 43.336 434.051 45.192C433.923 45.576 433.859 46.024 433.795 46.344C433.795 46.856 433.987 47.24 434.499 47.496ZM428.547 38.28C429.187 37.512 429.955 36.808 430.531 35.976C430.403 35.848 430.275 35.784 430.147 35.656C429.507 36.552 428.995 37.32 428.547 38.28ZM446.851 24.648C446.723 25.864 447.043 28.296 447.427 28.808C447.299 27.4 447.171 26.12 446.851 24.648ZM444.739 18.632C444.227 18.12 443.779 17.608 443.331 17.544C443.843 18.44 443.523 18.248 444.739 18.632ZM446.787 55.752C446.851 55.752 446.851 55.752 446.851 55.752C446.915 54.984 446.659 54.472 446.211 53.96C446.147 53.96 446.147 53.96 446.083 54.024C446.339 54.664 446.531 55.176 446.787 55.752ZM446.147 23.24C446.211 22.344 445.891 21.64 445.379 21.256C445.635 21.96 445.891 22.6 446.147 23.24ZM437.827 52.488C437.827 52.424 437.827 52.424 437.827 52.424C437.443 52.552 437.059 52.808 436.867 53.192C437.187 53 437.507 52.744 437.827 52.488ZM434.115 18.568C433.667 18.76 433.539 18.824 433.283 19.272C433.603 19.016 433.987 18.888 434.115 18.568ZM431.107 35.528C431.555 35.4 431.555 35.4 431.619 35.016C431.427 35.208 431.299 35.4 431.107 35.528ZM458.722 53.64L458.594 52.488L458.018 52.616C457.954 52.616 457.954 52.616 457.954 52.616C457.89 52.68 457.826 52.872 457.634 53C457.634 52.808 457.506 52.616 457.442 52.488C457.122 52.552 456.93 52.36 456.93 51.976C456.866 51.656 456.738 51.464 456.482 51.336C456.29 51.208 456.161 50.952 456.098 50.696C455.842 49.992 455.65 49.096 455.842 48.264C455.97 47.368 455.842 46.472 455.714 45.576C455.586 44.104 455.394 42.632 455.202 41.096L455.01 39.304C454.946 37.576 454.69 35.848 454.434 34.12C454.306 33.288 454.242 32.456 454.242 31.688C454.242 28.36 454.242 25.16 454.242 21.96C454.306 19.592 454.498 17.288 454.69 14.984C454.754 13.896 454.754 12.744 454.882 11.656C455.01 9.992 455.138 8.392 455.522 6.664L455.97 5.064C456.034 4.936 456.098 4.744 456.161 4.552C456.29 4.232 456.354 4.232 456.674 4.36L456.994 4.168C457.378 4.232 457.378 4.744 457.634 5L458.274 4.744C458.274 4.936 458.274 5 458.338 5.192C458.402 5.192 458.466 5.192 458.53 5.192C458.594 5.256 458.658 5.448 458.722 5.448C458.85 5.384 458.85 5.256 458.914 5.192L459.106 5C459.49 5.064 459.81 5.32 459.81 5.768C460.45 5.768 460.77 6.216 460.834 6.664C461.026 7.624 461.09 8.648 461.154 9.736L461.282 13.512C461.345 14.92 461.474 16.392 461.602 17.864C461.922 20.808 462.05 23.816 461.986 26.888C461.922 27.464 462.05 28.104 462.05 28.744C462.178 30.408 462.242 32.008 462.306 33.672L462.562 37C463.01 40.52 463.202 44.104 463.458 47.688V48.968C463.458 49.096 463.458 49.224 463.394 49.352L463.074 50.376C463.01 50.824 462.754 51.208 462.37 51.4C462.114 51.592 461.794 51.784 461.538 51.912C461.282 52.104 461.09 52.296 461.154 52.552C461.154 52.872 461.026 53.064 460.706 53.128C460.066 53.32 459.49 53.512 458.722 53.64ZM456.161 37.512L456.61 38.536H456.674V37.576C456.674 37.256 456.738 36.936 456.93 36.616C457.058 36.488 457.058 36.296 457.058 36.104L456.738 32.328C456.674 31.688 456.674 30.984 456.866 30.28C456.994 29.896 456.994 29.448 456.994 29.064L456.738 25.032C456.546 22.728 456.674 20.36 456.161 18.12C456.161 17.608 456.098 17.096 455.97 16.392C455.906 16.904 455.778 17.16 455.778 17.544C455.714 18.504 455.714 19.528 455.714 20.552C455.714 22.664 455.714 24.776 455.714 26.888C455.714 27.848 455.778 28.872 455.842 29.768C455.842 30.536 455.906 31.24 455.97 31.944C455.97 32.2 455.906 32.392 455.842 32.712C455.714 32.52 455.714 32.456 455.714 32.392C455.714 35.144 455.714 37.832 455.97 40.712C456.226 40.328 456.226 40.136 456.226 39.752C456.161 39.048 456.161 38.28 456.161 37.576V37.512ZM460.834 22.024L460.962 23.56C461.026 22.856 461.026 22.216 460.834 22.024ZM471.909 53.64L471.781 52.488L471.205 52.616C471.141 52.616 471.141 52.616 471.141 52.616C471.077 52.68 471.013 52.872 470.821 53C470.821 52.808 470.693 52.616 470.629 52.488C470.309 52.552 470.117 52.36 470.117 51.976C470.053 51.656 469.925 51.464 469.669 51.336C469.477 51.208 469.349 50.952 469.285 50.696C469.029 49.992 468.837 49.096 469.029 48.264C469.157 47.368 469.029 46.472 468.901 45.576C468.773 44.104 468.581 42.632 468.389 41.096L468.197 39.304C468.133 37.576 467.877 35.848 467.621 34.12C467.493 33.288 467.429 32.456 467.429 31.688C467.429 28.36 467.429 25.16 467.429 21.96C467.493 19.592 467.685 17.288 467.877 14.984C467.941 13.896 467.941 12.744 468.069 11.656C468.197 9.992 468.325 8.392 468.709 6.664L469.157 5.064C469.221 4.936 469.285 4.744 469.349 4.552C469.477 4.232 469.541 4.232 469.861 4.36L470.181 4.168C470.565 4.232 470.565 4.744 470.821 5L471.461 4.744C471.461 4.936 471.461 5 471.525 5.192C471.589 5.192 471.653 5.192 471.717 5.192C471.781 5.256 471.845 5.448 471.909 5.448C472.037 5.384 472.037 5.256 472.101 5.192L472.293 5C472.677 5.064 472.997 5.32 472.997 5.768C473.637 5.768 473.957 6.216 474.021 6.664C474.213 7.624 474.277 8.648 474.341 9.736L474.469 13.512C474.533 14.92 474.661 16.392 474.789 17.864C475.109 20.808 475.237 23.816 475.173 26.888C475.109 27.464 475.237 28.104 475.237 28.744C475.365 30.408 475.429 32.008 475.493 33.672L475.749 37C476.197 40.52 476.389 44.104 476.645 47.688V48.968C476.645 49.096 476.645 49.224 476.581 49.352L476.261 50.376C476.197 50.824 475.941 51.208 475.557 51.4C475.301 51.592 474.981 51.784 474.725 51.912C474.469 52.104 474.277 52.296 474.341 52.552C474.341 52.872 474.213 53.064 473.893 53.128C473.253 53.32 472.677 53.512 471.909 53.64ZM469.349 37.512L469.797 38.536H469.861V37.576C469.861 37.256 469.925 36.936 470.117 36.616C470.245 36.488 470.245 36.296 470.245 36.104L469.925 32.328C469.861 31.688 469.861 30.984 470.053 30.28C470.181 29.896 470.181 29.448 470.181 29.064L469.925 25.032C469.733 22.728 469.861 20.36 469.349 18.12C469.349 17.608 469.285 17.096 469.157 16.392C469.093 16.904 468.965 17.16 468.965 17.544C468.901 18.504 468.901 19.528 468.901 20.552C468.901 22.664 468.901 24.776 468.901 26.888C468.901 27.848 468.965 28.872 469.029 29.768C469.029 30.536 469.093 31.24 469.157 31.944C469.157 32.2 469.093 32.392 469.029 32.712C468.901 32.52 468.901 32.456 468.901 32.392C468.901 35.144 468.901 37.832 469.157 40.712C469.413 40.328 469.413 40.136 469.413 39.752C469.349 39.048 469.349 38.28 469.349 37.576V37.512ZM474.021 22.024L474.149 23.56C474.213 22.856 474.213 22.216 474.021 22.024ZM484.137 53.384C484.137 53.384 484.073 53.32 483.881 53.256C484.137 53.128 484.201 53.128 484.329 53.128C484.393 53 484.457 52.872 484.585 52.68C484.009 52.616 483.561 52.552 482.985 52.424C482.665 52.424 482.473 52.424 482.281 52.68C482.217 52.68 482.217 52.744 482.089 52.808C482.153 52.424 481.961 52.36 481.705 52.168C481.449 51.912 481.385 51.592 481.065 51.4C481.001 51.4 481.001 51.208 481.001 51.144C481.065 51.016 481.193 50.888 481.257 50.76C481.001 50.696 480.745 50.568 480.489 50.44C480.424 50.632 480.297 50.824 480.169 50.952C480.105 50.824 480.041 50.696 480.041 50.632C479.785 50.44 479.785 50.184 479.913 49.992C480.041 49.608 480.169 49.224 479.785 48.84C479.977 48.776 480.041 48.776 480.041 48.776C480.424 48.776 480.424 48.776 480.233 48.328C480.617 48.264 480.681 48.008 480.745 47.752C481.961 44.744 483.305 41.736 484.649 38.792C486.633 34.44 488.553 30.152 490.281 25.736C490.537 25.16 490.793 24.456 491.049 23.88C491.049 23.688 491.177 23.496 491.369 23.432C491.497 23.368 491.625 23.24 491.689 23.176C491.817 23.048 491.881 22.984 491.945 22.984C492.265 22.984 492.265 22.728 492.265 22.472C492.265 21.96 492.457 21.32 492.713 20.808C492.905 20.296 493.161 19.784 493.353 19.336C493.417 19.208 493.417 19.016 493.481 18.824C493.289 18.76 493.097 18.76 492.905 18.696C490.473 18.504 488.105 18.376 485.673 18.12C484.841 18.056 483.881 17.864 483.049 17.672C482.921 17.672 482.857 17.608 482.729 17.608C482.345 17.352 482.281 17.16 482.473 16.776C482.473 16.712 482.536 16.648 482.536 16.584C482.153 16.392 481.961 15.944 481.769 15.56C481.897 15.432 482.025 15.432 482.217 15.304C481.961 15.176 481.705 15.048 481.513 14.92C481.321 14.728 481.257 14.6 481.257 14.28C481.257 13.896 481.193 13.512 481.129 13.256C481.129 13.128 481.129 13.064 481.129 12.936C481.513 12.872 481.769 12.424 482.217 12.424C482.665 12.424 483.049 12.296 483.497 12.296C485.673 12.168 487.913 12.04 490.153 12.168C492.713 12.296 495.273 12.488 497.833 12.808C498.473 12.872 499.177 13.128 499.689 13.512C499.753 13.64 499.945 13.704 500.073 13.704C500.713 13.768 501.225 13.96 501.737 14.344C501.673 14.6 501.673 14.728 501.737 14.984C501.801 15.176 501.673 15.496 501.673 15.752C501.609 15.944 501.481 16.2 501.417 16.52C501.225 16.776 501.353 17.096 501.481 17.16C501.737 17.224 501.481 17.352 501.609 17.416C501.673 17.48 501.865 17.48 501.929 17.48C502.249 17.48 502.377 17.608 502.377 17.928C502.313 18.312 502.249 18.568 502.121 18.952C501.929 20.552 501.161 21.96 500.649 23.368C499.881 25.224 499.241 27.08 498.473 28.936C497.897 30.472 497.257 31.944 496.681 33.416C495.849 35.4 494.825 37.576 493.865 39.56C493.225 41.096 492.457 42.568 491.753 44.04C491.689 44.296 491.561 44.552 491.433 44.872C492.265 45.128 493.097 45.192 493.865 45.128C494.633 45.128 495.337 45.192 496.041 45.192C496.297 45.256 496.553 45.128 496.681 45.448C496.745 45.512 496.937 45.512 497.065 45.512C498.473 45.576 499.817 45.576 501.161 45.832C502.185 45.896 503.209 46.216 504.233 46.536C504.169 46.6 504.169 46.792 504.105 46.92C503.977 46.856 503.849 46.856 503.593 46.792C503.657 46.92 503.657 47.048 503.721 47.048C504.041 47.304 504.361 47.432 504.553 47.56C504.617 47.624 504.681 47.752 504.809 47.944C504.617 48.008 504.553 48.008 504.425 48.072C504.745 48.392 505.065 48.648 505.321 48.904C505.193 49.224 505.001 49.48 504.809 49.8C505.001 49.928 505.065 49.992 505.257 50.056C505.257 50.44 505.065 50.696 504.745 50.888C504.041 51.336 503.337 51.912 502.569 52.36C502.121 52.552 501.673 52.616 501.225 52.744C501.033 52.808 500.841 52.872 500.713 53C500.457 53.128 500.201 53.32 499.881 53.384C498.985 53.64 498.089 53.576 497.128 53.64C494.825 53.64 492.521 53.384 490.217 53.128C489.577 53.128 488.937 52.936 488.297 52.872C487.785 52.872 487.337 52.808 486.825 52.744C486.312 52.744 486.312 52.744 486.057 53.064C485.993 52.936 485.993 52.872 485.929 52.744C485.673 52.68 485.609 52.936 485.481 53.128C485.097 53.576 484.841 53.768 484.265 53.832C484.009 53.64 484.137 53.576 484.137 53.384C484.585 53.384 484.585 53.384 484.713 53.128C484.457 53.192 484.329 53.32 484.137 53.384ZM493.545 22.664C493.353 22.792 493.353 23.112 493.289 23.24C493.289 23.24 493.353 23.24 493.353 23.304C493.417 23.112 493.481 22.856 493.545 22.664C493.609 22.472 493.609 22.408 493.673 22.216H493.609C493.609 22.344 493.545 22.472 493.545 22.664ZM494.633 21.896C493.801 24.072 492.969 26.248 492.137 28.424C491.177 30.6 490.281 32.776 489.449 34.952C489.577 34.824 489.769 34.696 489.833 34.504C489.961 34.376 489.961 34.184 490.089 34.12C490.473 33.288 490.857 32.52 491.177 31.752L491.305 31.56C491.689 31.688 491.625 31.304 491.689 31.176C492.073 30.344 492.393 29.512 492.713 28.744C493.993 25.608 495.208 22.472 496.425 19.336C496.489 19.336 496.489 19.208 496.553 19.08C495.913 19.08 495.465 19.016 494.953 18.952C494.825 19.144 494.76 19.336 494.697 19.528C494.697 19.592 494.633 19.72 494.633 19.784C494.953 19.976 494.697 20.232 494.697 20.424C494.633 20.872 494.569 21.384 494.441 21.832C494.569 21.896 494.633 21.896 494.633 21.896ZM489.449 52.808C490.985 52.936 492.585 52.936 494.121 52.872C493.737 52.616 493.417 52.68 492.969 52.68C492.457 52.616 492.009 52.68 491.497 52.616C490.793 52.424 490.089 52.552 489.449 52.808ZM500.265 16.52C500.393 16.136 500.457 15.944 500.585 15.752C500.585 15.688 500.585 15.496 500.585 15.432C500.521 15.368 500.457 15.304 500.329 15.24C500.265 15.24 500.201 15.368 500.201 15.432C500.073 15.56 499.945 15.688 499.817 15.944C499.945 16.072 500.073 16.2 500.265 16.52ZM481.705 48.264C482.025 48.264 482.025 48.2 482.217 47.688C481.961 47.816 481.705 47.88 481.705 48.264ZM500.201 14.28C500.201 14.344 500.201 14.408 500.201 14.472C500.457 14.472 500.777 14.6 501.033 14.472C500.777 14.408 500.521 14.344 500.201 14.28ZM481.769 48.712C481.769 48.648 481.769 48.584 481.705 48.52C481.641 48.584 481.513 48.584 481.449 48.648C481.449 48.712 481.449 48.712 481.449 48.776C481.577 48.776 481.705 48.776 481.769 48.712ZM494.057 21.256H494.121C494.121 21.192 494.121 21.064 494.185 21C494.121 21 494.121 21 494.121 21.064C494.057 21.128 494.057 21.192 494.057 21.256ZM483.113 53.896C483.049 53.896 482.985 53.96 482.921 53.96C482.921 53.96 482.921 53.896 482.857 53.832C482.857 53.832 482.921 53.832 482.921 53.768C482.985 53.832 483.049 53.832 483.113 53.896Z" fill="white"/>
</g>
<defs>
<filter id="filter0_d_1_3" x="0.727997" y="0.71199" width="508.592" height="65.216" filterUnits="userSpaceOnUse" color-interpolation-filters="sRGB">
<feFlood flood-opacity="0" result="BackgroundImageFix"/>
<feColorMatrix in="SourceAlpha" type="matrix" values="0 0 0 0 0 0 0 0 0 0 0 0 0 0 0 0 0 0 127 0" result="hardAlpha"/>
<feOffset dy="4"/>
<feGaussianBlur stdDeviation="2"/>
<feComposite in2="hardAlpha" operator="out"/>
<feColorMatrix type="matrix" values="0 0 0 0 0 0 0 0 0 0 0 0 0 0 0 0 0 0 0.25 0"/>
<feBlend mode="normal" in2="BackgroundImageFix" result="effect1_dropShadow_1_3"/>
<feBlend mode="normal" in="SourceGraphic" in2="effect1_dropShadow_1_3" result="shape"/>
</filter>
</defs>
</svg>
