<svg width="336" height="139" viewBox="0 0 336 139" fill="none" xmlns="http://www.w3.org/2000/svg">
<path d="M18.837 19.592L18.901 19.656V19.4L18.389 19.592C18.325 19.464 18.325 19.4 18.133 19.336L18.325 19.784C18.517 20.232 18.581 20.232 18.069 20.488C17.877 20.296 17.621 19.912 17.429 19.592C17.109 18.824 16.725 18.056 16.469 17.16C15.829 15.496 15.189 13.768 14.293 12.296C13.973 11.656 13.461 11.272 13.013 10.888C12.501 11.08 12.245 11.528 11.925 11.912C10.837 13.32 10.581 14.92 10.389 16.712C10.325 18.376 10.709 19.784 11.541 21.128C12.437 22.664 13.333 24.2 14.357 25.672C15.829 27.912 17.109 30.28 18.325 32.712C18.581 33.16 18.837 33.8 19.029 34.312C19.477 35.592 19.925 36.808 20.373 38.024C20.949 39.752 21.333 41.416 21.525 43.08C21.589 44.808 21.269 46.344 20.117 47.624C19.861 48.008 19.669 48.328 19.477 48.776C18.901 50.184 17.941 51.4 16.405 52.104C15.765 52.424 15.189 52.68 14.613 53C13.909 53.448 13.077 53.576 12.245 53.384C11.221 53.064 10.197 52.616 9.173 52.168C9.109 52.168 8.981 52.04 8.853 51.912C9.045 51.912 9.173 51.912 9.429 51.912C8.853 51.4 8.341 50.888 7.637 50.696C7.637 50.632 7.573 50.632 7.509 50.632C6.997 50.76 6.741 50.44 6.485 50.12C5.973 49.608 5.461 49.096 5.141 48.52C4.501 47.432 3.477 46.408 3.029 45.192C2.453 43.912 2.005 42.504 1.685 41.032C1.301 39.112 1.045 37.192 0.917 35.272C0.853 34.888 0.917 34.504 1.045 34.184C1.045 33.992 1.237 33.8 1.301 33.672C1.365 33.544 1.493 33.416 1.557 33.352C1.877 32.904 2.261 32.712 2.901 32.84C3.157 32.968 3.349 32.968 3.541 32.712C3.797 32.328 4.245 32.456 4.565 32.456C4.821 31.944 5.205 31.816 5.845 32.008C5.909 32.264 5.909 32.456 5.717 32.648C5.781 32.712 5.781 32.712 5.781 32.712L6.357 33.16C6.293 33.672 6.549 34.184 6.357 34.632C6.229 34.76 6.229 34.888 6.229 35.08C6.485 36.616 6.677 38.088 6.997 39.688C7.189 40.712 7.573 41.672 7.957 42.696C8.149 43.272 8.469 43.784 8.789 44.232L8.981 44.552C8.981 44.552 9.045 44.488 9.109 44.488C9.045 44.36 9.045 44.36 9.045 44.232C8.533 42.888 8.277 41.48 8.149 40.2L7.445 36.488L6.933 33.608L6.613 32.392C6.613 32.264 6.549 32.2 6.549 32.008C6.869 31.816 7.125 32.008 7.381 31.944C7.445 32.2 7.445 32.328 7.509 32.456C7.573 32.584 7.637 32.712 7.829 32.84C8.085 32.968 8.213 33.032 7.957 33.288L8.341 33.608C8.597 33.672 8.725 33.8 8.661 34.12C8.597 34.184 8.661 34.248 8.725 34.312C9.365 35.144 9.429 36.104 9.557 37.064L10.133 40.84C10.517 42.44 10.965 43.912 11.797 45.128L12.245 45.832C12.309 45.576 12.437 45.384 12.501 45.192C12.949 43.912 13.013 42.632 12.821 41.288C12.565 38.792 11.861 36.488 11.029 34.184C10.837 33.672 10.581 33.16 10.325 32.776C8.981 30.728 7.637 28.744 6.357 26.696C5.397 25.224 4.565 23.688 3.989 22.024C3.349 20.232 3.029 18.376 2.965 16.392C2.901 15.496 2.837 14.536 2.965 13.64C3.093 11.976 3.541 10.376 4.501 8.904C4.693 8.52 4.821 8.072 4.565 7.56C4.501 7.432 4.565 7.368 4.565 7.24C5.141 6.28 5.717 5.448 6.549 4.808C6.741 4.68 6.933 4.552 7.189 4.744C7.317 4.872 7.573 4.872 7.701 4.808C7.893 4.808 8.021 4.936 8.149 5.128C7.189 5.576 6.357 6.152 5.845 7.048C6.485 6.536 7.125 6.152 7.893 5.96C8.277 5.832 8.597 5.64 8.853 5.384C9.365 4.936 9.877 4.552 10.581 4.296L10.901 4.104C10.453 3.912 9.941 3.976 9.493 3.976C10.069 3.784 10.709 3.784 11.285 3.848C12.053 3.976 12.821 4.04 13.589 4.04C14.421 4.104 15.253 4.424 16.021 4.808C16.853 5.192 17.685 5.832 18.133 6.664C18.197 6.792 18.325 6.92 18.389 6.92C19.029 7.432 19.477 7.88 19.861 8.456C19.861 8.456 19.925 8.52 20.053 8.584C19.797 7.88 19.285 7.432 18.965 6.92L19.477 7.368V6.92L19.861 7.432C20.501 8.136 20.885 9.096 21.141 10.056L21.461 11.528L21.717 12.872C22.229 14.344 22.357 15.816 22.101 17.288C21.973 18.056 21.717 18.568 21.269 19.208L20.821 19.848C20.757 19.976 20.757 20.04 20.629 20.104C20.373 20.232 20.245 20.36 20.117 20.68C20.053 20.808 19.797 20.808 19.605 20.808C19.541 20.552 19.797 20.168 19.349 20.04L19.221 20.424L18.837 19.592ZM8.149 21.64C8.021 21.512 7.957 21.32 7.893 21.192C7.893 21.192 7.893 21.256 7.829 21.256C8.149 21.704 8.149 21.832 8.149 21.896C8.853 22.984 9.429 24.072 10.069 25.16L10.261 25.224C10.325 25.48 10.517 25.672 10.645 25.928C10.645 25.928 10.645 25.928 10.709 25.864C10.645 25.672 10.517 25.416 10.261 25.224C10.133 24.968 10.069 24.712 10.005 24.52L8.341 21.896C8.277 21.768 8.149 21.768 8.149 21.64ZM16.149 45.32C16.341 45.128 16.405 45.064 16.469 44.872C16.853 44.36 16.917 43.912 16.725 43.272C16.469 42.696 16.405 42.184 16.661 41.48L16.725 41.032C16.917 40.008 17.109 39.048 16.661 38.024V37.832C16.469 36.68 16.149 35.592 15.701 34.632C15.509 34.184 15.317 33.672 15.125 33.224C14.933 33.352 14.997 33.48 14.933 33.608C14.677 33.864 14.869 34.12 14.933 34.312C15.253 35.272 15.509 36.168 15.765 37.064C16.085 38.28 16.213 39.56 16.277 40.776C16.341 41.544 16.405 42.376 16.149 43.08C15.957 43.848 16.149 44.552 16.149 45.32ZM14.357 40.008C14.357 40.712 14.357 41.48 14.421 42.184C14.421 42.888 14.293 43.656 14.421 44.36C14.677 43.912 14.933 43.336 14.805 42.76L14.549 40.648C14.485 40.392 14.421 40.264 14.357 40.008ZM7.637 49.992C7.381 49.416 6.933 49.16 6.037 48.968C6.485 49.48 6.997 49.8 7.637 49.992ZM12.373 28.936C12.181 28.04 11.541 27.336 11.093 26.568C11.029 26.568 11.029 26.632 11.029 26.632C11.541 27.336 11.925 28.104 12.373 28.936ZM18.069 18.568C18.069 18.632 18.005 18.632 18.005 18.696C18.069 18.76 18.069 18.824 18.069 18.952C18.133 18.824 18.197 18.824 18.133 18.824C18.133 18.696 18.069 18.632 18.069 18.568ZM18.837 19.592C18.901 19.784 18.837 19.912 18.645 20.04C18.581 19.784 18.773 19.656 18.901 19.656L18.837 19.592ZM45.754 41.8H45.626L45.05 44.616C44.794 45.704 44.538 46.792 44.154 47.88C43.77 48.776 43.258 49.48 42.554 50.056L41.85 50.888C41.658 51.208 41.402 51.656 41.082 51.976C40.634 52.552 39.93 53 39.226 53.256C38.266 53.576 37.37 53.832 36.474 54.088C35.578 54.344 34.746 54.088 34.042 53.576C33.338 53 32.826 52.36 32.314 51.592C32.122 51.208 31.738 50.888 31.354 50.376C31.29 50.568 31.226 50.632 31.226 50.696C31.226 50.696 31.162 50.696 31.098 50.696C30.906 50.12 30.458 49.608 30.138 48.968C29.178 46.856 28.282 44.616 27.45 42.44C26.874 40.712 26.682 38.984 26.554 37.192C26.49 34.76 26.49 32.264 26.618 29.832C26.682 28.104 26.874 26.44 27.002 24.648C27.13 23.432 27.258 22.216 27.45 21C27.45 20.616 27.642 20.168 27.706 19.72L28.346 16.648C28.41 16.264 28.474 15.944 28.602 15.624C28.73 15.24 28.986 14.984 29.434 14.92C29.626 14.792 29.754 14.728 30.01 14.792C29.946 15.048 29.946 15.432 29.818 15.496C29.69 15.688 29.626 15.944 29.498 16.072C29.69 16.136 29.882 16.008 29.946 15.88L30.842 14.472C30.906 14.408 30.97 14.344 31.034 14.216C31.098 14.408 31.29 14.536 31.29 14.664C31.226 14.792 31.29 14.92 31.354 15.176C31.418 15.496 31.546 15.944 31.29 16.328C31.098 16.584 31.098 16.904 31.034 17.224L30.906 19.4C30.906 20.296 30.906 21.256 30.97 22.088C31.034 22.6 30.906 23.176 30.906 23.624C30.714 24.456 30.65 25.288 30.714 26.12C30.778 26.76 30.714 27.336 30.714 27.976C30.714 28.424 30.778 28.936 30.778 29.32C30.778 31.496 30.714 33.544 30.714 35.592C30.714 36.36 30.778 37.064 30.778 37.832C30.842 37.832 30.842 37.96 30.906 38.024C30.906 37.96 30.906 37.832 30.906 37.832C31.162 35.4 31.098 33.096 31.098 30.728C31.098 29 31.162 27.144 31.29 25.416C31.354 23.944 31.354 22.536 31.61 21.064C31.61 20.936 31.546 20.808 31.546 20.552C31.482 20.36 31.418 20.168 31.482 20.04C31.482 19.784 31.546 19.592 31.61 19.272C31.61 19.08 31.674 18.824 31.674 18.568C31.738 17.416 31.738 16.328 31.738 15.176C31.738 14.92 31.802 14.728 31.802 14.408C32.378 14.472 32.57 14.664 32.634 15.112C32.698 15.496 32.698 15.944 32.698 16.264V16.776L33.146 16.392C33.338 16.008 32.954 15.752 33.082 15.432C33.082 15.368 32.89 15.176 32.826 15.112C32.89 14.92 33.018 14.92 33.21 15.048C33.658 15.432 33.786 15.944 33.786 16.392V16.648C33.722 17.16 33.786 17.544 33.85 18.056C34.042 18.888 34.042 19.784 34.106 20.808C34.49 23.816 34.554 26.888 34.554 30.024C34.554 31.176 34.49 32.264 34.298 33.416C34.298 33.672 34.298 33.864 34.298 34.12C34.426 35.592 34.554 37.064 34.618 38.536C34.746 40.2 34.81 41.672 35.258 43.208C35.386 43.848 35.642 44.36 35.77 44.872C35.834 45 35.898 45.128 35.962 45.128C36.026 45 36.154 44.872 36.218 44.68C36.73 43.08 37.114 41.48 37.434 39.752C38.074 37.064 38.586 34.376 39.162 31.752C39.226 31.496 39.29 31.176 39.418 30.92C39.546 30.792 39.61 30.664 39.61 30.536C40.122 28.552 40.634 26.696 40.89 24.648C40.954 24.648 40.89 24.52 40.826 24.456C40.698 24.904 40.634 25.416 40.378 25.864C40.378 25.864 40.378 25.864 40.314 25.864V25.672C40.762 23.24 41.338 20.808 42.362 18.504C42.746 17.736 43.066 16.968 43.706 16.264C43.898 16.072 44.026 15.88 44.154 15.688C44.282 15.304 44.346 14.92 44.282 14.664C44.282 14.152 44.282 13.704 44.282 13.256C44.474 13.256 44.73 13.32 44.922 13.448C44.986 13.256 44.986 13 44.986 12.744C45.242 13 45.562 13.128 45.626 13.512C45.69 13.64 45.818 13.704 45.946 13.832C46.266 13.704 46.458 13.256 46.906 13.32L47.418 13.896C47.93 13.256 47.994 13.256 48.762 13.64L49.274 14.088C49.53 14.152 49.722 14.152 49.914 14.216C50.426 14.472 50.81 14.92 50.938 15.496C51.13 16.52 51.386 17.48 51.578 18.504L52.218 23.816C52.346 24.776 52.474 25.736 52.538 26.76C52.666 27.08 52.794 27.528 52.794 27.912C52.794 27.976 52.794 28.04 52.794 28.04C53.242 28.168 53.114 28.552 53.178 28.872C53.434 30.92 53.626 32.968 53.818 34.952C54.01 37 54.202 39.048 54.458 41.224C54.458 41.544 54.458 41.992 54.394 42.44C54.394 42.696 54.394 43.08 54.586 43.4C54.65 43.464 54.65 43.592 54.65 43.72C54.714 44.552 54.842 45.384 54.906 46.344L54.714 46.088C54.714 47.24 54.714 48.264 54.97 49.224L55.034 48.456C55.034 48.456 55.034 48.456 55.098 48.456C55.162 49.736 55.226 51.144 55.29 52.424C55.29 52.808 55.226 53.128 54.842 53.384C54.65 53.128 54.714 52.808 54.714 52.552L54.906 50.952C54.97 50.888 54.906 50.824 54.906 50.696L54.458 51.784L53.242 51.528C53.37 52.104 53.498 52.616 53.498 53.128C53.626 53.832 53.754 54.536 53.754 55.176C53.754 55.304 53.69 55.496 53.562 55.56L51.194 56.712C51.066 56.2 51.002 55.752 50.81 55.176L50.362 55.688L50.042 55.56C49.978 55.752 49.978 55.88 49.85 56.072L49.594 55.56H49.146C48.89 55.304 48.954 54.92 48.826 54.6H48.57C48.122 54.6 47.93 54.344 47.802 53.96C47.674 53.64 47.674 53.256 47.61 52.872C47.418 51.336 47.418 49.864 47.418 48.328C47.482 46.728 47.482 45.128 47.61 43.528C47.61 42.696 47.482 41.864 47.418 41.032L47.098 37.32L46.906 36.168C46.778 36.808 46.586 37.576 46.65 38.216C46.714 38.792 46.714 39.24 46.714 39.752C46.778 40.52 46.714 41.352 46.778 42.12C46.778 42.376 46.842 42.568 46.906 42.76C47.098 43.656 47.162 44.488 47.034 45.32C46.906 46.088 46.842 46.856 46.714 47.56C46.65 47.24 46.65 46.792 46.65 46.344C46.586 45.896 46.522 45.448 46.458 45.064L46.202 46.472H46.138L45.754 41.8ZM44.346 16.84C44.346 16.584 44.602 16.264 44.41 15.944C43.77 16.648 42.682 18.824 42.554 19.848C43.13 18.824 43.77 17.864 44.41 16.84C44.282 17.096 44.282 17.288 44.154 17.48C43.578 18.376 43.13 19.464 42.874 20.552C42.554 21.832 42.17 23.112 42.042 24.456V24.776L42.298 24.392C42.042 25.928 41.85 27.592 41.85 29.192L42.042 29.064C42.042 29.256 42.042 29.32 41.978 29.32C41.722 31.112 41.466 32.968 41.082 34.632L39.802 41.48C39.482 42.888 39.162 44.232 38.522 45.512C38.266 46.088 37.946 46.6 37.69 47.24C37.37 47.88 37.37 47.88 37.946 48.52L38.138 48.712C38.202 48.584 38.394 48.52 38.522 48.392C38.65 48.264 38.778 48.008 38.842 47.816C39.162 47.048 39.418 46.152 39.61 45.32C39.61 45.256 39.546 45.192 39.546 45.192C39.418 45.192 39.29 45.192 39.034 45.256C39.738 43.848 40.25 42.376 40.634 40.776C40.378 41.096 40.378 41.48 39.866 41.8C40.058 41.16 40.186 40.52 40.314 40.008L41.85 31.944L42.554 27.784C42.746 26.76 42.874 25.736 43.066 24.648C43.194 23.24 43.258 21.832 43.706 20.424C44.026 19.336 44.09 18.184 44.474 17.16C44.538 16.968 44.474 16.904 44.346 16.84ZM48.634 53.128L48.89 54.152C49.146 54.024 49.338 53.832 49.274 53.64C49.082 53 49.082 52.36 48.954 51.656L48.634 47.496L48.122 41.48C48.058 40.264 47.93 39.176 47.738 38.024C47.418 38.536 47.418 38.6 47.418 39.048C47.482 39.944 47.61 40.904 47.674 41.864C47.802 43.272 47.93 44.68 47.93 46.088L48.25 49.928C48.314 50.376 48.186 50.888 48.378 51.272C48.634 51.912 48.634 52.424 48.634 53.128ZM33.082 41.672L33.274 42.248C33.274 42.376 33.338 42.44 33.274 42.504C33.082 42.952 33.21 43.4 33.338 43.848C33.53 44.104 33.658 44.424 33.85 44.744C34.042 45.128 34.042 45.448 33.85 45.832C33.786 45.896 33.786 46.024 33.786 46.088C34.042 46.6 34.234 47.176 34.49 47.752L34.938 47.304C35.13 47.048 35.13 46.856 35.002 46.536C34.682 46.088 34.426 45.448 34.17 44.872L33.402 42.312C33.338 42.056 33.402 41.8 33.082 41.672ZM50.618 52.36L49.978 51.336C49.914 52.36 50.17 53.384 50.682 54.344C50.746 54.088 50.81 53.832 50.81 53.64C50.81 53.384 50.81 53 50.746 52.68C50.746 52.552 50.746 52.424 50.618 52.36ZM31.93 42.312C32.122 43.848 32.314 45.256 33.146 46.536C32.826 45.128 32.634 43.656 31.93 42.312ZM49.274 44.616H49.338L49.146 41.8C48.826 41.864 48.89 42.056 48.89 42.248C49.018 43.016 49.146 43.848 49.274 44.616ZM37.178 49.48L36.73 49.032C36.474 49.224 36.346 49.48 36.218 49.736C36.538 49.864 36.794 49.8 37.178 49.48ZM44.602 19.976H44.474C44.282 20.616 44.218 21.256 44.026 21.896C44.41 21.256 44.602 20.68 44.602 19.976ZM40.826 44.168C40.634 44.616 40.634 45.128 40.57 45.64C40.89 45.192 40.826 44.68 40.826 44.168ZM49.722 14.664C49.786 15.368 49.786 15.368 50.106 15.368C50.042 14.856 50.042 14.856 49.722 14.664ZM45.114 18.696C45.178 18.696 45.242 18.696 45.242 18.696L45.306 17.608C44.986 18.12 44.986 18.12 45.114 18.696ZM45.562 17.672C45.626 17.48 45.626 17.352 45.69 17.224C45.69 17.16 45.626 17.16 45.562 17.16C45.498 17.288 45.498 17.416 45.562 17.672ZM54.97 47.048V47.432C54.97 47.304 54.97 47.176 54.97 47.048ZM84.0675 48.968V47.688C83.8115 47.944 84.0035 48.264 83.6195 48.52L83.2995 48.2C82.9155 48.776 83.1715 49.416 83.0435 49.992C83.0435 50.184 82.9795 50.312 82.7875 50.44C82.5315 50.568 82.4675 50.824 82.4675 51.144C82.4035 51.72 82.3395 51.784 81.6995 51.912L81.3795 51.016C81.3155 51.016 81.3155 51.08 81.2515 51.08V51.72C81.2515 52.04 81.1235 52.168 80.8675 52.296C80.5475 52.424 80.1635 52.488 79.7795 52.616C79.6515 52.168 79.6515 51.72 79.5875 51.208L79.0115 51.656L78.6915 51.464C78.6275 51.656 78.5635 51.784 78.4995 51.976C78.4355 51.784 78.3715 51.656 78.2435 51.464C78.1155 51.4 77.9235 51.4 77.7315 51.4L77.5395 50.44L77.2195 50.376C76.9635 50.312 76.7075 50.12 76.6435 49.864C76.5795 49.672 76.5795 49.48 76.4515 49.352C76.0035 48.968 76.0035 48.456 76.0035 47.944C76.0035 47.56 76.1315 47.304 76.1315 46.856C76.1955 46.536 76.1955 46.28 76.0035 45.896C76.0035 45.832 76.0035 45.576 76.0035 45.448V43.144V42.632C75.4915 42.504 75.4915 42.184 75.4915 41.8L75.6195 34.632C75.6195 34.248 75.7475 33.992 75.7475 33.672C75.8115 32.776 75.9395 31.816 75.9395 30.92C75.9395 29.896 75.8115 28.936 75.5555 27.976C75.4275 27.528 75.3635 27.016 75.3635 26.568C75.3635 25.416 75.1075 24.392 74.7875 23.304C74.6595 22.792 74.4035 22.28 74.0195 21.96C73.9555 21.832 73.9555 21.768 73.8915 21.704C73.2515 22.024 72.7395 22.472 72.2915 22.984C69.9235 25.416 68.3235 28.232 67.4915 31.496C67.4275 31.752 67.3635 32.136 67.4275 32.456C67.6195 34.632 67.9395 36.872 68.1955 39.112L68.8995 46.344C68.9635 46.92 69.0275 47.56 69.0275 48.2C69.0915 48.968 68.9635 49.8 68.9635 50.632C68.8995 50.952 68.8355 51.208 68.5795 51.336C68.1315 51.144 67.9395 50.632 67.6835 50.184V50.568C67.6835 50.952 67.6835 51.272 67.6835 51.656C67.6835 51.912 67.6835 52.04 67.4915 52.168C67.4275 52.296 67.3635 52.424 67.2995 52.616C67.2355 53.384 67.2355 53.384 66.4035 53.576C66.2755 53.064 66.5315 52.488 66.2755 51.976C65.7635 52.168 65.7635 52.744 65.1875 52.808L65.0595 52.296C64.8035 52.936 65.1875 53.64 64.8035 54.152C64.4835 53.768 64.6115 53.32 64.3555 52.872L63.9715 53.192L63.7155 53.064L63.5235 53.576L63.2675 53C63.0755 53 62.9475 53 62.8195 52.936C62.6915 52.616 62.6275 52.424 62.6275 52.04C62.1155 51.976 61.8595 51.656 61.7315 51.208C61.6035 50.888 61.4115 50.632 61.1555 50.312L60.9635 49.8C60.5795 48.456 60.3235 47.048 60.1955 45.576C60.1315 43.208 59.9395 40.84 59.6835 38.472C59.6835 37.704 59.6195 36.872 59.6195 36.104L59.7475 31.496C59.7475 31.176 59.7475 30.792 59.6835 30.536C59.6195 29.384 59.6835 28.36 59.8115 27.336C59.8755 26.888 59.9395 26.248 59.8755 25.672C59.8755 25.16 59.8115 24.648 59.8115 24.136C59.8115 23.688 59.9395 23.24 59.9395 22.856C59.9395 22.472 60.0035 22.024 59.9395 21.704C59.6195 20.296 59.8115 19.016 60.0035 17.608C60.1315 16.712 60.2595 15.816 60.3875 14.856C60.4515 14.6 60.6435 14.344 60.7715 14.024C60.8355 13.896 60.9635 13.768 61.1555 13.896L60.6435 14.792C60.8355 14.856 60.8995 14.92 61.0275 14.984L60.6435 16.136L61.2195 15.816C60.8355 17.032 60.4515 18.12 60.5795 19.4L60.7075 19.08L60.8995 18.312C61.0275 17.608 61.3475 17.032 61.8595 16.584C61.9875 16.392 62.1155 16.2 62.1155 15.944C62.1795 15.432 62.3715 14.984 62.4355 14.536L62.6275 14.152C63.0115 14.28 62.8835 14.728 63.0755 14.984C63.2035 14.728 63.3315 14.536 63.3315 14.408C63.3955 14.344 63.4595 14.344 63.5235 14.344C63.7795 14.472 63.9075 14.728 64.0995 14.856C64.2915 14.984 64.6755 15.048 64.8035 15.304C64.9955 15.432 65.0595 15.688 65.0595 15.88C65.2515 16.712 65.4435 17.608 65.5715 18.504L65.7635 19.656L65.8915 20.36C66.2755 19.72 66.7875 19.08 67.2355 18.376C67.4275 18.12 67.4915 17.736 67.6835 17.352C67.7475 17.224 67.9395 17.16 68.0035 17.032L68.1315 17.16L67.5555 17.864C67.6195 17.864 67.6195 17.928 67.6195 17.928C67.9395 17.608 68.3235 17.352 68.6435 17.16C69.2835 16.392 70.0515 15.816 71.0755 15.432C71.0755 15.432 71.1395 15.432 71.1395 15.368C71.0115 15.368 70.8835 15.304 70.7555 15.304V15.176H71.8435C72.0995 15.24 72.3555 15.176 72.5475 15.112C73.3155 14.792 74.0195 14.728 74.7875 14.92C74.7875 14.984 74.9795 14.984 75.0435 14.984C75.7475 14.92 76.3875 15.176 76.9635 15.56C77.7315 16.008 78.4995 16.52 79.3315 17.096C79.8435 17.416 80.2915 17.992 80.6115 18.568C81.3155 19.72 81.8275 21 82.0835 22.408C82.2115 23.752 82.5315 25.16 82.8515 26.44C83.4275 28.616 83.6835 30.856 83.8755 33.032C84.2595 37.704 84.2595 42.312 84.2595 46.92C84.2595 47.432 84.2595 47.944 84.2595 48.456C84.2595 48.648 84.1955 48.776 84.1955 48.968C84.1315 48.968 84.1315 48.968 84.0675 48.968ZM74.3395 16.136L74.9795 16.648L75.6195 16.136C75.3635 15.88 74.9795 15.88 74.3395 16.136ZM67.2995 51.016C67.4915 49.672 67.4915 49.416 67.1075 49.16C67.1715 49.736 67.2355 50.312 67.2995 51.016ZM79.1395 17.608L79.6515 18.376C79.6515 18.376 79.7155 18.376 79.7795 18.312L79.2035 17.544L79.1395 17.608ZM77.9235 19.208C77.7315 19.144 77.6675 19.08 77.6675 19.08H77.4115C77.4755 19.336 77.6675 19.336 77.9235 19.208ZM67.2995 47.88C67.2355 48.264 67.2355 48.264 67.3635 48.392C67.3635 48.2 67.3635 48.072 67.2995 47.88ZM112.035 51.848C112.035 51.912 111.971 52.04 111.971 52.168C111.971 52.232 112.035 52.424 112.035 52.424C112.099 52.616 112.035 52.808 111.843 52.872C111.587 52.936 111.459 52.872 111.459 52.616L111.267 52.296L111.011 51.592L110.499 51.912C110.243 52.04 110.179 52.168 110.243 52.424C110.243 52.744 110.371 53.064 110.435 53.384C110.243 53.512 110.179 53.64 110.051 53.64C109.795 53.64 109.667 53.704 109.475 53.832C109.091 53.576 109.219 53.064 109.027 52.616C108.835 52.872 108.515 52.68 108.323 53.064C108.259 52.872 108.131 52.808 108.067 52.68C107.555 52.616 107.491 52.616 107.299 52.104L106.979 50.952C106.787 51.208 106.595 51.208 106.531 51.08L105.955 50.248C105.891 50.12 105.763 49.992 105.635 49.864C105.507 49.928 105.443 49.928 105.378 49.992C104.675 50.696 103.843 51.208 102.819 51.4C102.562 51.4 102.371 51.592 102.179 51.848C101.731 52.424 101.091 53.064 100.259 53.128C99.8105 53.192 99.4265 53.256 99.1065 52.872C98.9145 52.68 98.5945 52.616 98.3385 52.424C98.2745 52.424 98.0825 52.424 98.0825 52.424C96.9945 52.808 96.1625 52.488 95.2665 51.976C94.4985 51.464 93.8585 51.016 93.0905 50.568C92.9625 50.44 92.7065 50.312 92.5145 50.312C92.2585 50.312 92.0025 50.248 92.0025 50.056C91.6825 49.672 91.2985 49.16 91.0425 48.712C89.7625 46.344 88.9305 43.72 88.3545 41.096C87.9065 38.984 87.7785 36.808 87.9705 34.632C88.0345 33.928 88.2265 33.16 88.3545 32.456V31.944L87.9705 32.712C87.9705 32.712 87.9065 32.712 87.9065 32.648C87.9065 32.2 87.9705 31.816 88.0345 31.432C88.3545 28.936 88.9305 26.44 89.7625 24.072C89.8905 23.56 90.2105 23.176 90.4025 22.728C90.9785 21.704 91.5545 20.616 92.3225 19.72L93.4105 18.568L93.1545 18.376L93.3465 17.864C93.9865 17.096 94.6265 16.328 95.4585 15.752C95.9705 15.368 96.6105 15.368 97.1225 15.432C97.5705 15.496 97.8905 15.688 98.2105 15.688C98.5945 15.752 99.0425 15.624 99.2985 15.624C99.9385 15.624 100.515 15.688 101.027 15.752C101.731 15.88 102.243 16.136 102.883 16.456L103.458 16.84C103.587 16.264 103.587 15.88 103.651 15.432C103.971 12.744 104.163 10.12 104.803 7.56L105.251 6.152C105.378 5.256 105.827 4.616 106.659 4.232L107.235 4.872L107.683 4.744C107.811 4.936 107.811 5.064 108.003 5.256L108.323 5C108.323 5 108.323 5 108.387 5C108.835 5.192 109.027 5.576 109.347 5.832C109.539 5.896 109.603 6.216 109.667 6.408C109.795 7.112 109.923 7.816 109.987 8.584C110.051 10.184 110.115 11.784 110.179 13.448L110.243 16.136L110.499 19.272L110.947 24.264L111.267 27.784C111.267 27.976 111.267 28.104 111.203 28.296C110.947 25.352 110.691 22.28 110.371 19.272V21C110.435 22.408 110.563 23.688 110.563 25.096C110.499 26.888 110.819 28.68 111.011 30.536C111.203 32.328 111.459 34.184 111.587 35.912L112.227 41.032V41.352C112.163 42.824 112.483 44.296 112.675 45.768L113.251 48.328C113.443 48.968 113.251 49.544 112.931 50.12C112.931 50.184 112.931 50.184 112.867 50.184C112.355 50.44 112.291 51.144 111.779 51.4C111.907 51.592 111.971 51.656 112.035 51.848ZM100.195 21.512L99.6825 21.96C98.5945 23.176 97.6985 24.456 97.1225 25.992C95.3305 30.984 94.8825 36.168 95.7785 41.48C96.1625 43.144 96.8025 44.872 97.8905 46.28L98.0825 46.536C98.2745 46.28 98.4665 46.088 98.5945 45.768C98.9785 45 99.2985 44.104 99.6825 43.336C100.003 42.632 100.323 41.928 100.707 41.288C100.899 40.968 101.027 40.712 101.155 40.392C101.475 39.816 101.731 39.176 101.923 38.6C102.307 37.704 102.755 36.744 103.395 36.04C103.458 35.912 103.523 35.784 103.458 35.72L103.331 32.712C103.203 29.768 103.203 26.952 103.139 24.2C103.139 23.88 103.01 23.688 102.883 23.496L101.027 22.024C100.771 21.832 100.515 21.704 100.195 21.512ZM96.9305 46.472C96.1625 43.144 94.8185 40.136 94.1785 36.744C94.1785 36.936 94.1145 37.128 94.1785 37.32L94.9465 40.968C94.9465 41.032 94.9465 41.16 94.9465 41.224C94.9465 41.288 94.9465 41.288 94.8825 41.288L93.9865 38.408V38.728C94.2425 40.456 94.5625 42.184 95.2025 43.848C95.6505 44.808 96.1625 45.704 96.9305 46.472ZM98.0825 16.584C97.2505 15.944 96.4185 15.944 95.6505 16.52C95.2665 16.84 94.9465 17.16 94.6265 17.352C94.4985 17.416 94.4345 17.608 94.4345 17.608C94.6265 17.608 94.8185 17.544 94.9465 17.416C95.6505 17.032 96.4185 16.968 97.1865 17.032C97.6345 17.096 97.8905 16.904 98.0825 16.584ZM108.899 12.872C108.643 14.536 108.771 16.136 108.835 17.864C108.963 16.136 109.091 14.536 108.899 12.872ZM104.163 50.632C104.611 50.44 104.931 50.184 105.123 49.736C104.675 49.992 104.419 50.248 104.163 50.632ZM95.7785 53.128C94.6905 52.808 93.7945 52.168 93.0905 51.208C94.0505 51.848 95.0105 52.424 95.7785 53.128ZM112.035 51.848C111.971 51.592 112.099 51.4 112.355 51.208C112.547 51.592 112.163 51.656 112.035 51.848ZM134.258 16.584H134.77C134.834 16.648 134.962 16.712 135.09 16.776C135.474 16.904 135.858 17.16 136.242 17.416C137.33 18.504 138.098 19.784 138.674 21.256C138.93 22.28 139.25 23.24 139.378 24.392C139.506 25.16 139.762 25.992 139.89 26.888C140.082 27.848 140.146 28.68 140.146 29.576C140.338 31.048 140.146 32.456 140.018 33.928C140.018 34.184 140.082 34.376 140.082 34.632C140.082 35.72 140.146 36.808 140.082 37.96C140.018 38.92 139.762 39.816 139.634 40.712C139.634 40.776 139.57 40.904 139.634 40.968C140.594 38.024 140.85 35.08 140.594 31.944C141.106 32.008 141.362 32.2 141.618 32.648L141.746 31.688C142.002 33.48 141.938 35.336 141.618 37.064C141.234 40.072 139.89 42.696 138.098 45.064L137.714 45.512L137.202 46.344C137.01 46.664 136.882 46.984 136.626 47.304C136.69 47.112 136.754 46.92 136.818 46.792L136.754 46.728C136.69 46.856 136.562 47.048 136.498 47.176C136.05 47.88 135.666 48.648 135.218 49.288C134.386 50.312 133.362 51.016 132.21 51.4C131.57 51.656 130.866 51.912 130.162 52.168C129.266 52.488 128.37 52.552 127.474 52.36C127.154 52.232 126.898 52.168 126.706 51.912C126.514 51.72 126.258 51.656 126.066 51.592C125.17 51.336 124.338 50.824 123.57 50.184C122.226 49.16 121.138 47.752 120.242 46.344C119.026 44.36 118.194 42.184 117.49 40.008C117.042 38.856 116.978 37.704 116.914 36.552C116.85 34.888 116.914 33.16 117.042 31.56C117.042 30.728 117.234 30.024 117.49 29.32C117.874 28.232 118.258 27.08 118.386 25.992C118.578 25.16 118.898 24.328 119.346 23.496C119.474 23.24 119.538 23.112 119.474 22.728C119.474 22.664 119.474 22.472 119.538 22.344L120.626 19.208C120.69 19.016 120.754 18.76 120.754 18.504C120.754 18.12 120.882 17.736 121.138 17.352L122.418 15.176C122.738 14.728 123.122 14.472 123.57 14.216C125.042 13.512 126.578 13.192 128.178 13.256C128.946 13.256 129.65 13.512 130.226 13.832C130.738 14.152 131.314 14.28 131.826 14.344C132.594 14.472 133.234 14.728 133.874 15.048C134.002 15.112 134.066 15.176 134.066 15.304C134.258 15.624 134.514 15.688 134.77 15.816C136.178 16.392 137.202 17.352 137.97 18.696C138.354 19.272 138.674 19.784 138.674 20.488L138.162 19.656C137.714 19.08 137.394 18.44 136.882 17.864C136.37 17.16 135.538 16.776 134.77 16.584L134.258 16.392V16.584ZM129.202 45.192C129.906 44.616 130.418 43.912 130.866 43.144C131.442 41.928 131.954 40.648 132.338 39.304C133.234 36.488 133.746 33.544 134.066 30.536C134.066 29.32 134.066 28.104 133.874 26.952C133.362 24.904 132.594 23.176 131.25 21.64C130.354 20.616 129.97 20.488 128.626 20.36C128.05 20.36 127.73 20.552 127.474 21C127.474 21.064 127.41 21.128 127.41 21.256C127.218 21.512 127.09 21.704 126.77 21.704C126.578 21.64 126.45 21.768 126.386 22.024L125.554 24.648C125.554 24.648 125.49 24.712 125.554 24.712C125.81 24.968 125.554 25.224 125.554 25.48C124.914 28.296 124.594 31.304 124.658 34.184C124.722 37 125.298 39.752 126.322 42.312C126.898 43.656 127.986 44.488 129.202 45.192ZM133.234 15.176C133.554 15.816 133.554 15.816 134.066 15.56C133.81 15.432 133.554 15.304 133.234 15.176ZM121.138 20.296L121.714 19.336L121.586 19.208C121.394 19.592 121.266 19.848 121.074 20.232C121.138 20.232 121.138 20.296 121.138 20.296ZM133.298 16.328H132.594C132.85 16.584 132.978 16.52 133.298 16.328ZM120.114 21.768L119.794 22.408C119.858 22.472 119.922 22.472 119.922 22.472C120.05 22.216 120.114 22.024 120.178 21.768C120.178 21.768 120.178 21.768 120.114 21.768ZM132.338 15.88C132.274 15.816 132.21 15.752 132.21 15.688C132.146 15.688 132.082 15.752 132.082 15.752L132.21 15.944C132.21 15.944 132.274 15.944 132.338 15.88ZM138.738 19.592C139.314 20.488 139.762 21.384 140.146 22.344C140.914 24.648 141.298 27.016 141.234 29.512V30.536C141.234 30.728 141.17 30.984 140.85 31.048C140.786 31.048 140.722 31.112 140.594 31.24C140.338 30.28 140.402 29.32 140.53 28.488C140.722 29.064 140.85 29.704 141.106 30.344C141.234 28.424 140.914 26.632 140.53 24.84C140.146 23.048 139.634 21.256 138.738 19.592ZM116.53 32.968L116.722 33.736H116.594L116.53 32.968ZM178.632 50.056L178.312 49.8C178.376 49.8 178.44 49.864 178.632 49.928L178.951 47.752C178.632 48.264 178.504 48.84 177.864 48.968L177.608 50.248C177.544 50.568 177.479 50.824 177.288 51.08C177.16 51.208 177.096 51.4 177.096 51.656C176.968 52.168 176.712 52.424 176.2 52.424C175.944 52.488 175.816 52.424 175.752 52.168L175.304 52.68C175.24 52.616 175.112 52.552 174.984 52.488L174.664 52.872C174.408 52.616 174.408 52.424 174.344 52.104C174.152 51.272 173.96 50.504 173.768 49.736L173.64 49.288L173.512 49.608L173.32 50.568C173.192 50.952 173.064 51.208 172.808 51.4C172.552 51.592 172.552 51.848 172.36 52.104C172.232 51.848 172.168 51.528 171.848 51.528C171.72 51.528 171.592 51.272 171.592 51.208C171.336 50.76 171.144 50.312 170.888 49.992C170.696 49.864 170.632 49.672 170.632 49.48L169.992 48.136C169.864 48.008 169.864 47.816 169.8 47.624C169.48 46.152 168.84 44.68 168.392 43.208C167.24 39.816 165.96 36.552 164.616 33.16L164.424 32.776C164.296 32.968 164.296 32.968 164.296 33.096L162.312 40.392L160.84 45.96C160.392 47.56 159.944 49.288 159.24 50.952L158.856 51.656C158.792 51.912 158.728 52.04 158.472 52.168C158.728 51.464 158.92 50.888 159.176 50.248C159.112 50.184 159.048 50.184 158.984 50.184L158.6 50.952C158.344 51.272 158.088 51.592 157.896 51.912C157.64 52.36 157.384 52.424 157 52.04L156.872 51.912C156.68 52.424 156.488 52.872 156.424 53.384L156.104 54.088C155.784 54.792 155.208 54.856 154.696 54.344C154.44 54.536 154.248 54.792 153.992 54.856C153.8 54.92 153.48 54.984 153.224 55.048C152.968 55.048 152.776 54.984 152.712 54.856L152.264 54.088C151.752 54.28 151.496 54.024 151.304 53.64L151.176 53.448C150.664 53.192 150.536 52.68 150.344 52.296L150.024 51.592C149.832 51.208 149.64 50.76 149.448 50.312C148.872 48.648 148.616 46.792 148.104 45.064C147.4 42.376 146.952 39.624 146.568 36.872C146.056 34.056 145.736 31.176 145.544 28.232C145.416 26.632 145.352 25.032 145.288 23.368C145.288 23.112 145.352 22.792 145.352 22.472C145.352 22.408 145.352 22.28 145.352 22.216C145.48 20.616 145.544 19.08 145.544 17.48C145.544 16.84 145.736 16.136 145.928 15.56C146.12 15.048 146.312 14.984 146.76 14.984L147.016 14.472C147.144 14.344 147.208 14.344 147.4 14.472C147.272 14.728 147.208 14.92 147.016 15.24C147.272 15.432 147.528 15.624 147.784 15.752C147.784 15.432 147.911 15.176 147.72 14.92L147.976 14.792C148.104 14.728 148.296 14.728 148.36 14.728C148.488 14.856 148.488 15.048 148.488 15.176C148.552 15.304 148.488 15.432 148.424 15.56C148.296 15.944 148.232 16.136 148.488 16.456C148.488 16.584 148.488 16.648 148.488 16.84L148.168 16.968C148.488 17.16 148.744 17.16 149 17.032C148.872 16.648 149.064 16.264 149.128 15.944C149.192 15.688 149.128 15.56 149.128 15.368V14.984C149.704 15.048 149.832 15.496 149.96 15.944C150.088 15.88 150.216 15.816 150.216 15.688C150.6 15.944 150.792 16.136 150.856 16.648C150.984 17.352 151.176 18.184 151.24 19.016C151.624 22.024 151.88 25.16 152.392 28.104C152.776 30.664 153.352 33.16 153.864 35.592C153.928 36.168 153.992 36.68 154.248 37.256L154.568 36.104L155.208 34.568L156.744 31.048C156.872 30.664 156.936 30.28 157 29.832L157.448 28.36C157.512 28.168 157.512 27.976 157.32 27.848C157.192 27.592 157.256 27.464 157.256 27.272L158.472 22.92C158.856 21.384 159.304 19.848 159.56 18.376C159.88 16.52 160.392 14.792 160.712 13.064C160.712 13 160.776 13 160.776 12.936L161.352 13.256C161.48 13 161.544 12.872 161.608 12.552C161.864 13 162.312 13.192 162.248 13.576C162.248 13.704 162.44 13.896 162.503 14.024C162.952 13.96 163.144 13.512 163.72 13.512L164.296 14.728C164.552 14.664 164.68 14.472 164.808 14.216C164.872 13.832 164.936 13.768 165.256 13.96C165.448 14.088 165.576 14.216 165.768 14.344C165.832 14.472 166.024 14.664 166.024 14.728C166.024 15.048 166.216 15.24 166.344 15.624L166.6 14.984C166.984 15.24 167.368 15.432 167.432 15.944C167.56 18.568 168.264 21.192 168.968 23.688C169.16 24.328 169.288 24.904 169.48 25.608C169.8 26.888 170.12 28.168 170.632 29.384C171.4 31.24 172.168 33.096 172.872 34.952C172.936 35.144 173.064 35.336 173.064 35.4H173.256L173.768 33.736L174.28 32.392C174.408 31.944 174.536 31.56 174.664 31.112C174.664 30.856 174.664 30.536 174.664 30.408C174.536 30.024 174.536 29.768 174.664 29.384C175.24 26.888 175.88 24.392 176.456 21.832C177.096 19.592 177.544 17.224 178.12 14.92C178.312 14.216 178.504 13.512 178.76 12.872C178.824 12.68 178.951 12.488 179.08 12.296L179.528 12.552L179.847 12.04L180.232 12.552C180.232 12.68 180.168 12.808 180.104 13L180.68 13.256C180.936 13.192 181.128 12.744 181.64 12.872C181.768 13.192 181.96 13.512 182.024 13.768C182.28 13.704 182.472 13.64 182.536 13.384C182.536 13.128 182.728 13.128 182.92 13.256C183.24 13.448 183.368 13.512 183.24 13.96C183.24 14.664 183.176 15.24 183.048 15.944C183.048 16.072 183.048 16.2 183.048 16.52C183.496 15.944 183.752 15.432 183.944 14.856C184.392 15.432 184.648 16.008 184.648 16.776C184.712 18.952 184.392 21 184.008 23.176C183.304 26.568 182.728 29.96 182.024 33.352L180.616 41.48L179.847 45.448C179.592 46.728 179.4 48.008 179.144 49.224C179.08 49.544 178.951 49.864 178.632 50.056ZM169.992 41.48C169.928 41.48 169.928 41.48 169.864 41.48C170.248 42.504 170.632 43.528 171.016 44.488C171.08 44.424 171.08 44.36 171.08 44.36C170.76 43.4 170.376 42.44 169.992 41.48ZM155.208 53.512C155.336 53.576 155.464 53.64 155.592 53.64L155.784 53.128C155.336 53 155.336 53.256 155.208 53.512ZM161.224 17.48C161.16 17.608 160.968 17.8 161.16 17.992C161.352 17.8 161.224 17.608 161.224 17.48ZM161.8 15.944H161.864V15.624C161.864 15.688 161.8 15.88 161.8 15.944ZM178.312 49.8C178.312 49.672 178.12 49.544 178.248 49.352C178.376 49.48 178.376 49.672 178.312 49.8ZM213.068 48.968V47.688C212.812 47.944 213.004 48.264 212.62 48.52L212.3 48.2C211.916 48.776 212.172 49.416 212.044 49.992C212.044 50.184 211.98 50.312 211.788 50.44C211.532 50.568 211.468 50.824 211.468 51.144C211.404 51.72 211.34 51.784 210.7 51.912L210.38 51.016C210.316 51.016 210.316 51.08 210.252 51.08V51.72C210.252 52.04 210.124 52.168 209.868 52.296C209.548 52.424 209.164 52.488 208.78 52.616C208.652 52.168 208.652 51.72 208.588 51.208L208.012 51.656L207.692 51.464C207.628 51.656 207.564 51.784 207.5 51.976C207.436 51.784 207.372 51.656 207.244 51.464C207.116 51.4 206.924 51.4 206.732 51.4L206.54 50.44L206.22 50.376C205.964 50.312 205.708 50.12 205.644 49.864C205.58 49.672 205.58 49.48 205.452 49.352C205.003 48.968 205.003 48.456 205.003 47.944C205.003 47.56 205.132 47.304 205.132 46.856C205.196 46.536 205.196 46.28 205.003 45.896C205.003 45.832 205.003 45.576 205.003 45.448V43.144V42.632C204.492 42.504 204.492 42.184 204.492 41.8L204.62 34.632C204.62 34.248 204.748 33.992 204.748 33.672C204.812 32.776 204.94 31.816 204.94 30.92C204.94 29.896 204.812 28.936 204.556 27.976C204.428 27.528 204.364 27.016 204.364 26.568C204.364 25.416 204.108 24.392 203.788 23.304C203.66 22.792 203.404 22.28 203.02 21.96C202.956 21.832 202.956 21.768 202.892 21.704C202.252 22.024 201.74 22.472 201.292 22.984C198.924 25.416 197.324 28.232 196.492 31.496C196.428 31.752 196.364 32.136 196.428 32.456C196.62 34.632 196.94 36.872 197.196 39.112L197.9 46.344C197.964 46.92 198.028 47.56 198.028 48.2C198.092 48.968 197.964 49.8 197.964 50.632C197.9 50.952 197.836 51.208 197.58 51.336C197.132 51.144 196.94 50.632 196.684 50.184V50.568C196.684 50.952 196.684 51.272 196.684 51.656C196.684 51.912 196.684 52.04 196.492 52.168C196.428 52.296 196.364 52.424 196.3 52.616C196.236 53.384 196.236 53.384 195.404 53.576C195.276 53.064 195.532 52.488 195.276 51.976C194.764 52.168 194.764 52.744 194.188 52.808L194.06 52.296C193.804 52.936 194.188 53.64 193.804 54.152C193.484 53.768 193.612 53.32 193.356 52.872L192.972 53.192L192.716 53.064L192.524 53.576L192.268 53C192.076 53 191.948 53 191.82 52.936C191.692 52.616 191.628 52.424 191.628 52.04C191.116 51.976 190.86 51.656 190.732 51.208C190.604 50.888 190.411 50.632 190.156 50.312L189.964 49.8C189.58 48.456 189.324 47.048 189.196 45.576C189.132 43.208 188.94 40.84 188.684 38.472C188.684 37.704 188.62 36.872 188.62 36.104L188.748 31.496C188.748 31.176 188.748 30.792 188.684 30.536C188.62 29.384 188.684 28.36 188.812 27.336C188.876 26.888 188.94 26.248 188.876 25.672C188.876 25.16 188.812 24.648 188.812 24.136C188.812 23.688 188.94 23.24 188.94 22.856C188.94 22.472 189.004 22.024 188.94 21.704C188.62 20.296 188.812 19.016 189.004 17.608C189.132 16.712 189.26 15.816 189.388 14.856C189.452 14.6 189.644 14.344 189.772 14.024C189.836 13.896 189.964 13.768 190.156 13.896L189.644 14.792C189.836 14.856 189.9 14.92 190.028 14.984L189.644 16.136L190.22 15.816C189.836 17.032 189.452 18.12 189.58 19.4L189.708 19.08L189.9 18.312C190.028 17.608 190.348 17.032 190.86 16.584C190.988 16.392 191.116 16.2 191.116 15.944C191.18 15.432 191.372 14.984 191.436 14.536L191.628 14.152C192.012 14.28 191.884 14.728 192.076 14.984C192.204 14.728 192.332 14.536 192.332 14.408C192.396 14.344 192.46 14.344 192.524 14.344C192.78 14.472 192.908 14.728 193.1 14.856C193.292 14.984 193.676 15.048 193.804 15.304C193.996 15.432 194.06 15.688 194.06 15.88C194.252 16.712 194.444 17.608 194.572 18.504L194.764 19.656L194.892 20.36C195.276 19.72 195.788 19.08 196.236 18.376C196.428 18.12 196.492 17.736 196.684 17.352C196.748 17.224 196.94 17.16 197.004 17.032L197.132 17.16L196.556 17.864C196.62 17.864 196.62 17.928 196.62 17.928C196.94 17.608 197.324 17.352 197.644 17.16C198.284 16.392 199.052 15.816 200.076 15.432C200.076 15.432 200.14 15.432 200.14 15.368C200.012 15.368 199.884 15.304 199.756 15.304V15.176H200.844C201.1 15.24 201.356 15.176 201.548 15.112C202.316 14.792 203.02 14.728 203.788 14.92C203.788 14.984 203.98 14.984 204.044 14.984C204.748 14.92 205.388 15.176 205.964 15.56C206.732 16.008 207.5 16.52 208.332 17.096C208.844 17.416 209.292 17.992 209.612 18.568C210.316 19.72 210.828 21 211.084 22.408C211.212 23.752 211.532 25.16 211.852 26.44C212.428 28.616 212.684 30.856 212.876 33.032C213.26 37.704 213.26 42.312 213.26 46.92C213.26 47.432 213.26 47.944 213.26 48.456C213.26 48.648 213.196 48.776 213.196 48.968C213.132 48.968 213.132 48.968 213.068 48.968ZM203.34 16.136L203.98 16.648L204.62 16.136C204.364 15.88 203.98 15.88 203.34 16.136ZM196.3 51.016C196.492 49.672 196.492 49.416 196.108 49.16C196.172 49.736 196.236 50.312 196.3 51.016ZM208.14 17.608L208.652 18.376C208.652 18.376 208.716 18.376 208.78 18.312L208.204 17.544L208.14 17.608ZM206.924 19.208C206.732 19.144 206.668 19.08 206.668 19.08H206.412C206.476 19.336 206.668 19.336 206.924 19.208ZM196.3 47.88C196.236 48.264 196.236 48.264 196.364 48.392C196.364 48.2 196.364 48.072 196.3 47.88ZM265.757 50.056L265.437 49.8C265.501 49.8 265.565 49.864 265.757 49.928L266.076 47.752C265.757 48.264 265.629 48.84 264.989 48.968L264.733 50.248C264.669 50.568 264.604 50.824 264.413 51.08C264.285 51.208 264.221 51.4 264.221 51.656C264.093 52.168 263.837 52.424 263.325 52.424C263.069 52.488 262.941 52.424 262.877 52.168L262.429 52.68C262.365 52.616 262.237 52.552 262.109 52.488L261.789 52.872C261.533 52.616 261.533 52.424 261.469 52.104C261.277 51.272 261.085 50.504 260.893 49.736L260.765 49.288L260.637 49.608L260.445 50.568C260.317 50.952 260.189 51.208 259.933 51.4C259.677 51.592 259.677 51.848 259.485 52.104C259.357 51.848 259.293 51.528 258.973 51.528C258.845 51.528 258.717 51.272 258.717 51.208C258.461 50.76 258.269 50.312 258.013 49.992C257.821 49.864 257.757 49.672 257.757 49.48L257.117 48.136C256.989 48.008 256.989 47.816 256.925 47.624C256.605 46.152 255.965 44.68 255.517 43.208C254.365 39.816 253.085 36.552 251.741 33.16L251.549 32.776C251.421 32.968 251.421 32.968 251.421 33.096L249.437 40.392L247.965 45.96C247.517 47.56 247.069 49.288 246.365 50.952L245.981 51.656C245.917 51.912 245.853 52.04 245.597 52.168C245.853 51.464 246.045 50.888 246.301 50.248C246.237 50.184 246.173 50.184 246.109 50.184L245.725 50.952C245.469 51.272 245.213 51.592 245.021 51.912C244.765 52.36 244.509 52.424 244.125 52.04L243.997 51.912C243.805 52.424 243.613 52.872 243.549 53.384L243.229 54.088C242.909 54.792 242.333 54.856 241.821 54.344C241.565 54.536 241.373 54.792 241.117 54.856C240.925 54.92 240.605 54.984 240.349 55.048C240.093 55.048 239.901 54.984 239.837 54.856L239.389 54.088C238.877 54.28 238.621 54.024 238.429 53.64L238.301 53.448C237.789 53.192 237.661 52.68 237.469 52.296L237.149 51.592C236.957 51.208 236.765 50.76 236.573 50.312C235.997 48.648 235.741 46.792 235.229 45.064C234.525 42.376 234.077 39.624 233.693 36.872C233.181 34.056 232.861 31.176 232.669 28.232C232.541 26.632 232.477 25.032 232.413 23.368C232.413 23.112 232.477 22.792 232.477 22.472C232.477 22.408 232.477 22.28 232.477 22.216C232.605 20.616 232.669 19.08 232.669 17.48C232.669 16.84 232.861 16.136 233.053 15.56C233.245 15.048 233.437 14.984 233.885 14.984L234.141 14.472C234.269 14.344 234.333 14.344 234.525 14.472C234.397 14.728 234.333 14.92 234.141 15.24C234.397 15.432 234.653 15.624 234.909 15.752C234.909 15.432 235.036 15.176 234.845 14.92L235.101 14.792C235.229 14.728 235.421 14.728 235.485 14.728C235.613 14.856 235.613 15.048 235.613 15.176C235.677 15.304 235.613 15.432 235.549 15.56C235.421 15.944 235.357 16.136 235.613 16.456C235.613 16.584 235.613 16.648 235.613 16.84L235.293 16.968C235.613 17.16 235.869 17.16 236.125 17.032C235.997 16.648 236.189 16.264 236.253 15.944C236.317 15.688 236.253 15.56 236.253 15.368V14.984C236.829 15.048 236.957 15.496 237.085 15.944C237.213 15.88 237.341 15.816 237.341 15.688C237.725 15.944 237.917 16.136 237.981 16.648C238.109 17.352 238.301 18.184 238.365 19.016C238.749 22.024 239.005 25.16 239.517 28.104C239.901 30.664 240.477 33.16 240.989 35.592C241.053 36.168 241.117 36.68 241.373 37.256L241.693 36.104L242.333 34.568L243.869 31.048C243.997 30.664 244.061 30.28 244.125 29.832L244.573 28.36C244.637 28.168 244.637 27.976 244.445 27.848C244.317 27.592 244.381 27.464 244.381 27.272L245.597 22.92C245.981 21.384 246.429 19.848 246.685 18.376C247.005 16.52 247.517 14.792 247.837 13.064C247.837 13 247.901 13 247.901 12.936L248.477 13.256C248.605 13 248.669 12.872 248.733 12.552C248.989 13 249.437 13.192 249.373 13.576C249.373 13.704 249.565 13.896 249.628 14.024C250.077 13.96 250.269 13.512 250.845 13.512L251.421 14.728C251.677 14.664 251.805 14.472 251.933 14.216C251.997 13.832 252.061 13.768 252.381 13.96C252.573 14.088 252.701 14.216 252.893 14.344C252.957 14.472 253.149 14.664 253.149 14.728C253.149 15.048 253.341 15.24 253.469 15.624L253.725 14.984C254.109 15.24 254.493 15.432 254.557 15.944C254.685 18.568 255.389 21.192 256.093 23.688C256.285 24.328 256.413 24.904 256.605 25.608C256.925 26.888 257.245 28.168 257.757 29.384C258.525 31.24 259.293 33.096 259.997 34.952C260.061 35.144 260.189 35.336 260.189 35.4H260.381L260.893 33.736L261.405 32.392C261.533 31.944 261.661 31.56 261.789 31.112C261.789 30.856 261.789 30.536 261.789 30.408C261.661 30.024 261.661 29.768 261.789 29.384C262.365 26.888 263.005 24.392 263.581 21.832C264.221 19.592 264.669 17.224 265.245 14.92C265.437 14.216 265.629 13.512 265.885 12.872C265.949 12.68 266.076 12.488 266.205 12.296L266.653 12.552L266.972 12.04L267.357 12.552C267.357 12.68 267.293 12.808 267.229 13L267.805 13.256C268.061 13.192 268.253 12.744 268.765 12.872C268.893 13.192 269.085 13.512 269.149 13.768C269.405 13.704 269.597 13.64 269.661 13.384C269.661 13.128 269.853 13.128 270.045 13.256C270.365 13.448 270.493 13.512 270.365 13.96C270.365 14.664 270.301 15.24 270.173 15.944C270.173 16.072 270.173 16.2 270.173 16.52C270.621 15.944 270.877 15.432 271.069 14.856C271.517 15.432 271.773 16.008 271.773 16.776C271.837 18.952 271.517 21 271.133 23.176C270.429 26.568 269.853 29.96 269.149 33.352L267.741 41.48L266.972 45.448C266.717 46.728 266.525 48.008 266.269 49.224C266.205 49.544 266.076 49.864 265.757 50.056ZM257.117 41.48C257.053 41.48 257.053 41.48 256.989 41.48C257.373 42.504 257.757 43.528 258.141 44.488C258.205 44.424 258.205 44.36 258.205 44.36C257.885 43.4 257.501 42.44 257.117 41.48ZM242.333 53.512C242.461 53.576 242.589 53.64 242.717 53.64L242.909 53.128C242.461 53 242.461 53.256 242.333 53.512ZM248.349 17.48C248.285 17.608 248.093 17.8 248.285 17.992C248.477 17.8 248.349 17.608 248.349 17.48ZM248.925 15.944H248.989V15.624C248.989 15.688 248.925 15.88 248.925 15.944ZM265.437 49.8C265.437 49.672 265.245 49.544 265.373 49.352C265.501 49.48 265.501 49.672 265.437 49.8ZM278.305 15.176C278.241 15.432 277.793 15.432 277.985 15.816C278.177 15.56 278.433 15.432 278.753 15.496C278.753 15.496 278.817 15.432 278.881 15.304C279.009 15.176 279.137 15.112 279.329 14.984C279.521 15.24 279.777 15.432 279.969 15.688C280.161 15.688 280.161 15.496 280.161 15.304C280.225 14.984 280.289 14.984 280.609 15.048C280.929 15.176 281.185 15.24 281.312 15.688C281.312 15.688 281.377 15.688 281.441 15.816C281.569 15.688 281.633 15.624 281.76 15.56C281.825 15.56 281.953 15.624 282.081 15.688C282.465 15.88 282.72 16.2 282.849 16.648C283.041 17.352 283.169 18.184 283.361 18.888C283.681 21.32 283.681 23.752 283.617 26.184C283.489 27.976 283.489 29.768 283.425 31.56C283.425 31.752 283.425 31.88 283.425 32.2C283.361 32.008 283.297 31.944 283.233 31.88H283.169C283.169 32.008 283.169 32.136 283.233 32.264C283.297 33.352 283.361 34.376 283.361 35.4C283.425 35.592 283.489 35.784 283.169 35.784C283.169 35.784 283.105 35.976 283.105 36.104C283.105 37.384 283.105 38.664 283.041 40.008C282.913 42.184 282.849 44.488 282.785 46.792C282.72 47.176 282.785 47.56 282.72 48.008C282.593 48.776 282.72 49.608 282.72 50.376C282.785 50.888 282.657 51.272 282.529 51.72C282.401 51.912 282.401 52.168 282.401 52.424C282.401 52.744 282.401 53.192 282.401 53.64C281.889 53.768 281.441 53.832 281.057 54.024C280.993 53.832 280.929 53.704 280.929 53.64C280.417 53.576 279.841 53.96 279.649 53.128C279.265 53.32 278.945 53.512 278.689 53.64C278.561 53.64 278.497 53.576 278.497 53.448C278.369 53.256 278.241 53.128 278.049 53.064C277.729 53 277.665 52.68 277.601 52.424C277.536 52.168 277.345 51.912 277.089 51.656C276.961 51.464 276.769 51.208 276.705 51.016C276.385 50.44 276.193 49.928 275.937 49.288C275.809 48.968 275.745 48.648 275.745 48.328C275.745 43.4 275.745 38.536 275.809 33.608C275.809 29.512 276.065 25.608 276.321 21.576C276.321 20.168 276.321 18.824 276.385 17.352C276.449 16.904 276.513 16.328 276.641 15.88C276.705 15.496 276.833 15.176 277.281 15.176C277.345 15.176 277.409 15.112 277.473 15.048C277.729 14.728 277.729 14.728 278.113 14.984C278.177 15.048 278.241 15.112 278.305 15.176ZM279.009 8.648C279.137 9.608 279.201 10.504 279.265 11.464C278.689 11.336 278.177 11.272 277.536 11.144C277.536 10.76 277.601 10.312 277.601 9.864C277.536 9.8 277.409 9.672 277.217 9.544C277.089 9.608 276.961 9.736 276.769 9.864C276.769 9.608 276.769 9.416 276.769 9.224C276.385 9.096 276.321 8.776 276.513 8.392C276.513 8.264 276.513 8.008 276.577 7.816C276.321 7.496 276.257 7.176 276.321 6.728C276.385 6.344 276.321 5.896 276.321 5.448C276.321 5.064 276.385 4.808 276.513 4.488C276.577 4.168 276.833 4.296 277.025 4.36C277.153 4.232 277.217 4.04 277.281 3.976C277.409 3.912 277.536 3.976 277.729 3.976C277.729 3.912 277.857 3.784 277.921 3.72C278.049 3.784 278.177 3.848 278.305 3.976C278.305 4.04 278.241 4.232 278.241 4.36C278.433 4.36 278.625 4.424 278.753 4.488C278.817 4.424 278.945 4.296 279.009 4.232C279.137 4.104 279.265 3.976 279.457 4.04C279.649 4.232 279.841 4.296 279.777 4.552C279.777 4.744 279.777 4.936 279.713 5.128C279.969 5 280.161 5 280.289 5C280.545 4.808 280.737 4.744 281.057 5C281.185 5.064 281.377 5 281.377 5.128C281.569 5.448 281.889 5.256 282.017 5.512C282.145 5.704 282.337 5.96 282.401 6.152C282.401 6.216 282.529 6.28 282.593 6.344C282.593 6.28 282.593 6.216 282.657 6.216C282.849 6.408 283.105 6.664 282.977 7.048C282.913 7.176 283.105 7.368 283.105 7.432C283.233 7.688 283.489 7.88 283.169 8.2C283.169 8.264 283.233 8.392 283.297 8.456C283.361 8.712 283.489 9.032 283.617 9.288C283.361 9.544 283.105 9.8 282.849 9.992C282.785 10.056 282.785 10.312 282.72 10.568C282.593 10.568 282.401 10.632 282.145 10.696C282.081 10.248 282.017 9.864 281.953 9.48C281.889 9.032 281.633 8.648 281.377 8.392C281.312 8.328 281.185 8.392 281.185 8.328C281.057 8.648 280.865 8.776 280.609 8.84C280.225 9.096 279.969 9.288 279.841 9.608C279.969 9.736 279.969 9.864 280.033 9.928C280.097 9.864 280.161 9.864 280.225 9.864C280.417 10.44 280.353 11.08 280.353 11.656C280.033 11.592 279.841 11.528 279.457 11.528C279.457 11.08 279.457 10.632 279.457 10.184C279.457 10.12 279.457 10.056 279.521 10.056C279.649 9.544 279.585 9.096 279.009 8.648ZM278.817 7.752C278.881 7.496 278.817 7.432 278.625 7.432C278.689 7.496 278.753 7.624 278.817 7.752ZM278.753 6.92C278.753 6.92 278.753 6.856 278.753 6.792C278.625 6.728 278.497 6.728 278.369 6.984C278.497 6.92 278.689 6.92 278.753 6.92ZM284.001 38.216C284.065 39.176 284.065 40.2 284.065 41.096C284.193 43.4 284.257 45.576 284.321 47.88C284.321 48.776 284.321 49.544 284.321 50.376C284.321 50.632 284.257 50.888 284.129 51.08C284.065 51.336 283.809 51.4 283.617 51.272C283.553 51.4 283.425 51.592 283.361 51.72C283.361 51.72 283.297 51.72 283.233 51.72C283.169 49.48 283.361 47.304 283.489 45C283.617 42.696 283.745 40.456 283.873 38.216C283.937 38.216 283.937 38.216 284.001 38.216ZM280.481 10.76C280.545 10.696 280.609 10.632 280.609 10.632C280.673 10.696 280.673 10.696 280.673 10.76V10.824C280.609 10.824 280.545 10.824 280.481 10.76ZM293.68 47.56C292.976 46.856 292.656 46.088 292.464 45.192C292.08 43.912 292.016 42.568 291.824 41.224C291.504 37.064 291.504 32.968 291.76 28.808L292.08 26.056C292.208 24.136 292.592 22.152 292.656 20.168C292.656 20.04 292.656 19.784 292.592 19.592C292.528 19.848 292.464 20.168 292.4 20.424H292.336L292.528 18.376L292.016 18.248L289.136 17.736C288.944 17.672 288.624 17.608 288.496 17.288C288.624 17.16 288.688 17.096 288.88 16.968V16.648C288.496 16.584 288.176 16.52 287.856 16.392C287.664 16.392 287.472 16.264 287.6 15.944C287.664 15.688 287.344 15.688 287.28 15.432L288.048 14.984C287.856 14.728 287.344 14.728 287.152 14.216L287.856 13.704H288.112C288.56 13.704 289.008 13.704 289.328 13.64L287.152 13.448C287.152 13.064 287.152 12.744 287.152 12.36C287.408 12.296 287.728 12.296 287.856 12.04C288.048 11.912 288.368 11.912 288.56 11.912H292.528H293.168L293.424 10.184C293.744 8.072 294 5.96 294.384 3.784C294.448 3.272 294.576 2.76 294.704 2.312L294.96 1.352C295.088 0.839996 295.536 0.839996 295.984 0.711998C296.112 0.711998 296.24 0.903999 296.368 1.032L296.176 1.224V1.352L297.136 1.224L297.456 1.672L297.712 1.352C297.776 1.352 297.84 1.352 297.84 1.352L298.992 2.184C299.376 2.568 299.568 2.952 299.632 3.4C299.76 3.976 299.888 4.616 299.888 5.192C299.952 6.216 299.952 7.24 300.016 8.264C300.016 9.16 299.952 10.056 300.016 11.08C300.016 11.528 300.016 12.04 300.08 12.488C300.528 12.616 300.912 12.68 301.232 12.744C302 12.872 302.704 13 303.472 13.384C304.176 13.704 304.944 13.832 305.84 13.96L307.44 14.216C307.952 14.408 308.464 14.664 308.784 14.92C308.784 15.432 308.464 15.048 308.336 15.112C308.464 15.496 308.912 15.688 308.976 16.136L308.72 16.2L309.168 17.096L308.336 17.864L308.72 17.992C308.72 17.992 308.72 18.056 308.656 18.056L307.248 18.376L306.288 18.44L306.864 18.824C306.608 18.888 306.416 19.08 306.288 19.08C305.904 19.144 305.392 19.336 304.944 19.336C303.6 19.336 302.256 19.4 300.912 19.208C300.656 19.208 300.336 19.208 299.952 19.144L299.824 20.168C299.824 20.232 299.824 20.296 299.824 20.296C300.08 20.552 299.952 20.808 299.952 21C299.952 22.472 299.952 23.944 299.952 25.416C299.952 25.608 300.016 25.736 300.016 25.928C300.08 26.12 300.08 26.376 300.08 26.632L299.952 32.328C299.952 34.952 299.952 37.64 300.08 40.264C300.272 41.928 300.528 43.656 300.72 45.256C300.784 45.576 300.912 45.96 301.04 46.344C301.04 46.408 301.168 46.536 301.296 46.408C301.296 46.344 301.424 46.408 301.488 46.472C301.552 46.664 301.744 46.6 301.936 46.472L302.64 45.576C302.704 45.512 302.704 45.32 302.704 45.256C302.704 45.128 302.64 45.064 302.64 44.872C302.768 44.936 302.832 45.064 302.96 45.128C303.216 44.68 303.536 44.296 303.216 43.72L304.048 43.912C304.368 43.4 305.072 43.08 304.624 42.312C304.816 42.056 305.328 41.928 305.648 42.056C305.904 42.184 305.968 42.44 305.904 42.952L306.544 42.568C306.672 42.44 306.864 42.44 307.12 42.504C307.568 42.696 307.952 42.888 308.272 43.272C308.4 43.464 308.528 43.656 308.72 43.784C309.04 44.04 309.296 44.424 309.296 44.936C309.296 45.128 309.296 45.192 309.36 45.32C309.68 45.832 309.552 46.28 309.296 46.664C308.528 47.688 307.76 48.776 306.8 49.672C306.544 49.864 306.352 50.056 306.16 50.44C306.096 50.696 305.968 51.016 305.84 51.272C305.52 51.784 305.136 52.168 304.624 52.424L301.936 53.64C301.36 53.768 300.912 53.832 300.336 53.64C298.992 53.256 297.648 52.488 296.56 51.592C296.624 51.592 296.816 51.656 296.944 51.656C296.624 50.952 296.048 50.504 295.344 50.12C295.536 50.568 295.92 50.888 296.176 51.272C295.024 50.44 294.256 49.48 293.936 48.136C293.872 47.88 293.936 47.56 293.616 47.56C293.68 47.432 293.808 47.368 293.744 47.304L293.616 46.216L293.424 46.024C293.296 46.344 293.296 46.664 293.488 47.048C293.552 47.176 293.616 47.368 293.68 47.56ZM302.704 51.656C302.96 51.656 303.152 51.4 303.344 51.208C303.024 51.208 302.768 51.208 302.576 51.272C302.384 51.336 302.384 51.4 302.512 51.592C302.192 51.528 302 51.72 301.872 52.04C302.256 52.168 302.448 52.04 302.704 51.656ZM292.272 31.752L292.72 35.208C292.72 35.4 292.72 35.592 292.72 35.784C292.72 37.064 292.784 38.28 292.848 39.56C292.912 40.648 292.976 41.672 292.976 42.696L293.04 43.656C293.04 43.848 293.104 43.976 293.232 44.104L293.424 40.264V39.24L293.232 35.4C293.232 33.928 293.232 32.52 293.232 31.112C293.296 30.024 293.232 28.936 293.552 27.912C293.68 27.592 293.744 27.336 293.744 27.016C293.744 26.888 293.744 26.632 293.68 26.568C293.424 26.248 293.424 25.928 293.488 25.672C293.488 24.776 293.552 23.944 293.552 23.048C293.616 22.728 293.68 22.6 293.936 22.536V18.504L293.168 18.376L292.976 20.424C292.976 21.512 292.912 22.664 292.784 23.752C292.784 24.2 292.72 24.584 292.72 25.032C292.72 25.416 292.784 25.672 292.72 25.928C292.72 26.888 292.592 27.784 292.528 28.616H292.464V28.104C292.272 28.616 292.08 29.32 291.952 29.832C291.888 30.024 291.824 30.28 291.824 30.472L292.08 32.2L292.144 32.264C292.144 32.072 292.208 31.944 292.272 31.752ZM294.896 47.304V46.856C294.704 45.448 294.448 44.04 294.448 42.696C294.384 41.352 294 40.072 293.872 38.792C293.744 38.984 293.68 39.112 293.68 39.304C293.68 39.752 293.68 40.264 293.744 40.648C293.808 41.864 293.872 43.08 293.936 44.296C294.064 45.128 294.256 45.832 294.448 46.536C294.448 46.792 294.576 47.048 294.896 47.304ZM295.408 44.552L295.088 42.76H295.024C295.088 43.144 295.088 43.464 295.152 43.848L295.728 47.048C295.792 47.304 295.92 47.56 296.24 47.624C296.88 47.816 297.392 48.264 297.776 48.776C297.904 48.968 298.16 49.224 298.352 49.416C298.544 49.544 298.672 49.608 298.8 49.352L297.584 48.328C297.136 47.88 296.624 47.496 296.368 46.856L295.664 45.128C295.664 45 295.664 44.872 295.664 44.808C295.664 44.616 295.472 44.744 295.472 44.68C295.408 44.68 295.408 44.616 295.408 44.552ZM301.744 51.272L301.104 50.952C300.784 50.888 300.784 50.888 300.464 51.208L300.848 51.464C301.296 51.784 301.296 51.784 301.744 51.272ZM300.272 47.816L299.312 47.176C299.312 47.56 299.504 48.008 299.888 48.328L300.272 47.816ZM305.2 44.04L304.88 44.424L305.264 44.68C305.328 44.424 305.328 44.232 305.328 44.04C305.328 44.04 305.264 44.04 305.2 44.04ZM290.352 13.64C290.352 13.704 290.352 13.704 290.352 13.704L291.12 13.832V13.704C290.864 13.576 290.608 13.64 290.352 13.64ZM292.656 25.416V25.672V25.416ZM331.035 52.808C331.035 52.296 331.035 51.656 331.291 51.208C331.547 50.568 331.355 50.12 330.971 49.672L330.715 49.48C330.459 49.864 330.395 50.12 330.331 50.44C330.331 50.952 330.331 51.336 330.267 51.784L329.883 53C329.755 53 329.627 53.064 329.371 53.064L329.563 50.696C329.435 50.696 329.371 50.696 329.243 50.76C329.243 50.568 329.115 50.44 328.987 50.312C328.795 50.12 328.603 49.864 328.603 49.48C328.539 49.16 328.411 48.776 328.411 48.52V47.944C328.347 48.008 328.219 48.008 328.155 48.008C328.155 48.712 328.155 49.288 328.155 49.928C328.219 49.928 328.219 49.992 328.283 49.992L328.411 49.736H328.475C328.411 50.44 328.603 51.208 328.347 51.976L328.155 51.4L327.643 51.208L327.771 49.544L327.899 47.816C327.515 47.88 327.387 48.008 327.387 48.264C327.451 48.648 327.515 48.968 327.515 49.288V50.056C327.259 49.992 327.067 49.8 327.131 49.544C327.131 49.032 326.939 48.648 326.747 48.264C326.555 47.752 326.491 47.304 326.555 46.792C326.683 46.088 326.747 45.256 326.811 44.488L327.195 40.456L327.579 34.76C327.643 33.736 327.643 32.712 327.579 31.688C327.387 30.216 327.259 28.808 327.131 27.336C326.939 26.376 326.619 25.416 326.171 24.52L325.979 24.2C325.467 24.456 325.083 24.84 324.763 25.16C324.763 25.224 324.699 25.352 324.699 25.352C324.891 25.416 324.763 25.544 324.699 25.672L323.675 26.696C323.547 26.888 323.419 27.08 323.291 27.272C322.587 28.424 321.947 29.512 321.435 30.792C321.307 31.112 321.179 31.368 321.115 31.624C321.115 31.752 320.923 31.944 321.051 32.2C321.115 32.264 321.051 32.456 320.987 32.648L320.603 33.928C320.347 34.632 320.347 35.336 320.347 36.04L320.475 39.368L320.603 45.384C320.667 46.92 320.795 48.456 320.859 49.928C320.859 50.184 320.859 50.568 320.603 50.824C320.475 50.952 320.411 51.208 320.411 51.336C320.347 51.848 320.027 52.168 319.579 52.36L318.171 52.936C318.107 52.424 318.171 52.04 318.171 51.528C318.235 51.144 318.299 50.632 318.299 50.12C318.363 49.992 318.299 49.736 318.107 49.736C317.659 50.504 317.531 51.4 317.531 52.36C317.531 52.616 317.467 53 317.467 53.384C317.403 53.512 317.275 53.64 317.083 53.64C316.827 53.64 316.571 53.64 316.315 53.64L316.059 52.808L315.739 52.616L315.483 52.872H315.419C315.227 52.616 315.227 52.424 315.035 52.424C314.971 52.36 314.907 52.168 314.843 52.04C314.715 51.656 314.587 51.208 314.267 50.952C314.203 50.824 314.139 50.568 314.139 50.376C314.139 49.992 314.011 49.8 313.819 49.48C313.691 49.352 313.563 49.096 313.563 48.904C313.499 48.392 313.243 47.88 313.051 47.368C312.987 47.112 312.923 46.792 312.923 46.536C312.923 42.184 312.923 37.832 313.115 33.416C313.243 30.6 313.307 27.848 313.499 25.032C313.627 21 313.819 17.032 314.011 13C314.139 11.592 314.331 10.248 314.523 8.84C314.651 8.2 314.779 7.56 315.227 7.048C315.227 6.984 315.227 6.856 315.291 6.728C315.419 6.28 315.611 5.96 315.995 5.704C316.251 5.96 316.379 6.216 316.635 6.472C316.827 6.024 316.699 5.448 316.955 5C317.147 5.256 317.147 5.512 317.019 5.896C316.827 6.216 316.955 6.408 317.339 6.664C317.467 6.6 317.531 6.472 317.595 6.408V7.816C318.043 7.368 318.235 6.792 318.747 6.408C318.875 6.536 318.939 6.664 318.939 6.728C319.131 7.24 319.259 7.688 319.323 8.2C319.387 9.16 319.387 10.184 319.387 11.144C319.387 12.36 319.323 13.576 319.323 14.856C319.323 15.432 319.387 15.944 319.387 16.584L319.515 18.376C319.899 18.12 320.219 17.864 320.091 17.352C320.091 17.16 320.155 16.968 320.219 16.776L320.347 17.672C320.603 17.608 320.667 17.48 320.859 17.352C321.755 16.84 322.715 16.392 323.803 16.264C324.123 16.2 324.443 16.264 324.763 16.328C324.891 16.328 325.147 16.456 325.147 16.712C325.147 16.84 325.211 16.904 325.211 16.968C325.467 17.352 325.467 17.352 325.979 17.288C327.131 17.16 328.155 17.288 328.923 18.312C329.051 18.376 329.179 18.376 329.371 18.376C329.819 18.376 330.267 18.632 330.587 19.08L332.251 20.808C332.763 21.256 333.019 21.896 333.339 22.536C334.043 24.392 334.427 26.248 334.555 28.168L334.683 30.472C334.683 31.816 334.747 33.224 334.939 34.632C335.259 37 335.259 39.432 335.195 41.8L334.875 48.776C334.811 49.288 334.747 49.864 334.683 50.312C334.683 50.696 334.555 50.952 334.235 51.08L333.019 51.592C332.955 51.656 332.827 51.656 332.699 51.528C332.507 51.4 332.379 51.464 332.251 51.656L331.867 52.104L331.675 52.424C331.547 52.872 331.547 52.872 331.035 52.808ZM319.131 41.672C319.131 41.672 319.067 41.672 319.003 41.672L318.811 42.888C318.811 43.784 318.747 44.616 318.683 45.448C318.619 45.704 318.619 45.96 318.619 46.216V46.92C318.683 47.176 318.683 47.368 318.683 47.56H318.747C318.875 45.576 319.003 43.656 319.131 41.672ZM321.819 19.08C321.819 19.016 321.819 19.016 321.755 18.952C321.371 19.144 321.115 19.4 320.795 19.592C320.411 19.784 320.347 20.104 320.539 20.552L321.819 19.08ZM321.243 25.928C321.819 25.672 322.331 25.16 322.459 24.456C321.819 24.776 321.563 25.416 321.243 25.928ZM319.515 21.96C320.027 21.512 319.963 21 319.899 20.552C319.387 20.808 319.515 21.32 319.515 21.96ZM330.011 24.456C329.947 23.688 329.691 23.24 329.243 22.664C329.307 23.176 329.691 24.2 330.011 24.456ZM332.699 22.92C332.635 22.408 332.507 22.024 332.187 21.768C332.379 22.088 332.507 22.472 332.699 22.92ZM327.963 46.472C328.027 46.472 328.027 46.472 328.027 46.472C328.091 46.408 328.091 46.344 328.091 46.344C328.091 46.344 328.027 46.28 327.963 46.152V46.344C327.963 46.344 327.963 46.408 327.963 46.472ZM321.115 42.12V44.872V42.12ZM112.275 100.592L112.339 100.656V100.4L111.827 100.592C111.763 100.464 111.763 100.4 111.571 100.336L111.763 100.784C111.955 101.232 112.019 101.232 111.507 101.488C111.315 101.296 111.059 100.912 110.867 100.592C110.547 99.824 110.163 99.056 109.907 98.16C109.267 96.496 108.627 94.768 107.731 93.296C107.411 92.656 106.899 92.272 106.451 91.888C105.939 92.08 105.683 92.528 105.363 92.912C104.275 94.32 104.019 95.92 103.827 97.712C103.763 99.376 104.147 100.784 104.979 102.128C105.875 103.664 106.771 105.2 107.795 106.672C109.267 108.912 110.547 111.28 111.763 113.712C112.019 114.16 112.275 114.8 112.467 115.312C112.915 116.592 113.363 117.808 113.811 119.024C114.387 120.752 114.771 122.416 114.963 124.08C115.027 125.808 114.707 127.344 113.555 128.624C113.299 129.008 113.107 129.328 112.915 129.776C112.339 131.184 111.378 132.4 109.843 133.104C109.203 133.424 108.627 133.68 108.051 134C107.347 134.448 106.515 134.576 105.683 134.384C104.659 134.064 103.635 133.616 102.611 133.168C102.547 133.168 102.419 133.04 102.291 132.912C102.483 132.912 102.611 132.912 102.867 132.912C102.291 132.4 101.779 131.888 101.075 131.696C101.075 131.632 101.01 131.632 100.947 131.632C100.435 131.76 100.179 131.44 99.9225 131.12C99.4105 130.608 98.8985 130.096 98.5785 129.52C97.9385 128.432 96.9145 127.408 96.4665 126.192C95.8905 124.912 95.4425 123.504 95.1225 122.032C94.7385 120.112 94.4825 118.192 94.3545 116.272C94.2905 115.888 94.3545 115.504 94.4825 115.184C94.4825 114.992 94.6745 114.8 94.7385 114.672C94.8025 114.544 94.9305 114.416 94.9945 114.352C95.3145 113.904 95.6985 113.712 96.3385 113.84C96.5945 113.968 96.7865 113.968 96.9785 113.712C97.2345 113.328 97.6825 113.456 98.0025 113.456C98.2585 112.944 98.6425 112.816 99.2825 113.008C99.3465 113.264 99.3465 113.456 99.1545 113.648C99.2185 113.712 99.2185 113.712 99.2185 113.712L99.7945 114.16C99.7305 114.672 99.9865 115.184 99.7945 115.632C99.6665 115.76 99.6665 115.888 99.6665 116.08C99.9225 117.616 100.115 119.088 100.435 120.688C100.627 121.712 101.01 122.672 101.395 123.696C101.587 124.272 101.907 124.784 102.227 125.232L102.419 125.552C102.419 125.552 102.483 125.488 102.547 125.488C102.483 125.36 102.483 125.36 102.483 125.232C101.97 123.888 101.715 122.48 101.587 121.2L100.883 117.488L100.371 114.608L100.051 113.392C100.051 113.264 99.9865 113.2 99.9865 113.008C100.307 112.816 100.562 113.008 100.819 112.944C100.883 113.2 100.883 113.328 100.947 113.456C101.01 113.584 101.075 113.712 101.267 113.84C101.523 113.968 101.651 114.032 101.395 114.288L101.779 114.608C102.035 114.672 102.163 114.8 102.099 115.12C102.035 115.184 102.099 115.248 102.163 115.312C102.803 116.144 102.867 117.104 102.995 118.064L103.571 121.84C103.955 123.44 104.403 124.912 105.235 126.128L105.683 126.832C105.747 126.576 105.875 126.384 105.939 126.192C106.387 124.912 106.451 123.632 106.259 122.288C106.003 119.792 105.299 117.488 104.467 115.184C104.275 114.672 104.019 114.16 103.763 113.776C102.419 111.728 101.075 109.744 99.7945 107.696C98.8345 106.224 98.0025 104.688 97.4265 103.024C96.7865 101.232 96.4665 99.376 96.4025 97.392C96.3385 96.496 96.2745 95.536 96.4025 94.64C96.5305 92.976 96.9785 91.376 97.9385 89.904C98.1305 89.52 98.2585 89.072 98.0025 88.56C97.9385 88.432 98.0025 88.368 98.0025 88.24C98.5785 87.28 99.1545 86.448 99.9865 85.808C100.179 85.68 100.371 85.552 100.627 85.744C100.755 85.872 101.01 85.872 101.139 85.808C101.331 85.808 101.459 85.936 101.587 86.128C100.627 86.576 99.7945 87.152 99.2825 88.048C99.9225 87.536 100.562 87.152 101.331 86.96C101.715 86.832 102.035 86.64 102.291 86.384C102.803 85.936 103.315 85.552 104.019 85.296L104.339 85.104C103.891 84.912 103.379 84.976 102.931 84.976C103.507 84.784 104.147 84.784 104.723 84.848C105.491 84.976 106.259 85.04 107.027 85.04C107.859 85.104 108.691 85.424 109.458 85.808C110.291 86.192 111.123 86.832 111.571 87.664C111.635 87.792 111.763 87.92 111.827 87.92C112.467 88.432 112.915 88.88 113.299 89.456C113.299 89.456 113.363 89.52 113.491 89.584C113.235 88.88 112.723 88.432 112.403 87.92L112.915 88.368V87.92L113.299 88.432C113.939 89.136 114.323 90.096 114.579 91.056L114.899 92.528L115.155 93.872C115.667 95.344 115.795 96.816 115.539 98.288C115.411 99.056 115.155 99.568 114.707 100.208L114.259 100.848C114.195 100.976 114.195 101.04 114.067 101.104C113.811 101.232 113.683 101.36 113.555 101.68C113.491 101.808 113.235 101.808 113.043 101.808C112.979 101.552 113.235 101.168 112.787 101.04L112.659 101.424L112.275 100.592ZM101.587 102.64C101.459 102.512 101.395 102.32 101.331 102.192C101.331 102.192 101.331 102.256 101.267 102.256C101.587 102.704 101.587 102.832 101.587 102.896C102.291 103.984 102.867 105.072 103.507 106.16L103.699 106.224C103.763 106.48 103.955 106.672 104.083 106.928C104.083 106.928 104.083 106.928 104.147 106.864C104.083 106.672 103.955 106.416 103.699 106.224C103.571 105.968 103.507 105.712 103.443 105.52L101.779 102.896C101.715 102.768 101.587 102.768 101.587 102.64ZM109.587 126.32C109.779 126.128 109.843 126.064 109.907 125.872C110.291 125.36 110.355 124.912 110.163 124.272C109.907 123.696 109.843 123.184 110.099 122.48L110.163 122.032C110.355 121.008 110.547 120.048 110.099 119.024V118.832C109.907 117.68 109.587 116.592 109.139 115.632C108.947 115.184 108.755 114.672 108.562 114.224C108.371 114.352 108.435 114.48 108.371 114.608C108.115 114.864 108.307 115.12 108.371 115.312C108.691 116.272 108.947 117.168 109.203 118.064C109.523 119.28 109.651 120.56 109.715 121.776C109.779 122.544 109.843 123.376 109.587 124.08C109.395 124.848 109.587 125.552 109.587 126.32ZM107.795 121.008C107.795 121.712 107.795 122.48 107.859 123.184C107.859 123.888 107.731 124.656 107.859 125.36C108.115 124.912 108.371 124.336 108.243 123.76L107.987 121.648C107.923 121.392 107.859 121.264 107.795 121.008ZM101.075 130.992C100.819 130.416 100.371 130.16 99.4745 129.968C99.9225 130.48 100.435 130.8 101.075 130.992ZM105.811 109.936C105.619 109.04 104.979 108.336 104.531 107.568C104.467 107.568 104.467 107.632 104.467 107.632C104.979 108.336 105.363 109.104 105.811 109.936ZM111.507 99.568C111.507 99.632 111.443 99.632 111.443 99.696C111.507 99.76 111.507 99.824 111.507 99.952C111.571 99.824 111.635 99.824 111.571 99.824C111.571 99.696 111.507 99.632 111.507 99.568ZM112.275 100.592C112.339 100.784 112.275 100.912 112.083 101.04C112.019 100.784 112.211 100.656 112.339 100.656L112.275 100.592ZM147.384 103.472C147 104.176 146.552 104.688 146.232 105.392C145.528 106.672 144.952 108.016 144.824 109.552C144.76 110.32 144.568 110.96 144.44 111.6L143.8 118.192L143.608 119.92C143.608 120.368 143.672 120.88 143.736 121.264C143.8 122.288 143.8 123.184 143.544 124.144C143.288 124.976 143.096 125.936 143.224 126.896C143.288 127.024 143.224 127.088 143.224 127.216C143.224 127.28 143.224 127.344 143.224 127.344C142.52 127.664 142.392 127.6 142.264 126.832C142.136 125.36 142.136 123.888 142.136 122.48C142.2 121.776 142.072 121.072 142.008 120.304C142.008 120.304 141.944 120.304 141.88 120.304C141.88 121.008 141.88 121.712 141.816 122.416C141.688 123.696 141.88 124.976 141.944 126.32C142.008 126.832 142.008 127.344 142.008 127.792C142.072 127.856 142.008 128.048 142.072 128.048C142.456 128.432 142.264 128.88 142.392 129.328L142.456 129.904C142.584 129.52 142.584 129.008 142.776 128.56C142.84 129.264 142.904 129.84 142.84 130.48C142.84 130.544 142.84 130.608 142.776 130.672C142.456 130.8 142.52 131.056 142.584 131.376C142.584 131.888 142.584 131.888 142.008 132.016C141.816 130.992 141.944 129.776 142.136 128.56C141.624 128.944 141.304 129.328 140.92 129.712C140.92 129.776 140.92 129.904 140.92 130.032V130.736C140.664 130.608 140.664 130.736 140.6 130.928L140.152 132.144C140.152 132.208 140.152 132.272 140.024 132.528C139.96 132.208 139.832 132.144 139.832 131.952C139.832 131.44 139.512 130.992 139.256 130.736C139 130.288 138.872 129.84 138.744 129.456C138.616 129.2 138.488 128.944 138.36 128.688C138.36 128.752 138.296 128.88 138.36 129.008C138.424 129.776 138.488 130.48 138.616 131.184C138.616 131.44 138.68 131.824 138.488 132.144C138.232 131.696 137.976 131.376 138.04 130.928C138.104 129.968 138.04 129.008 137.976 128.112C137.912 127.536 137.72 127.024 137.656 126.32C137.72 126.832 137.72 127.344 137.72 127.728C137.72 128.176 137.72 128.56 137.656 129.072C137.656 129.52 137.528 129.968 137.528 130.416C136.824 130.48 136.696 130.288 136.503 129.776L136.312 129.328L135.736 128.496C135.608 128.368 135.608 128.24 135.608 128.048L134.904 116.464L134.072 106.864C134.072 105.968 133.752 105.136 133.432 104.24L133.176 103.728L132.728 104.24C131.192 106.288 130.104 108.4 129.4 110.768C128.76 112.816 128.44 114.928 128.184 117.04C128.12 117.36 128.12 117.616 128.184 117.872L128.952 125.104C129.016 126.128 129.016 127.28 129.016 128.304C129.016 128.56 128.952 128.688 128.888 128.944L128.696 129.904C128.696 130.16 128.632 130.48 128.44 130.672C128.312 130.736 128.248 130.928 128.248 130.992C128.056 131.568 128.056 131.568 127.544 131.824L127.095 131.056C127.095 131.696 127.352 132.208 127.224 132.912L124.856 133.552C124.408 133.168 124.536 132.528 124.344 132.016L124.024 132.208L123.768 131.76L123.448 132.4C123 132.336 122.808 131.952 122.616 131.504C122.552 131.312 122.424 131.184 122.296 130.992L121.72 129.968C121.528 129.648 121.464 129.264 121.208 128.88C120.76 128.112 120.696 127.216 120.696 126.32C120.376 123.44 120.12 120.624 119.864 117.808C119.672 115.568 119.608 113.328 119.608 111.024C119.608 110.768 119.672 110.448 119.736 110.192C119.799 108.272 120.12 106.416 120.184 104.56C120.184 103.984 120.376 103.408 120.44 102.832L120.76 100.272C120.952 99.568 121.144 98.864 121.336 98.16L121.464 97.328L122.04 95.28C122.168 95.024 122.232 94.704 122.68 94.576L123.192 95.408L123.896 95.024L124.344 95.728C124.408 95.664 124.536 95.472 124.664 95.408L125.112 96.176L125.368 95.92C125.56 95.984 125.752 95.984 126.072 95.984C126.072 96.176 126.135 96.368 126.135 96.496C126.072 97.136 126.2 97.712 126.392 98.288C126.584 98.864 126.584 99.376 126.584 100.016C126.584 100.208 126.648 100.336 126.648 100.592L126.904 100.272L127.992 98.864C128.76 98.032 129.72 97.456 130.744 97.136C131.576 96.88 132.344 96.944 132.92 97.52C133.304 97.904 133.624 98.16 133.944 98.48C134.072 98.672 134.264 98.736 134.583 98.736C135.032 98.736 135.416 98.544 135.8 98.352C137.144 97.904 138.808 99.12 138.936 100.08C138.616 99.952 138.424 99.568 138.168 99.376C137.848 99.12 137.528 98.928 137.144 98.928C137.208 98.992 137.272 99.056 137.336 99.056C137.976 99.376 138.424 99.888 138.744 100.592L139.192 102C139.256 102.128 139.256 102.256 139.384 102.384C139.512 101.936 139.704 101.616 139.896 101.232C140.024 100.72 140.28 100.336 140.472 99.824C140.6 99.696 140.664 99.568 140.856 99.504L141.88 98.608C141.88 98.544 141.944 98.48 141.944 98.416C142.52 97.136 143.416 96.24 144.504 95.472L145.016 95.152C145.592 94.832 146.232 94.896 146.744 95.472C147 95.664 147.192 95.728 147.448 95.664C147.704 95.6 147.96 95.728 148.28 95.728C148.472 95.728 148.536 95.792 148.664 95.792C149.24 95.728 149.752 95.856 150.2 96.176L152.248 97.392C152.696 97.648 153.08 98.16 153.4 98.608C154.232 99.824 154.744 101.296 155.192 102.768C155.448 103.536 155.576 104.368 155.832 105.2C155.896 105.456 155.96 105.712 155.96 105.968C156.984 108.528 157.496 111.088 157.752 113.776C157.944 115.888 158.072 118 158.2 120.112C158.2 120.752 158.136 121.392 158.136 122.032C158.072 122.672 158.008 123.248 158.008 123.888C157.944 125.168 157.944 126.448 157.944 127.792C157.944 128.048 157.88 128.304 158.136 128.496L158.2 128.624C158.2 129.2 158.2 129.712 158.008 130.224C158.008 129.776 157.944 129.328 157.944 128.88C157.56 129.2 157.88 129.776 157.24 129.968V130.992C157.304 131.376 157.176 131.568 156.92 131.76C156.728 131.888 156.664 132.016 156.472 132.144C156.152 132.016 155.96 131.76 155.768 131.44V133.424C155.384 133.552 155.319 133.552 155.319 133.232C155.256 132.976 155.256 132.656 155.256 132.4H155.192C155.064 132.656 155 132.912 155 133.232C154.744 132.784 154.872 132.4 154.872 131.952C154.808 131.504 154.936 131.12 154.936 130.736V129.328L154.424 129.456V134.128L153.72 134.384C153.656 134.128 153.656 134 153.656 133.808C153.784 131.824 153.72 129.776 153.656 127.792C153.656 127.088 153.784 126.256 153.784 125.488C153.847 124.4 153.912 123.312 153.912 122.224C153.912 120.944 153.912 119.664 153.847 118.448C153.784 116.528 153.656 114.672 153.4 112.752C153.4 112.496 153.336 112.304 153.272 112.048C153.208 112.112 153.208 112.176 153.208 112.24C153.144 113.008 153.144 113.904 153.144 114.736C153.144 115.312 153.272 115.952 153.336 116.592C153.464 117.232 153.336 117.872 153.336 118.576C153.336 118.768 153.336 118.896 153.336 119.088C153.528 120.88 153.528 122.608 153.528 124.4C153.528 125.616 153.464 126.768 153.464 127.92C153.464 128.624 153.4 129.456 153.4 130.224C153.4 130.416 153.336 130.544 153.208 130.672C153.144 130.672 153.144 130.672 153.144 130.672C152.888 130.928 152.568 131.12 152.376 131.44C152.312 131.696 152.312 132.08 152.312 132.464C152.312 132.208 152.248 131.952 152.184 131.696H152.12L151.8 133.168H151.672L151.544 132.208C151.352 132.208 151.224 132.208 151.096 132.208C150.904 132.208 150.648 132.016 150.583 131.696C150.52 131.568 150.456 131.44 150.392 131.312C149.816 130.8 149.752 130.032 149.624 129.328C149.368 127.984 149.432 126.576 149.432 125.296C149.432 121.264 149.432 117.104 149.432 113.072C149.368 111.088 149.24 109.104 148.92 107.12C148.728 106.16 148.344 105.2 148.024 104.24C147.96 103.92 147.768 103.664 147.64 103.28C147.448 103.408 147.448 103.472 147.384 103.536C147.448 103.344 147.448 103.216 147.512 103.024L146.936 102.192C146.232 102.512 145.656 103.216 145.4 103.856C144.824 105.392 144.376 106.864 144.056 108.464L143.928 108.976C144.184 108.592 144.312 108.272 144.504 107.888C145.144 106.544 145.976 105.2 146.936 103.92C147 103.728 147.256 103.664 147.384 103.472ZM142.84 113.52H142.968L143.8 106.416L143.736 106.48L143.544 106.864C143.096 108.08 142.84 109.296 142.584 110.576C142.456 111.536 142.648 112.56 142.84 113.52ZM143.736 98.672C143.8 98.736 143.8 98.736 143.864 98.736L143.928 98.672C144.44 98.288 144.952 97.968 145.592 97.968C145.656 97.968 145.784 97.904 145.784 97.904L146.424 97.136C145.912 96.496 144.888 96.752 144.312 97.392L144.76 97.648C144.376 98.032 144.056 98.352 143.736 98.672ZM153.784 110.32L152.824 108.784L153.016 110.192C153.016 110.256 153.08 110.32 153.08 110.384L153.4 111.408C153.528 111.6 153.528 111.856 153.528 112.112C153.656 111.856 153.72 111.6 153.784 111.408C154.04 111.024 153.976 110.64 153.784 110.32ZM151.928 102.896L152.504 107.12C152.696 105.904 152.312 103.472 151.928 102.896ZM145.016 96.304C144.248 96.368 143.8 96.944 143.352 97.584C144.056 97.392 144.504 96.688 145.016 96.304ZM122.68 95.792C122.424 95.92 122.296 96.176 122.424 96.688C122.616 96.432 122.936 96.176 122.68 95.792ZM128.184 100.4L127.992 100.336L127.416 101.296C127.48 101.296 127.48 101.36 127.544 101.36C127.8 101.04 127.992 100.72 128.184 100.4ZM151.992 97.904L152.504 98.544C152.504 98.544 152.568 98.48 152.568 98.416C152.44 98.224 152.312 98.032 152.12 97.84C152.12 97.904 152.056 97.904 151.992 97.904ZM126.776 102L127.032 101.36C126.776 101.552 126.712 101.68 126.776 102ZM122.936 95.088C122.872 95.088 122.808 95.152 122.808 95.152C122.808 95.216 122.808 95.344 122.872 95.472C123.128 95.344 122.936 95.216 122.936 95.088ZM170.358 112.368C170.358 112.752 170.358 113.008 170.358 113.456C172.534 111.536 175.03 110.384 177.91 110.128C177.91 110 177.91 109.808 177.91 109.68C177.91 108.336 177.974 107.056 177.91 105.712C177.91 105.136 177.654 104.432 177.526 103.92C177.398 103.6 177.27 103.28 177.142 103.024C176.885 102 176.118 101.424 175.222 100.912C174.966 100.784 174.646 100.784 174.39 100.976C173.43 101.808 172.406 102.576 171.83 103.728C171.382 104.496 170.998 105.392 170.614 106.16C170.358 106.672 170.102 107.312 169.845 107.888C169.718 108.016 169.59 108.144 169.398 108.208C169.142 108.272 168.95 108.336 168.694 108.336C168.438 108.4 168.246 108.464 168.31 108.848C167.798 108.848 167.35 108.848 166.966 108.784C166.838 108.72 166.71 108.656 166.646 108.592C166.39 108.144 166.07 107.824 165.878 107.376C165.75 107.12 165.686 106.864 165.622 106.672C165.174 104.304 165.174 102.064 165.814 99.824C166.198 98.416 166.774 97.136 167.926 96.176C169.59 94.64 171.574 94 173.942 94.768C174.646 95.024 175.478 95.28 176.182 95.536C176.31 95.6 176.438 95.664 176.566 95.664C177.014 95.6 177.526 95.728 177.974 95.92C178.87 96.432 179.702 96.88 180.534 97.392C181.43 97.904 182.07 98.672 182.518 99.632C182.582 99.824 182.71 99.888 182.774 100.016C183.158 100.528 183.478 100.976 183.926 101.488C184.054 101.616 184.118 101.744 184.31 101.872C184.31 101.68 184.246 101.488 184.246 101.296C184.694 102.192 184.758 103.088 184.95 104.112C185.014 104.624 185.142 105.2 185.27 105.712C185.846 107.888 185.91 109.936 185.718 112.048C185.654 111.344 185.654 110.512 185.59 109.808C185.59 109.808 185.59 109.808 185.526 109.808C185.462 111.472 185.398 113.008 185.398 114.672C185.398 115.056 185.398 115.12 185.91 115.184C186.102 114.672 185.974 114.096 186.102 113.584C186.166 114.864 186.166 116.144 186.166 117.488C186.166 119.984 186.166 122.48 186.166 124.912C186.166 126.448 186.166 128.048 186.166 129.648C186.166 130.608 186.614 131.312 186.934 132.208C187.062 132.592 187.126 132.912 187.126 133.36C187.062 133.488 187.126 133.744 187.126 134.064C187.19 134.576 187.062 135.024 186.742 135.472C186.678 135.6 186.614 135.728 186.55 135.856C186.422 136.048 186.294 136.304 186.422 136.688C186.422 136.816 186.486 137.008 186.486 137.072C186.486 137.264 186.422 137.392 186.166 137.52C186.102 137.072 186.102 136.624 186.038 136.112C185.91 135.728 185.526 135.216 185.078 135.088C185.014 135.28 184.886 135.536 184.758 135.792C184.886 136.688 185.334 137.456 185.142 138.416C185.078 138.608 184.822 138.8 184.694 138.928C184.31 138.48 184.118 138.16 183.926 137.712C183.798 138.224 183.798 138.288 183.414 138.352C183.35 138.48 183.35 138.608 183.35 138.736C183.222 138.672 183.094 138.544 182.966 138.416C182.39 138.736 182.326 138.288 182.006 137.904C181.686 137.904 181.366 137.904 181.174 137.52C181.11 137.392 181.046 137.264 180.918 137.328C180.47 137.072 179.958 136.368 179.638 136.048C178.486 134.896 178.102 132.912 177.91 131.76C177.398 132.016 177.718 132.464 177.526 132.848C177.462 132.592 177.398 132.4 177.398 132.208C177.27 132.208 177.142 132.208 177.078 132.336C176.758 132.592 176.438 132.912 176.054 133.168C175.03 134.064 173.878 134.512 172.598 134.832C172.406 134.832 172.15 134.896 171.958 135.024C171.126 135.344 170.358 135.6 169.398 135.6C168.694 135.536 168.182 135.28 167.606 134.832C167.286 134.64 166.966 134.576 166.646 134.32C165.558 133.488 164.534 132.592 163.894 131.312C163.766 131.056 163.574 130.8 163.446 130.544C162.806 129.008 162.102 127.536 161.974 125.872C161.91 125.168 161.974 124.592 162.23 123.952C162.742 122.864 163.318 121.776 164.022 120.88C164.278 120.496 164.406 120.24 164.278 119.856C164.15 119.536 164.214 119.28 164.342 118.96C164.534 118.768 164.598 118.512 164.726 118.256C164.79 118 164.982 117.744 164.982 117.424C164.982 117.36 164.982 116.976 165.366 117.104H165.43C165.75 116.592 166.006 116.144 166.326 115.632C166.454 115.504 166.454 115.376 166.582 115.248C167.606 114.16 168.758 113.328 169.974 112.56C170.102 112.496 170.23 112.496 170.358 112.368ZM171.062 128.496C172.022 127.792 173.046 127.28 174.006 126.576C175.03 125.872 176.118 124.976 177.142 124.272C177.398 124.144 177.398 123.888 177.398 123.696C177.462 121.264 177.59 118.768 177.654 116.272C177.654 116.08 177.654 115.888 177.654 115.632C176.95 115.952 176.566 116.4 176.118 116.848C174.966 118.064 173.878 119.472 172.982 120.944C171.958 122.544 171.062 124.336 170.614 126.192C170.486 126.576 170.422 127.024 170.358 127.344C170.358 127.856 170.55 128.24 171.062 128.496ZM165.11 119.28C165.75 118.512 166.518 117.808 167.094 116.976C166.966 116.848 166.838 116.784 166.71 116.656C166.07 117.552 165.558 118.32 165.11 119.28ZM183.414 105.648C183.286 106.864 183.606 109.296 183.99 109.808C183.862 108.4 183.734 107.12 183.414 105.648ZM181.302 99.632C180.79 99.12 180.342 98.608 179.894 98.544C180.406 99.44 180.086 99.248 181.302 99.632ZM183.35 136.752C183.414 136.752 183.414 136.752 183.414 136.752C183.478 135.984 183.222 135.472 182.774 134.96C182.71 134.96 182.71 134.96 182.646 135.024C182.902 135.664 183.094 136.176 183.35 136.752ZM182.71 104.24C182.774 103.344 182.454 102.64 181.942 102.256C182.198 102.96 182.454 103.6 182.71 104.24ZM174.39 133.488C174.39 133.424 174.39 133.424 174.39 133.424C174.006 133.552 173.622 133.808 173.43 134.192C173.75 134 174.07 133.744 174.39 133.488ZM170.678 99.568C170.23 99.76 170.102 99.824 169.845 100.272C170.166 100.016 170.55 99.888 170.678 99.568ZM167.67 116.528C168.118 116.4 168.118 116.4 168.182 116.016C167.99 116.208 167.862 116.4 167.67 116.528ZM195.284 134.64L195.156 133.488L194.58 133.616C194.516 133.616 194.516 133.616 194.516 133.616C194.452 133.68 194.388 133.872 194.196 134C194.196 133.808 194.068 133.616 194.004 133.488C193.684 133.552 193.492 133.36 193.492 132.976C193.428 132.656 193.3 132.464 193.044 132.336C192.852 132.208 192.724 131.952 192.66 131.696C192.404 130.992 192.212 130.096 192.404 129.264C192.532 128.368 192.404 127.472 192.276 126.576C192.148 125.104 191.956 123.632 191.764 122.096L191.572 120.304C191.508 118.576 191.252 116.848 190.996 115.12C190.868 114.288 190.804 113.456 190.804 112.688C190.804 109.36 190.804 106.16 190.804 102.96C190.868 100.592 191.06 98.288 191.252 95.984C191.316 94.896 191.316 93.744 191.444 92.656C191.572 90.992 191.7 89.392 192.084 87.664L192.532 86.064C192.596 85.936 192.66 85.744 192.724 85.552C192.852 85.232 192.916 85.232 193.236 85.36L193.556 85.168C193.94 85.232 193.94 85.744 194.196 86L194.836 85.744C194.836 85.936 194.836 86 194.9 86.192C194.964 86.192 195.028 86.192 195.092 86.192C195.156 86.256 195.22 86.448 195.284 86.448C195.412 86.384 195.412 86.256 195.476 86.192L195.668 86C196.052 86.064 196.372 86.32 196.372 86.768C197.012 86.768 197.332 87.216 197.396 87.664C197.588 88.624 197.652 89.648 197.716 90.736L197.844 94.512C197.908 95.92 198.036 97.392 198.164 98.864C198.484 101.808 198.612 104.816 198.548 107.888C198.484 108.464 198.612 109.104 198.612 109.744C198.74 111.408 198.804 113.008 198.868 114.672L199.124 118C199.572 121.52 199.764 125.104 200.02 128.688V129.968C200.02 130.096 200.02 130.224 199.956 130.352L199.636 131.376C199.572 131.824 199.316 132.208 198.932 132.4C198.676 132.592 198.356 132.784 198.1 132.912C197.844 133.104 197.652 133.296 197.716 133.552C197.716 133.872 197.588 134.064 197.268 134.128C196.628 134.32 196.052 134.512 195.284 134.64ZM192.724 118.512L193.172 119.536H193.236V118.576C193.236 118.256 193.3 117.936 193.492 117.616C193.62 117.488 193.62 117.296 193.62 117.104L193.3 113.328C193.236 112.688 193.236 111.984 193.428 111.28C193.556 110.896 193.556 110.448 193.556 110.064L193.3 106.032C193.108 103.728 193.236 101.36 192.724 99.12C192.724 98.608 192.66 98.096 192.532 97.392C192.468 97.904 192.34 98.16 192.34 98.544C192.276 99.504 192.276 100.528 192.276 101.552C192.276 103.664 192.276 105.776 192.276 107.888C192.276 108.848 192.34 109.872 192.404 110.768C192.404 111.536 192.468 112.24 192.532 112.944C192.532 113.2 192.468 113.392 192.404 113.712C192.276 113.52 192.276 113.456 192.276 113.392C192.276 116.144 192.276 118.832 192.532 121.712C192.788 121.328 192.788 121.136 192.788 120.752C192.724 120.048 192.724 119.28 192.724 118.576V118.512ZM197.396 103.024L197.524 104.56C197.588 103.856 197.588 103.216 197.396 103.024ZM208.472 134.64L208.344 133.488L207.768 133.616C207.704 133.616 207.704 133.616 207.704 133.616C207.64 133.68 207.576 133.872 207.384 134C207.384 133.808 207.256 133.616 207.192 133.488C206.872 133.552 206.68 133.36 206.68 132.976C206.616 132.656 206.488 132.464 206.232 132.336C206.04 132.208 205.911 131.952 205.848 131.696C205.592 130.992 205.4 130.096 205.592 129.264C205.72 128.368 205.592 127.472 205.464 126.576C205.336 125.104 205.144 123.632 204.952 122.096L204.76 120.304C204.696 118.576 204.44 116.848 204.184 115.12C204.056 114.288 203.992 113.456 203.992 112.688C203.992 109.36 203.992 106.16 203.992 102.96C204.056 100.592 204.248 98.288 204.44 95.984C204.504 94.896 204.504 93.744 204.632 92.656C204.76 90.992 204.888 89.392 205.272 87.664L205.72 86.064C205.784 85.936 205.848 85.744 205.911 85.552C206.04 85.232 206.104 85.232 206.424 85.36L206.744 85.168C207.128 85.232 207.128 85.744 207.384 86L208.024 85.744C208.024 85.936 208.024 86 208.088 86.192C208.152 86.192 208.216 86.192 208.28 86.192C208.344 86.256 208.408 86.448 208.472 86.448C208.6 86.384 208.6 86.256 208.664 86.192L208.856 86C209.24 86.064 209.56 86.32 209.56 86.768C210.2 86.768 210.52 87.216 210.584 87.664C210.776 88.624 210.84 89.648 210.904 90.736L211.032 94.512C211.095 95.92 211.224 97.392 211.352 98.864C211.672 101.808 211.8 104.816 211.736 107.888C211.672 108.464 211.8 109.104 211.8 109.744C211.928 111.408 211.992 113.008 212.056 114.672L212.312 118C212.76 121.52 212.952 125.104 213.208 128.688V129.968C213.208 130.096 213.208 130.224 213.144 130.352L212.824 131.376C212.76 131.824 212.504 132.208 212.12 132.4C211.864 132.592 211.544 132.784 211.288 132.912C211.032 133.104 210.84 133.296 210.904 133.552C210.904 133.872 210.776 134.064 210.456 134.128C209.816 134.32 209.24 134.512 208.472 134.64ZM205.911 118.512L206.36 119.536H206.424V118.576C206.424 118.256 206.488 117.936 206.68 117.616C206.808 117.488 206.808 117.296 206.808 117.104L206.488 113.328C206.424 112.688 206.424 111.984 206.616 111.28C206.744 110.896 206.744 110.448 206.744 110.064L206.488 106.032C206.296 103.728 206.424 101.36 205.911 99.12C205.911 98.608 205.848 98.096 205.72 97.392C205.656 97.904 205.528 98.16 205.528 98.544C205.464 99.504 205.464 100.528 205.464 101.552C205.464 103.664 205.464 105.776 205.464 107.888C205.464 108.848 205.528 109.872 205.592 110.768C205.592 111.536 205.656 112.24 205.72 112.944C205.72 113.2 205.656 113.392 205.592 113.712C205.464 113.52 205.464 113.456 205.464 113.392C205.464 116.144 205.464 118.832 205.72 121.712C205.976 121.328 205.976 121.136 205.976 120.752C205.911 120.048 205.911 119.28 205.911 118.576V118.512ZM210.584 103.024L210.712 104.56C210.776 103.856 210.776 103.216 210.584 103.024ZM220.699 134.384C220.699 134.384 220.635 134.32 220.443 134.256C220.699 134.128 220.763 134.128 220.891 134.128C220.955 134 221.019 133.872 221.147 133.68C220.571 133.616 220.123 133.552 219.547 133.424C219.227 133.424 219.035 133.424 218.843 133.68C218.779 133.68 218.779 133.744 218.651 133.808C218.715 133.424 218.523 133.36 218.267 133.168C218.011 132.912 217.947 132.592 217.627 132.4C217.563 132.4 217.563 132.208 217.563 132.144C217.627 132.016 217.755 131.888 217.819 131.76C217.563 131.696 217.307 131.568 217.051 131.44C216.987 131.632 216.859 131.824 216.731 131.952C216.667 131.824 216.603 131.696 216.603 131.632C216.347 131.44 216.347 131.184 216.475 130.992C216.603 130.608 216.731 130.224 216.347 129.84C216.539 129.776 216.603 129.776 216.603 129.776C216.987 129.776 216.987 129.776 216.795 129.328C217.179 129.264 217.243 129.008 217.307 128.752C218.523 125.744 219.867 122.736 221.211 119.792C223.195 115.44 225.115 111.152 226.843 106.736C227.099 106.16 227.355 105.456 227.611 104.88C227.611 104.688 227.739 104.496 227.931 104.432C228.059 104.368 228.187 104.24 228.251 104.176C228.379 104.048 228.443 103.984 228.507 103.984C228.827 103.984 228.827 103.728 228.827 103.472C228.827 102.96 229.019 102.32 229.275 101.808C229.467 101.296 229.723 100.784 229.915 100.336C229.979 100.208 229.979 100.016 230.043 99.824C229.851 99.76 229.659 99.76 229.467 99.696C227.035 99.504 224.667 99.376 222.235 99.12C221.403 99.056 220.443 98.864 219.611 98.672C219.483 98.672 219.419 98.608 219.291 98.608C218.907 98.352 218.843 98.16 219.035 97.776C219.035 97.712 219.099 97.648 219.099 97.584C218.715 97.392 218.523 96.944 218.331 96.56C218.459 96.432 218.587 96.432 218.779 96.304C218.523 96.176 218.267 96.048 218.075 95.92C217.883 95.728 217.819 95.6 217.819 95.28C217.819 94.896 217.755 94.512 217.691 94.256C217.691 94.128 217.691 94.064 217.691 93.936C218.075 93.872 218.331 93.424 218.779 93.424C219.227 93.424 219.611 93.296 220.059 93.296C222.235 93.168 224.475 93.04 226.715 93.168C229.275 93.296 231.835 93.488 234.395 93.808C235.035 93.872 235.739 94.128 236.251 94.512C236.315 94.64 236.507 94.704 236.635 94.704C237.275 94.768 237.787 94.96 238.299 95.344C238.235 95.6 238.235 95.728 238.299 95.984C238.363 96.176 238.235 96.496 238.235 96.752C238.171 96.944 238.043 97.2 237.979 97.52C237.787 97.776 237.915 98.096 238.043 98.16C238.299 98.224 238.043 98.352 238.171 98.416C238.235 98.48 238.427 98.48 238.491 98.48C238.811 98.48 238.939 98.608 238.939 98.928C238.875 99.312 238.811 99.568 238.683 99.952C238.491 101.552 237.723 102.96 237.211 104.368C236.443 106.224 235.803 108.08 235.035 109.936C234.459 111.472 233.819 112.944 233.243 114.416C232.411 116.4 231.387 118.576 230.427 120.56C229.787 122.096 229.019 123.568 228.315 125.04C228.251 125.296 228.123 125.552 227.995 125.872C228.827 126.128 229.659 126.192 230.427 126.128C231.195 126.128 231.899 126.192 232.603 126.192C232.859 126.256 233.115 126.128 233.243 126.448C233.307 126.512 233.499 126.512 233.627 126.512C235.035 126.576 236.379 126.576 237.723 126.832C238.747 126.896 239.771 127.216 240.795 127.536C240.731 127.6 240.731 127.792 240.667 127.92C240.539 127.856 240.411 127.856 240.155 127.792C240.219 127.92 240.219 128.048 240.283 128.048C240.603 128.304 240.923 128.432 241.115 128.56C241.179 128.624 241.243 128.752 241.371 128.944C241.179 129.008 241.115 129.008 240.987 129.072C241.307 129.392 241.627 129.648 241.883 129.904C241.755 130.224 241.563 130.48 241.371 130.8C241.563 130.928 241.627 130.992 241.819 131.056C241.819 131.44 241.627 131.696 241.307 131.888C240.603 132.336 239.899 132.912 239.131 133.36C238.683 133.552 238.235 133.616 237.787 133.744C237.595 133.808 237.403 133.872 237.275 134C237.019 134.128 236.763 134.32 236.443 134.384C235.547 134.64 234.651 134.576 233.691 134.64C231.387 134.64 229.083 134.384 226.779 134.128C226.139 134.128 225.499 133.936 224.859 133.872C224.347 133.872 223.899 133.808 223.387 133.744C222.875 133.744 222.875 133.744 222.619 134.064C222.555 133.936 222.555 133.872 222.491 133.744C222.235 133.68 222.171 133.936 222.043 134.128C221.659 134.576 221.403 134.768 220.827 134.832C220.571 134.64 220.699 134.576 220.699 134.384C221.147 134.384 221.147 134.384 221.275 134.128C221.019 134.192 220.891 134.32 220.699 134.384ZM230.107 103.664C229.915 103.792 229.915 104.112 229.851 104.24C229.851 104.24 229.915 104.24 229.915 104.304C229.979 104.112 230.043 103.856 230.107 103.664C230.171 103.472 230.171 103.408 230.235 103.216H230.171C230.171 103.344 230.107 103.472 230.107 103.664ZM231.195 102.896C230.363 105.072 229.531 107.248 228.699 109.424C227.739 111.6 226.843 113.776 226.011 115.952C226.139 115.824 226.331 115.696 226.395 115.504C226.523 115.376 226.523 115.184 226.651 115.12C227.035 114.288 227.419 113.52 227.739 112.752L227.867 112.56C228.251 112.688 228.187 112.304 228.251 112.176C228.635 111.344 228.955 110.512 229.275 109.744C230.555 106.608 231.771 103.472 232.987 100.336C233.051 100.336 233.051 100.208 233.115 100.08C232.475 100.08 232.027 100.016 231.515 99.952C231.387 100.144 231.323 100.336 231.259 100.528C231.259 100.592 231.195 100.72 231.195 100.784C231.515 100.976 231.259 101.232 231.259 101.424C231.195 101.872 231.131 102.384 231.003 102.832C231.131 102.896 231.195 102.896 231.195 102.896ZM226.011 133.808C227.547 133.936 229.147 133.936 230.683 133.872C230.299 133.616 229.979 133.68 229.531 133.68C229.019 133.616 228.571 133.68 228.059 133.616C227.355 133.424 226.651 133.552 226.011 133.808ZM236.827 97.52C236.955 97.136 237.019 96.944 237.147 96.752C237.147 96.688 237.147 96.496 237.147 96.432C237.083 96.368 237.019 96.304 236.891 96.24C236.827 96.24 236.763 96.368 236.763 96.432C236.635 96.56 236.507 96.688 236.379 96.944C236.507 97.072 236.635 97.2 236.827 97.52ZM218.267 129.264C218.587 129.264 218.587 129.2 218.779 128.688C218.523 128.816 218.267 128.88 218.267 129.264ZM236.763 95.28C236.763 95.344 236.763 95.408 236.763 95.472C237.019 95.472 237.339 95.6 237.595 95.472C237.339 95.408 237.083 95.344 236.763 95.28ZM218.331 129.712C218.331 129.648 218.331 129.584 218.267 129.52C218.203 129.584 218.075 129.584 218.011 129.648C218.011 129.712 218.011 129.712 218.011 129.776C218.139 129.776 218.267 129.776 218.331 129.712ZM230.619 102.256H230.683C230.683 102.192 230.683 102.064 230.747 102C230.683 102 230.683 102 230.683 102.064C230.619 102.128 230.619 102.192 230.619 102.256ZM219.675 134.896C219.611 134.896 219.547 134.96 219.483 134.96C219.483 134.96 219.483 134.896 219.419 134.832C219.419 134.832 219.483 134.832 219.483 134.768C219.547 134.832 219.611 134.832 219.675 134.896Z" fill="#D61117"/>
</svg>
