<svg width="501" height="58" viewBox="0 0 501 58" fill="none" xmlns="http://www.w3.org/2000/svg">
<path d="M18.2745 19.592L18.3385 19.656V19.4L17.8265 19.592C17.7625 19.464 17.7625 19.4 17.5705 19.336L17.7625 19.784C17.9545 20.232 18.0185 20.232 17.5065 20.488C17.3145 20.296 17.0585 19.912 16.8665 19.592C16.5465 18.824 16.1625 18.056 15.9065 17.16C15.2665 15.496 14.6265 13.768 13.7305 12.296C13.4105 11.656 12.8985 11.272 12.4505 10.888C11.9385 11.08 11.6825 11.528 11.3625 11.912C10.2745 13.32 10.0185 14.92 9.8265 16.712C9.7625 18.376 10.1465 19.784 10.9785 21.128C11.8745 22.664 12.7705 24.2 13.7945 25.672C15.2665 27.912 16.5465 30.28 17.7625 32.712C18.0185 33.16 18.2745 33.8 18.4665 34.312C18.9145 35.592 19.3625 36.808 19.8105 38.024C20.3865 39.752 20.7705 41.416 20.9625 43.08C21.0265 44.808 20.7065 46.344 19.5545 47.624C19.2985 48.008 19.1065 48.328 18.9145 48.776C18.3385 50.184 17.3785 51.4 15.8425 52.104C15.2025 52.424 14.6265 52.68 14.0505 53C13.3465 53.448 12.5145 53.576 11.6825 53.384C10.6585 53.064 9.6345 52.616 8.6105 52.168C8.5465 52.168 8.4185 52.04 8.2905 51.912C8.4825 51.912 8.6105 51.912 8.8665 51.912C8.2905 51.4 7.7785 50.888 7.0745 50.696C7.0745 50.632 7.0105 50.632 6.9465 50.632C6.4345 50.76 6.1785 50.44 5.9225 50.12C5.4105 49.608 4.8985 49.096 4.5785 48.52C3.9385 47.432 2.9145 46.408 2.4665 45.192C1.8905 43.912 1.4425 42.504 1.1225 41.032C0.7385 39.112 0.4825 37.192 0.3545 35.272C0.2905 34.888 0.3545 34.504 0.4825 34.184C0.4825 33.992 0.6745 33.8 0.7385 33.672C0.8025 33.544 0.9305 33.416 0.9945 33.352C1.3145 32.904 1.6985 32.712 2.3385 32.84C2.5945 32.968 2.7865 32.968 2.9785 32.712C3.2345 32.328 3.6825 32.456 4.0025 32.456C4.2585 31.944 4.6425 31.816 5.2825 32.008C5.3465 32.264 5.3465 32.456 5.1545 32.648C5.2185 32.712 5.2185 32.712 5.2185 32.712L5.7945 33.16C5.7305 33.672 5.9865 34.184 5.7945 34.632C5.6665 34.76 5.6665 34.888 5.6665 35.08C5.9225 36.616 6.1145 38.088 6.4345 39.688C6.6265 40.712 7.0105 41.672 7.3945 42.696C7.5865 43.272 7.9065 43.784 8.2265 44.232L8.4185 44.552C8.4185 44.552 8.4825 44.488 8.5465 44.488C8.4825 44.36 8.4825 44.36 8.4825 44.232C7.9705 42.888 7.7145 41.48 7.5865 40.2L6.8825 36.488L6.3705 33.608L6.0505 32.392C6.0505 32.264 5.9865 32.2 5.9865 32.008C6.3065 31.816 6.5625 32.008 6.8185 31.944C6.8825 32.2 6.8825 32.328 6.9465 32.456C7.0105 32.584 7.0745 32.712 7.2665 32.84C7.5225 32.968 7.6505 33.032 7.3945 33.288L7.7785 33.608C8.0345 33.672 8.1625 33.8 8.0985 34.12C8.0345 34.184 8.0985 34.248 8.1625 34.312C8.8025 35.144 8.8665 36.104 8.9945 37.064L9.5705 40.84C9.9545 42.44 10.4025 43.912 11.2345 45.128L11.6825 45.832C11.7465 45.576 11.8745 45.384 11.9385 45.192C12.3865 43.912 12.4505 42.632 12.2585 41.288C12.0025 38.792 11.2985 36.488 10.4665 34.184C10.2745 33.672 10.0185 33.16 9.7625 32.776C8.4185 30.728 7.0745 28.744 5.7945 26.696C4.8345 25.224 4.0025 23.688 3.4265 22.024C2.7865 20.232 2.4665 18.376 2.4025 16.392C2.3385 15.496 2.2745 14.536 2.4025 13.64C2.5305 11.976 2.9785 10.376 3.9385 8.904C4.1305 8.52 4.2585 8.072 4.0025 7.56C3.9385 7.432 4.0025 7.368 4.0025 7.24C4.5785 6.28 5.1545 5.448 5.9865 4.808C6.1785 4.68 6.3705 4.552 6.6265 4.744C6.7545 4.872 7.0105 4.872 7.1385 4.808C7.3305 4.808 7.4585 4.936 7.5865 5.128C6.6265 5.576 5.7945 6.152 5.2825 7.048C5.9225 6.536 6.5625 6.152 7.3305 5.96C7.7145 5.832 8.0345 5.64 8.2905 5.384C8.8025 4.936 9.3145 4.552 10.0185 4.296L10.3385 4.104C9.8905 3.912 9.3785 3.976 8.9305 3.976C9.5065 3.784 10.1465 3.784 10.7225 3.848C11.4905 3.976 12.2585 4.04 13.0265 4.04C13.8585 4.104 14.6905 4.424 15.4585 4.808C16.2905 5.192 17.1225 5.832 17.5705 6.664C17.6345 6.792 17.7625 6.92 17.8265 6.92C18.4665 7.432 18.9145 7.88 19.2985 8.456C19.2985 8.456 19.3625 8.52 19.4905 8.584C19.2345 7.88 18.7225 7.432 18.4025 6.92L18.9145 7.368V6.92L19.2985 7.432C19.9385 8.136 20.3225 9.096 20.5785 10.056L20.8985 11.528L21.1545 12.872C21.6665 14.344 21.7945 15.816 21.5385 17.288C21.4105 18.056 21.1545 18.568 20.7065 19.208L20.2585 19.848C20.1945 19.976 20.1945 20.04 20.0665 20.104C19.8105 20.232 19.6825 20.36 19.5545 20.68C19.4905 20.808 19.2345 20.808 19.0425 20.808C18.9785 20.552 19.2345 20.168 18.7865 20.04L18.6585 20.424L18.2745 19.592ZM7.5865 21.64C7.4585 21.512 7.3945 21.32 7.3305 21.192C7.3305 21.192 7.3305 21.256 7.2665 21.256C7.5865 21.704 7.5865 21.832 7.5865 21.896C8.2905 22.984 8.8665 24.072 9.5065 25.16L9.6985 25.224C9.7625 25.48 9.9545 25.672 10.0825 25.928C10.0825 25.928 10.0825 25.928 10.1465 25.864C10.0825 25.672 9.9545 25.416 9.6985 25.224C9.5705 24.968 9.5065 24.712 9.4425 24.52L7.7785 21.896C7.7145 21.768 7.5865 21.768 7.5865 21.64ZM15.5865 45.32C15.7785 45.128 15.8425 45.064 15.9065 44.872C16.2905 44.36 16.3545 43.912 16.1625 43.272C15.9065 42.696 15.8425 42.184 16.0985 41.48L16.1625 41.032C16.3545 40.008 16.5465 39.048 16.0985 38.024V37.832C15.9065 36.68 15.5865 35.592 15.1385 34.632C14.9465 34.184 14.7545 33.672 14.5625 33.224C14.3705 33.352 14.4345 33.48 14.3705 33.608C14.1145 33.864 14.3065 34.12 14.3705 34.312C14.6905 35.272 14.9465 36.168 15.2025 37.064C15.5225 38.28 15.6505 39.56 15.7145 40.776C15.7785 41.544 15.8425 42.376 15.5865 43.08C15.3945 43.848 15.5865 44.552 15.5865 45.32ZM13.7945 40.008C13.7945 40.712 13.7945 41.48 13.8585 42.184C13.8585 42.888 13.7305 43.656 13.8585 44.36C14.1145 43.912 14.3705 43.336 14.2425 42.76L13.9865 40.648C13.9225 40.392 13.8585 40.264 13.7945 40.008ZM7.0745 49.992C6.8185 49.416 6.3705 49.16 5.4745 48.968C5.9225 49.48 6.4345 49.8 7.0745 49.992ZM11.8105 28.936C11.6185 28.04 10.9785 27.336 10.5305 26.568C10.4665 26.568 10.4665 26.632 10.4665 26.632C10.9785 27.336 11.3625 28.104 11.8105 28.936ZM17.5065 18.568C17.5065 18.632 17.4425 18.632 17.4425 18.696C17.5065 18.76 17.5065 18.824 17.5065 18.952C17.5705 18.824 17.6345 18.824 17.5705 18.824C17.5705 18.696 17.5065 18.632 17.5065 18.568ZM18.2745 19.592C18.3385 19.784 18.2745 19.912 18.0825 20.04C18.0185 19.784 18.2105 19.656 18.3385 19.656L18.2745 19.592ZM45.1915 41.8H45.0635L44.4875 44.616C44.2315 45.704 43.9755 46.792 43.5915 47.88C43.2075 48.776 42.6955 49.48 41.9915 50.056L41.2875 50.888C41.0955 51.208 40.8395 51.656 40.5195 51.976C40.0715 52.552 39.3675 53 38.6635 53.256C37.7035 53.576 36.8075 53.832 35.9115 54.088C35.0155 54.344 34.1835 54.088 33.4795 53.576C32.7755 53 32.2635 52.36 31.7515 51.592C31.5595 51.208 31.1755 50.888 30.7915 50.376C30.7275 50.568 30.6635 50.632 30.6635 50.696C30.6635 50.696 30.5995 50.696 30.5355 50.696C30.3435 50.12 29.8955 49.608 29.5755 48.968C28.6155 46.856 27.7195 44.616 26.8875 42.44C26.3115 40.712 26.1195 38.984 25.9915 37.192C25.9275 34.76 25.9275 32.264 26.0555 29.832C26.1195 28.104 26.3115 26.44 26.4395 24.648C26.5675 23.432 26.6955 22.216 26.8875 21C26.8875 20.616 27.0795 20.168 27.1435 19.72L27.7835 16.648C27.8475 16.264 27.9115 15.944 28.0395 15.624C28.1675 15.24 28.4235 14.984 28.8715 14.92C29.0635 14.792 29.1915 14.728 29.4475 14.792C29.3835 15.048 29.3835 15.432 29.2555 15.496C29.1275 15.688 29.0635 15.944 28.9355 16.072C29.1275 16.136 29.3195 16.008 29.3835 15.88L30.2795 14.472C30.3435 14.408 30.4075 14.344 30.4715 14.216C30.5355 14.408 30.7275 14.536 30.7275 14.664C30.6635 14.792 30.7275 14.92 30.7915 15.176C30.8555 15.496 30.9835 15.944 30.7275 16.328C30.5355 16.584 30.5355 16.904 30.4715 17.224L30.3435 19.4C30.3435 20.296 30.3435 21.256 30.4075 22.088C30.4715 22.6 30.3435 23.176 30.3435 23.624C30.1515 24.456 30.0875 25.288 30.1515 26.12C30.2155 26.76 30.1515 27.336 30.1515 27.976C30.1515 28.424 30.2155 28.936 30.2155 29.32C30.2155 31.496 30.1515 33.544 30.1515 35.592C30.1515 36.36 30.2155 37.064 30.2155 37.832C30.2795 37.832 30.2795 37.96 30.3435 38.024C30.3435 37.96 30.3435 37.832 30.3435 37.832C30.5995 35.4 30.5355 33.096 30.5355 30.728C30.5355 29 30.5995 27.144 30.7275 25.416C30.7915 23.944 30.7915 22.536 31.0475 21.064C31.0475 20.936 30.9835 20.808 30.9835 20.552C30.9195 20.36 30.8555 20.168 30.9195 20.04C30.9195 19.784 30.9835 19.592 31.0475 19.272C31.0475 19.08 31.1115 18.824 31.1115 18.568C31.1755 17.416 31.1755 16.328 31.1755 15.176C31.1755 14.92 31.2395 14.728 31.2395 14.408C31.8155 14.472 32.0075 14.664 32.0715 15.112C32.1355 15.496 32.1355 15.944 32.1355 16.264V16.776L32.5835 16.392C32.7755 16.008 32.3915 15.752 32.5195 15.432C32.5195 15.368 32.3275 15.176 32.2635 15.112C32.3275 14.92 32.4555 14.92 32.6475 15.048C33.0955 15.432 33.2235 15.944 33.2235 16.392V16.648C33.1595 17.16 33.2235 17.544 33.2875 18.056C33.4795 18.888 33.4795 19.784 33.5435 20.808C33.9275 23.816 33.9915 26.888 33.9915 30.024C33.9915 31.176 33.9275 32.264 33.7355 33.416C33.7355 33.672 33.7355 33.864 33.7355 34.12C33.8635 35.592 33.9915 37.064 34.0555 38.536C34.1835 40.2 34.2475 41.672 34.6955 43.208C34.8235 43.848 35.0795 44.36 35.2075 44.872C35.2715 45 35.3355 45.128 35.3995 45.128C35.4635 45 35.5915 44.872 35.6555 44.68C36.1675 43.08 36.5515 41.48 36.8715 39.752C37.5115 37.064 38.0235 34.376 38.5995 31.752C38.6635 31.496 38.7275 31.176 38.8555 30.92C38.9835 30.792 39.0475 30.664 39.0475 30.536C39.5595 28.552 40.0715 26.696 40.3275 24.648C40.3915 24.648 40.3275 24.52 40.2635 24.456C40.1355 24.904 40.0715 25.416 39.8155 25.864C39.8155 25.864 39.8155 25.864 39.7515 25.864V25.672C40.1995 23.24 40.7755 20.808 41.7995 18.504C42.1835 17.736 42.5035 16.968 43.1435 16.264C43.3355 16.072 43.4635 15.88 43.5915 15.688C43.7195 15.304 43.7835 14.92 43.7195 14.664C43.7195 14.152 43.7195 13.704 43.7195 13.256C43.9115 13.256 44.1675 13.32 44.3595 13.448C44.4235 13.256 44.4235 13 44.4235 12.744C44.6795 13 44.9995 13.128 45.0635 13.512C45.1275 13.64 45.2555 13.704 45.3835 13.832C45.7035 13.704 45.8955 13.256 46.3435 13.32L46.8555 13.896C47.3675 13.256 47.4315 13.256 48.1995 13.64L48.7115 14.088C48.9675 14.152 49.1595 14.152 49.3515 14.216C49.8635 14.472 50.2475 14.92 50.3755 15.496C50.5675 16.52 50.8235 17.48 51.0155 18.504L51.6555 23.816C51.7835 24.776 51.9115 25.736 51.9755 26.76C52.1035 27.08 52.2315 27.528 52.2315 27.912C52.2315 27.976 52.2315 28.04 52.2315 28.04C52.6795 28.168 52.5515 28.552 52.6155 28.872C52.8715 30.92 53.0635 32.968 53.2555 34.952C53.4475 37 53.6395 39.048 53.8955 41.224C53.8955 41.544 53.8955 41.992 53.8315 42.44C53.8315 42.696 53.8315 43.08 54.0235 43.4C54.0875 43.464 54.0875 43.592 54.0875 43.72C54.1515 44.552 54.2795 45.384 54.3435 46.344L54.1515 46.088C54.1515 47.24 54.1515 48.264 54.4075 49.224L54.4715 48.456C54.4715 48.456 54.4715 48.456 54.5355 48.456C54.5995 49.736 54.6635 51.144 54.7275 52.424C54.7275 52.808 54.6635 53.128 54.2795 53.384C54.0875 53.128 54.1515 52.808 54.1515 52.552L54.3435 50.952C54.4075 50.888 54.3435 50.824 54.3435 50.696L53.8955 51.784L52.6795 51.528C52.8075 52.104 52.9355 52.616 52.9355 53.128C53.0635 53.832 53.1915 54.536 53.1915 55.176C53.1915 55.304 53.1275 55.496 52.9995 55.56L50.6315 56.712C50.5035 56.2 50.4395 55.752 50.2475 55.176L49.7995 55.688L49.4795 55.56C49.4155 55.752 49.4155 55.88 49.2875 56.072L49.0315 55.56H48.5835C48.3275 55.304 48.3915 54.92 48.2635 54.6H48.0075C47.5595 54.6 47.3675 54.344 47.2395 53.96C47.1115 53.64 47.1115 53.256 47.0475 52.872C46.8555 51.336 46.8555 49.864 46.8555 48.328C46.9195 46.728 46.9195 45.128 47.0475 43.528C47.0475 42.696 46.9195 41.864 46.8555 41.032L46.5355 37.32L46.3435 36.168C46.2155 36.808 46.0235 37.576 46.0875 38.216C46.1515 38.792 46.1515 39.24 46.1515 39.752C46.2155 40.52 46.1515 41.352 46.2155 42.12C46.2155 42.376 46.2795 42.568 46.3435 42.76C46.5355 43.656 46.5995 44.488 46.4715 45.32C46.3435 46.088 46.2795 46.856 46.1515 47.56C46.0875 47.24 46.0875 46.792 46.0875 46.344C46.0235 45.896 45.9595 45.448 45.8955 45.064L45.6395 46.472H45.5755L45.1915 41.8ZM43.7835 16.84C43.7835 16.584 44.0395 16.264 43.8475 15.944C43.2075 16.648 42.1195 18.824 41.9915 19.848C42.5675 18.824 43.2075 17.864 43.8475 16.84C43.7195 17.096 43.7195 17.288 43.5915 17.48C43.0155 18.376 42.5675 19.464 42.3115 20.552C41.9915 21.832 41.6075 23.112 41.4795 24.456V24.776L41.7355 24.392C41.4795 25.928 41.2875 27.592 41.2875 29.192L41.4795 29.064C41.4795 29.256 41.4795 29.32 41.4155 29.32C41.1595 31.112 40.9035 32.968 40.5195 34.632L39.2395 41.48C38.9195 42.888 38.5995 44.232 37.9595 45.512C37.7035 46.088 37.3835 46.6 37.1275 47.24C36.8075 47.88 36.8075 47.88 37.3835 48.52L37.5755 48.712C37.6395 48.584 37.8315 48.52 37.9595 48.392C38.0875 48.264 38.2155 48.008 38.2795 47.816C38.5995 47.048 38.8555 46.152 39.0475 45.32C39.0475 45.256 38.9835 45.192 38.9835 45.192C38.8555 45.192 38.7275 45.192 38.4715 45.256C39.1755 43.848 39.6875 42.376 40.0715 40.776C39.8155 41.096 39.8155 41.48 39.3035 41.8C39.4955 41.16 39.6235 40.52 39.7515 40.008L41.2875 31.944L41.9915 27.784C42.1835 26.76 42.3115 25.736 42.5035 24.648C42.6315 23.24 42.6955 21.832 43.1435 20.424C43.4635 19.336 43.5275 18.184 43.9115 17.16C43.9755 16.968 43.9115 16.904 43.7835 16.84ZM48.0715 53.128L48.3275 54.152C48.5835 54.024 48.7755 53.832 48.7115 53.64C48.5195 53 48.5195 52.36 48.3915 51.656L48.0715 47.496L47.5595 41.48C47.4955 40.264 47.3675 39.176 47.1755 38.024C46.8555 38.536 46.8555 38.6 46.8555 39.048C46.9195 39.944 47.0475 40.904 47.1115 41.864C47.2395 43.272 47.3675 44.68 47.3675 46.088L47.6875 49.928C47.7515 50.376 47.6235 50.888 47.8155 51.272C48.0715 51.912 48.0715 52.424 48.0715 53.128ZM32.5195 41.672L32.7115 42.248C32.7115 42.376 32.7755 42.44 32.7115 42.504C32.5195 42.952 32.6475 43.4 32.7755 43.848C32.9675 44.104 33.0955 44.424 33.2875 44.744C33.4795 45.128 33.4795 45.448 33.2875 45.832C33.2235 45.896 33.2235 46.024 33.2235 46.088C33.4795 46.6 33.6715 47.176 33.9275 47.752L34.3755 47.304C34.5675 47.048 34.5675 46.856 34.4395 46.536C34.1195 46.088 33.8635 45.448 33.6075 44.872L32.8395 42.312C32.7755 42.056 32.8395 41.8 32.5195 41.672ZM50.0555 52.36L49.4155 51.336C49.3515 52.36 49.6075 53.384 50.1195 54.344C50.1835 54.088 50.2475 53.832 50.2475 53.64C50.2475 53.384 50.2475 53 50.1835 52.68C50.1835 52.552 50.1835 52.424 50.0555 52.36ZM31.3675 42.312C31.5595 43.848 31.7515 45.256 32.5835 46.536C32.2635 45.128 32.0715 43.656 31.3675 42.312ZM48.7115 44.616H48.7755L48.5835 41.8C48.2635 41.864 48.3275 42.056 48.3275 42.248C48.4555 43.016 48.5835 43.848 48.7115 44.616ZM36.6155 49.48L36.1675 49.032C35.9115 49.224 35.7835 49.48 35.6555 49.736C35.9755 49.864 36.2315 49.8 36.6155 49.48ZM44.0395 19.976H43.9115C43.7195 20.616 43.6555 21.256 43.4635 21.896C43.8475 21.256 44.0395 20.68 44.0395 19.976ZM40.2635 44.168C40.0715 44.616 40.0715 45.128 40.0075 45.64C40.3275 45.192 40.2635 44.68 40.2635 44.168ZM49.1595 14.664C49.2235 15.368 49.2235 15.368 49.5435 15.368C49.4795 14.856 49.4795 14.856 49.1595 14.664ZM44.5515 18.696C44.6155 18.696 44.6795 18.696 44.6795 18.696L44.7435 17.608C44.4235 18.12 44.4235 18.12 44.5515 18.696ZM44.9995 17.672C45.0635 17.48 45.0635 17.352 45.1275 17.224C45.1275 17.16 45.0635 17.16 44.9995 17.16C44.9355 17.288 44.9355 17.416 44.9995 17.672ZM54.4075 47.048V47.432C54.4075 47.304 54.4075 47.176 54.4075 47.048ZM83.505 48.968V47.688C83.249 47.944 83.441 48.264 83.057 48.52L82.737 48.2C82.353 48.776 82.609 49.416 82.481 49.992C82.481 50.184 82.417 50.312 82.225 50.44C81.969 50.568 81.905 50.824 81.905 51.144C81.841 51.72 81.777 51.784 81.137 51.912L80.817 51.016C80.753 51.016 80.753 51.08 80.689 51.08V51.72C80.689 52.04 80.561 52.168 80.305 52.296C79.985 52.424 79.601 52.488 79.217 52.616C79.089 52.168 79.089 51.72 79.025 51.208L78.449 51.656L78.129 51.464C78.065 51.656 78.001 51.784 77.937 51.976C77.873 51.784 77.809 51.656 77.681 51.464C77.553 51.4 77.361 51.4 77.169 51.4L76.977 50.44L76.657 50.376C76.401 50.312 76.145 50.12 76.081 49.864C76.017 49.672 76.017 49.48 75.889 49.352C75.441 48.968 75.441 48.456 75.441 47.944C75.441 47.56 75.569 47.304 75.569 46.856C75.633 46.536 75.633 46.28 75.441 45.896C75.441 45.832 75.441 45.576 75.441 45.448V43.144V42.632C74.929 42.504 74.929 42.184 74.929 41.8L75.057 34.632C75.057 34.248 75.185 33.992 75.185 33.672C75.249 32.776 75.377 31.816 75.377 30.92C75.377 29.896 75.249 28.936 74.993 27.976C74.865 27.528 74.801 27.016 74.801 26.568C74.801 25.416 74.545 24.392 74.225 23.304C74.097 22.792 73.841 22.28 73.457 21.96C73.393 21.832 73.393 21.768 73.329 21.704C72.689 22.024 72.177 22.472 71.729 22.984C69.361 25.416 67.761 28.232 66.929 31.496C66.865 31.752 66.801 32.136 66.865 32.456C67.057 34.632 67.377 36.872 67.633 39.112L68.337 46.344C68.401 46.92 68.465 47.56 68.465 48.2C68.529 48.968 68.401 49.8 68.401 50.632C68.337 50.952 68.273 51.208 68.017 51.336C67.569 51.144 67.377 50.632 67.121 50.184V50.568C67.121 50.952 67.121 51.272 67.121 51.656C67.121 51.912 67.121 52.04 66.929 52.168C66.865 52.296 66.801 52.424 66.737 52.616C66.673 53.384 66.673 53.384 65.841 53.576C65.713 53.064 65.969 52.488 65.713 51.976C65.201 52.168 65.201 52.744 64.625 52.808L64.497 52.296C64.241 52.936 64.625 53.64 64.241 54.152C63.921 53.768 64.049 53.32 63.793 52.872L63.409 53.192L63.153 53.064L62.961 53.576L62.705 53C62.513 53 62.385 53 62.257 52.936C62.129 52.616 62.065 52.424 62.065 52.04C61.553 51.976 61.297 51.656 61.169 51.208C61.041 50.888 60.849 50.632 60.593 50.312L60.401 49.8C60.017 48.456 59.761 47.048 59.633 45.576C59.569 43.208 59.377 40.84 59.121 38.472C59.121 37.704 59.057 36.872 59.057 36.104L59.185 31.496C59.185 31.176 59.185 30.792 59.121 30.536C59.057 29.384 59.121 28.36 59.249 27.336C59.313 26.888 59.377 26.248 59.313 25.672C59.313 25.16 59.249 24.648 59.249 24.136C59.249 23.688 59.377 23.24 59.377 22.856C59.377 22.472 59.441 22.024 59.377 21.704C59.057 20.296 59.249 19.016 59.441 17.608C59.569 16.712 59.697 15.816 59.825 14.856C59.889 14.6 60.081 14.344 60.209 14.024C60.273 13.896 60.401 13.768 60.593 13.896L60.081 14.792C60.273 14.856 60.337 14.92 60.465 14.984L60.081 16.136L60.657 15.816C60.273 17.032 59.889 18.12 60.017 19.4L60.145 19.08L60.337 18.312C60.465 17.608 60.785 17.032 61.297 16.584C61.425 16.392 61.553 16.2 61.553 15.944C61.617 15.432 61.809 14.984 61.873 14.536L62.065 14.152C62.449 14.28 62.321 14.728 62.513 14.984C62.641 14.728 62.769 14.536 62.769 14.408C62.833 14.344 62.897 14.344 62.961 14.344C63.217 14.472 63.345 14.728 63.537 14.856C63.729 14.984 64.113 15.048 64.241 15.304C64.433 15.432 64.497 15.688 64.497 15.88C64.689 16.712 64.881 17.608 65.009 18.504L65.201 19.656L65.329 20.36C65.713 19.72 66.225 19.08 66.673 18.376C66.865 18.12 66.929 17.736 67.121 17.352C67.185 17.224 67.377 17.16 67.441 17.032L67.569 17.16L66.993 17.864C67.057 17.864 67.057 17.928 67.057 17.928C67.377 17.608 67.761 17.352 68.081 17.16C68.721 16.392 69.489 15.816 70.513 15.432C70.513 15.432 70.577 15.432 70.577 15.368C70.449 15.368 70.321 15.304 70.193 15.304V15.176H71.281C71.537 15.24 71.793 15.176 71.985 15.112C72.753 14.792 73.457 14.728 74.225 14.92C74.225 14.984 74.417 14.984 74.481 14.984C75.185 14.92 75.825 15.176 76.401 15.56C77.169 16.008 77.937 16.52 78.769 17.096C79.281 17.416 79.729 17.992 80.049 18.568C80.753 19.72 81.265 21 81.521 22.408C81.649 23.752 81.969 25.16 82.289 26.44C82.865 28.616 83.121 30.856 83.313 33.032C83.697 37.704 83.697 42.312 83.697 46.92C83.697 47.432 83.697 47.944 83.697 48.456C83.697 48.648 83.633 48.776 83.633 48.968C83.569 48.968 83.569 48.968 83.505 48.968ZM73.777 16.136L74.417 16.648L75.057 16.136C74.801 15.88 74.417 15.88 73.777 16.136ZM66.737 51.016C66.929 49.672 66.929 49.416 66.545 49.16C66.609 49.736 66.673 50.312 66.737 51.016ZM78.577 17.608L79.089 18.376C79.089 18.376 79.153 18.376 79.217 18.312L78.641 17.544L78.577 17.608ZM77.361 19.208C77.169 19.144 77.105 19.08 77.105 19.08H76.849C76.913 19.336 77.105 19.336 77.361 19.208ZM66.737 47.88C66.673 48.264 66.673 48.264 66.801 48.392C66.801 48.2 66.801 48.072 66.737 47.88ZM111.472 51.848C111.472 51.912 111.408 52.04 111.408 52.168C111.408 52.232 111.472 52.424 111.472 52.424C111.536 52.616 111.472 52.808 111.28 52.872C111.024 52.936 110.896 52.872 110.896 52.616L110.704 52.296L110.448 51.592L109.936 51.912C109.68 52.04 109.616 52.168 109.68 52.424C109.68 52.744 109.808 53.064 109.872 53.384C109.68 53.512 109.616 53.64 109.488 53.64C109.232 53.64 109.104 53.704 108.912 53.832C108.528 53.576 108.656 53.064 108.464 52.616C108.272 52.872 107.952 52.68 107.76 53.064C107.696 52.872 107.568 52.808 107.504 52.68C106.992 52.616 106.928 52.616 106.736 52.104L106.416 50.952C106.224 51.208 106.032 51.208 105.968 51.08L105.392 50.248C105.328 50.12 105.2 49.992 105.072 49.864C104.944 49.928 104.88 49.928 104.816 49.992C104.112 50.696 103.28 51.208 102.256 51.4C102 51.4 101.808 51.592 101.616 51.848C101.168 52.424 100.528 53.064 99.696 53.128C99.248 53.192 98.864 53.256 98.544 52.872C98.352 52.68 98.032 52.616 97.776 52.424C97.712 52.424 97.52 52.424 97.52 52.424C96.432 52.808 95.6 52.488 94.704 51.976C93.936 51.464 93.296 51.016 92.528 50.568C92.4 50.44 92.144 50.312 91.952 50.312C91.696 50.312 91.44 50.248 91.44 50.056C91.12 49.672 90.736 49.16 90.48 48.712C89.2 46.344 88.368 43.72 87.792 41.096C87.344 38.984 87.216 36.808 87.408 34.632C87.472 33.928 87.664 33.16 87.792 32.456V31.944L87.408 32.712C87.408 32.712 87.344 32.712 87.344 32.648C87.344 32.2 87.408 31.816 87.472 31.432C87.792 28.936 88.368 26.44 89.2 24.072C89.328 23.56 89.648 23.176 89.84 22.728C90.416 21.704 90.992 20.616 91.76 19.72L92.848 18.568L92.592 18.376L92.784 17.864C93.424 17.096 94.064 16.328 94.896 15.752C95.408 15.368 96.048 15.368 96.56 15.432C97.008 15.496 97.328 15.688 97.648 15.688C98.032 15.752 98.48 15.624 98.736 15.624C99.376 15.624 99.952 15.688 100.464 15.752C101.168 15.88 101.68 16.136 102.32 16.456L102.896 16.84C103.024 16.264 103.024 15.88 103.088 15.432C103.408 12.744 103.6 10.12 104.24 7.56L104.688 6.152C104.816 5.256 105.264 4.616 106.096 4.232L106.672 4.872L107.12 4.744C107.248 4.936 107.248 5.064 107.44 5.256L107.76 5C107.76 5 107.76 5 107.824 5C108.272 5.192 108.464 5.576 108.784 5.832C108.976 5.896 109.04 6.216 109.104 6.408C109.232 7.112 109.36 7.816 109.424 8.584C109.488 10.184 109.552 11.784 109.616 13.448L109.68 16.136L109.936 19.272L110.384 24.264L110.704 27.784C110.704 27.976 110.704 28.104 110.64 28.296C110.384 25.352 110.128 22.28 109.808 19.272V21C109.872 22.408 110 23.688 110 25.096C109.936 26.888 110.256 28.68 110.448 30.536C110.64 32.328 110.896 34.184 111.024 35.912L111.664 41.032V41.352C111.6 42.824 111.92 44.296 112.112 45.768L112.688 48.328C112.88 48.968 112.688 49.544 112.368 50.12C112.368 50.184 112.368 50.184 112.304 50.184C111.792 50.44 111.728 51.144 111.216 51.4C111.344 51.592 111.408 51.656 111.472 51.848ZM99.632 21.512L99.12 21.96C98.032 23.176 97.136 24.456 96.56 25.992C94.768 30.984 94.32 36.168 95.216 41.48C95.6 43.144 96.24 44.872 97.328 46.28L97.52 46.536C97.712 46.28 97.904 46.088 98.032 45.768C98.416 45 98.736 44.104 99.12 43.336C99.44 42.632 99.76 41.928 100.144 41.288C100.336 40.968 100.464 40.712 100.592 40.392C100.912 39.816 101.168 39.176 101.36 38.6C101.744 37.704 102.192 36.744 102.832 36.04C102.896 35.912 102.96 35.784 102.896 35.72L102.768 32.712C102.64 29.768 102.64 26.952 102.576 24.2C102.576 23.88 102.448 23.688 102.32 23.496L100.464 22.024C100.208 21.832 99.952 21.704 99.632 21.512ZM96.368 46.472C95.6 43.144 94.256 40.136 93.616 36.744C93.616 36.936 93.552 37.128 93.616 37.32L94.384 40.968C94.384 41.032 94.384 41.16 94.384 41.224C94.384 41.288 94.384 41.288 94.32 41.288L93.424 38.408V38.728C93.68 40.456 94 42.184 94.64 43.848C95.088 44.808 95.6 45.704 96.368 46.472ZM97.52 16.584C96.688 15.944 95.856 15.944 95.088 16.52C94.704 16.84 94.384 17.16 94.064 17.352C93.936 17.416 93.872 17.608 93.872 17.608C94.064 17.608 94.256 17.544 94.384 17.416C95.088 17.032 95.856 16.968 96.624 17.032C97.072 17.096 97.328 16.904 97.52 16.584ZM108.336 12.872C108.08 14.536 108.208 16.136 108.272 17.864C108.4 16.136 108.528 14.536 108.336 12.872ZM103.6 50.632C104.048 50.44 104.368 50.184 104.56 49.736C104.112 49.992 103.856 50.248 103.6 50.632ZM95.216 53.128C94.128 52.808 93.232 52.168 92.528 51.208C93.488 51.848 94.448 52.424 95.216 53.128ZM111.472 51.848C111.408 51.592 111.536 51.4 111.792 51.208C111.984 51.592 111.6 51.656 111.472 51.848ZM133.696 16.584H134.208C134.272 16.648 134.4 16.712 134.528 16.776C134.912 16.904 135.296 17.16 135.68 17.416C136.768 18.504 137.536 19.784 138.112 21.256C138.368 22.28 138.688 23.24 138.816 24.392C138.944 25.16 139.2 25.992 139.328 26.888C139.52 27.848 139.584 28.68 139.584 29.576C139.776 31.048 139.584 32.456 139.456 33.928C139.456 34.184 139.52 34.376 139.52 34.632C139.52 35.72 139.584 36.808 139.52 37.96C139.456 38.92 139.2 39.816 139.072 40.712C139.072 40.776 139.008 40.904 139.072 40.968C140.032 38.024 140.288 35.08 140.032 31.944C140.544 32.008 140.8 32.2 141.056 32.648L141.184 31.688C141.44 33.48 141.376 35.336 141.056 37.064C140.672 40.072 139.328 42.696 137.536 45.064L137.152 45.512L136.64 46.344C136.448 46.664 136.32 46.984 136.064 47.304C136.128 47.112 136.192 46.92 136.256 46.792L136.192 46.728C136.128 46.856 136 47.048 135.936 47.176C135.488 47.88 135.104 48.648 134.656 49.288C133.824 50.312 132.8 51.016 131.648 51.4C131.008 51.656 130.304 51.912 129.6 52.168C128.704 52.488 127.808 52.552 126.912 52.36C126.592 52.232 126.336 52.168 126.144 51.912C125.952 51.72 125.696 51.656 125.504 51.592C124.608 51.336 123.776 50.824 123.008 50.184C121.664 49.16 120.576 47.752 119.68 46.344C118.464 44.36 117.632 42.184 116.928 40.008C116.48 38.856 116.416 37.704 116.352 36.552C116.288 34.888 116.352 33.16 116.48 31.56C116.48 30.728 116.672 30.024 116.928 29.32C117.312 28.232 117.696 27.08 117.824 25.992C118.016 25.16 118.336 24.328 118.784 23.496C118.911 23.24 118.976 23.112 118.911 22.728C118.911 22.664 118.911 22.472 118.976 22.344L120.064 19.208C120.128 19.016 120.192 18.76 120.192 18.504C120.192 18.12 120.32 17.736 120.576 17.352L121.856 15.176C122.176 14.728 122.56 14.472 123.008 14.216C124.48 13.512 126.016 13.192 127.616 13.256C128.384 13.256 129.088 13.512 129.664 13.832C130.176 14.152 130.752 14.28 131.264 14.344C132.032 14.472 132.672 14.728 133.312 15.048C133.44 15.112 133.503 15.176 133.503 15.304C133.696 15.624 133.952 15.688 134.208 15.816C135.616 16.392 136.64 17.352 137.408 18.696C137.792 19.272 138.112 19.784 138.112 20.488L137.6 19.656C137.152 19.08 136.832 18.44 136.32 17.864C135.808 17.16 134.976 16.776 134.208 16.584L133.696 16.392V16.584ZM128.64 45.192C129.344 44.616 129.856 43.912 130.304 43.144C130.88 41.928 131.392 40.648 131.776 39.304C132.672 36.488 133.184 33.544 133.503 30.536C133.503 29.32 133.503 28.104 133.312 26.952C132.8 24.904 132.032 23.176 130.688 21.64C129.792 20.616 129.408 20.488 128.064 20.36C127.488 20.36 127.168 20.552 126.912 21C126.912 21.064 126.848 21.128 126.848 21.256C126.656 21.512 126.528 21.704 126.208 21.704C126.016 21.64 125.888 21.768 125.824 22.024L124.992 24.648C124.992 24.648 124.928 24.712 124.992 24.712C125.248 24.968 124.992 25.224 124.992 25.48C124.352 28.296 124.032 31.304 124.095 34.184C124.16 37 124.736 39.752 125.76 42.312C126.336 43.656 127.424 44.488 128.64 45.192ZM132.672 15.176C132.992 15.816 132.992 15.816 133.503 15.56C133.248 15.432 132.992 15.304 132.672 15.176ZM120.576 20.296L121.152 19.336L121.024 19.208C120.832 19.592 120.704 19.848 120.512 20.232C120.576 20.232 120.576 20.296 120.576 20.296ZM132.736 16.328H132.032C132.288 16.584 132.416 16.52 132.736 16.328ZM119.552 21.768L119.232 22.408C119.296 22.472 119.36 22.472 119.36 22.472C119.488 22.216 119.552 22.024 119.616 21.768C119.616 21.768 119.616 21.768 119.552 21.768ZM131.776 15.88C131.712 15.816 131.648 15.752 131.648 15.688C131.583 15.688 131.52 15.752 131.52 15.752L131.648 15.944C131.648 15.944 131.712 15.944 131.776 15.88ZM138.176 19.592C138.752 20.488 139.2 21.384 139.584 22.344C140.352 24.648 140.736 27.016 140.672 29.512V30.536C140.672 30.728 140.608 30.984 140.288 31.048C140.224 31.048 140.16 31.112 140.032 31.24C139.776 30.28 139.84 29.32 139.968 28.488C140.16 29.064 140.288 29.704 140.544 30.344C140.672 28.424 140.352 26.632 139.968 24.84C139.584 23.048 139.072 21.256 138.176 19.592ZM115.968 32.968L116.16 33.736H116.032L115.968 32.968ZM178.069 50.056L177.749 49.8C177.813 49.8 177.877 49.864 178.069 49.928L178.389 47.752C178.069 48.264 177.941 48.84 177.301 48.968L177.045 50.248C176.981 50.568 176.917 50.824 176.725 51.08C176.597 51.208 176.533 51.4 176.533 51.656C176.405 52.168 176.149 52.424 175.637 52.424C175.381 52.488 175.253 52.424 175.189 52.168L174.741 52.68C174.677 52.616 174.549 52.552 174.421 52.488L174.101 52.872C173.845 52.616 173.845 52.424 173.781 52.104C173.589 51.272 173.397 50.504 173.205 49.736L173.077 49.288L172.949 49.608L172.757 50.568C172.629 50.952 172.501 51.208 172.245 51.4C171.989 51.592 171.989 51.848 171.797 52.104C171.669 51.848 171.605 51.528 171.285 51.528C171.157 51.528 171.029 51.272 171.029 51.208C170.773 50.76 170.581 50.312 170.325 49.992C170.133 49.864 170.069 49.672 170.069 49.48L169.429 48.136C169.301 48.008 169.301 47.816 169.237 47.624C168.917 46.152 168.277 44.68 167.829 43.208C166.677 39.816 165.397 36.552 164.053 33.16L163.861 32.776C163.733 32.968 163.733 32.968 163.733 33.096L161.749 40.392L160.277 45.96C159.829 47.56 159.381 49.288 158.677 50.952L158.293 51.656C158.229 51.912 158.165 52.04 157.909 52.168C158.165 51.464 158.357 50.888 158.613 50.248C158.549 50.184 158.485 50.184 158.421 50.184L158.037 50.952C157.781 51.272 157.525 51.592 157.333 51.912C157.077 52.36 156.821 52.424 156.437 52.04L156.309 51.912C156.117 52.424 155.925 52.872 155.861 53.384L155.541 54.088C155.221 54.792 154.645 54.856 154.133 54.344C153.877 54.536 153.685 54.792 153.429 54.856C153.237 54.92 152.917 54.984 152.661 55.048C152.405 55.048 152.213 54.984 152.149 54.856L151.701 54.088C151.189 54.28 150.933 54.024 150.741 53.64L150.613 53.448C150.101 53.192 149.973 52.68 149.781 52.296L149.461 51.592C149.269 51.208 149.077 50.76 148.885 50.312C148.309 48.648 148.053 46.792 147.541 45.064C146.837 42.376 146.389 39.624 146.005 36.872C145.493 34.056 145.173 31.176 144.981 28.232C144.853 26.632 144.789 25.032 144.725 23.368C144.725 23.112 144.789 22.792 144.789 22.472C144.789 22.408 144.789 22.28 144.789 22.216C144.917 20.616 144.981 19.08 144.981 17.48C144.981 16.84 145.173 16.136 145.365 15.56C145.557 15.048 145.749 14.984 146.197 14.984L146.453 14.472C146.581 14.344 146.645 14.344 146.837 14.472C146.709 14.728 146.645 14.92 146.453 15.24C146.709 15.432 146.965 15.624 147.221 15.752C147.221 15.432 147.349 15.176 147.157 14.92L147.413 14.792C147.541 14.728 147.733 14.728 147.797 14.728C147.925 14.856 147.925 15.048 147.925 15.176C147.989 15.304 147.925 15.432 147.861 15.56C147.733 15.944 147.669 16.136 147.925 16.456C147.925 16.584 147.925 16.648 147.925 16.84L147.605 16.968C147.925 17.16 148.181 17.16 148.437 17.032C148.309 16.648 148.501 16.264 148.565 15.944C148.629 15.688 148.565 15.56 148.565 15.368V14.984C149.141 15.048 149.269 15.496 149.397 15.944C149.525 15.88 149.653 15.816 149.653 15.688C150.037 15.944 150.229 16.136 150.293 16.648C150.421 17.352 150.613 18.184 150.677 19.016C151.061 22.024 151.317 25.16 151.829 28.104C152.213 30.664 152.789 33.16 153.301 35.592C153.365 36.168 153.429 36.68 153.685 37.256L154.005 36.104L154.645 34.568L156.181 31.048C156.309 30.664 156.373 30.28 156.437 29.832L156.885 28.36C156.949 28.168 156.949 27.976 156.757 27.848C156.629 27.592 156.693 27.464 156.693 27.272L157.909 22.92C158.293 21.384 158.741 19.848 158.997 18.376C159.317 16.52 159.829 14.792 160.149 13.064C160.149 13 160.213 13 160.213 12.936L160.789 13.256C160.917 13 160.981 12.872 161.045 12.552C161.301 13 161.749 13.192 161.685 13.576C161.685 13.704 161.877 13.896 161.941 14.024C162.389 13.96 162.581 13.512 163.157 13.512L163.733 14.728C163.989 14.664 164.117 14.472 164.245 14.216C164.309 13.832 164.373 13.768 164.693 13.96C164.885 14.088 165.013 14.216 165.205 14.344C165.269 14.472 165.461 14.664 165.461 14.728C165.461 15.048 165.653 15.24 165.781 15.624L166.037 14.984C166.421 15.24 166.805 15.432 166.869 15.944C166.997 18.568 167.701 21.192 168.405 23.688C168.597 24.328 168.725 24.904 168.917 25.608C169.237 26.888 169.557 28.168 170.069 29.384C170.837 31.24 171.605 33.096 172.309 34.952C172.373 35.144 172.501 35.336 172.501 35.4H172.693L173.205 33.736L173.717 32.392C173.845 31.944 173.973 31.56 174.101 31.112C174.101 30.856 174.101 30.536 174.101 30.408C173.973 30.024 173.973 29.768 174.101 29.384C174.677 26.888 175.317 24.392 175.893 21.832C176.533 19.592 176.981 17.224 177.557 14.92C177.749 14.216 177.941 13.512 178.197 12.872C178.261 12.68 178.389 12.488 178.517 12.296L178.965 12.552L179.285 12.04L179.669 12.552C179.669 12.68 179.605 12.808 179.541 13L180.117 13.256C180.373 13.192 180.565 12.744 181.077 12.872C181.205 13.192 181.397 13.512 181.461 13.768C181.717 13.704 181.909 13.64 181.973 13.384C181.973 13.128 182.165 13.128 182.357 13.256C182.677 13.448 182.805 13.512 182.677 13.96C182.677 14.664 182.613 15.24 182.485 15.944C182.485 16.072 182.485 16.2 182.485 16.52C182.933 15.944 183.189 15.432 183.381 14.856C183.829 15.432 184.085 16.008 184.085 16.776C184.149 18.952 183.829 21 183.445 23.176C182.741 26.568 182.165 29.96 181.461 33.352L180.053 41.48L179.285 45.448C179.029 46.728 178.837 48.008 178.581 49.224C178.517 49.544 178.389 49.864 178.069 50.056ZM169.429 41.48C169.365 41.48 169.365 41.48 169.301 41.48C169.685 42.504 170.069 43.528 170.453 44.488C170.517 44.424 170.517 44.36 170.517 44.36C170.197 43.4 169.813 42.44 169.429 41.48ZM154.645 53.512C154.773 53.576 154.901 53.64 155.029 53.64L155.221 53.128C154.773 53 154.773 53.256 154.645 53.512ZM160.661 17.48C160.597 17.608 160.405 17.8 160.597 17.992C160.789 17.8 160.661 17.608 160.661 17.48ZM161.237 15.944H161.301V15.624C161.301 15.688 161.237 15.88 161.237 15.944ZM177.749 49.8C177.749 49.672 177.557 49.544 177.685 49.352C177.813 49.48 177.813 49.672 177.749 49.8ZM212.505 48.968V47.688C212.249 47.944 212.441 48.264 212.057 48.52L211.737 48.2C211.353 48.776 211.609 49.416 211.481 49.992C211.481 50.184 211.417 50.312 211.225 50.44C210.969 50.568 210.905 50.824 210.905 51.144C210.841 51.72 210.777 51.784 210.137 51.912L209.817 51.016C209.753 51.016 209.753 51.08 209.689 51.08V51.72C209.689 52.04 209.561 52.168 209.305 52.296C208.985 52.424 208.601 52.488 208.217 52.616C208.089 52.168 208.089 51.72 208.025 51.208L207.449 51.656L207.129 51.464C207.065 51.656 207.001 51.784 206.937 51.976C206.873 51.784 206.809 51.656 206.681 51.464C206.553 51.4 206.361 51.4 206.169 51.4L205.977 50.44L205.657 50.376C205.401 50.312 205.145 50.12 205.081 49.864C205.017 49.672 205.017 49.48 204.889 49.352C204.441 48.968 204.441 48.456 204.441 47.944C204.441 47.56 204.569 47.304 204.569 46.856C204.633 46.536 204.633 46.28 204.441 45.896C204.441 45.832 204.441 45.576 204.441 45.448V43.144V42.632C203.929 42.504 203.929 42.184 203.929 41.8L204.057 34.632C204.057 34.248 204.185 33.992 204.185 33.672C204.249 32.776 204.377 31.816 204.377 30.92C204.377 29.896 204.249 28.936 203.993 27.976C203.865 27.528 203.801 27.016 203.801 26.568C203.801 25.416 203.545 24.392 203.225 23.304C203.097 22.792 202.841 22.28 202.457 21.96C202.393 21.832 202.393 21.768 202.329 21.704C201.689 22.024 201.177 22.472 200.729 22.984C198.361 25.416 196.761 28.232 195.929 31.496C195.865 31.752 195.801 32.136 195.865 32.456C196.057 34.632 196.377 36.872 196.633 39.112L197.337 46.344C197.401 46.92 197.465 47.56 197.465 48.2C197.529 48.968 197.401 49.8 197.401 50.632C197.337 50.952 197.273 51.208 197.017 51.336C196.569 51.144 196.377 50.632 196.121 50.184V50.568C196.121 50.952 196.121 51.272 196.121 51.656C196.121 51.912 196.121 52.04 195.929 52.168C195.865 52.296 195.801 52.424 195.737 52.616C195.673 53.384 195.673 53.384 194.841 53.576C194.713 53.064 194.969 52.488 194.713 51.976C194.201 52.168 194.201 52.744 193.625 52.808L193.497 52.296C193.241 52.936 193.625 53.64 193.241 54.152C192.921 53.768 193.049 53.32 192.793 52.872L192.409 53.192L192.153 53.064L191.961 53.576L191.705 53C191.513 53 191.385 53 191.257 52.936C191.129 52.616 191.065 52.424 191.065 52.04C190.553 51.976 190.297 51.656 190.169 51.208C190.041 50.888 189.849 50.632 189.593 50.312L189.401 49.8C189.017 48.456 188.761 47.048 188.633 45.576C188.569 43.208 188.377 40.84 188.121 38.472C188.121 37.704 188.057 36.872 188.057 36.104L188.185 31.496C188.185 31.176 188.185 30.792 188.121 30.536C188.057 29.384 188.121 28.36 188.249 27.336C188.313 26.888 188.377 26.248 188.313 25.672C188.313 25.16 188.249 24.648 188.249 24.136C188.249 23.688 188.377 23.24 188.377 22.856C188.377 22.472 188.441 22.024 188.377 21.704C188.057 20.296 188.249 19.016 188.441 17.608C188.569 16.712 188.697 15.816 188.825 14.856C188.889 14.6 189.081 14.344 189.209 14.024C189.273 13.896 189.401 13.768 189.593 13.896L189.081 14.792C189.273 14.856 189.337 14.92 189.465 14.984L189.081 16.136L189.657 15.816C189.273 17.032 188.889 18.12 189.017 19.4L189.145 19.08L189.337 18.312C189.465 17.608 189.785 17.032 190.297 16.584C190.425 16.392 190.553 16.2 190.553 15.944C190.617 15.432 190.809 14.984 190.873 14.536L191.065 14.152C191.449 14.28 191.321 14.728 191.513 14.984C191.641 14.728 191.769 14.536 191.769 14.408C191.833 14.344 191.897 14.344 191.961 14.344C192.217 14.472 192.345 14.728 192.537 14.856C192.729 14.984 193.113 15.048 193.241 15.304C193.433 15.432 193.497 15.688 193.497 15.88C193.689 16.712 193.881 17.608 194.009 18.504L194.201 19.656L194.329 20.36C194.713 19.72 195.225 19.08 195.673 18.376C195.865 18.12 195.929 17.736 196.121 17.352C196.185 17.224 196.377 17.16 196.441 17.032L196.569 17.16L195.993 17.864C196.057 17.864 196.057 17.928 196.057 17.928C196.377 17.608 196.761 17.352 197.081 17.16C197.721 16.392 198.489 15.816 199.513 15.432C199.513 15.432 199.577 15.432 199.577 15.368C199.449 15.368 199.321 15.304 199.193 15.304V15.176H200.281C200.537 15.24 200.793 15.176 200.985 15.112C201.753 14.792 202.457 14.728 203.225 14.92C203.225 14.984 203.417 14.984 203.481 14.984C204.185 14.92 204.825 15.176 205.401 15.56C206.169 16.008 206.937 16.52 207.769 17.096C208.281 17.416 208.729 17.992 209.049 18.568C209.753 19.72 210.265 21 210.521 22.408C210.649 23.752 210.969 25.16 211.289 26.44C211.865 28.616 212.121 30.856 212.313 33.032C212.697 37.704 212.697 42.312 212.697 46.92C212.697 47.432 212.697 47.944 212.697 48.456C212.697 48.648 212.633 48.776 212.633 48.968C212.569 48.968 212.569 48.968 212.505 48.968ZM202.777 16.136L203.417 16.648L204.057 16.136C203.801 15.88 203.417 15.88 202.777 16.136ZM195.737 51.016C195.929 49.672 195.929 49.416 195.545 49.16C195.609 49.736 195.673 50.312 195.737 51.016ZM207.577 17.608L208.089 18.376C208.089 18.376 208.153 18.376 208.217 18.312L207.641 17.544L207.577 17.608ZM206.361 19.208C206.169 19.144 206.105 19.08 206.105 19.08H205.849C205.913 19.336 206.105 19.336 206.361 19.208ZM195.737 47.88C195.673 48.264 195.673 48.264 195.801 48.392C195.801 48.2 195.801 48.072 195.737 47.88ZM265.194 50.056L264.874 49.8C264.938 49.8 265.002 49.864 265.194 49.928L265.514 47.752C265.194 48.264 265.066 48.84 264.426 48.968L264.17 50.248C264.106 50.568 264.042 50.824 263.85 51.08C263.722 51.208 263.658 51.4 263.658 51.656C263.53 52.168 263.274 52.424 262.762 52.424C262.506 52.488 262.378 52.424 262.314 52.168L261.866 52.68C261.802 52.616 261.674 52.552 261.546 52.488L261.226 52.872C260.97 52.616 260.97 52.424 260.906 52.104C260.714 51.272 260.522 50.504 260.33 49.736L260.202 49.288L260.074 49.608L259.882 50.568C259.754 50.952 259.626 51.208 259.37 51.4C259.114 51.592 259.114 51.848 258.922 52.104C258.794 51.848 258.73 51.528 258.41 51.528C258.282 51.528 258.154 51.272 258.154 51.208C257.898 50.76 257.706 50.312 257.45 49.992C257.258 49.864 257.194 49.672 257.194 49.48L256.554 48.136C256.426 48.008 256.426 47.816 256.362 47.624C256.042 46.152 255.402 44.68 254.954 43.208C253.802 39.816 252.522 36.552 251.178 33.16L250.986 32.776C250.858 32.968 250.858 32.968 250.858 33.096L248.874 40.392L247.402 45.96C246.954 47.56 246.506 49.288 245.802 50.952L245.418 51.656C245.354 51.912 245.29 52.04 245.034 52.168C245.29 51.464 245.482 50.888 245.738 50.248C245.674 50.184 245.61 50.184 245.546 50.184L245.162 50.952C244.906 51.272 244.65 51.592 244.458 51.912C244.202 52.36 243.946 52.424 243.562 52.04L243.434 51.912C243.242 52.424 243.05 52.872 242.986 53.384L242.666 54.088C242.346 54.792 241.77 54.856 241.258 54.344C241.002 54.536 240.81 54.792 240.554 54.856C240.362 54.92 240.042 54.984 239.786 55.048C239.53 55.048 239.338 54.984 239.274 54.856L238.826 54.088C238.314 54.28 238.058 54.024 237.866 53.64L237.738 53.448C237.226 53.192 237.098 52.68 236.906 52.296L236.586 51.592C236.394 51.208 236.202 50.76 236.01 50.312C235.434 48.648 235.178 46.792 234.666 45.064C233.962 42.376 233.514 39.624 233.13 36.872C232.618 34.056 232.298 31.176 232.106 28.232C231.978 26.632 231.914 25.032 231.85 23.368C231.85 23.112 231.914 22.792 231.914 22.472C231.914 22.408 231.914 22.28 231.914 22.216C232.042 20.616 232.106 19.08 232.106 17.48C232.106 16.84 232.298 16.136 232.49 15.56C232.682 15.048 232.874 14.984 233.322 14.984L233.578 14.472C233.706 14.344 233.77 14.344 233.962 14.472C233.834 14.728 233.77 14.92 233.578 15.24C233.834 15.432 234.09 15.624 234.346 15.752C234.346 15.432 234.474 15.176 234.282 14.92L234.538 14.792C234.666 14.728 234.858 14.728 234.922 14.728C235.05 14.856 235.05 15.048 235.05 15.176C235.114 15.304 235.05 15.432 234.986 15.56C234.858 15.944 234.794 16.136 235.05 16.456C235.05 16.584 235.05 16.648 235.05 16.84L234.73 16.968C235.05 17.16 235.306 17.16 235.562 17.032C235.434 16.648 235.626 16.264 235.69 15.944C235.754 15.688 235.69 15.56 235.69 15.368V14.984C236.266 15.048 236.394 15.496 236.522 15.944C236.65 15.88 236.778 15.816 236.778 15.688C237.162 15.944 237.354 16.136 237.418 16.648C237.546 17.352 237.738 18.184 237.802 19.016C238.186 22.024 238.442 25.16 238.954 28.104C239.338 30.664 239.914 33.16 240.426 35.592C240.49 36.168 240.554 36.68 240.81 37.256L241.13 36.104L241.77 34.568L243.306 31.048C243.434 30.664 243.498 30.28 243.562 29.832L244.01 28.36C244.074 28.168 244.074 27.976 243.882 27.848C243.754 27.592 243.818 27.464 243.818 27.272L245.034 22.92C245.418 21.384 245.866 19.848 246.122 18.376C246.442 16.52 246.954 14.792 247.274 13.064C247.274 13 247.338 13 247.338 12.936L247.914 13.256C248.042 13 248.106 12.872 248.17 12.552C248.426 13 248.874 13.192 248.81 13.576C248.81 13.704 249.002 13.896 249.066 14.024C249.514 13.96 249.706 13.512 250.282 13.512L250.858 14.728C251.114 14.664 251.242 14.472 251.37 14.216C251.434 13.832 251.498 13.768 251.818 13.96C252.01 14.088 252.138 14.216 252.33 14.344C252.394 14.472 252.586 14.664 252.586 14.728C252.586 15.048 252.778 15.24 252.906 15.624L253.162 14.984C253.546 15.24 253.93 15.432 253.994 15.944C254.122 18.568 254.826 21.192 255.53 23.688C255.722 24.328 255.85 24.904 256.042 25.608C256.362 26.888 256.682 28.168 257.194 29.384C257.962 31.24 258.73 33.096 259.434 34.952C259.498 35.144 259.626 35.336 259.626 35.4H259.818L260.33 33.736L260.842 32.392C260.97 31.944 261.098 31.56 261.226 31.112C261.226 30.856 261.226 30.536 261.226 30.408C261.098 30.024 261.098 29.768 261.226 29.384C261.802 26.888 262.442 24.392 263.018 21.832C263.658 19.592 264.106 17.224 264.682 14.92C264.874 14.216 265.066 13.512 265.322 12.872C265.386 12.68 265.514 12.488 265.642 12.296L266.09 12.552L266.41 12.04L266.794 12.552C266.794 12.68 266.73 12.808 266.666 13L267.242 13.256C267.498 13.192 267.69 12.744 268.202 12.872C268.33 13.192 268.522 13.512 268.586 13.768C268.842 13.704 269.034 13.64 269.098 13.384C269.098 13.128 269.29 13.128 269.482 13.256C269.802 13.448 269.93 13.512 269.802 13.96C269.802 14.664 269.738 15.24 269.61 15.944C269.61 16.072 269.61 16.2 269.61 16.52C270.058 15.944 270.314 15.432 270.506 14.856C270.954 15.432 271.21 16.008 271.21 16.776C271.274 18.952 270.954 21 270.57 23.176C269.866 26.568 269.29 29.96 268.586 33.352L267.178 41.48L266.41 45.448C266.154 46.728 265.962 48.008 265.706 49.224C265.642 49.544 265.514 49.864 265.194 50.056ZM256.554 41.48C256.49 41.48 256.49 41.48 256.426 41.48C256.81 42.504 257.194 43.528 257.578 44.488C257.642 44.424 257.642 44.36 257.642 44.36C257.322 43.4 256.938 42.44 256.554 41.48ZM241.77 53.512C241.898 53.576 242.026 53.64 242.154 53.64L242.346 53.128C241.898 53 241.898 53.256 241.77 53.512ZM247.786 17.48C247.722 17.608 247.53 17.8 247.722 17.992C247.914 17.8 247.786 17.608 247.786 17.48ZM248.362 15.944H248.426V15.624C248.426 15.688 248.362 15.88 248.362 15.944ZM264.874 49.8C264.874 49.672 264.682 49.544 264.81 49.352C264.938 49.48 264.938 49.672 264.874 49.8ZM277.742 15.176C277.678 15.432 277.23 15.432 277.422 15.816C277.614 15.56 277.87 15.432 278.19 15.496C278.19 15.496 278.254 15.432 278.318 15.304C278.446 15.176 278.574 15.112 278.766 14.984C278.958 15.24 279.214 15.432 279.406 15.688C279.598 15.688 279.598 15.496 279.598 15.304C279.662 14.984 279.726 14.984 280.046 15.048C280.366 15.176 280.622 15.24 280.75 15.688C280.75 15.688 280.814 15.688 280.878 15.816C281.006 15.688 281.07 15.624 281.198 15.56C281.262 15.56 281.39 15.624 281.518 15.688C281.902 15.88 282.158 16.2 282.286 16.648C282.478 17.352 282.606 18.184 282.798 18.888C283.118 21.32 283.118 23.752 283.054 26.184C282.926 27.976 282.926 29.768 282.862 31.56C282.862 31.752 282.862 31.88 282.862 32.2C282.798 32.008 282.734 31.944 282.67 31.88H282.606C282.606 32.008 282.606 32.136 282.67 32.264C282.734 33.352 282.798 34.376 282.798 35.4C282.862 35.592 282.926 35.784 282.606 35.784C282.606 35.784 282.542 35.976 282.542 36.104C282.542 37.384 282.542 38.664 282.478 40.008C282.35 42.184 282.286 44.488 282.222 46.792C282.158 47.176 282.222 47.56 282.158 48.008C282.03 48.776 282.158 49.608 282.158 50.376C282.222 50.888 282.094 51.272 281.966 51.72C281.838 51.912 281.838 52.168 281.838 52.424C281.838 52.744 281.838 53.192 281.838 53.64C281.326 53.768 280.878 53.832 280.494 54.024C280.43 53.832 280.366 53.704 280.366 53.64C279.854 53.576 279.278 53.96 279.086 53.128C278.702 53.32 278.382 53.512 278.126 53.64C277.998 53.64 277.934 53.576 277.934 53.448C277.806 53.256 277.678 53.128 277.486 53.064C277.166 53 277.102 52.68 277.038 52.424C276.974 52.168 276.782 51.912 276.526 51.656C276.398 51.464 276.206 51.208 276.142 51.016C275.822 50.44 275.63 49.928 275.374 49.288C275.246 48.968 275.182 48.648 275.182 48.328C275.182 43.4 275.182 38.536 275.246 33.608C275.246 29.512 275.502 25.608 275.758 21.576C275.758 20.168 275.758 18.824 275.822 17.352C275.886 16.904 275.95 16.328 276.078 15.88C276.142 15.496 276.27 15.176 276.718 15.176C276.782 15.176 276.846 15.112 276.91 15.048C277.166 14.728 277.166 14.728 277.55 14.984C277.614 15.048 277.678 15.112 277.742 15.176ZM278.446 8.648C278.574 9.608 278.638 10.504 278.702 11.464C278.126 11.336 277.614 11.272 276.974 11.144C276.974 10.76 277.038 10.312 277.038 9.864C276.974 9.8 276.846 9.672 276.654 9.544C276.526 9.608 276.398 9.736 276.206 9.864C276.206 9.608 276.206 9.416 276.206 9.224C275.822 9.096 275.758 8.776 275.95 8.392C275.95 8.264 275.95 8.008 276.014 7.816C275.758 7.496 275.694 7.176 275.758 6.728C275.822 6.344 275.758 5.896 275.758 5.448C275.758 5.064 275.822 4.808 275.95 4.488C276.014 4.168 276.27 4.296 276.462 4.36C276.59 4.232 276.654 4.04 276.718 3.976C276.846 3.912 276.974 3.976 277.166 3.976C277.166 3.912 277.294 3.784 277.358 3.72C277.486 3.784 277.614 3.848 277.742 3.976C277.742 4.04 277.678 4.232 277.678 4.36C277.87 4.36 278.062 4.424 278.19 4.488C278.254 4.424 278.382 4.296 278.446 4.232C278.574 4.104 278.702 3.976 278.894 4.04C279.086 4.232 279.278 4.296 279.214 4.552C279.214 4.744 279.214 4.936 279.15 5.128C279.406 5 279.598 5 279.726 5C279.982 4.808 280.174 4.744 280.494 5C280.622 5.064 280.814 5 280.814 5.128C281.006 5.448 281.326 5.256 281.454 5.512C281.582 5.704 281.774 5.96 281.838 6.152C281.838 6.216 281.966 6.28 282.03 6.344C282.03 6.28 282.03 6.216 282.094 6.216C282.286 6.408 282.542 6.664 282.414 7.048C282.35 7.176 282.542 7.368 282.542 7.432C282.67 7.688 282.926 7.88 282.606 8.2C282.606 8.264 282.67 8.392 282.734 8.456C282.798 8.712 282.926 9.032 283.054 9.288C282.798 9.544 282.542 9.8 282.286 9.992C282.222 10.056 282.222 10.312 282.158 10.568C282.03 10.568 281.838 10.632 281.582 10.696C281.518 10.248 281.454 9.864 281.39 9.48C281.326 9.032 281.07 8.648 280.814 8.392C280.75 8.328 280.622 8.392 280.622 8.328C280.494 8.648 280.302 8.776 280.046 8.84C279.662 9.096 279.406 9.288 279.278 9.608C279.406 9.736 279.406 9.864 279.47 9.928C279.534 9.864 279.598 9.864 279.662 9.864C279.854 10.44 279.79 11.08 279.79 11.656C279.47 11.592 279.278 11.528 278.894 11.528C278.894 11.08 278.894 10.632 278.894 10.184C278.894 10.12 278.894 10.056 278.958 10.056C279.086 9.544 279.022 9.096 278.446 8.648ZM278.254 7.752C278.318 7.496 278.254 7.432 278.062 7.432C278.126 7.496 278.19 7.624 278.254 7.752ZM278.19 6.92C278.19 6.92 278.19 6.856 278.19 6.792C278.062 6.728 277.934 6.728 277.806 6.984C277.934 6.92 278.126 6.92 278.19 6.92ZM283.438 38.216C283.502 39.176 283.502 40.2 283.502 41.096C283.63 43.4 283.694 45.576 283.758 47.88C283.758 48.776 283.758 49.544 283.758 50.376C283.758 50.632 283.694 50.888 283.566 51.08C283.502 51.336 283.246 51.4 283.054 51.272C282.99 51.4 282.862 51.592 282.798 51.72C282.798 51.72 282.734 51.72 282.67 51.72C282.606 49.48 282.798 47.304 282.926 45C283.054 42.696 283.182 40.456 283.31 38.216C283.374 38.216 283.374 38.216 283.438 38.216ZM279.918 10.76C279.982 10.696 280.046 10.632 280.046 10.632C280.11 10.696 280.11 10.696 280.11 10.76V10.824C280.046 10.824 279.982 10.824 279.918 10.76ZM293.118 47.56C292.414 46.856 292.094 46.088 291.902 45.192C291.518 43.912 291.454 42.568 291.262 41.224C290.942 37.064 290.942 32.968 291.198 28.808L291.518 26.056C291.646 24.136 292.03 22.152 292.094 20.168C292.094 20.04 292.094 19.784 292.03 19.592C291.966 19.848 291.902 20.168 291.838 20.424H291.774L291.966 18.376L291.454 18.248L288.574 17.736C288.382 17.672 288.062 17.608 287.934 17.288C288.062 17.16 288.126 17.096 288.318 16.968V16.648C287.934 16.584 287.614 16.52 287.294 16.392C287.102 16.392 286.91 16.264 287.038 15.944C287.102 15.688 286.782 15.688 286.718 15.432L287.486 14.984C287.294 14.728 286.782 14.728 286.59 14.216L287.294 13.704H287.549C287.998 13.704 288.446 13.704 288.766 13.64L286.59 13.448C286.59 13.064 286.59 12.744 286.59 12.36C286.846 12.296 287.166 12.296 287.294 12.04C287.486 11.912 287.806 11.912 287.998 11.912H291.966H292.606L292.862 10.184C293.182 8.072 293.438 5.96 293.822 3.784C293.885 3.272 294.014 2.76 294.142 2.312L294.398 1.352C294.526 0.839996 294.974 0.839996 295.422 0.711998C295.55 0.711998 295.678 0.903999 295.806 1.032L295.614 1.224V1.352L296.574 1.224L296.894 1.672L297.15 1.352C297.214 1.352 297.278 1.352 297.278 1.352L298.43 2.184C298.814 2.568 299.006 2.952 299.07 3.4C299.198 3.976 299.326 4.616 299.326 5.192C299.39 6.216 299.39 7.24 299.454 8.264C299.454 9.16 299.39 10.056 299.454 11.08C299.454 11.528 299.454 12.04 299.518 12.488C299.966 12.616 300.35 12.68 300.67 12.744C301.438 12.872 302.142 13 302.91 13.384C303.614 13.704 304.382 13.832 305.278 13.96L306.878 14.216C307.39 14.408 307.902 14.664 308.222 14.92C308.222 15.432 307.902 15.048 307.774 15.112C307.902 15.496 308.35 15.688 308.414 16.136L308.158 16.2L308.606 17.096L307.774 17.864L308.158 17.992C308.158 17.992 308.158 18.056 308.094 18.056L306.686 18.376L305.726 18.44L306.302 18.824C306.046 18.888 305.854 19.08 305.726 19.08C305.342 19.144 304.83 19.336 304.382 19.336C303.038 19.336 301.694 19.4 300.35 19.208C300.094 19.208 299.774 19.208 299.39 19.144L299.262 20.168C299.262 20.232 299.262 20.296 299.262 20.296C299.518 20.552 299.39 20.808 299.39 21C299.39 22.472 299.39 23.944 299.39 25.416C299.39 25.608 299.454 25.736 299.454 25.928C299.518 26.12 299.518 26.376 299.518 26.632L299.39 32.328C299.39 34.952 299.39 37.64 299.518 40.264C299.71 41.928 299.966 43.656 300.158 45.256C300.222 45.576 300.35 45.96 300.478 46.344C300.478 46.408 300.606 46.536 300.734 46.408C300.734 46.344 300.862 46.408 300.926 46.472C300.99 46.664 301.182 46.6 301.374 46.472L302.078 45.576C302.142 45.512 302.142 45.32 302.142 45.256C302.142 45.128 302.078 45.064 302.078 44.872C302.206 44.936 302.27 45.064 302.398 45.128C302.654 44.68 302.974 44.296 302.654 43.72L303.486 43.912C303.806 43.4 304.51 43.08 304.062 42.312C304.253 42.056 304.766 41.928 305.086 42.056C305.342 42.184 305.406 42.44 305.342 42.952L305.982 42.568C306.11 42.44 306.302 42.44 306.558 42.504C307.006 42.696 307.39 42.888 307.71 43.272C307.838 43.464 307.966 43.656 308.158 43.784C308.478 44.04 308.734 44.424 308.734 44.936C308.734 45.128 308.734 45.192 308.798 45.32C309.118 45.832 308.99 46.28 308.734 46.664C307.966 47.688 307.198 48.776 306.238 49.672C305.982 49.864 305.79 50.056 305.598 50.44C305.534 50.696 305.406 51.016 305.278 51.272C304.958 51.784 304.574 52.168 304.062 52.424L301.374 53.64C300.798 53.768 300.35 53.832 299.774 53.64C298.43 53.256 297.086 52.488 295.998 51.592C296.062 51.592 296.254 51.656 296.382 51.656C296.062 50.952 295.486 50.504 294.782 50.12C294.974 50.568 295.358 50.888 295.614 51.272C294.462 50.44 293.694 49.48 293.374 48.136C293.31 47.88 293.374 47.56 293.054 47.56C293.118 47.432 293.246 47.368 293.182 47.304L293.054 46.216L292.862 46.024C292.734 46.344 292.734 46.664 292.926 47.048C292.99 47.176 293.054 47.368 293.118 47.56ZM302.142 51.656C302.398 51.656 302.59 51.4 302.782 51.208C302.462 51.208 302.206 51.208 302.014 51.272C301.822 51.336 301.822 51.4 301.95 51.592C301.63 51.528 301.438 51.72 301.31 52.04C301.694 52.168 301.885 52.04 302.142 51.656ZM291.71 31.752L292.158 35.208C292.158 35.4 292.158 35.592 292.158 35.784C292.158 37.064 292.222 38.28 292.286 39.56C292.35 40.648 292.414 41.672 292.414 42.696L292.478 43.656C292.478 43.848 292.542 43.976 292.67 44.104L292.862 40.264V39.24L292.67 35.4C292.67 33.928 292.67 32.52 292.67 31.112C292.734 30.024 292.67 28.936 292.99 27.912C293.118 27.592 293.182 27.336 293.182 27.016C293.182 26.888 293.182 26.632 293.118 26.568C292.862 26.248 292.862 25.928 292.926 25.672C292.926 24.776 292.99 23.944 292.99 23.048C293.054 22.728 293.118 22.6 293.374 22.536V18.504L292.606 18.376L292.414 20.424C292.414 21.512 292.35 22.664 292.222 23.752C292.222 24.2 292.158 24.584 292.158 25.032C292.158 25.416 292.222 25.672 292.158 25.928C292.158 26.888 292.03 27.784 291.966 28.616H291.902V28.104C291.71 28.616 291.518 29.32 291.39 29.832C291.326 30.024 291.262 30.28 291.262 30.472L291.518 32.2L291.582 32.264C291.582 32.072 291.646 31.944 291.71 31.752ZM294.334 47.304V46.856C294.142 45.448 293.885 44.04 293.885 42.696C293.822 41.352 293.438 40.072 293.31 38.792C293.182 38.984 293.118 39.112 293.118 39.304C293.118 39.752 293.118 40.264 293.182 40.648C293.246 41.864 293.31 43.08 293.374 44.296C293.502 45.128 293.694 45.832 293.885 46.536C293.885 46.792 294.014 47.048 294.334 47.304ZM294.845 44.552L294.526 42.76H294.462C294.526 43.144 294.526 43.464 294.59 43.848L295.166 47.048C295.23 47.304 295.358 47.56 295.678 47.624C296.318 47.816 296.83 48.264 297.214 48.776C297.342 48.968 297.598 49.224 297.79 49.416C297.982 49.544 298.11 49.608 298.238 49.352L297.022 48.328C296.574 47.88 296.062 47.496 295.806 46.856L295.102 45.128C295.102 45 295.102 44.872 295.102 44.808C295.102 44.616 294.91 44.744 294.91 44.68C294.845 44.68 294.845 44.616 294.845 44.552ZM301.182 51.272L300.542 50.952C300.222 50.888 300.222 50.888 299.902 51.208L300.286 51.464C300.734 51.784 300.734 51.784 301.182 51.272ZM299.71 47.816L298.75 47.176C298.75 47.56 298.942 48.008 299.326 48.328L299.71 47.816ZM304.638 44.04L304.318 44.424L304.702 44.68C304.766 44.424 304.766 44.232 304.766 44.04C304.766 44.04 304.702 44.04 304.638 44.04ZM289.79 13.64C289.79 13.704 289.79 13.704 289.79 13.704L290.558 13.832V13.704C290.302 13.576 290.046 13.64 289.79 13.64ZM292.094 25.416V25.672V25.416ZM330.473 52.808C330.473 52.296 330.473 51.656 330.729 51.208C330.985 50.568 330.793 50.12 330.409 49.672L330.153 49.48C329.897 49.864 329.833 50.12 329.769 50.44C329.769 50.952 329.769 51.336 329.705 51.784L329.321 53C329.193 53 329.065 53.064 328.809 53.064L329.001 50.696C328.873 50.696 328.809 50.696 328.681 50.76C328.681 50.568 328.553 50.44 328.425 50.312C328.233 50.12 328.041 49.864 328.041 49.48C327.977 49.16 327.849 48.776 327.849 48.52V47.944C327.785 48.008 327.657 48.008 327.593 48.008C327.593 48.712 327.593 49.288 327.593 49.928C327.657 49.928 327.657 49.992 327.721 49.992L327.849 49.736H327.913C327.849 50.44 328.041 51.208 327.785 51.976L327.593 51.4L327.081 51.208L327.208 49.544L327.337 47.816C326.953 47.88 326.825 48.008 326.825 48.264C326.889 48.648 326.953 48.968 326.953 49.288V50.056C326.697 49.992 326.505 49.8 326.569 49.544C326.569 49.032 326.377 48.648 326.185 48.264C325.993 47.752 325.929 47.304 325.993 46.792C326.121 46.088 326.185 45.256 326.249 44.488L326.633 40.456L327.017 34.76C327.081 33.736 327.081 32.712 327.017 31.688C326.825 30.216 326.697 28.808 326.569 27.336C326.377 26.376 326.057 25.416 325.609 24.52L325.417 24.2C324.905 24.456 324.521 24.84 324.201 25.16C324.201 25.224 324.137 25.352 324.137 25.352C324.329 25.416 324.201 25.544 324.137 25.672L323.113 26.696C322.985 26.888 322.857 27.08 322.729 27.272C322.025 28.424 321.385 29.512 320.873 30.792C320.745 31.112 320.617 31.368 320.553 31.624C320.553 31.752 320.361 31.944 320.489 32.2C320.553 32.264 320.489 32.456 320.425 32.648L320.041 33.928C319.785 34.632 319.785 35.336 319.785 36.04L319.913 39.368L320.041 45.384C320.105 46.92 320.233 48.456 320.297 49.928C320.297 50.184 320.297 50.568 320.041 50.824C319.913 50.952 319.849 51.208 319.849 51.336C319.785 51.848 319.465 52.168 319.017 52.36L317.609 52.936C317.545 52.424 317.609 52.04 317.609 51.528C317.673 51.144 317.737 50.632 317.737 50.12C317.801 49.992 317.737 49.736 317.545 49.736C317.097 50.504 316.969 51.4 316.969 52.36C316.969 52.616 316.905 53 316.905 53.384C316.841 53.512 316.713 53.64 316.521 53.64C316.265 53.64 316.009 53.64 315.753 53.64L315.497 52.808L315.177 52.616L314.921 52.872H314.857C314.665 52.616 314.665 52.424 314.473 52.424C314.409 52.36 314.345 52.168 314.281 52.04C314.153 51.656 314.025 51.208 313.705 50.952C313.641 50.824 313.577 50.568 313.577 50.376C313.577 49.992 313.449 49.8 313.257 49.48C313.129 49.352 313.001 49.096 313.001 48.904C312.937 48.392 312.681 47.88 312.489 47.368C312.424 47.112 312.361 46.792 312.361 46.536C312.361 42.184 312.361 37.832 312.553 33.416C312.681 30.6 312.745 27.848 312.937 25.032C313.065 21 313.257 17.032 313.449 13C313.577 11.592 313.769 10.248 313.961 8.84C314.089 8.2 314.217 7.56 314.665 7.048C314.665 6.984 314.665 6.856 314.729 6.728C314.857 6.28 315.049 5.96 315.433 5.704C315.689 5.96 315.817 6.216 316.073 6.472C316.265 6.024 316.137 5.448 316.393 5C316.585 5.256 316.585 5.512 316.457 5.896C316.265 6.216 316.393 6.408 316.777 6.664C316.905 6.6 316.969 6.472 317.033 6.408V7.816C317.481 7.368 317.673 6.792 318.185 6.408C318.312 6.536 318.377 6.664 318.377 6.728C318.569 7.24 318.697 7.688 318.76 8.2C318.825 9.16 318.825 10.184 318.825 11.144C318.825 12.36 318.76 13.576 318.76 14.856C318.76 15.432 318.825 15.944 318.825 16.584L318.953 18.376C319.337 18.12 319.657 17.864 319.529 17.352C319.529 17.16 319.593 16.968 319.657 16.776L319.785 17.672C320.041 17.608 320.105 17.48 320.297 17.352C321.193 16.84 322.153 16.392 323.241 16.264C323.561 16.2 323.881 16.264 324.201 16.328C324.329 16.328 324.585 16.456 324.585 16.712C324.585 16.84 324.649 16.904 324.649 16.968C324.905 17.352 324.905 17.352 325.417 17.288C326.569 17.16 327.593 17.288 328.361 18.312C328.489 18.376 328.617 18.376 328.809 18.376C329.257 18.376 329.705 18.632 330.025 19.08L331.689 20.808C332.201 21.256 332.457 21.896 332.777 22.536C333.481 24.392 333.865 26.248 333.993 28.168L334.121 30.472C334.121 31.816 334.185 33.224 334.377 34.632C334.697 37 334.697 39.432 334.633 41.8L334.313 48.776C334.249 49.288 334.185 49.864 334.121 50.312C334.121 50.696 333.993 50.952 333.673 51.08L332.457 51.592C332.393 51.656 332.265 51.656 332.137 51.528C331.945 51.4 331.817 51.464 331.689 51.656L331.305 52.104L331.113 52.424C330.985 52.872 330.985 52.872 330.473 52.808ZM318.569 41.672C318.569 41.672 318.505 41.672 318.441 41.672L318.249 42.888C318.249 43.784 318.185 44.616 318.121 45.448C318.057 45.704 318.057 45.96 318.057 46.216V46.92C318.121 47.176 318.121 47.368 318.121 47.56H318.185C318.312 45.576 318.441 43.656 318.569 41.672ZM321.257 19.08C321.257 19.016 321.257 19.016 321.193 18.952C320.809 19.144 320.553 19.4 320.233 19.592C319.849 19.784 319.785 20.104 319.977 20.552L321.257 19.08ZM320.681 25.928C321.257 25.672 321.769 25.16 321.897 24.456C321.257 24.776 321.001 25.416 320.681 25.928ZM318.953 21.96C319.465 21.512 319.401 21 319.337 20.552C318.825 20.808 318.953 21.32 318.953 21.96ZM329.449 24.456C329.385 23.688 329.128 23.24 328.681 22.664C328.745 23.176 329.128 24.2 329.449 24.456ZM332.137 22.92C332.073 22.408 331.945 22.024 331.625 21.768C331.817 22.088 331.945 22.472 332.137 22.92ZM327.401 46.472C327.465 46.472 327.465 46.472 327.465 46.472C327.529 46.408 327.529 46.344 327.529 46.344C327.529 46.344 327.465 46.28 327.401 46.152V46.344C327.401 46.344 327.401 46.408 327.401 46.472ZM320.553 42.12V44.872V42.12ZM371.275 19.592L371.339 19.656V19.4L370.827 19.592C370.763 19.464 370.763 19.4 370.571 19.336L370.763 19.784C370.955 20.232 371.019 20.232 370.507 20.488C370.315 20.296 370.059 19.912 369.867 19.592C369.547 18.824 369.163 18.056 368.907 17.16C368.267 15.496 367.627 13.768 366.731 12.296C366.411 11.656 365.899 11.272 365.451 10.888C364.939 11.08 364.683 11.528 364.363 11.912C363.275 13.32 363.019 14.92 362.827 16.712C362.763 18.376 363.147 19.784 363.979 21.128C364.875 22.664 365.771 24.2 366.795 25.672C368.267 27.912 369.547 30.28 370.763 32.712C371.019 33.16 371.275 33.8 371.467 34.312C371.915 35.592 372.363 36.808 372.811 38.024C373.387 39.752 373.771 41.416 373.963 43.08C374.027 44.808 373.707 46.344 372.555 47.624C372.299 48.008 372.107 48.328 371.915 48.776C371.339 50.184 370.378 51.4 368.843 52.104C368.203 52.424 367.627 52.68 367.051 53C366.347 53.448 365.515 53.576 364.683 53.384C363.659 53.064 362.635 52.616 361.611 52.168C361.547 52.168 361.419 52.04 361.291 51.912C361.483 51.912 361.611 51.912 361.867 51.912C361.291 51.4 360.779 50.888 360.075 50.696C360.075 50.632 360.01 50.632 359.947 50.632C359.435 50.76 359.179 50.44 358.923 50.12C358.411 49.608 357.899 49.096 357.579 48.52C356.939 47.432 355.915 46.408 355.467 45.192C354.891 43.912 354.443 42.504 354.123 41.032C353.739 39.112 353.483 37.192 353.355 35.272C353.291 34.888 353.355 34.504 353.483 34.184C353.483 33.992 353.674 33.8 353.739 33.672C353.803 33.544 353.931 33.416 353.995 33.352C354.315 32.904 354.699 32.712 355.339 32.84C355.595 32.968 355.786 32.968 355.979 32.712C356.235 32.328 356.683 32.456 357.003 32.456C357.259 31.944 357.643 31.816 358.283 32.008C358.347 32.264 358.347 32.456 358.155 32.648C358.219 32.712 358.219 32.712 358.219 32.712L358.795 33.16C358.731 33.672 358.987 34.184 358.795 34.632C358.667 34.76 358.667 34.888 358.667 35.08C358.923 36.616 359.115 38.088 359.435 39.688C359.627 40.712 360.01 41.672 360.395 42.696C360.587 43.272 360.907 43.784 361.227 44.232L361.419 44.552C361.419 44.552 361.483 44.488 361.547 44.488C361.483 44.36 361.483 44.36 361.483 44.232C360.97 42.888 360.715 41.48 360.587 40.2L359.883 36.488L359.371 33.608L359.051 32.392C359.051 32.264 358.987 32.2 358.987 32.008C359.307 31.816 359.562 32.008 359.819 31.944C359.883 32.2 359.883 32.328 359.947 32.456C360.01 32.584 360.075 32.712 360.267 32.84C360.523 32.968 360.651 33.032 360.395 33.288L360.779 33.608C361.035 33.672 361.163 33.8 361.099 34.12C361.035 34.184 361.099 34.248 361.163 34.312C361.803 35.144 361.867 36.104 361.995 37.064L362.571 40.84C362.955 42.44 363.403 43.912 364.235 45.128L364.683 45.832C364.747 45.576 364.875 45.384 364.939 45.192C365.387 43.912 365.451 42.632 365.259 41.288C365.003 38.792 364.299 36.488 363.467 34.184C363.275 33.672 363.019 33.16 362.763 32.776C361.419 30.728 360.075 28.744 358.795 26.696C357.835 25.224 357.003 23.688 356.427 22.024C355.786 20.232 355.467 18.376 355.403 16.392C355.339 15.496 355.275 14.536 355.403 13.64C355.531 11.976 355.979 10.376 356.939 8.904C357.131 8.52 357.259 8.072 357.003 7.56C356.939 7.432 357.003 7.368 357.003 7.24C357.579 6.28 358.155 5.448 358.987 4.808C359.179 4.68 359.371 4.552 359.627 4.744C359.755 4.872 360.01 4.872 360.139 4.808C360.331 4.808 360.459 4.936 360.587 5.128C359.627 5.576 358.795 6.152 358.283 7.048C358.923 6.536 359.562 6.152 360.331 5.96C360.715 5.832 361.035 5.64 361.291 5.384C361.803 4.936 362.315 4.552 363.019 4.296L363.339 4.104C362.891 3.912 362.379 3.976 361.931 3.976C362.507 3.784 363.147 3.784 363.723 3.848C364.491 3.976 365.259 4.04 366.027 4.04C366.859 4.104 367.691 4.424 368.458 4.808C369.291 5.192 370.123 5.832 370.571 6.664C370.635 6.792 370.763 6.92 370.827 6.92C371.467 7.432 371.915 7.88 372.299 8.456C372.299 8.456 372.363 8.52 372.491 8.584C372.235 7.88 371.723 7.432 371.403 6.92L371.915 7.368V6.92L372.299 7.432C372.939 8.136 373.323 9.096 373.579 10.056L373.899 11.528L374.155 12.872C374.667 14.344 374.795 15.816 374.539 17.288C374.411 18.056 374.155 18.568 373.707 19.208L373.259 19.848C373.195 19.976 373.195 20.04 373.067 20.104C372.811 20.232 372.683 20.36 372.555 20.68C372.491 20.808 372.235 20.808 372.043 20.808C371.979 20.552 372.235 20.168 371.787 20.04L371.659 20.424L371.275 19.592ZM360.587 21.64C360.459 21.512 360.395 21.32 360.331 21.192C360.331 21.192 360.331 21.256 360.267 21.256C360.587 21.704 360.587 21.832 360.587 21.896C361.291 22.984 361.867 24.072 362.507 25.16L362.699 25.224C362.763 25.48 362.955 25.672 363.083 25.928C363.083 25.928 363.083 25.928 363.147 25.864C363.083 25.672 362.955 25.416 362.699 25.224C362.571 24.968 362.507 24.712 362.443 24.52L360.779 21.896C360.715 21.768 360.587 21.768 360.587 21.64ZM368.587 45.32C368.779 45.128 368.843 45.064 368.907 44.872C369.291 44.36 369.355 43.912 369.163 43.272C368.907 42.696 368.843 42.184 369.099 41.48L369.163 41.032C369.355 40.008 369.547 39.048 369.099 38.024V37.832C368.907 36.68 368.587 35.592 368.139 34.632C367.947 34.184 367.755 33.672 367.562 33.224C367.371 33.352 367.435 33.48 367.371 33.608C367.115 33.864 367.307 34.12 367.371 34.312C367.691 35.272 367.947 36.168 368.203 37.064C368.523 38.28 368.651 39.56 368.715 40.776C368.779 41.544 368.843 42.376 368.587 43.08C368.395 43.848 368.587 44.552 368.587 45.32ZM366.795 40.008C366.795 40.712 366.795 41.48 366.859 42.184C366.859 42.888 366.731 43.656 366.859 44.36C367.115 43.912 367.371 43.336 367.243 42.76L366.987 40.648C366.923 40.392 366.859 40.264 366.795 40.008ZM360.075 49.992C359.819 49.416 359.371 49.16 358.475 48.968C358.923 49.48 359.435 49.8 360.075 49.992ZM364.811 28.936C364.619 28.04 363.979 27.336 363.531 26.568C363.467 26.568 363.467 26.632 363.467 26.632C363.979 27.336 364.363 28.104 364.811 28.936ZM370.507 18.568C370.507 18.632 370.443 18.632 370.443 18.696C370.507 18.76 370.507 18.824 370.507 18.952C370.571 18.824 370.635 18.824 370.571 18.824C370.571 18.696 370.507 18.632 370.507 18.568ZM371.275 19.592C371.339 19.784 371.275 19.912 371.083 20.04C371.019 19.784 371.211 19.656 371.339 19.656L371.275 19.592ZM406.384 22.472C406 23.176 405.552 23.688 405.232 24.392C404.528 25.672 403.952 27.016 403.824 28.552C403.76 29.32 403.568 29.96 403.44 30.6L402.8 37.192L402.608 38.92C402.608 39.368 402.672 39.88 402.736 40.264C402.8 41.288 402.8 42.184 402.544 43.144C402.288 43.976 402.096 44.936 402.224 45.896C402.288 46.024 402.224 46.088 402.224 46.216C402.224 46.28 402.224 46.344 402.224 46.344C401.52 46.664 401.392 46.6 401.264 45.832C401.136 44.36 401.136 42.888 401.136 41.48C401.2 40.776 401.072 40.072 401.008 39.304C401.008 39.304 400.944 39.304 400.88 39.304C400.88 40.008 400.88 40.712 400.816 41.416C400.688 42.696 400.88 43.976 400.944 45.32C401.008 45.832 401.008 46.344 401.008 46.792C401.072 46.856 401.008 47.048 401.072 47.048C401.456 47.432 401.264 47.88 401.392 48.328L401.456 48.904C401.584 48.52 401.584 48.008 401.776 47.56C401.84 48.264 401.904 48.84 401.84 49.48C401.84 49.544 401.84 49.608 401.776 49.672C401.456 49.8 401.52 50.056 401.584 50.376C401.584 50.888 401.584 50.888 401.008 51.016C400.816 49.992 400.944 48.776 401.136 47.56C400.624 47.944 400.304 48.328 399.92 48.712C399.92 48.776 399.92 48.904 399.92 49.032V49.736C399.664 49.608 399.664 49.736 399.6 49.928L399.152 51.144C399.152 51.208 399.152 51.272 399.024 51.528C398.96 51.208 398.832 51.144 398.832 50.952C398.832 50.44 398.512 49.992 398.256 49.736C398 49.288 397.872 48.84 397.744 48.456C397.616 48.2 397.488 47.944 397.36 47.688C397.36 47.752 397.296 47.88 397.36 48.008C397.424 48.776 397.488 49.48 397.616 50.184C397.616 50.44 397.68 50.824 397.488 51.144C397.232 50.696 396.976 50.376 397.04 49.928C397.104 48.968 397.04 48.008 396.976 47.112C396.912 46.536 396.72 46.024 396.656 45.32C396.72 45.832 396.72 46.344 396.72 46.728C396.72 47.176 396.72 47.56 396.656 48.072C396.656 48.52 396.528 48.968 396.528 49.416C395.824 49.48 395.696 49.288 395.503 48.776L395.312 48.328L394.736 47.496C394.608 47.368 394.608 47.24 394.608 47.048L393.904 35.464L393.072 25.864C393.072 24.968 392.752 24.136 392.432 23.24L392.176 22.728L391.728 23.24C390.192 25.288 389.104 27.4 388.4 29.768C387.76 31.816 387.44 33.928 387.184 36.04C387.12 36.36 387.12 36.616 387.184 36.872L387.952 44.104C388.016 45.128 388.016 46.28 388.016 47.304C388.016 47.56 387.952 47.688 387.888 47.944L387.696 48.904C387.696 49.16 387.632 49.48 387.44 49.672C387.312 49.736 387.248 49.928 387.248 49.992C387.056 50.568 387.056 50.568 386.544 50.824L386.095 50.056C386.095 50.696 386.352 51.208 386.224 51.912L383.856 52.552C383.408 52.168 383.536 51.528 383.344 51.016L383.024 51.208L382.768 50.76L382.448 51.4C382 51.336 381.808 50.952 381.616 50.504C381.552 50.312 381.424 50.184 381.296 49.992L380.72 48.968C380.528 48.648 380.464 48.264 380.208 47.88C379.76 47.112 379.696 46.216 379.696 45.32C379.376 42.44 379.12 39.624 378.864 36.808C378.672 34.568 378.608 32.328 378.608 30.024C378.608 29.768 378.672 29.448 378.736 29.192C378.799 27.272 379.12 25.416 379.184 23.56C379.184 22.984 379.376 22.408 379.44 21.832L379.76 19.272C379.952 18.568 380.144 17.864 380.336 17.16L380.464 16.328L381.04 14.28C381.168 14.024 381.232 13.704 381.68 13.576L382.192 14.408L382.896 14.024L383.344 14.728C383.408 14.664 383.536 14.472 383.664 14.408L384.112 15.176L384.368 14.92C384.56 14.984 384.752 14.984 385.072 14.984C385.072 15.176 385.135 15.368 385.135 15.496C385.072 16.136 385.2 16.712 385.392 17.288C385.584 17.864 385.584 18.376 385.584 19.016C385.584 19.208 385.648 19.336 385.648 19.592L385.904 19.272L386.992 17.864C387.76 17.032 388.72 16.456 389.744 16.136C390.576 15.88 391.344 15.944 391.92 16.52C392.304 16.904 392.624 17.16 392.944 17.48C393.072 17.672 393.264 17.736 393.583 17.736C394.032 17.736 394.416 17.544 394.8 17.352C396.144 16.904 397.808 18.12 397.936 19.08C397.616 18.952 397.424 18.568 397.168 18.376C396.848 18.12 396.528 17.928 396.144 17.928C396.208 17.992 396.272 18.056 396.336 18.056C396.976 18.376 397.424 18.888 397.744 19.592L398.192 21C398.256 21.128 398.256 21.256 398.384 21.384C398.512 20.936 398.704 20.616 398.896 20.232C399.024 19.72 399.28 19.336 399.472 18.824C399.6 18.696 399.664 18.568 399.856 18.504L400.88 17.608C400.88 17.544 400.944 17.48 400.944 17.416C401.52 16.136 402.416 15.24 403.504 14.472L404.016 14.152C404.592 13.832 405.232 13.896 405.744 14.472C406 14.664 406.192 14.728 406.448 14.664C406.704 14.6 406.96 14.728 407.28 14.728C407.472 14.728 407.536 14.792 407.664 14.792C408.24 14.728 408.752 14.856 409.2 15.176L411.248 16.392C411.696 16.648 412.08 17.16 412.4 17.608C413.232 18.824 413.744 20.296 414.192 21.768C414.448 22.536 414.576 23.368 414.832 24.2C414.896 24.456 414.96 24.712 414.96 24.968C415.984 27.528 416.496 30.088 416.752 32.776C416.944 34.888 417.072 37 417.2 39.112C417.2 39.752 417.136 40.392 417.136 41.032C417.072 41.672 417.008 42.248 417.008 42.888C416.944 44.168 416.944 45.448 416.944 46.792C416.944 47.048 416.88 47.304 417.136 47.496L417.2 47.624C417.2 48.2 417.2 48.712 417.008 49.224C417.008 48.776 416.944 48.328 416.944 47.88C416.56 48.2 416.88 48.776 416.24 48.968V49.992C416.304 50.376 416.176 50.568 415.92 50.76C415.728 50.888 415.664 51.016 415.472 51.144C415.152 51.016 414.96 50.76 414.768 50.44V52.424C414.384 52.552 414.319 52.552 414.319 52.232C414.256 51.976 414.256 51.656 414.256 51.4H414.192C414.064 51.656 414 51.912 414 52.232C413.744 51.784 413.872 51.4 413.872 50.952C413.808 50.504 413.936 50.12 413.936 49.736V48.328L413.424 48.456V53.128L412.72 53.384C412.656 53.128 412.656 53 412.656 52.808C412.784 50.824 412.72 48.776 412.656 46.792C412.656 46.088 412.784 45.256 412.784 44.488C412.847 43.4 412.912 42.312 412.912 41.224C412.912 39.944 412.912 38.664 412.847 37.448C412.784 35.528 412.656 33.672 412.4 31.752C412.4 31.496 412.336 31.304 412.272 31.048C412.208 31.112 412.208 31.176 412.208 31.24C412.144 32.008 412.144 32.904 412.144 33.736C412.144 34.312 412.272 34.952 412.336 35.592C412.464 36.232 412.336 36.872 412.336 37.576C412.336 37.768 412.336 37.896 412.336 38.088C412.528 39.88 412.528 41.608 412.528 43.4C412.528 44.616 412.464 45.768 412.464 46.92C412.464 47.624 412.4 48.456 412.4 49.224C412.4 49.416 412.336 49.544 412.208 49.672C412.144 49.672 412.144 49.672 412.144 49.672C411.888 49.928 411.568 50.12 411.376 50.44C411.312 50.696 411.312 51.08 411.312 51.464C411.312 51.208 411.248 50.952 411.184 50.696H411.12L410.8 52.168H410.672L410.544 51.208C410.352 51.208 410.224 51.208 410.096 51.208C409.904 51.208 409.648 51.016 409.583 50.696C409.52 50.568 409.456 50.44 409.392 50.312C408.816 49.8 408.752 49.032 408.624 48.328C408.368 46.984 408.432 45.576 408.432 44.296C408.432 40.264 408.432 36.104 408.432 32.072C408.368 30.088 408.24 28.104 407.92 26.12C407.728 25.16 407.344 24.2 407.024 23.24C406.96 22.92 406.768 22.664 406.64 22.28C406.448 22.408 406.448 22.472 406.384 22.536C406.448 22.344 406.448 22.216 406.512 22.024L405.936 21.192C405.232 21.512 404.656 22.216 404.4 22.856C403.824 24.392 403.376 25.864 403.056 27.464L402.928 27.976C403.184 27.592 403.312 27.272 403.504 26.888C404.144 25.544 404.976 24.2 405.936 22.92C406 22.728 406.256 22.664 406.384 22.472ZM401.84 32.52H401.968L402.8 25.416L402.736 25.48L402.544 25.864C402.096 27.08 401.84 28.296 401.584 29.576C401.456 30.536 401.648 31.56 401.84 32.52ZM402.736 17.672C402.8 17.736 402.8 17.736 402.864 17.736L402.928 17.672C403.44 17.288 403.952 16.968 404.592 16.968C404.656 16.968 404.784 16.904 404.784 16.904L405.424 16.136C404.912 15.496 403.888 15.752 403.312 16.392L403.76 16.648C403.376 17.032 403.056 17.352 402.736 17.672ZM412.784 29.32L411.824 27.784L412.016 29.192C412.016 29.256 412.08 29.32 412.08 29.384L412.4 30.408C412.528 30.6 412.528 30.856 412.528 31.112C412.656 30.856 412.72 30.6 412.784 30.408C413.04 30.024 412.976 29.64 412.784 29.32ZM410.928 21.896L411.504 26.12C411.696 24.904 411.312 22.472 410.928 21.896ZM404.016 15.304C403.248 15.368 402.8 15.944 402.352 16.584C403.056 16.392 403.504 15.688 404.016 15.304ZM381.68 14.792C381.424 14.92 381.296 15.176 381.424 15.688C381.616 15.432 381.936 15.176 381.68 14.792ZM387.184 19.4L386.992 19.336L386.416 20.296C386.48 20.296 386.48 20.36 386.544 20.36C386.8 20.04 386.992 19.72 387.184 19.4ZM410.992 16.904L411.504 17.544C411.504 17.544 411.568 17.48 411.568 17.416C411.44 17.224 411.312 17.032 411.12 16.84C411.12 16.904 411.056 16.904 410.992 16.904ZM385.776 21L386.032 20.36C385.776 20.552 385.712 20.68 385.776 21ZM381.936 14.088C381.872 14.088 381.808 14.152 381.808 14.152C381.808 14.216 381.808 14.344 381.872 14.472C382.128 14.344 381.936 14.216 381.936 14.088ZM429.358 31.368C429.358 31.752 429.358 32.008 429.358 32.456C431.534 30.536 434.03 29.384 436.91 29.128C436.91 29 436.91 28.808 436.91 28.68C436.91 27.336 436.974 26.056 436.91 24.712C436.91 24.136 436.654 23.432 436.526 22.92C436.398 22.6 436.27 22.28 436.142 22.024C435.885 21 435.118 20.424 434.222 19.912C433.966 19.784 433.646 19.784 433.39 19.976C432.43 20.808 431.406 21.576 430.83 22.728C430.382 23.496 429.998 24.392 429.614 25.16C429.358 25.672 429.102 26.312 428.845 26.888C428.718 27.016 428.59 27.144 428.398 27.208C428.142 27.272 427.95 27.336 427.694 27.336C427.438 27.4 427.246 27.464 427.31 27.848C426.798 27.848 426.35 27.848 425.966 27.784C425.838 27.72 425.71 27.656 425.646 27.592C425.39 27.144 425.07 26.824 424.878 26.376C424.75 26.12 424.686 25.864 424.622 25.672C424.174 23.304 424.174 21.064 424.814 18.824C425.198 17.416 425.774 16.136 426.926 15.176C428.59 13.64 430.574 13 432.942 13.768C433.646 14.024 434.478 14.28 435.182 14.536C435.31 14.6 435.438 14.664 435.566 14.664C436.014 14.6 436.526 14.728 436.974 14.92C437.87 15.432 438.702 15.88 439.534 16.392C440.43 16.904 441.07 17.672 441.518 18.632C441.582 18.824 441.71 18.888 441.774 19.016C442.158 19.528 442.478 19.976 442.926 20.488C443.054 20.616 443.118 20.744 443.31 20.872C443.31 20.68 443.246 20.488 443.246 20.296C443.694 21.192 443.758 22.088 443.95 23.112C444.014 23.624 444.142 24.2 444.27 24.712C444.846 26.888 444.91 28.936 444.718 31.048C444.654 30.344 444.654 29.512 444.59 28.808C444.59 28.808 444.59 28.808 444.526 28.808C444.462 30.472 444.398 32.008 444.398 33.672C444.398 34.056 444.398 34.12 444.91 34.184C445.102 33.672 444.974 33.096 445.102 32.584C445.166 33.864 445.166 35.144 445.166 36.488C445.166 38.984 445.166 41.48 445.166 43.912C445.166 45.448 445.166 47.048 445.166 48.648C445.166 49.608 445.614 50.312 445.934 51.208C446.062 51.592 446.126 51.912 446.126 52.36C446.062 52.488 446.126 52.744 446.126 53.064C446.19 53.576 446.062 54.024 445.742 54.472C445.678 54.6 445.614 54.728 445.55 54.856C445.422 55.048 445.294 55.304 445.422 55.688C445.422 55.816 445.486 56.008 445.486 56.072C445.486 56.264 445.422 56.392 445.166 56.52C445.102 56.072 445.102 55.624 445.038 55.112C444.91 54.728 444.526 54.216 444.078 54.088C444.014 54.28 443.886 54.536 443.758 54.792C443.886 55.688 444.334 56.456 444.142 57.416C444.078 57.608 443.822 57.8 443.694 57.928C443.31 57.48 443.118 57.16 442.926 56.712C442.798 57.224 442.798 57.288 442.414 57.352C442.35 57.48 442.35 57.608 442.35 57.736C442.222 57.672 442.094 57.544 441.966 57.416C441.39 57.736 441.326 57.288 441.006 56.904C440.686 56.904 440.366 56.904 440.174 56.52C440.11 56.392 440.046 56.264 439.918 56.328C439.47 56.072 438.958 55.368 438.638 55.048C437.486 53.896 437.102 51.912 436.91 50.76C436.398 51.016 436.718 51.464 436.526 51.848C436.462 51.592 436.398 51.4 436.398 51.208C436.27 51.208 436.142 51.208 436.078 51.336C435.758 51.592 435.438 51.912 435.054 52.168C434.03 53.064 432.878 53.512 431.598 53.832C431.406 53.832 431.15 53.896 430.958 54.024C430.126 54.344 429.358 54.6 428.398 54.6C427.694 54.536 427.182 54.28 426.606 53.832C426.286 53.64 425.966 53.576 425.646 53.32C424.558 52.488 423.534 51.592 422.894 50.312C422.766 50.056 422.574 49.8 422.446 49.544C421.806 48.008 421.102 46.536 420.974 44.872C420.91 44.168 420.974 43.592 421.23 42.952C421.742 41.864 422.318 40.776 423.022 39.88C423.278 39.496 423.406 39.24 423.278 38.856C423.15 38.536 423.214 38.28 423.342 37.96C423.534 37.768 423.598 37.512 423.726 37.256C423.79 37 423.982 36.744 423.982 36.424C423.982 36.36 423.982 35.976 424.366 36.104H424.43C424.75 35.592 425.006 35.144 425.326 34.632C425.454 34.504 425.454 34.376 425.582 34.248C426.606 33.16 427.758 32.328 428.974 31.56C429.102 31.496 429.23 31.496 429.358 31.368ZM430.062 47.496C431.022 46.792 432.046 46.28 433.006 45.576C434.03 44.872 435.118 43.976 436.142 43.272C436.398 43.144 436.398 42.888 436.398 42.696C436.462 40.264 436.59 37.768 436.654 35.272C436.654 35.08 436.654 34.888 436.654 34.632C435.95 34.952 435.566 35.4 435.118 35.848C433.966 37.064 432.878 38.472 431.982 39.944C430.958 41.544 430.062 43.336 429.614 45.192C429.486 45.576 429.422 46.024 429.358 46.344C429.358 46.856 429.55 47.24 430.062 47.496ZM424.11 38.28C424.75 37.512 425.518 36.808 426.094 35.976C425.966 35.848 425.838 35.784 425.71 35.656C425.07 36.552 424.558 37.32 424.11 38.28ZM442.414 24.648C442.286 25.864 442.606 28.296 442.99 28.808C442.862 27.4 442.734 26.12 442.414 24.648ZM440.302 18.632C439.79 18.12 439.342 17.608 438.894 17.544C439.406 18.44 439.086 18.248 440.302 18.632ZM442.35 55.752C442.414 55.752 442.414 55.752 442.414 55.752C442.478 54.984 442.222 54.472 441.774 53.96C441.71 53.96 441.71 53.96 441.646 54.024C441.902 54.664 442.094 55.176 442.35 55.752ZM441.71 23.24C441.774 22.344 441.454 21.64 440.942 21.256C441.198 21.96 441.454 22.6 441.71 23.24ZM433.39 52.488C433.39 52.424 433.39 52.424 433.39 52.424C433.006 52.552 432.622 52.808 432.43 53.192C432.75 53 433.07 52.744 433.39 52.488ZM429.678 18.568C429.23 18.76 429.102 18.824 428.845 19.272C429.166 19.016 429.55 18.888 429.678 18.568ZM426.67 35.528C427.118 35.4 427.118 35.4 427.182 35.016C426.99 35.208 426.862 35.4 426.67 35.528ZM454.284 53.64L454.156 52.488L453.58 52.616C453.516 52.616 453.516 52.616 453.516 52.616C453.452 52.68 453.388 52.872 453.196 53C453.196 52.808 453.068 52.616 453.004 52.488C452.684 52.552 452.492 52.36 452.492 51.976C452.428 51.656 452.3 51.464 452.044 51.336C451.852 51.208 451.724 50.952 451.66 50.696C451.404 49.992 451.212 49.096 451.404 48.264C451.532 47.368 451.404 46.472 451.276 45.576C451.148 44.104 450.956 42.632 450.764 41.096L450.572 39.304C450.508 37.576 450.252 35.848 449.996 34.12C449.868 33.288 449.804 32.456 449.804 31.688C449.804 28.36 449.804 25.16 449.804 21.96C449.868 19.592 450.06 17.288 450.252 14.984C450.316 13.896 450.316 12.744 450.444 11.656C450.572 9.992 450.7 8.392 451.084 6.664L451.532 5.064C451.596 4.936 451.66 4.744 451.724 4.552C451.852 4.232 451.916 4.232 452.236 4.36L452.556 4.168C452.94 4.232 452.94 4.744 453.196 5L453.836 4.744C453.836 4.936 453.836 5 453.9 5.192C453.964 5.192 454.028 5.192 454.092 5.192C454.156 5.256 454.22 5.448 454.284 5.448C454.412 5.384 454.412 5.256 454.476 5.192L454.668 5C455.052 5.064 455.372 5.32 455.372 5.768C456.012 5.768 456.332 6.216 456.396 6.664C456.588 7.624 456.652 8.648 456.716 9.736L456.844 13.512C456.908 14.92 457.036 16.392 457.164 17.864C457.484 20.808 457.612 23.816 457.548 26.888C457.484 27.464 457.612 28.104 457.612 28.744C457.74 30.408 457.804 32.008 457.868 33.672L458.124 37C458.572 40.52 458.764 44.104 459.02 47.688V48.968C459.02 49.096 459.02 49.224 458.956 49.352L458.636 50.376C458.572 50.824 458.316 51.208 457.932 51.4C457.676 51.592 457.356 51.784 457.1 51.912C456.844 52.104 456.652 52.296 456.716 52.552C456.716 52.872 456.588 53.064 456.268 53.128C455.628 53.32 455.052 53.512 454.284 53.64ZM451.724 37.512L452.172 38.536H452.236V37.576C452.236 37.256 452.3 36.936 452.492 36.616C452.62 36.488 452.62 36.296 452.62 36.104L452.3 32.328C452.236 31.688 452.236 30.984 452.428 30.28C452.556 29.896 452.556 29.448 452.556 29.064L452.3 25.032C452.108 22.728 452.236 20.36 451.724 18.12C451.724 17.608 451.66 17.096 451.532 16.392C451.468 16.904 451.34 17.16 451.34 17.544C451.276 18.504 451.276 19.528 451.276 20.552C451.276 22.664 451.276 24.776 451.276 26.888C451.276 27.848 451.34 28.872 451.404 29.768C451.404 30.536 451.468 31.24 451.532 31.944C451.532 32.2 451.468 32.392 451.404 32.712C451.276 32.52 451.276 32.456 451.276 32.392C451.276 35.144 451.276 37.832 451.532 40.712C451.788 40.328 451.788 40.136 451.788 39.752C451.724 39.048 451.724 38.28 451.724 37.576V37.512ZM456.396 22.024L456.524 23.56C456.588 22.856 456.588 22.216 456.396 22.024ZM467.472 53.64L467.344 52.488L466.768 52.616C466.704 52.616 466.704 52.616 466.704 52.616C466.64 52.68 466.576 52.872 466.384 53C466.384 52.808 466.256 52.616 466.192 52.488C465.872 52.552 465.68 52.36 465.68 51.976C465.616 51.656 465.488 51.464 465.232 51.336C465.04 51.208 464.911 50.952 464.848 50.696C464.592 49.992 464.4 49.096 464.592 48.264C464.72 47.368 464.592 46.472 464.464 45.576C464.336 44.104 464.144 42.632 463.952 41.096L463.76 39.304C463.696 37.576 463.44 35.848 463.184 34.12C463.056 33.288 462.992 32.456 462.992 31.688C462.992 28.36 462.992 25.16 462.992 21.96C463.056 19.592 463.248 17.288 463.44 14.984C463.504 13.896 463.504 12.744 463.632 11.656C463.76 9.992 463.888 8.392 464.272 6.664L464.72 5.064C464.784 4.936 464.848 4.744 464.911 4.552C465.04 4.232 465.104 4.232 465.424 4.36L465.744 4.168C466.128 4.232 466.128 4.744 466.384 5L467.024 4.744C467.024 4.936 467.024 5 467.088 5.192C467.152 5.192 467.216 5.192 467.28 5.192C467.344 5.256 467.408 5.448 467.472 5.448C467.6 5.384 467.6 5.256 467.664 5.192L467.856 5C468.24 5.064 468.56 5.32 468.56 5.768C469.2 5.768 469.52 6.216 469.584 6.664C469.776 7.624 469.84 8.648 469.904 9.736L470.032 13.512C470.095 14.92 470.224 16.392 470.352 17.864C470.672 20.808 470.8 23.816 470.736 26.888C470.672 27.464 470.8 28.104 470.8 28.744C470.928 30.408 470.992 32.008 471.056 33.672L471.312 37C471.76 40.52 471.952 44.104 472.208 47.688V48.968C472.208 49.096 472.208 49.224 472.144 49.352L471.824 50.376C471.76 50.824 471.504 51.208 471.12 51.4C470.864 51.592 470.544 51.784 470.288 51.912C470.032 52.104 469.84 52.296 469.904 52.552C469.904 52.872 469.776 53.064 469.456 53.128C468.816 53.32 468.24 53.512 467.472 53.64ZM464.911 37.512L465.36 38.536H465.424V37.576C465.424 37.256 465.488 36.936 465.68 36.616C465.808 36.488 465.808 36.296 465.808 36.104L465.488 32.328C465.424 31.688 465.424 30.984 465.616 30.28C465.744 29.896 465.744 29.448 465.744 29.064L465.488 25.032C465.296 22.728 465.424 20.36 464.911 18.12C464.911 17.608 464.848 17.096 464.72 16.392C464.656 16.904 464.528 17.16 464.528 17.544C464.464 18.504 464.464 19.528 464.464 20.552C464.464 22.664 464.464 24.776 464.464 26.888C464.464 27.848 464.528 28.872 464.592 29.768C464.592 30.536 464.656 31.24 464.72 31.944C464.72 32.2 464.656 32.392 464.592 32.712C464.464 32.52 464.464 32.456 464.464 32.392C464.464 35.144 464.464 37.832 464.72 40.712C464.976 40.328 464.976 40.136 464.976 39.752C464.911 39.048 464.911 38.28 464.911 37.576V37.512ZM469.584 22.024L469.712 23.56C469.776 22.856 469.776 22.216 469.584 22.024ZM479.699 53.384C479.699 53.384 479.635 53.32 479.443 53.256C479.699 53.128 479.763 53.128 479.891 53.128C479.955 53 480.019 52.872 480.147 52.68C479.571 52.616 479.123 52.552 478.547 52.424C478.227 52.424 478.035 52.424 477.843 52.68C477.779 52.68 477.779 52.744 477.651 52.808C477.715 52.424 477.523 52.36 477.267 52.168C477.011 51.912 476.947 51.592 476.627 51.4C476.563 51.4 476.563 51.208 476.563 51.144C476.627 51.016 476.755 50.888 476.819 50.76C476.563 50.696 476.307 50.568 476.051 50.44C475.987 50.632 475.859 50.824 475.731 50.952C475.667 50.824 475.603 50.696 475.603 50.632C475.347 50.44 475.347 50.184 475.475 49.992C475.603 49.608 475.731 49.224 475.347 48.84C475.539 48.776 475.603 48.776 475.603 48.776C475.987 48.776 475.987 48.776 475.795 48.328C476.179 48.264 476.243 48.008 476.307 47.752C477.523 44.744 478.867 41.736 480.211 38.792C482.195 34.44 484.115 30.152 485.843 25.736C486.099 25.16 486.355 24.456 486.611 23.88C486.611 23.688 486.739 23.496 486.931 23.432C487.059 23.368 487.187 23.24 487.251 23.176C487.379 23.048 487.443 22.984 487.507 22.984C487.827 22.984 487.827 22.728 487.827 22.472C487.827 21.96 488.019 21.32 488.275 20.808C488.467 20.296 488.723 19.784 488.915 19.336C488.979 19.208 488.979 19.016 489.043 18.824C488.851 18.76 488.659 18.76 488.467 18.696C486.035 18.504 483.667 18.376 481.235 18.12C480.403 18.056 479.443 17.864 478.611 17.672C478.483 17.672 478.419 17.608 478.291 17.608C477.907 17.352 477.843 17.16 478.035 16.776C478.035 16.712 478.099 16.648 478.099 16.584C477.715 16.392 477.523 15.944 477.331 15.56C477.459 15.432 477.587 15.432 477.779 15.304C477.523 15.176 477.267 15.048 477.075 14.92C476.883 14.728 476.819 14.6 476.819 14.28C476.819 13.896 476.755 13.512 476.691 13.256C476.691 13.128 476.691 13.064 476.691 12.936C477.075 12.872 477.331 12.424 477.779 12.424C478.227 12.424 478.611 12.296 479.059 12.296C481.235 12.168 483.475 12.04 485.715 12.168C488.275 12.296 490.835 12.488 493.395 12.808C494.035 12.872 494.739 13.128 495.251 13.512C495.315 13.64 495.507 13.704 495.635 13.704C496.275 13.768 496.787 13.96 497.299 14.344C497.235 14.6 497.235 14.728 497.299 14.984C497.363 15.176 497.235 15.496 497.235 15.752C497.171 15.944 497.043 16.2 496.979 16.52C496.787 16.776 496.915 17.096 497.043 17.16C497.299 17.224 497.043 17.352 497.171 17.416C497.235 17.48 497.427 17.48 497.491 17.48C497.811 17.48 497.939 17.608 497.939 17.928C497.875 18.312 497.811 18.568 497.683 18.952C497.491 20.552 496.723 21.96 496.211 23.368C495.443 25.224 494.803 27.08 494.035 28.936C493.459 30.472 492.819 31.944 492.243 33.416C491.411 35.4 490.387 37.576 489.427 39.56C488.787 41.096 488.019 42.568 487.315 44.04C487.251 44.296 487.123 44.552 486.995 44.872C487.827 45.128 488.659 45.192 489.427 45.128C490.195 45.128 490.899 45.192 491.603 45.192C491.859 45.256 492.115 45.128 492.243 45.448C492.307 45.512 492.499 45.512 492.627 45.512C494.035 45.576 495.379 45.576 496.723 45.832C497.747 45.896 498.771 46.216 499.795 46.536C499.731 46.6 499.731 46.792 499.667 46.92C499.539 46.856 499.411 46.856 499.155 46.792C499.219 46.92 499.219 47.048 499.283 47.048C499.603 47.304 499.923 47.432 500.115 47.56C500.179 47.624 500.243 47.752 500.371 47.944C500.179 48.008 500.115 48.008 499.987 48.072C500.307 48.392 500.627 48.648 500.883 48.904C500.755 49.224 500.563 49.48 500.371 49.8C500.563 49.928 500.627 49.992 500.819 50.056C500.819 50.44 500.627 50.696 500.307 50.888C499.603 51.336 498.899 51.912 498.131 52.36C497.683 52.552 497.235 52.616 496.787 52.744C496.595 52.808 496.403 52.872 496.275 53C496.019 53.128 495.763 53.32 495.443 53.384C494.547 53.64 493.651 53.576 492.691 53.64C490.387 53.64 488.083 53.384 485.779 53.128C485.139 53.128 484.499 52.936 483.859 52.872C483.347 52.872 482.899 52.808 482.387 52.744C481.875 52.744 481.875 52.744 481.619 53.064C481.555 52.936 481.555 52.872 481.491 52.744C481.235 52.68 481.171 52.936 481.043 53.128C480.659 53.576 480.403 53.768 479.827 53.832C479.571 53.64 479.699 53.576 479.699 53.384C480.147 53.384 480.147 53.384 480.275 53.128C480.019 53.192 479.891 53.32 479.699 53.384ZM489.107 22.664C488.915 22.792 488.915 23.112 488.851 23.24C488.851 23.24 488.915 23.24 488.915 23.304C488.979 23.112 489.043 22.856 489.107 22.664C489.171 22.472 489.171 22.408 489.235 22.216H489.171C489.171 22.344 489.107 22.472 489.107 22.664ZM490.195 21.896C489.363 24.072 488.531 26.248 487.699 28.424C486.739 30.6 485.843 32.776 485.011 34.952C485.139 34.824 485.331 34.696 485.395 34.504C485.523 34.376 485.523 34.184 485.651 34.12C486.035 33.288 486.419 32.52 486.739 31.752L486.867 31.56C487.251 31.688 487.187 31.304 487.251 31.176C487.635 30.344 487.955 29.512 488.275 28.744C489.555 25.608 490.771 22.472 491.987 19.336C492.051 19.336 492.051 19.208 492.115 19.08C491.475 19.08 491.027 19.016 490.515 18.952C490.387 19.144 490.323 19.336 490.259 19.528C490.259 19.592 490.195 19.72 490.195 19.784C490.515 19.976 490.259 20.232 490.259 20.424C490.195 20.872 490.131 21.384 490.003 21.832C490.131 21.896 490.195 21.896 490.195 21.896ZM485.011 52.808C486.547 52.936 488.147 52.936 489.683 52.872C489.299 52.616 488.979 52.68 488.531 52.68C488.019 52.616 487.571 52.68 487.059 52.616C486.355 52.424 485.651 52.552 485.011 52.808ZM495.827 16.52C495.955 16.136 496.019 15.944 496.147 15.752C496.147 15.688 496.147 15.496 496.147 15.432C496.083 15.368 496.019 15.304 495.891 15.24C495.827 15.24 495.763 15.368 495.763 15.432C495.635 15.56 495.507 15.688 495.379 15.944C495.507 16.072 495.635 16.2 495.827 16.52ZM477.267 48.264C477.587 48.264 477.587 48.2 477.779 47.688C477.523 47.816 477.267 47.88 477.267 48.264ZM495.763 14.28C495.763 14.344 495.763 14.408 495.763 14.472C496.019 14.472 496.339 14.6 496.595 14.472C496.339 14.408 496.083 14.344 495.763 14.28ZM477.331 48.712C477.331 48.648 477.331 48.584 477.267 48.52C477.203 48.584 477.075 48.584 477.011 48.648C477.011 48.712 477.011 48.712 477.011 48.776C477.139 48.776 477.267 48.776 477.331 48.712ZM489.619 21.256H489.683C489.683 21.192 489.683 21.064 489.747 21C489.683 21 489.683 21 489.683 21.064C489.619 21.128 489.619 21.192 489.619 21.256ZM478.675 53.896C478.611 53.896 478.547 53.96 478.483 53.96C478.483 53.96 478.483 53.896 478.419 53.832C478.419 53.832 478.483 53.832 478.483 53.768C478.547 53.832 478.611 53.832 478.675 53.896Z" fill="#D61117"/>
</svg>
