<svg width="752" height="87" viewBox="0 0 752 87" fill="none" xmlns="http://www.w3.org/2000/svg">
<path d="M27.568 28.888L27.664 28.984V28.6L26.896 28.888C26.8 28.696 26.8 28.6 26.512 28.504L26.8 29.176C27.088 29.848 27.184 29.848 26.416 30.232C26.128 29.944 25.744 29.368 25.456 28.888C24.976 27.736 24.4 26.584 24.016 25.24C23.056 22.744 22.096 20.152 20.752 17.944C20.272 16.984 19.504 16.408 18.832 15.832C18.064 16.12 17.68 16.792 17.2 17.368C15.568 19.48 15.184 21.88 14.896 24.568C14.8 27.064 15.376 29.176 16.624 31.192C17.968 33.496 19.312 35.8 20.848 38.008C23.056 41.368 24.976 44.92 26.8 48.568C27.184 49.24 27.568 50.2 27.856 50.968C28.528 52.888 29.2 54.712 29.872 56.536C30.736 59.128 31.312 61.624 31.6 64.12C31.696 66.712 31.216 69.016 29.488 70.936C29.104 71.512 28.816 71.992 28.528 72.664C27.664 74.776 26.224 76.6 23.92 77.656C22.96 78.136 22.096 78.52 21.232 79C20.176 79.672 18.928 79.864 17.68 79.576C16.144 79.096 14.608 78.424 13.072 77.752C12.976 77.752 12.784 77.56 12.592 77.368C12.88 77.368 13.072 77.368 13.456 77.368C12.592 76.6 11.824 75.832 10.768 75.544C10.768 75.448 10.672 75.448 10.576 75.448C9.808 75.64 9.424 75.16 9.04 74.68C8.272 73.912 7.504 73.144 7.024 72.28C6.064 70.648 4.528 69.112 3.856 67.288C2.992 65.368 2.32 63.256 1.84 61.048C1.264 58.168 0.88 55.288 0.688 52.408C0.592 51.832 0.688 51.256 0.88 50.776C0.88 50.488 1.168 50.2 1.264 50.008C1.36 49.816 1.552 49.624 1.648 49.528C2.128 48.856 2.704 48.568 3.664 48.76C4.048 48.952 4.336 48.952 4.624 48.568C5.008 47.992 5.68 48.184 6.16 48.184C6.544 47.416 7.12 47.224 8.08 47.512C8.176 47.896 8.176 48.184 7.888 48.472C7.984 48.568 7.984 48.568 7.984 48.568L8.848 49.24C8.752 50.008 9.136 50.776 8.848 51.448C8.656 51.64 8.656 51.832 8.656 52.12C9.04 54.424 9.328 56.632 9.808 59.032C10.096 60.568 10.672 62.008 11.248 63.544C11.536 64.408 12.016 65.176 12.496 65.848L12.784 66.328C12.784 66.328 12.88 66.232 12.976 66.232C12.88 66.04 12.88 66.04 12.88 65.848C12.112 63.832 11.728 61.72 11.536 59.8L10.48 54.232L9.712 49.912L9.232 48.088C9.232 47.896 9.136 47.8 9.136 47.512C9.616 47.224 10 47.512 10.384 47.416C10.48 47.8 10.48 47.992 10.576 48.184C10.672 48.376 10.768 48.568 11.056 48.76C11.44 48.952 11.632 49.048 11.248 49.432L11.824 49.912C12.208 50.008 12.4 50.2 12.304 50.68C12.208 50.776 12.304 50.872 12.4 50.968C13.36 52.216 13.456 53.656 13.648 55.096L14.512 60.76C15.088 63.16 15.76 65.368 17.008 67.192L17.68 68.248C17.776 67.864 17.968 67.576 18.064 67.288C18.736 65.368 18.832 63.448 18.544 61.432C18.16 57.688 17.104 54.232 15.856 50.776C15.568 50.008 15.184 49.24 14.8 48.664C12.784 45.592 10.768 42.616 8.848 39.544C7.408 37.336 6.16 35.032 5.296 32.536C4.336 29.848 3.856 27.064 3.76 24.088C3.664 22.744 3.568 21.304 3.76 19.96C3.952 17.464 4.624 15.064 6.064 12.856C6.352 12.28 6.544 11.608 6.16 10.84C6.064 10.648 6.16 10.552 6.16 10.36C7.024 8.92 7.888 7.672 9.136 6.712C9.424 6.51999 9.712 6.328 10.096 6.616C10.288 6.808 10.672 6.808 10.864 6.712C11.152 6.712 11.344 6.904 11.536 7.192C10.096 7.86399 8.848 8.72799 8.08 10.072C9.04 9.304 10 8.72799 11.152 8.44C11.728 8.248 12.208 7.96 12.592 7.576C13.36 6.904 14.128 6.328 15.184 5.944L15.664 5.65599C14.992 5.368 14.224 5.464 13.552 5.464C14.416 5.17599 15.376 5.17599 16.24 5.272C17.392 5.464 18.544 5.56 19.696 5.56C20.944 5.65599 22.192 6.13599 23.344 6.712C24.592 7.288 25.84 8.248 26.512 9.496C26.608 9.68799 26.8 9.88 26.896 9.88C27.856 10.648 28.528 11.32 29.104 12.184C29.104 12.184 29.2 12.28 29.392 12.376C29.008 11.32 28.24 10.648 27.76 9.88L28.528 10.552V9.88L29.104 10.648C30.064 11.704 30.64 13.144 31.024 14.584L31.504 16.792L31.888 18.808C32.656 21.016 32.848 23.224 32.464 25.432C32.272 26.584 31.888 27.352 31.216 28.312L30.544 29.272C30.448 29.464 30.448 29.56 30.256 29.656C29.872 29.848 29.68 30.04 29.488 30.52C29.392 30.712 29.008 30.712 28.72 30.712C28.624 30.328 29.008 29.752 28.336 29.56L28.144 30.136L27.568 28.888ZM11.536 31.96C11.344 31.768 11.248 31.48 11.152 31.288C11.152 31.288 11.152 31.384 11.056 31.384C11.536 32.056 11.536 32.248 11.536 32.344C12.592 33.976 13.456 35.608 14.416 37.24L14.704 37.336C14.8 37.72 15.088 38.008 15.28 38.392C15.28 38.392 15.28 38.392 15.376 38.296C15.28 38.008 15.088 37.624 14.704 37.336C14.512 36.952 14.416 36.568 14.32 36.28L11.824 32.344C11.728 32.152 11.536 32.152 11.536 31.96ZM23.536 67.48C23.824 67.192 23.92 67.096 24.016 66.808C24.592 66.04 24.688 65.368 24.4 64.408C24.016 63.544 23.92 62.776 24.304 61.72L24.4 61.048C24.688 59.512 24.976 58.072 24.304 56.536V56.248C24.016 54.52 23.536 52.888 22.864 51.448C22.576 50.776 22.288 50.008 22 49.336C21.712 49.528 21.808 49.72 21.712 49.912C21.328 50.296 21.616 50.68 21.712 50.968C22.192 52.408 22.576 53.752 22.96 55.096C23.44 56.92 23.632 58.84 23.728 60.664C23.824 61.816 23.92 63.064 23.536 64.12C23.248 65.272 23.536 66.328 23.536 67.48ZM20.848 59.512C20.848 60.568 20.848 61.72 20.944 62.776C20.944 63.832 20.752 64.984 20.944 66.04C21.328 65.368 21.712 64.504 21.52 63.64L21.136 60.472C21.04 60.088 20.944 59.896 20.848 59.512ZM10.768 74.488C10.384 73.624 9.712 73.24 8.368 72.952C9.04 73.72 9.808 74.2 10.768 74.488ZM17.872 42.904C17.584 41.56 16.624 40.504 15.952 39.352C15.856 39.352 15.856 39.448 15.856 39.448C16.624 40.504 17.2 41.656 17.872 42.904ZM26.416 27.352C26.416 27.448 26.32 27.448 26.32 27.544C26.416 27.64 26.416 27.736 26.416 27.928C26.512 27.736 26.608 27.736 26.512 27.736C26.512 27.544 26.416 27.448 26.416 27.352ZM27.568 28.888C27.664 29.176 27.568 29.368 27.28 29.56C27.184 29.176 27.472 28.984 27.664 28.984L27.568 28.888ZM67.9435 62.2H67.7515L66.8875 66.424C66.5035 68.056 66.1195 69.688 65.5435 71.32C64.9675 72.664 64.1995 73.72 63.1435 74.584L62.0875 75.832C61.7995 76.312 61.4155 76.984 60.9355 77.464C60.2635 78.328 59.2075 79 58.1515 79.384C56.7115 79.864 55.3675 80.248 54.0235 80.632C52.6795 81.016 51.4315 80.632 50.3755 79.864C49.3195 79 48.5515 78.04 47.7835 76.888C47.4955 76.312 46.9195 75.832 46.3435 75.064C46.2475 75.352 46.1515 75.448 46.1515 75.544C46.1515 75.544 46.0555 75.544 45.9595 75.544C45.6715 74.68 44.9995 73.912 44.5195 72.952C43.0795 69.784 41.7355 66.424 40.4875 63.16C39.6235 60.568 39.3355 57.976 39.1435 55.288C39.0475 51.64 39.0475 47.896 39.2395 44.248C39.3355 41.656 39.6235 39.16 39.8155 36.472C40.0075 34.648 40.1995 32.824 40.4875 31C40.4875 30.424 40.7755 29.752 40.8715 29.08L41.8315 24.472C41.9275 23.896 42.0235 23.416 42.2155 22.936C42.4075 22.36 42.7915 21.976 43.4635 21.88C43.7515 21.688 43.9435 21.592 44.3275 21.688C44.2315 22.072 44.2315 22.648 44.0395 22.744C43.8475 23.032 43.7515 23.416 43.5595 23.608C43.8475 23.704 44.1355 23.512 44.2315 23.32L45.5755 21.208C45.6715 21.112 45.7675 21.016 45.8635 20.824C45.9595 21.112 46.2475 21.304 46.2475 21.496C46.1515 21.688 46.2475 21.88 46.3435 22.264C46.4395 22.744 46.6315 23.416 46.2475 23.992C45.9595 24.376 45.9595 24.856 45.8635 25.336L45.6715 28.6C45.6715 29.944 45.6715 31.384 45.7675 32.632C45.8635 33.4 45.6715 34.264 45.6715 34.936C45.3835 36.184 45.2875 37.432 45.3835 38.68C45.4795 39.64 45.3835 40.504 45.3835 41.464C45.3835 42.136 45.4795 42.904 45.4795 43.48C45.4795 46.744 45.3835 49.816 45.3835 52.888C45.3835 54.04 45.4795 55.096 45.4795 56.248C45.5755 56.248 45.5755 56.44 45.6715 56.536C45.6715 56.44 45.6715 56.248 45.6715 56.248C46.0555 52.6 45.9595 49.144 45.9595 45.592C45.9595 43 46.0555 40.216 46.2475 37.624C46.3435 35.416 46.3435 33.304 46.7275 31.096C46.7275 30.904 46.6315 30.712 46.6315 30.328C46.5355 30.04 46.4395 29.752 46.5355 29.56C46.5355 29.176 46.6315 28.888 46.7275 28.408C46.7275 28.12 46.8235 27.736 46.8235 27.352C46.9195 25.624 46.9195 23.992 46.9195 22.264C46.9195 21.88 47.0155 21.592 47.0155 21.112C47.8795 21.208 48.1675 21.496 48.2635 22.168C48.3595 22.744 48.3595 23.416 48.3595 23.896V24.664L49.0315 24.088C49.3195 23.512 48.7435 23.128 48.9355 22.648C48.9355 22.552 48.6475 22.264 48.5515 22.168C48.6475 21.88 48.8395 21.88 49.1275 22.072C49.7995 22.648 49.9915 23.416 49.9915 24.088V24.472C49.8955 25.24 49.9915 25.816 50.0875 26.584C50.3755 27.832 50.3755 29.176 50.4715 30.712C51.0475 35.224 51.1435 39.832 51.1435 44.536C51.1435 46.264 51.0475 47.896 50.7595 49.624C50.7595 50.008 50.7595 50.296 50.7595 50.68C50.9515 52.888 51.1435 55.096 51.2395 57.304C51.4315 59.8 51.5275 62.008 52.1995 64.312C52.3915 65.272 52.7755 66.04 52.9675 66.808C53.0635 67 53.1595 67.192 53.2555 67.192C53.3515 67 53.5435 66.808 53.6395 66.52C54.4075 64.12 54.9835 61.72 55.4635 59.128C56.4235 55.096 57.1915 51.064 58.0555 47.128C58.1515 46.744 58.2475 46.264 58.4395 45.88C58.6315 45.688 58.7275 45.496 58.7275 45.304C59.4955 42.328 60.2635 39.544 60.6475 36.472C60.7435 36.472 60.6475 36.28 60.5515 36.184C60.3595 36.856 60.2635 37.624 59.8795 38.296C59.8795 38.296 59.8795 38.296 59.7835 38.296V38.008C60.4555 34.36 61.3195 30.712 62.8555 27.256C63.4315 26.104 63.9115 24.952 64.8715 23.896C65.1595 23.608 65.3515 23.32 65.5435 23.032C65.7355 22.456 65.8315 21.88 65.7355 21.496C65.7355 20.728 65.7355 20.056 65.7355 19.384C66.0235 19.384 66.4075 19.48 66.6955 19.672C66.7915 19.384 66.7915 19 66.7915 18.616C67.1755 19 67.6555 19.192 67.7515 19.768C67.8475 19.96 68.0395 20.056 68.2315 20.248C68.7115 20.056 68.9995 19.384 69.6715 19.48L70.4395 20.344C71.2075 19.384 71.3035 19.384 72.4555 19.96L73.2235 20.632C73.6075 20.728 73.8955 20.728 74.1835 20.824C74.9515 21.208 75.5275 21.88 75.7195 22.744C76.0075 24.28 76.3915 25.72 76.6795 27.256L77.6395 35.224C77.8315 36.664 78.0235 38.104 78.1195 39.64C78.3115 40.12 78.5035 40.792 78.5035 41.368C78.5035 41.464 78.5035 41.56 78.5035 41.56C79.1755 41.752 78.9835 42.328 79.0795 42.808C79.4635 45.88 79.7515 48.952 80.0395 51.928C80.3275 55 80.6155 58.072 80.9995 61.336C80.9995 61.816 80.9995 62.488 80.9035 63.16C80.9035 63.544 80.9035 64.12 81.1915 64.6C81.2875 64.696 81.2875 64.888 81.2875 65.08C81.3835 66.328 81.5755 67.576 81.6715 69.016L81.3835 68.632C81.3835 70.36 81.3835 71.896 81.7675 73.336L81.8635 72.184C81.8635 72.184 81.8635 72.184 81.9595 72.184C82.0555 74.104 82.1515 76.216 82.2475 78.136C82.2475 78.712 82.1515 79.192 81.5755 79.576C81.2875 79.192 81.3835 78.712 81.3835 78.328L81.6715 75.928C81.7675 75.832 81.6715 75.736 81.6715 75.544L80.9995 77.176L79.1755 76.792C79.3675 77.656 79.5595 78.424 79.5595 79.192C79.7515 80.248 79.9435 81.304 79.9435 82.264C79.9435 82.456 79.8475 82.744 79.6555 82.84L76.1035 84.568C75.9115 83.8 75.8155 83.128 75.5275 82.264L74.8555 83.032L74.3755 82.84C74.2795 83.128 74.2795 83.32 74.0875 83.608L73.7035 82.84H73.0315C72.6475 82.456 72.7435 81.88 72.5515 81.4H72.1675C71.4955 81.4 71.2075 81.016 71.0155 80.44C70.8235 79.96 70.8235 79.384 70.7275 78.808C70.4395 76.504 70.4395 74.296 70.4395 71.992C70.5355 69.592 70.5355 67.192 70.7275 64.792C70.7275 63.544 70.5355 62.296 70.4395 61.048L69.9595 55.48L69.6715 53.752C69.4795 54.712 69.1915 55.864 69.2875 56.824C69.3835 57.688 69.3835 58.36 69.3835 59.128C69.4795 60.28 69.3835 61.528 69.4795 62.68C69.4795 63.064 69.5755 63.352 69.6715 63.64C69.9595 64.984 70.0555 66.232 69.8635 67.48C69.6715 68.632 69.5755 69.784 69.3835 70.84C69.2875 70.36 69.2875 69.688 69.2875 69.016C69.1915 68.344 69.0955 67.672 68.9995 67.096L68.6155 69.208H68.5195L67.9435 62.2ZM65.8315 24.76C65.8315 24.376 66.2155 23.896 65.9275 23.416C64.9675 24.472 63.3355 27.736 63.1435 29.272C64.0075 27.736 64.9675 26.296 65.9275 24.76C65.7355 25.144 65.7355 25.432 65.5435 25.72C64.6795 27.064 64.0075 28.696 63.6235 30.328C63.1435 32.248 62.5675 34.168 62.3755 36.184V36.664L62.7595 36.088C62.3755 38.392 62.0875 40.888 62.0875 43.288L62.3755 43.096C62.3755 43.384 62.3755 43.48 62.2795 43.48C61.8955 46.168 61.5115 48.952 60.9355 51.448L59.0155 61.72C58.5355 63.832 58.0555 65.848 57.0955 67.768C56.7115 68.632 56.2315 69.4 55.8475 70.36C55.3675 71.32 55.3675 71.32 56.2315 72.28L56.5195 72.568C56.6155 72.376 56.9035 72.28 57.0955 72.088C57.2875 71.896 57.4795 71.512 57.5755 71.224C58.0555 70.072 58.4395 68.728 58.7275 67.48C58.7275 67.384 58.6315 67.288 58.6315 67.288C58.4395 67.288 58.2475 67.288 57.8635 67.384C58.9195 65.272 59.6875 63.064 60.2635 60.664C59.8795 61.144 59.8795 61.72 59.1115 62.2C59.3995 61.24 59.5915 60.28 59.7835 59.512L62.0875 47.416L63.1435 41.176C63.4315 39.64 63.6235 38.104 63.9115 36.472C64.1035 34.36 64.1995 32.248 64.8715 30.136C65.3515 28.504 65.4475 26.776 66.0235 25.24C66.1195 24.952 66.0235 24.856 65.8315 24.76ZM72.2635 79.192L72.6475 80.728C73.0315 80.536 73.3195 80.248 73.2235 79.96C72.9355 79 72.9355 78.04 72.7435 76.984L72.2635 70.744L71.4955 61.72C71.3995 59.896 71.2075 58.264 70.9195 56.536C70.4395 57.304 70.4395 57.4 70.4395 58.072C70.5355 59.416 70.7275 60.856 70.8235 62.296C71.0155 64.408 71.2075 66.52 71.2075 68.632L71.6875 74.392C71.7835 75.064 71.5915 75.832 71.8795 76.408C72.2635 77.368 72.2635 78.136 72.2635 79.192ZM48.9355 62.008L49.2235 62.872C49.2235 63.064 49.3195 63.16 49.2235 63.256C48.9355 63.928 49.1275 64.6 49.3195 65.272C49.6075 65.656 49.7995 66.136 50.0875 66.616C50.3755 67.192 50.3755 67.672 50.0875 68.248C49.9915 68.344 49.9915 68.536 49.9915 68.632C50.3755 69.4 50.6635 70.264 51.0475 71.128L51.7195 70.456C52.0075 70.072 52.0075 69.784 51.8155 69.304C51.3355 68.632 50.9515 67.672 50.5675 66.808L49.4155 62.968C49.3195 62.584 49.4155 62.2 48.9355 62.008ZM75.2395 78.04L74.2795 76.504C74.1835 78.04 74.5675 79.576 75.3355 81.016C75.4315 80.632 75.5275 80.248 75.5275 79.96C75.5275 79.576 75.5275 79 75.4315 78.52C75.4315 78.328 75.4315 78.136 75.2395 78.04ZM47.2075 62.968C47.4955 65.272 47.7835 67.384 49.0315 69.304C48.5515 67.192 48.2635 64.984 47.2075 62.968ZM73.2235 66.424H73.3195L73.0315 62.2C72.5515 62.296 72.6475 62.584 72.6475 62.872C72.8395 64.024 73.0315 65.272 73.2235 66.424ZM55.0795 73.72L54.4075 73.048C54.0235 73.336 53.8315 73.72 53.6395 74.104C54.1195 74.296 54.5035 74.2 55.0795 73.72ZM66.2155 29.464H66.0235C65.7355 30.424 65.6395 31.384 65.3515 32.344C65.9275 31.384 66.2155 30.52 66.2155 29.464ZM60.5515 65.752C60.2635 66.424 60.2635 67.192 60.1675 67.96C60.6475 67.288 60.5515 66.52 60.5515 65.752ZM73.8955 21.496C73.9915 22.552 73.9915 22.552 74.4715 22.552C74.3755 21.784 74.3755 21.784 73.8955 21.496ZM66.9835 27.544C67.0795 27.544 67.1755 27.544 67.1755 27.544L67.2715 25.912C66.7915 26.68 66.7915 26.68 66.9835 27.544ZM67.6555 26.008C67.7515 25.72 67.7515 25.528 67.8475 25.336C67.8475 25.24 67.7515 25.24 67.6555 25.24C67.5595 25.432 67.5595 25.624 67.6555 26.008ZM81.7675 70.072V70.648C81.7675 70.456 81.7675 70.264 81.7675 70.072ZM125.414 72.952V71.032C125.03 71.416 125.318 71.896 124.742 72.28L124.262 71.8C123.686 72.664 124.07 73.624 123.878 74.488C123.878 74.776 123.782 74.968 123.494 75.16C123.11 75.352 123.014 75.736 123.014 76.216C122.918 77.08 122.822 77.176 121.862 77.368L121.382 76.024C121.286 76.024 121.286 76.12 121.19 76.12V77.08C121.19 77.56 120.998 77.752 120.614 77.944C120.134 78.136 119.558 78.232 118.982 78.424C118.79 77.752 118.79 77.08 118.694 76.312L117.83 76.984L117.35 76.696C117.254 76.984 117.158 77.176 117.062 77.464C116.966 77.176 116.87 76.984 116.678 76.696C116.486 76.6 116.198 76.6 115.91 76.6L115.622 75.16L115.142 75.064C114.758 74.968 114.374 74.68 114.278 74.296C114.182 74.008 114.182 73.72 113.99 73.528C113.318 72.952 113.318 72.184 113.318 71.416C113.318 70.84 113.51 70.456 113.51 69.784C113.606 69.304 113.606 68.92 113.318 68.344C113.318 68.248 113.318 67.864 113.318 67.672V64.216V63.448C112.55 63.256 112.55 62.776 112.55 62.2L112.742 51.448C112.742 50.872 112.934 50.488 112.934 50.008C113.03 48.664 113.222 47.224 113.222 45.88C113.222 44.344 113.03 42.904 112.646 41.464C112.454 40.792 112.358 40.024 112.358 39.352C112.358 37.624 111.974 36.088 111.494 34.456C111.302 33.688 110.918 32.92 110.342 32.44C110.246 32.248 110.246 32.152 110.15 32.056C109.19 32.536 108.422 33.208 107.75 33.976C104.198 37.624 101.798 41.848 100.55 46.744C100.454 47.128 100.358 47.704 100.454 48.184C100.742 51.448 101.222 54.808 101.606 58.168L102.662 69.016C102.758 69.88 102.854 70.84 102.854 71.8C102.95 72.952 102.758 74.2 102.758 75.448C102.662 75.928 102.566 76.312 102.182 76.504C101.51 76.216 101.222 75.448 100.838 74.776V75.352C100.838 75.928 100.838 76.408 100.838 76.984C100.838 77.368 100.838 77.56 100.55 77.752C100.454 77.944 100.358 78.136 100.262 78.424C100.166 79.576 100.166 79.576 98.9178 79.864C98.7258 79.096 99.1098 78.232 98.7258 77.464C97.9578 77.752 97.9578 78.616 97.0938 78.712L96.9018 77.944C96.5178 78.904 97.0938 79.96 96.5178 80.728C96.0378 80.152 96.2298 79.48 95.8458 78.808L95.2698 79.288L94.8858 79.096L94.5978 79.864L94.2138 79C93.9258 79 93.7338 79 93.5418 78.904C93.3498 78.424 93.2538 78.136 93.2538 77.56C92.4858 77.464 92.1018 76.984 91.9098 76.312C91.7178 75.832 91.4297 75.448 91.0458 74.968L90.7578 74.2C90.1818 72.184 89.7978 70.072 89.6058 67.864C89.5098 64.312 89.2218 60.76 88.8378 57.208C88.8378 56.056 88.7418 54.808 88.7418 53.656L88.9338 46.744C88.9338 46.264 88.9338 45.688 88.8378 45.304C88.7418 43.576 88.8378 42.04 89.0298 40.504C89.1258 39.832 89.2218 38.872 89.1258 38.008C89.1258 37.24 89.0298 36.472 89.0298 35.704C89.0298 35.032 89.2218 34.36 89.2218 33.784C89.2218 33.208 89.3178 32.536 89.2218 32.056C88.7418 29.944 89.0298 28.024 89.3178 25.912C89.5098 24.568 89.7018 23.224 89.8938 21.784C89.9898 21.4 90.2778 21.016 90.4698 20.536C90.5658 20.344 90.7578 20.152 91.0458 20.344L90.2778 21.688C90.5658 21.784 90.6618 21.88 90.8538 21.976L90.2778 23.704L91.1418 23.224C90.5658 25.048 89.9898 26.68 90.1818 28.6L90.3738 28.12L90.6618 26.968C90.8538 25.912 91.3338 25.048 92.1018 24.376C92.2938 24.088 92.4858 23.8 92.4858 23.416C92.5818 22.648 92.8698 21.976 92.9658 21.304L93.2538 20.728C93.8298 20.92 93.6378 21.592 93.9258 21.976C94.1178 21.592 94.3098 21.304 94.3098 21.112C94.4058 21.016 94.5018 21.016 94.5978 21.016C94.9818 21.208 95.1738 21.592 95.4618 21.784C95.7498 21.976 96.3258 22.072 96.5178 22.456C96.8058 22.648 96.9018 23.032 96.9018 23.32C97.1898 24.568 97.4778 25.912 97.6698 27.256L97.9578 28.984L98.1498 30.04C98.7258 29.08 99.4938 28.12 100.166 27.064C100.454 26.68 100.55 26.104 100.838 25.528C100.934 25.336 101.222 25.24 101.318 25.048L101.51 25.24L100.646 26.296C100.742 26.296 100.742 26.392 100.742 26.392C101.222 25.912 101.798 25.528 102.278 25.24C103.238 24.088 104.39 23.224 105.926 22.648C105.926 22.648 106.022 22.648 106.022 22.552C105.83 22.552 105.638 22.456 105.446 22.456V22.264H107.078C107.462 22.36 107.846 22.264 108.134 22.168C109.286 21.688 110.342 21.592 111.494 21.88C111.494 21.976 111.782 21.976 111.878 21.976C112.934 21.88 113.894 22.264 114.758 22.84C115.91 23.512 117.062 24.28 118.31 25.144C119.078 25.624 119.75 26.488 120.23 27.352C121.286 29.08 122.054 31 122.438 33.112C122.63 35.128 123.11 37.24 123.59 39.16C124.454 42.424 124.838 45.784 125.126 49.048C125.702 56.056 125.702 62.968 125.702 69.88C125.702 70.648 125.702 71.416 125.702 72.184C125.702 72.472 125.606 72.664 125.606 72.952C125.51 72.952 125.51 72.952 125.414 72.952ZM110.822 23.704L111.782 24.472L112.742 23.704C112.358 23.32 111.782 23.32 110.822 23.704ZM100.262 76.024C100.55 74.008 100.55 73.624 99.9738 73.24C100.07 74.104 100.166 74.968 100.262 76.024ZM118.022 25.912L118.79 27.064C118.79 27.064 118.886 27.064 118.982 26.968L118.118 25.816L118.022 25.912ZM116.198 28.312C115.91 28.216 115.814 28.12 115.814 28.12H115.43C115.526 28.504 115.814 28.504 116.198 28.312ZM100.262 71.32C100.166 71.896 100.166 71.896 100.358 72.088C100.358 71.8 100.358 71.608 100.262 71.32ZM167.364 77.272C167.364 77.368 167.268 77.56 167.268 77.752C167.268 77.848 167.364 78.136 167.364 78.136C167.46 78.424 167.364 78.712 167.076 78.808C166.692 78.904 166.5 78.808 166.5 78.424L166.212 77.944L165.828 76.888L165.06 77.368C164.676 77.56 164.58 77.752 164.676 78.136C164.676 78.616 164.868 79.096 164.964 79.576C164.676 79.768 164.58 79.96 164.388 79.96C164.004 79.96 163.812 80.056 163.524 80.248C162.948 79.864 163.14 79.096 162.852 78.424C162.564 78.808 162.084 78.52 161.796 79.096C161.7 78.808 161.508 78.712 161.412 78.52C160.644 78.424 160.548 78.424 160.26 77.656L159.78 75.928C159.492 76.312 159.204 76.312 159.108 76.12L158.244 74.872C158.148 74.68 157.956 74.488 157.764 74.296C157.572 74.392 157.476 74.392 157.38 74.488C156.324 75.544 155.076 76.312 153.54 76.6C153.156 76.6 152.868 76.888 152.58 77.272C151.908 78.136 150.948 79.096 149.7 79.192C149.028 79.288 148.452 79.384 147.972 78.808C147.684 78.52 147.204 78.424 146.82 78.136C146.724 78.136 146.436 78.136 146.436 78.136C144.804 78.712 143.556 78.232 142.212 77.464C141.06 76.696 140.1 76.024 138.948 75.352C138.756 75.16 138.372 74.968 138.084 74.968C137.7 74.968 137.316 74.872 137.316 74.584C136.836 74.008 136.26 73.24 135.876 72.568C133.956 69.016 132.708 65.08 131.844 61.144C131.172 57.976 130.98 54.712 131.268 51.448C131.364 50.392 131.652 49.24 131.844 48.184V47.416L131.268 48.568C131.268 48.568 131.172 48.568 131.172 48.472C131.172 47.8 131.268 47.224 131.364 46.648C131.844 42.904 132.708 39.16 133.956 35.608C134.148 34.84 134.628 34.264 134.916 33.592C135.78 32.056 136.644 30.424 137.796 29.08L139.428 27.352L139.044 27.064L139.332 26.296C140.292 25.144 141.252 23.992 142.5 23.128C143.268 22.552 144.228 22.552 144.996 22.648C145.668 22.744 146.148 23.032 146.628 23.032C147.204 23.128 147.876 22.936 148.26 22.936C149.22 22.936 150.084 23.032 150.852 23.128C151.908 23.32 152.676 23.704 153.636 24.184L154.5 24.76C154.692 23.896 154.692 23.32 154.788 22.648C155.268 18.616 155.556 14.68 156.516 10.84L157.188 8.72799C157.38 7.384 158.052 6.424 159.3 5.848L160.164 6.808L160.836 6.616C161.028 6.904 161.028 7.096 161.316 7.384L161.796 6.99999C161.796 6.99999 161.796 6.99999 161.892 6.99999C162.564 7.288 162.852 7.86399 163.332 8.248C163.62 8.34399 163.716 8.824 163.812 9.112C164.004 10.168 164.196 11.224 164.292 12.376C164.388 14.776 164.484 17.176 164.58 19.672L164.676 23.704L165.06 28.408L165.732 35.896L166.212 41.176C166.212 41.464 166.212 41.656 166.116 41.944C165.732 37.528 165.348 32.92 164.868 28.408V31C164.964 33.112 165.156 35.032 165.156 37.144C165.06 39.832 165.54 42.52 165.828 45.304C166.116 47.992 166.5 50.776 166.692 53.368L167.652 61.048V61.528C167.556 63.736 168.036 65.944 168.324 68.152L169.188 71.992C169.476 72.952 169.188 73.816 168.708 74.68C168.708 74.776 168.708 74.776 168.612 74.776C167.844 75.16 167.748 76.216 166.98 76.6C167.172 76.888 167.268 76.984 167.364 77.272ZM149.604 31.768L148.836 32.44C147.204 34.264 145.86 36.184 144.996 38.488C142.308 45.976 141.636 53.752 142.98 61.72C143.556 64.216 144.516 66.808 146.148 68.92L146.436 69.304C146.724 68.92 147.012 68.632 147.204 68.152C147.78 67 148.26 65.656 148.836 64.504C149.316 63.448 149.796 62.392 150.372 61.432C150.66 60.952 150.852 60.568 151.044 60.088C151.524 59.224 151.908 58.264 152.196 57.4C152.772 56.056 153.444 54.616 154.404 53.56C154.5 53.368 154.596 53.176 154.5 53.08L154.308 48.568C154.116 44.152 154.116 39.928 154.02 35.8C154.02 35.32 153.828 35.032 153.636 34.744L150.852 32.536C150.468 32.248 150.084 32.056 149.604 31.768ZM144.708 69.208C143.556 64.216 141.54 59.704 140.58 54.616C140.58 54.904 140.484 55.192 140.58 55.48L141.732 60.952C141.732 61.048 141.732 61.24 141.732 61.336C141.732 61.432 141.732 61.432 141.636 61.432L140.292 57.112V57.592C140.676 60.184 141.156 62.776 142.116 65.272C142.788 66.712 143.556 68.056 144.708 69.208ZM146.436 24.376C145.188 23.416 143.94 23.416 142.788 24.28C142.212 24.76 141.732 25.24 141.252 25.528C141.06 25.624 140.964 25.912 140.964 25.912C141.252 25.912 141.54 25.816 141.732 25.624C142.788 25.048 143.94 24.952 145.092 25.048C145.764 25.144 146.148 24.856 146.436 24.376ZM162.66 18.808C162.276 21.304 162.468 23.704 162.564 26.296C162.756 23.704 162.948 21.304 162.66 18.808ZM155.556 75.448C156.228 75.16 156.708 74.776 156.996 74.104C156.324 74.488 155.94 74.872 155.556 75.448ZM142.98 79.192C141.348 78.712 140.004 77.752 138.948 76.312C140.388 77.272 141.828 78.136 142.98 79.192ZM167.364 77.272C167.268 76.888 167.46 76.6 167.844 76.312C168.132 76.888 167.556 76.984 167.364 77.272ZM200.7 24.376H201.468C201.564 24.472 201.756 24.568 201.948 24.664C202.524 24.856 203.1 25.24 203.676 25.624C205.308 27.256 206.46 29.176 207.324 31.384C207.708 32.92 208.188 34.36 208.38 36.088C208.572 37.24 208.956 38.488 209.148 39.832C209.436 41.272 209.532 42.52 209.532 43.864C209.82 46.072 209.532 48.184 209.34 50.392C209.34 50.776 209.436 51.064 209.436 51.448C209.436 53.08 209.532 54.712 209.436 56.44C209.34 57.88 208.956 59.224 208.764 60.568C208.764 60.664 208.668 60.856 208.764 60.952C210.204 56.536 210.588 52.12 210.204 47.416C210.972 47.512 211.356 47.8 211.74 48.472L211.932 47.032C212.316 49.72 212.22 52.504 211.74 55.096C211.164 59.608 209.148 63.544 206.46 67.096L205.884 67.768L205.116 69.016C204.828 69.496 204.636 69.976 204.252 70.456C204.348 70.168 204.444 69.88 204.54 69.688L204.444 69.592C204.348 69.784 204.156 70.072 204.06 70.264C203.388 71.32 202.812 72.472 202.14 73.432C200.892 74.968 199.356 76.024 197.628 76.6C196.668 76.984 195.612 77.368 194.556 77.752C193.212 78.232 191.868 78.328 190.524 78.04C190.044 77.848 189.66 77.752 189.372 77.368C189.084 77.08 188.7 76.984 188.412 76.888C187.068 76.504 185.82 75.736 184.668 74.776C182.652 73.24 181.02 71.128 179.676 69.016C177.852 66.04 176.604 62.776 175.548 59.512C174.876 57.784 174.78 56.056 174.684 54.328C174.588 51.832 174.684 49.24 174.876 46.84C174.876 45.592 175.164 44.536 175.548 43.48C176.124 41.848 176.7 40.12 176.892 38.488C177.18 37.24 177.66 35.992 178.332 34.744C178.523 34.36 178.62 34.168 178.523 33.592C178.523 33.496 178.523 33.208 178.62 33.016L180.252 28.312C180.348 28.024 180.444 27.64 180.444 27.256C180.444 26.68 180.636 26.104 181.02 25.528L182.94 22.264C183.42 21.592 183.996 21.208 184.668 20.824C186.876 19.768 189.18 19.288 191.58 19.384C192.732 19.384 193.788 19.768 194.652 20.248C195.42 20.728 196.284 20.92 197.052 21.016C198.204 21.208 199.164 21.592 200.124 22.072C200.316 22.168 200.411 22.264 200.411 22.456C200.7 22.936 201.084 23.032 201.468 23.224C203.58 24.088 205.116 25.528 206.268 27.544C206.844 28.408 207.324 29.176 207.324 30.232L206.556 28.984C205.884 28.12 205.404 27.16 204.636 26.296C203.868 25.24 202.62 24.664 201.468 24.376L200.7 24.088V24.376ZM193.116 67.288C194.172 66.424 194.94 65.368 195.612 64.216C196.476 62.392 197.244 60.472 197.82 58.456C199.164 54.232 199.932 49.816 200.411 45.304C200.411 43.48 200.411 41.656 200.124 39.928C199.356 36.856 198.204 34.264 196.188 31.96C194.844 30.424 194.268 30.232 192.252 30.04C191.388 30.04 190.908 30.328 190.524 31C190.524 31.096 190.428 31.192 190.428 31.384C190.14 31.768 189.948 32.056 189.468 32.056C189.18 31.96 188.988 32.152 188.892 32.536L187.644 36.472C187.644 36.472 187.548 36.568 187.644 36.568C188.028 36.952 187.644 37.336 187.644 37.72C186.684 41.944 186.204 46.456 186.299 50.776C186.396 55 187.26 59.128 188.796 62.968C189.66 64.984 191.292 66.232 193.116 67.288ZM199.164 22.264C199.644 23.224 199.644 23.224 200.411 22.84C200.028 22.648 199.644 22.456 199.164 22.264ZM181.02 29.944L181.884 28.504L181.692 28.312C181.404 28.888 181.212 29.272 180.924 29.848C181.02 29.848 181.02 29.944 181.02 29.944ZM199.26 23.992H198.204C198.588 24.376 198.78 24.28 199.26 23.992ZM179.484 32.152L179.004 33.112C179.1 33.208 179.196 33.208 179.196 33.208C179.388 32.824 179.484 32.536 179.58 32.152C179.58 32.152 179.58 32.152 179.484 32.152ZM197.82 23.32C197.724 23.224 197.628 23.128 197.628 23.032C197.531 23.032 197.436 23.128 197.436 23.128L197.628 23.416C197.628 23.416 197.724 23.416 197.82 23.32ZM207.42 28.888C208.284 30.232 208.956 31.576 209.532 33.016C210.684 36.472 211.26 40.024 211.164 43.768V45.304C211.164 45.592 211.068 45.976 210.588 46.072C210.492 46.072 210.396 46.168 210.204 46.36C209.82 44.92 209.916 43.48 210.108 42.232C210.396 43.096 210.588 44.056 210.972 45.016C211.164 42.136 210.684 39.448 210.108 36.76C209.532 34.072 208.764 31.384 207.42 28.888ZM174.108 48.952L174.396 50.104H174.204L174.108 48.952ZM267.26 74.584L266.78 74.2C266.876 74.2 266.972 74.296 267.26 74.392L267.74 71.128C267.26 71.896 267.068 72.76 266.108 72.952L265.724 74.872C265.628 75.352 265.532 75.736 265.244 76.12C265.052 76.312 264.956 76.6 264.956 76.984C264.764 77.752 264.38 78.136 263.612 78.136C263.228 78.232 263.036 78.136 262.94 77.752L262.268 78.52C262.172 78.424 261.98 78.328 261.788 78.232L261.308 78.808C260.924 78.424 260.924 78.136 260.828 77.656C260.54 76.408 260.252 75.256 259.964 74.104L259.772 73.432L259.58 73.912L259.292 75.352C259.1 75.928 258.908 76.312 258.524 76.6C258.14 76.888 258.14 77.272 257.852 77.656C257.66 77.272 257.564 76.792 257.084 76.792C256.892 76.792 256.7 76.408 256.7 76.312C256.316 75.64 256.028 74.968 255.644 74.488C255.356 74.296 255.26 74.008 255.26 73.72L254.3 71.704C254.108 71.512 254.108 71.224 254.012 70.936C253.532 68.728 252.572 66.52 251.9 64.312C250.172 59.224 248.252 54.328 246.236 49.24L245.948 48.664C245.756 48.952 245.756 48.952 245.756 49.144L242.78 60.088L240.572 68.44C239.9 70.84 239.228 73.432 238.172 75.928L237.596 76.984C237.5 77.368 237.404 77.56 237.02 77.752C237.404 76.696 237.692 75.832 238.076 74.872C237.98 74.776 237.884 74.776 237.788 74.776L237.212 75.928C236.828 76.408 236.444 76.888 236.156 77.368C235.772 78.04 235.388 78.136 234.812 77.56L234.62 77.368C234.332 78.136 234.044 78.808 233.948 79.576L233.468 80.632C232.988 81.688 232.124 81.784 231.356 81.016C230.972 81.304 230.684 81.688 230.3 81.784C230.012 81.88 229.532 81.976 229.148 82.072C228.764 82.072 228.476 81.976 228.38 81.784L227.708 80.632C226.94 80.92 226.556 80.536 226.268 79.96L226.076 79.672C225.308 79.288 225.116 78.52 224.828 77.944L224.348 76.888C224.06 76.312 223.772 75.64 223.484 74.968C222.62 72.472 222.236 69.688 221.468 67.096C220.412 63.064 219.74 58.936 219.164 54.808C218.396 50.584 217.916 46.264 217.628 41.848C217.436 39.448 217.34 37.048 217.244 34.552C217.244 34.168 217.34 33.688 217.34 33.208C217.34 33.112 217.34 32.92 217.34 32.824C217.532 30.424 217.628 28.12 217.628 25.72C217.628 24.76 217.916 23.704 218.204 22.84C218.492 22.072 218.78 21.976 219.452 21.976L219.836 21.208C220.028 21.016 220.124 21.016 220.412 21.208C220.22 21.592 220.124 21.88 219.836 22.36C220.22 22.648 220.604 22.936 220.988 23.128C220.988 22.648 221.18 22.264 220.892 21.88L221.276 21.688C221.468 21.592 221.756 21.592 221.852 21.592C222.044 21.784 222.044 22.072 222.044 22.264C222.14 22.456 222.044 22.648 221.948 22.84C221.756 23.416 221.66 23.704 222.044 24.184C222.044 24.376 222.044 24.472 222.044 24.76L221.564 24.952C222.044 25.24 222.428 25.24 222.812 25.048C222.62 24.472 222.908 23.896 223.004 23.416C223.1 23.032 223.004 22.84 223.004 22.552V21.976C223.868 22.072 224.06 22.744 224.252 23.416C224.444 23.32 224.636 23.224 224.636 23.032C225.212 23.416 225.5 23.704 225.596 24.472C225.788 25.528 226.076 26.776 226.172 28.024C226.748 32.536 227.132 37.24 227.9 41.656C228.476 45.496 229.34 49.24 230.108 52.888C230.204 53.752 230.3 54.52 230.684 55.384L231.164 53.656L232.124 51.352L234.428 46.072C234.62 45.496 234.716 44.92 234.812 44.248L235.484 42.04C235.58 41.752 235.58 41.464 235.292 41.272C235.1 40.888 235.196 40.696 235.196 40.408L237.02 33.88C237.596 31.576 238.268 29.272 238.652 27.064C239.132 24.28 239.9 21.688 240.38 19.096C240.38 19 240.476 19 240.476 18.904L241.34 19.384C241.532 19 241.628 18.808 241.724 18.328C242.108 19 242.78 19.288 242.684 19.864C242.684 20.056 242.972 20.344 243.068 20.536C243.74 20.44 244.028 19.768 244.892 19.768L245.756 21.592C246.14 21.496 246.332 21.208 246.524 20.824C246.62 20.248 246.716 20.152 247.196 20.44C247.484 20.632 247.676 20.824 247.964 21.016C248.06 21.208 248.348 21.496 248.348 21.592C248.348 22.072 248.636 22.36 248.828 22.936L249.212 21.976C249.788 22.36 250.364 22.648 250.46 23.416C250.652 27.352 251.708 31.288 252.764 35.032C253.052 35.992 253.244 36.856 253.532 37.912C254.012 39.832 254.492 41.752 255.26 43.576C256.412 46.36 257.564 49.144 258.62 51.928C258.716 52.216 258.908 52.504 258.908 52.6H259.196L259.964 50.104L260.732 48.088C260.924 47.416 261.116 46.84 261.308 46.168C261.308 45.784 261.308 45.304 261.308 45.112C261.116 44.536 261.116 44.152 261.308 43.576C262.172 39.832 263.132 36.088 263.996 32.248C264.956 28.888 265.628 25.336 266.492 21.88C266.78 20.824 267.068 19.768 267.452 18.808C267.548 18.52 267.74 18.232 267.932 17.944L268.604 18.328L269.084 17.56L269.66 18.328C269.66 18.52 269.564 18.712 269.468 19L270.332 19.384C270.716 19.288 271.004 18.616 271.772 18.808C271.964 19.288 272.252 19.768 272.348 20.152C272.732 20.056 273.02 19.96 273.116 19.576C273.116 19.192 273.404 19.192 273.692 19.384C274.172 19.672 274.364 19.768 274.172 20.44C274.172 21.496 274.076 22.36 273.884 23.416C273.884 23.608 273.884 23.8 273.884 24.28C274.556 23.416 274.94 22.648 275.228 21.784C275.9 22.648 276.284 23.512 276.284 24.664C276.38 27.928 275.9 31 275.324 34.264C274.268 39.352 273.404 44.44 272.348 49.528L270.236 61.72L269.084 67.672C268.7 69.592 268.412 71.512 268.028 73.336C267.932 73.816 267.74 74.296 267.26 74.584ZM254.3 61.72C254.204 61.72 254.204 61.72 254.108 61.72C254.684 63.256 255.26 64.792 255.836 66.232C255.932 66.136 255.932 66.04 255.932 66.04C255.452 64.6 254.876 63.16 254.3 61.72ZM232.124 79.768C232.316 79.864 232.508 79.96 232.7 79.96L232.988 79.192C232.316 79 232.316 79.384 232.124 79.768ZM241.148 25.72C241.052 25.912 240.764 26.2 241.052 26.488C241.34 26.2 241.148 25.912 241.148 25.72ZM242.012 23.416H242.108V22.936C242.108 23.032 242.012 23.32 242.012 23.416ZM266.78 74.2C266.78 74.008 266.492 73.816 266.684 73.528C266.876 73.72 266.876 74.008 266.78 74.2ZM318.914 72.952V71.032C318.53 71.416 318.818 71.896 318.242 72.28L317.762 71.8C317.186 72.664 317.57 73.624 317.378 74.488C317.378 74.776 317.282 74.968 316.994 75.16C316.61 75.352 316.514 75.736 316.514 76.216C316.418 77.08 316.322 77.176 315.362 77.368L314.882 76.024C314.786 76.024 314.786 76.12 314.69 76.12V77.08C314.69 77.56 314.498 77.752 314.114 77.944C313.634 78.136 313.058 78.232 312.482 78.424C312.29 77.752 312.29 77.08 312.194 76.312L311.33 76.984L310.85 76.696C310.754 76.984 310.658 77.176 310.562 77.464C310.466 77.176 310.37 76.984 310.178 76.696C309.986 76.6 309.698 76.6 309.41 76.6L309.122 75.16L308.642 75.064C308.258 74.968 307.874 74.68 307.778 74.296C307.682 74.008 307.682 73.72 307.49 73.528C306.818 72.952 306.818 72.184 306.818 71.416C306.818 70.84 307.01 70.456 307.01 69.784C307.106 69.304 307.106 68.92 306.818 68.344C306.818 68.248 306.818 67.864 306.818 67.672V64.216V63.448C306.05 63.256 306.05 62.776 306.05 62.2L306.242 51.448C306.242 50.872 306.434 50.488 306.434 50.008C306.53 48.664 306.722 47.224 306.722 45.88C306.722 44.344 306.53 42.904 306.146 41.464C305.954 40.792 305.858 40.024 305.858 39.352C305.858 37.624 305.474 36.088 304.994 34.456C304.802 33.688 304.418 32.92 303.842 32.44C303.746 32.248 303.746 32.152 303.65 32.056C302.69 32.536 301.922 33.208 301.25 33.976C297.698 37.624 295.298 41.848 294.05 46.744C293.954 47.128 293.858 47.704 293.954 48.184C294.242 51.448 294.722 54.808 295.106 58.168L296.162 69.016C296.258 69.88 296.354 70.84 296.354 71.8C296.45 72.952 296.258 74.2 296.258 75.448C296.162 75.928 296.066 76.312 295.682 76.504C295.01 76.216 294.722 75.448 294.338 74.776V75.352C294.338 75.928 294.338 76.408 294.338 76.984C294.338 77.368 294.338 77.56 294.05 77.752C293.954 77.944 293.858 78.136 293.762 78.424C293.666 79.576 293.666 79.576 292.418 79.864C292.226 79.096 292.61 78.232 292.226 77.464C291.458 77.752 291.458 78.616 290.594 78.712L290.402 77.944C290.018 78.904 290.594 79.96 290.018 80.728C289.538 80.152 289.73 79.48 289.346 78.808L288.77 79.288L288.386 79.096L288.098 79.864L287.714 79C287.426 79 287.234 79 287.042 78.904C286.85 78.424 286.754 78.136 286.754 77.56C285.986 77.464 285.602 76.984 285.41 76.312C285.218 75.832 284.93 75.448 284.546 74.968L284.258 74.2C283.682 72.184 283.298 70.072 283.106 67.864C283.01 64.312 282.722 60.76 282.338 57.208C282.338 56.056 282.242 54.808 282.242 53.656L282.434 46.744C282.434 46.264 282.434 45.688 282.338 45.304C282.242 43.576 282.338 42.04 282.53 40.504C282.626 39.832 282.722 38.872 282.626 38.008C282.626 37.24 282.53 36.472 282.53 35.704C282.53 35.032 282.722 34.36 282.722 33.784C282.722 33.208 282.818 32.536 282.722 32.056C282.242 29.944 282.53 28.024 282.818 25.912C283.01 24.568 283.202 23.224 283.394 21.784C283.49 21.4 283.778 21.016 283.97 20.536C284.066 20.344 284.258 20.152 284.546 20.344L283.778 21.688C284.066 21.784 284.162 21.88 284.354 21.976L283.778 23.704L284.642 23.224C284.066 25.048 283.49 26.68 283.682 28.6L283.874 28.12L284.162 26.968C284.354 25.912 284.834 25.048 285.602 24.376C285.794 24.088 285.986 23.8 285.986 23.416C286.082 22.648 286.37 21.976 286.466 21.304L286.754 20.728C287.33 20.92 287.138 21.592 287.426 21.976C287.618 21.592 287.81 21.304 287.81 21.112C287.906 21.016 288.002 21.016 288.098 21.016C288.482 21.208 288.674 21.592 288.962 21.784C289.25 21.976 289.826 22.072 290.018 22.456C290.306 22.648 290.402 23.032 290.402 23.32C290.69 24.568 290.978 25.912 291.17 27.256L291.458 28.984L291.65 30.04C292.226 29.08 292.994 28.12 293.666 27.064C293.954 26.68 294.05 26.104 294.338 25.528C294.434 25.336 294.722 25.24 294.818 25.048L295.01 25.24L294.146 26.296C294.242 26.296 294.242 26.392 294.242 26.392C294.722 25.912 295.298 25.528 295.778 25.24C296.738 24.088 297.89 23.224 299.426 22.648C299.426 22.648 299.522 22.648 299.522 22.552C299.33 22.552 299.138 22.456 298.946 22.456V22.264H300.578C300.962 22.36 301.346 22.264 301.634 22.168C302.786 21.688 303.842 21.592 304.994 21.88C304.994 21.976 305.282 21.976 305.378 21.976C306.434 21.88 307.394 22.264 308.258 22.84C309.41 23.512 310.562 24.28 311.81 25.144C312.578 25.624 313.25 26.488 313.73 27.352C314.786 29.08 315.554 31 315.938 33.112C316.13 35.128 316.61 37.24 317.09 39.16C317.954 42.424 318.338 45.784 318.626 49.048C319.202 56.056 319.202 62.968 319.202 69.88C319.202 70.648 319.202 71.416 319.202 72.184C319.202 72.472 319.106 72.664 319.106 72.952C319.01 72.952 319.01 72.952 318.914 72.952ZM304.322 23.704L305.282 24.472L306.242 23.704C305.858 23.32 305.282 23.32 304.322 23.704ZM293.762 76.024C294.05 74.008 294.05 73.624 293.474 73.24C293.57 74.104 293.666 74.968 293.762 76.024ZM311.522 25.912L312.29 27.064C312.29 27.064 312.386 27.064 312.482 26.968L311.618 25.816L311.522 25.912ZM309.698 28.312C309.41 28.216 309.314 28.12 309.314 28.12H308.93C309.026 28.504 309.314 28.504 309.698 28.312ZM293.762 71.32C293.666 71.896 293.666 71.896 293.858 72.088C293.858 71.8 293.858 71.608 293.762 71.32ZM397.947 74.584L397.467 74.2C397.563 74.2 397.659 74.296 397.947 74.392L398.427 71.128C397.947 71.896 397.755 72.76 396.795 72.952L396.411 74.872C396.315 75.352 396.219 75.736 395.931 76.12C395.739 76.312 395.643 76.6 395.643 76.984C395.451 77.752 395.067 78.136 394.299 78.136C393.915 78.232 393.723 78.136 393.627 77.752L392.955 78.52C392.859 78.424 392.667 78.328 392.475 78.232L391.995 78.808C391.611 78.424 391.611 78.136 391.515 77.656C391.227 76.408 390.939 75.256 390.651 74.104L390.459 73.432L390.267 73.912L389.979 75.352C389.787 75.928 389.595 76.312 389.211 76.6C388.827 76.888 388.827 77.272 388.539 77.656C388.347 77.272 388.251 76.792 387.771 76.792C387.579 76.792 387.387 76.408 387.387 76.312C387.003 75.64 386.715 74.968 386.331 74.488C386.043 74.296 385.947 74.008 385.947 73.72L384.987 71.704C384.795 71.512 384.795 71.224 384.699 70.936C384.219 68.728 383.259 66.52 382.587 64.312C380.859 59.224 378.939 54.328 376.923 49.24L376.635 48.664C376.443 48.952 376.443 48.952 376.443 49.144L373.467 60.088L371.259 68.44C370.587 70.84 369.915 73.432 368.859 75.928L368.283 76.984C368.187 77.368 368.091 77.56 367.707 77.752C368.091 76.696 368.379 75.832 368.763 74.872C368.667 74.776 368.571 74.776 368.475 74.776L367.899 75.928C367.515 76.408 367.131 76.888 366.843 77.368C366.459 78.04 366.075 78.136 365.499 77.56L365.307 77.368C365.019 78.136 364.731 78.808 364.635 79.576L364.155 80.632C363.675 81.688 362.811 81.784 362.043 81.016C361.659 81.304 361.371 81.688 360.987 81.784C360.699 81.88 360.219 81.976 359.835 82.072C359.451 82.072 359.163 81.976 359.067 81.784L358.395 80.632C357.627 80.92 357.243 80.536 356.955 79.96L356.763 79.672C355.995 79.288 355.803 78.52 355.515 77.944L355.035 76.888C354.747 76.312 354.459 75.64 354.171 74.968C353.307 72.472 352.923 69.688 352.155 67.096C351.099 63.064 350.427 58.936 349.851 54.808C349.083 50.584 348.603 46.264 348.315 41.848C348.123 39.448 348.027 37.048 347.931 34.552C347.931 34.168 348.027 33.688 348.027 33.208C348.027 33.112 348.027 32.92 348.027 32.824C348.219 30.424 348.315 28.12 348.315 25.72C348.315 24.76 348.603 23.704 348.891 22.84C349.179 22.072 349.467 21.976 350.139 21.976L350.523 21.208C350.715 21.016 350.811 21.016 351.099 21.208C350.907 21.592 350.811 21.88 350.523 22.36C350.907 22.648 351.291 22.936 351.675 23.128C351.675 22.648 351.867 22.264 351.579 21.88L351.963 21.688C352.155 21.592 352.443 21.592 352.539 21.592C352.731 21.784 352.731 22.072 352.731 22.264C352.827 22.456 352.731 22.648 352.635 22.84C352.443 23.416 352.347 23.704 352.731 24.184C352.731 24.376 352.731 24.472 352.731 24.76L352.251 24.952C352.731 25.24 353.115 25.24 353.499 25.048C353.307 24.472 353.595 23.896 353.691 23.416C353.787 23.032 353.691 22.84 353.691 22.552V21.976C354.555 22.072 354.747 22.744 354.939 23.416C355.131 23.32 355.323 23.224 355.323 23.032C355.899 23.416 356.187 23.704 356.283 24.472C356.475 25.528 356.763 26.776 356.859 28.024C357.435 32.536 357.819 37.24 358.587 41.656C359.163 45.496 360.027 49.24 360.795 52.888C360.891 53.752 360.987 54.52 361.371 55.384L361.851 53.656L362.811 51.352L365.115 46.072C365.307 45.496 365.403 44.92 365.499 44.248L366.171 42.04C366.267 41.752 366.267 41.464 365.979 41.272C365.787 40.888 365.883 40.696 365.883 40.408L367.707 33.88C368.283 31.576 368.955 29.272 369.339 27.064C369.819 24.28 370.587 21.688 371.067 19.096C371.067 19 371.163 19 371.163 18.904L372.027 19.384C372.219 19 372.315 18.808 372.411 18.328C372.795 19 373.467 19.288 373.371 19.864C373.371 20.056 373.659 20.344 373.755 20.536C374.427 20.44 374.715 19.768 375.579 19.768L376.443 21.592C376.827 21.496 377.019 21.208 377.211 20.824C377.307 20.248 377.403 20.152 377.883 20.44C378.171 20.632 378.363 20.824 378.651 21.016C378.747 21.208 379.035 21.496 379.035 21.592C379.035 22.072 379.323 22.36 379.515 22.936L379.899 21.976C380.475 22.36 381.051 22.648 381.147 23.416C381.339 27.352 382.395 31.288 383.451 35.032C383.739 35.992 383.931 36.856 384.219 37.912C384.699 39.832 385.179 41.752 385.947 43.576C387.099 46.36 388.251 49.144 389.307 51.928C389.403 52.216 389.595 52.504 389.595 52.6H389.883L390.651 50.104L391.419 48.088C391.611 47.416 391.803 46.84 391.995 46.168C391.995 45.784 391.995 45.304 391.995 45.112C391.803 44.536 391.803 44.152 391.995 43.576C392.859 39.832 393.819 36.088 394.683 32.248C395.643 28.888 396.315 25.336 397.179 21.88C397.467 20.824 397.755 19.768 398.139 18.808C398.235 18.52 398.427 18.232 398.619 17.944L399.291 18.328L399.771 17.56L400.347 18.328C400.347 18.52 400.251 18.712 400.155 19L401.019 19.384C401.403 19.288 401.691 18.616 402.459 18.808C402.651 19.288 402.939 19.768 403.035 20.152C403.419 20.056 403.707 19.96 403.803 19.576C403.803 19.192 404.091 19.192 404.379 19.384C404.859 19.672 405.051 19.768 404.859 20.44C404.859 21.496 404.763 22.36 404.571 23.416C404.571 23.608 404.571 23.8 404.571 24.28C405.243 23.416 405.627 22.648 405.915 21.784C406.587 22.648 406.971 23.512 406.971 24.664C407.067 27.928 406.587 31 406.011 34.264C404.955 39.352 404.091 44.44 403.035 49.528L400.923 61.72L399.771 67.672C399.387 69.592 399.099 71.512 398.715 73.336C398.619 73.816 398.427 74.296 397.947 74.584ZM384.987 61.72C384.891 61.72 384.891 61.72 384.795 61.72C385.371 63.256 385.947 64.792 386.523 66.232C386.619 66.136 386.619 66.04 386.619 66.04C386.139 64.6 385.563 63.16 384.987 61.72ZM362.811 79.768C363.003 79.864 363.195 79.96 363.387 79.96L363.675 79.192C363.003 79 363.003 79.384 362.811 79.768ZM371.835 25.72C371.739 25.912 371.451 26.2 371.739 26.488C372.027 26.2 371.835 25.912 371.835 25.72ZM372.699 23.416H372.795V22.936C372.795 23.032 372.699 23.32 372.699 23.416ZM397.467 74.2C397.467 74.008 397.179 73.816 397.371 73.528C397.563 73.72 397.563 74.008 397.467 74.2ZM416.769 22.264C416.673 22.648 416.001 22.648 416.289 23.224C416.577 22.84 416.961 22.648 417.441 22.744C417.441 22.744 417.537 22.648 417.633 22.456C417.825 22.264 418.017 22.168 418.305 21.976C418.593 22.36 418.977 22.648 419.265 23.032C419.553 23.032 419.553 22.744 419.553 22.456C419.649 21.976 419.745 21.976 420.225 22.072C420.705 22.264 421.089 22.36 421.281 23.032C421.281 23.032 421.377 23.032 421.473 23.224C421.665 23.032 421.761 22.936 421.953 22.84C422.049 22.84 422.241 22.936 422.433 23.032C423.009 23.32 423.393 23.8 423.585 24.472C423.873 25.528 424.065 26.776 424.353 27.832C424.833 31.48 424.833 35.128 424.737 38.776C424.545 41.464 424.545 44.152 424.449 46.84C424.449 47.128 424.449 47.32 424.449 47.8C424.353 47.512 424.257 47.416 424.161 47.32H424.065C424.065 47.512 424.065 47.704 424.161 47.896C424.257 49.528 424.353 51.064 424.353 52.6C424.449 52.888 424.545 53.176 424.065 53.176C424.065 53.176 423.969 53.464 423.969 53.656C423.969 55.576 423.969 57.496 423.873 59.512C423.681 62.776 423.585 66.232 423.489 69.688C423.393 70.264 423.489 70.84 423.393 71.512C423.201 72.664 423.393 73.912 423.393 75.064C423.489 75.832 423.297 76.408 423.105 77.08C422.913 77.368 422.913 77.752 422.913 78.136C422.913 78.616 422.913 79.288 422.913 79.96C422.145 80.152 421.473 80.248 420.897 80.536C420.801 80.248 420.705 80.056 420.705 79.96C419.937 79.864 419.073 80.44 418.785 79.192C418.209 79.48 417.729 79.768 417.345 79.96C417.153 79.96 417.057 79.864 417.057 79.672C416.865 79.384 416.673 79.192 416.385 79.096C415.905 79 415.809 78.52 415.713 78.136C415.617 77.752 415.329 77.368 414.945 76.984C414.753 76.696 414.465 76.312 414.369 76.024C413.889 75.16 413.601 74.392 413.217 73.432C413.025 72.952 412.929 72.472 412.929 71.992C412.929 64.6 412.929 57.304 413.025 49.912C413.025 43.768 413.409 37.912 413.793 31.864C413.793 29.752 413.793 27.736 413.889 25.528C413.985 24.856 414.081 23.992 414.273 23.32C414.369 22.744 414.561 22.264 415.233 22.264C415.329 22.264 415.425 22.168 415.521 22.072C415.905 21.592 415.905 21.592 416.481 21.976C416.577 22.072 416.673 22.168 416.769 22.264ZM417.825 12.472C418.017 13.912 418.113 15.256 418.209 16.696C417.345 16.504 416.577 16.408 415.617 16.216C415.617 15.64 415.713 14.968 415.713 14.296C415.617 14.2 415.425 14.008 415.137 13.816C414.945 13.912 414.753 14.104 414.465 14.296C414.465 13.912 414.465 13.624 414.465 13.336C413.889 13.144 413.793 12.664 414.081 12.088C414.081 11.896 414.081 11.512 414.177 11.224C413.793 10.744 413.697 10.264 413.793 9.592C413.889 9.016 413.793 8.34399 413.793 7.672C413.793 7.096 413.889 6.712 414.081 6.232C414.177 5.752 414.561 5.944 414.849 6.04C415.041 5.848 415.137 5.56 415.233 5.464C415.425 5.368 415.617 5.464 415.905 5.464C415.905 5.368 416.097 5.17599 416.193 5.08C416.385 5.17599 416.577 5.272 416.769 5.464C416.769 5.56 416.673 5.848 416.673 6.04C416.961 6.04 417.249 6.13599 417.441 6.232C417.537 6.13599 417.729 5.944 417.825 5.848C418.017 5.65599 418.209 5.464 418.497 5.56C418.785 5.848 419.073 5.944 418.977 6.328C418.977 6.616 418.977 6.904 418.881 7.192C419.265 6.99999 419.553 6.99999 419.745 6.99999C420.129 6.712 420.417 6.616 420.897 6.99999C421.089 7.096 421.377 6.99999 421.377 7.192C421.665 7.672 422.145 7.384 422.337 7.768C422.529 8.056 422.817 8.44 422.913 8.72799C422.913 8.824 423.105 8.92 423.201 9.016C423.201 8.92 423.201 8.824 423.297 8.824C423.585 9.112 423.969 9.496 423.777 10.072C423.681 10.264 423.969 10.552 423.969 10.648C424.161 11.032 424.545 11.32 424.065 11.8C424.065 11.896 424.161 12.088 424.257 12.184C424.353 12.568 424.545 13.048 424.737 13.432C424.353 13.816 423.969 14.2 423.585 14.488C423.489 14.584 423.489 14.968 423.393 15.352C423.201 15.352 422.913 15.448 422.529 15.544C422.433 14.872 422.337 14.296 422.241 13.72C422.145 13.048 421.761 12.472 421.377 12.088C421.281 11.992 421.089 12.088 421.089 11.992C420.897 12.472 420.609 12.664 420.225 12.76C419.649 13.144 419.265 13.432 419.073 13.912C419.265 14.104 419.265 14.296 419.361 14.392C419.457 14.296 419.553 14.296 419.649 14.296C419.937 15.16 419.841 16.12 419.841 16.984C419.361 16.888 419.073 16.792 418.497 16.792C418.497 16.12 418.497 15.448 418.497 14.776C418.497 14.68 418.497 14.584 418.593 14.584C418.785 13.816 418.689 13.144 417.825 12.472ZM417.537 11.128C417.633 10.744 417.537 10.648 417.249 10.648C417.345 10.744 417.441 10.936 417.537 11.128ZM417.441 9.88C417.441 9.88 417.441 9.784 417.441 9.68799C417.249 9.592 417.057 9.592 416.865 9.976C417.057 9.88 417.345 9.88 417.441 9.88ZM425.313 56.824C425.409 58.264 425.409 59.8 425.409 61.144C425.601 64.6 425.697 67.864 425.793 71.32C425.793 72.664 425.793 73.816 425.793 75.064C425.793 75.448 425.697 75.832 425.505 76.12C425.409 76.504 425.025 76.6 424.737 76.408C424.641 76.6 424.449 76.888 424.353 77.08C424.353 77.08 424.257 77.08 424.161 77.08C424.065 73.72 424.353 70.456 424.545 67C424.737 63.544 424.929 60.184 425.121 56.824C425.217 56.824 425.217 56.824 425.313 56.824ZM420.033 15.64C420.129 15.544 420.225 15.448 420.225 15.448C420.321 15.544 420.321 15.544 420.321 15.64V15.736C420.225 15.736 420.129 15.736 420.033 15.64ZM439.833 70.84C438.777 69.784 438.297 68.632 438.009 67.288C437.433 65.368 437.337 63.352 437.049 61.336C436.569 55.096 436.569 48.952 436.953 42.712L437.433 38.584C437.625 35.704 438.201 32.728 438.297 29.752C438.297 29.56 438.297 29.176 438.201 28.888C438.105 29.272 438.009 29.752 437.913 30.136H437.817L438.105 27.064L437.337 26.872L433.017 26.104C432.729 26.008 432.249 25.912 432.057 25.432C432.249 25.24 432.345 25.144 432.633 24.952V24.472C432.057 24.376 431.577 24.28 431.097 24.088C430.809 24.088 430.521 23.896 430.713 23.416C430.809 23.032 430.329 23.032 430.233 22.648L431.385 21.976C431.097 21.592 430.329 21.592 430.041 20.824L431.097 20.056H431.48C432.153 20.056 432.825 20.056 433.305 19.96L430.041 19.672C430.041 19.096 430.041 18.616 430.041 18.04C430.425 17.944 430.905 17.944 431.097 17.56C431.385 17.368 431.865 17.368 432.153 17.368H438.105H439.065L439.449 14.776C439.929 11.608 440.312 8.44 440.889 5.17599C440.984 4.408 441.177 3.64 441.369 2.96799L441.753 1.528C441.945 0.759995 442.617 0.759995 443.289 0.567997C443.481 0.567997 443.673 0.855999 443.865 1.048L443.577 1.336V1.528L445.017 1.336L445.497 2.008L445.881 1.528C445.977 1.528 446.073 1.528 446.073 1.528L447.801 2.776C448.377 3.352 448.665 3.92799 448.761 4.6C448.953 5.464 449.145 6.424 449.145 7.288C449.241 8.824 449.241 10.36 449.337 11.896C449.337 13.24 449.241 14.584 449.337 16.12C449.337 16.792 449.337 17.56 449.433 18.232C450.105 18.424 450.681 18.52 451.161 18.616C452.312 18.808 453.369 19 454.521 19.576C455.577 20.056 456.729 20.248 458.073 20.44L460.473 20.824C461.241 21.112 462.009 21.496 462.489 21.88C462.489 22.648 462.009 22.072 461.817 22.168C462.009 22.744 462.681 23.032 462.777 23.704L462.393 23.8L463.065 25.144L461.817 26.296L462.393 26.488C462.393 26.488 462.393 26.584 462.297 26.584L460.185 27.064L458.745 27.16L459.609 27.736C459.225 27.832 458.937 28.12 458.745 28.12C458.169 28.216 457.401 28.504 456.729 28.504C454.713 28.504 452.697 28.6 450.681 28.312C450.297 28.312 449.817 28.312 449.241 28.216L449.049 29.752C449.049 29.848 449.049 29.944 449.049 29.944C449.433 30.328 449.241 30.712 449.241 31C449.241 33.208 449.241 35.416 449.241 37.624C449.241 37.912 449.337 38.104 449.337 38.392C449.433 38.68 449.433 39.064 449.433 39.448L449.241 47.992C449.241 51.928 449.241 55.96 449.433 59.896C449.721 62.392 450.105 64.984 450.393 67.384C450.489 67.864 450.681 68.44 450.873 69.016C450.873 69.112 451.065 69.304 451.257 69.112C451.257 69.016 451.449 69.112 451.545 69.208C451.641 69.496 451.929 69.4 452.217 69.208L453.273 67.864C453.369 67.768 453.369 67.48 453.369 67.384C453.369 67.192 453.273 67.096 453.273 66.808C453.465 66.904 453.561 67.096 453.753 67.192C454.137 66.52 454.617 65.944 454.137 65.08L455.385 65.368C455.865 64.6 456.921 64.12 456.249 62.968C456.536 62.584 457.305 62.392 457.785 62.584C458.169 62.776 458.265 63.16 458.169 63.928L459.129 63.352C459.321 63.16 459.609 63.16 459.993 63.256C460.665 63.544 461.241 63.832 461.721 64.408C461.913 64.696 462.105 64.984 462.393 65.176C462.873 65.56 463.257 66.136 463.257 66.904C463.257 67.192 463.257 67.288 463.353 67.48C463.833 68.248 463.641 68.92 463.257 69.496C462.105 71.032 460.953 72.664 459.513 74.008C459.129 74.296 458.841 74.584 458.553 75.16C458.457 75.544 458.265 76.024 458.073 76.408C457.593 77.176 457.017 77.752 456.249 78.136L452.217 79.96C451.353 80.152 450.681 80.248 449.817 79.96C447.801 79.384 445.785 78.232 444.153 76.888C444.249 76.888 444.537 76.984 444.729 76.984C444.249 75.928 443.385 75.256 442.329 74.68C442.617 75.352 443.193 75.832 443.577 76.408C441.849 75.16 440.697 73.72 440.217 71.704C440.121 71.32 440.217 70.84 439.737 70.84C439.833 70.648 440.025 70.552 439.929 70.456L439.737 68.824L439.449 68.536C439.257 69.016 439.257 69.496 439.545 70.072C439.641 70.264 439.737 70.552 439.833 70.84ZM453.369 76.984C453.753 76.984 454.041 76.6 454.329 76.312C453.849 76.312 453.465 76.312 453.177 76.408C452.889 76.504 452.889 76.6 453.081 76.888C452.601 76.792 452.312 77.08 452.121 77.56C452.697 77.752 452.984 77.56 453.369 76.984ZM437.721 47.128L438.393 52.312C438.393 52.6 438.393 52.888 438.393 53.176C438.393 55.096 438.489 56.92 438.585 58.84C438.681 60.472 438.777 62.008 438.777 63.544L438.873 64.984C438.873 65.272 438.969 65.464 439.161 65.656L439.449 59.896V58.36L439.161 52.6C439.161 50.392 439.161 48.28 439.161 46.168C439.257 44.536 439.161 42.904 439.641 41.368C439.833 40.888 439.929 40.504 439.929 40.024C439.929 39.832 439.929 39.448 439.833 39.352C439.449 38.872 439.449 38.392 439.545 38.008C439.545 36.664 439.641 35.416 439.641 34.072C439.737 33.592 439.833 33.4 440.217 33.304V27.256L439.065 27.064L438.777 30.136C438.777 31.768 438.681 33.496 438.489 35.128C438.489 35.8 438.393 36.376 438.393 37.048C438.393 37.624 438.489 38.008 438.393 38.392C438.393 39.832 438.201 41.176 438.105 42.424H438.009V41.656C437.721 42.424 437.433 43.48 437.241 44.248C437.145 44.536 437.049 44.92 437.049 45.208L437.433 47.8L437.529 47.896C437.529 47.608 437.625 47.416 437.721 47.128ZM441.657 70.456V69.784C441.369 67.672 440.984 65.56 440.984 63.544C440.889 61.528 440.312 59.608 440.121 57.688C439.929 57.976 439.833 58.168 439.833 58.456C439.833 59.128 439.833 59.896 439.929 60.472C440.025 62.296 440.121 64.12 440.217 65.944C440.409 67.192 440.697 68.248 440.984 69.304C440.984 69.688 441.177 70.072 441.657 70.456ZM442.424 66.328L441.945 63.64H441.849C441.945 64.216 441.945 64.696 442.041 65.272L442.905 70.072C443.001 70.456 443.193 70.84 443.673 70.936C444.633 71.224 445.401 71.896 445.977 72.664C446.169 72.952 446.553 73.336 446.841 73.624C447.129 73.816 447.321 73.912 447.513 73.528L445.689 71.992C445.017 71.32 444.249 70.744 443.865 69.784L442.809 67.192C442.809 67 442.809 66.808 442.809 66.712C442.809 66.424 442.521 66.616 442.521 66.52C442.424 66.52 442.424 66.424 442.424 66.328ZM451.929 76.408L450.969 75.928C450.489 75.832 450.489 75.832 450.009 76.312L450.585 76.696C451.257 77.176 451.257 77.176 451.929 76.408ZM449.721 71.224L448.281 70.264C448.281 70.84 448.569 71.512 449.145 71.992L449.721 71.224ZM457.113 65.56L456.633 66.136L457.209 66.52C457.305 66.136 457.305 65.848 457.305 65.56C457.305 65.56 457.209 65.56 457.113 65.56ZM434.841 19.96C434.841 20.056 434.841 20.056 434.841 20.056L435.993 20.248V20.056C435.609 19.864 435.225 19.96 434.841 19.96ZM438.297 37.624V38.008V37.624ZM495.865 78.712C495.865 77.944 495.865 76.984 496.249 76.312C496.633 75.352 496.345 74.68 495.769 74.008L495.385 73.72C495.001 74.296 494.905 74.68 494.809 75.16C494.809 75.928 494.809 76.504 494.713 77.176L494.137 79C493.945 79 493.753 79.096 493.369 79.096L493.657 75.544C493.465 75.544 493.369 75.544 493.177 75.64C493.177 75.352 492.985 75.16 492.793 74.968C492.505 74.68 492.217 74.296 492.217 73.72C492.121 73.24 491.929 72.664 491.929 72.28V71.416C491.833 71.512 491.641 71.512 491.545 71.512C491.545 72.568 491.545 73.432 491.545 74.392C491.641 74.392 491.641 74.488 491.737 74.488L491.929 74.104H492.025C491.929 75.16 492.217 76.312 491.833 77.464L491.545 76.6L490.777 76.312L490.969 73.816L491.161 71.224C490.585 71.32 490.393 71.512 490.393 71.896C490.489 72.472 490.585 72.952 490.585 73.432V74.584C490.201 74.488 489.913 74.2 490.009 73.816C490.009 73.048 489.721 72.472 489.433 71.896C489.145 71.128 489.049 70.456 489.145 69.688C489.337 68.632 489.433 67.384 489.529 66.232L490.105 60.184L490.681 51.64C490.777 50.104 490.777 48.568 490.681 47.032C490.393 44.824 490.201 42.712 490.009 40.504C489.721 39.064 489.241 37.624 488.569 36.28L488.281 35.8C487.513 36.184 486.937 36.76 486.457 37.24C486.457 37.336 486.361 37.528 486.361 37.528C486.649 37.624 486.457 37.816 486.361 38.008L484.825 39.544C484.633 39.832 484.441 40.12 484.249 40.408C483.193 42.136 482.233 43.768 481.465 45.688C481.273 46.168 481.081 46.552 480.985 46.936C480.985 47.128 480.697 47.416 480.889 47.8C480.985 47.896 480.889 48.184 480.793 48.472L480.217 50.392C479.833 51.448 479.833 52.504 479.833 53.56L480.025 58.552L480.217 67.576C480.313 69.88 480.505 72.184 480.601 74.392C480.601 74.776 480.601 75.352 480.217 75.736C480.025 75.928 479.929 76.312 479.929 76.504C479.833 77.272 479.353 77.752 478.681 78.04L476.569 78.904C476.473 78.136 476.569 77.56 476.569 76.792C476.665 76.216 476.761 75.448 476.761 74.68C476.857 74.488 476.761 74.104 476.473 74.104C475.801 75.256 475.609 76.6 475.609 78.04C475.609 78.424 475.513 79 475.513 79.576C475.417 79.768 475.225 79.96 474.937 79.96C474.553 79.96 474.169 79.96 473.785 79.96L473.401 78.712L472.921 78.424L472.537 78.808H472.441C472.153 78.424 472.153 78.136 471.865 78.136C471.769 78.04 471.673 77.752 471.577 77.56C471.385 76.984 471.193 76.312 470.713 75.928C470.617 75.736 470.521 75.352 470.521 75.064C470.521 74.488 470.329 74.2 470.041 73.72C469.849 73.528 469.657 73.144 469.657 72.856C469.561 72.088 469.177 71.32 468.889 70.552C468.793 70.168 468.697 69.688 468.697 69.304C468.697 62.776 468.697 56.248 468.985 49.624C469.177 45.4 469.273 41.272 469.561 37.048C469.753 31 470.041 25.048 470.329 19C470.521 16.888 470.809 14.872 471.097 12.76C471.289 11.8 471.481 10.84 472.153 10.072C472.153 9.976 472.153 9.784 472.249 9.592C472.441 8.92 472.729 8.44 473.305 8.056C473.689 8.44 473.881 8.824 474.265 9.20799C474.553 8.536 474.361 7.672 474.745 6.99999C475.033 7.384 475.033 7.768 474.841 8.34399C474.553 8.824 474.745 9.112 475.321 9.496C475.513 9.4 475.609 9.20799 475.705 9.112V11.224C476.377 10.552 476.665 9.68799 477.433 9.112C477.625 9.304 477.721 9.496 477.721 9.592C478.009 10.36 478.201 11.032 478.297 11.8C478.393 13.24 478.393 14.776 478.393 16.216C478.393 18.04 478.297 19.864 478.297 21.784C478.297 22.648 478.393 23.416 478.393 24.376L478.585 27.064C479.161 26.68 479.641 26.296 479.449 25.528C479.449 25.24 479.545 24.952 479.641 24.664L479.833 26.008C480.217 25.912 480.313 25.72 480.601 25.528C481.945 24.76 483.385 24.088 485.017 23.896C485.497 23.8 485.977 23.896 486.457 23.992C486.649 23.992 487.033 24.184 487.033 24.568C487.033 24.76 487.129 24.856 487.129 24.952C487.513 25.528 487.513 25.528 488.281 25.432C490.009 25.24 491.545 25.432 492.697 26.968C492.889 27.064 493.081 27.064 493.369 27.064C494.041 27.064 494.713 27.448 495.193 28.12L497.689 30.712C498.457 31.384 498.841 32.344 499.321 33.304C500.377 36.088 500.953 38.872 501.145 41.752L501.337 45.208C501.337 47.224 501.433 49.336 501.721 51.448C502.201 55 502.201 58.648 502.105 62.2L501.625 72.664C501.529 73.432 501.433 74.296 501.337 74.968C501.337 75.544 501.145 75.928 500.665 76.12L498.841 76.888C498.745 76.984 498.553 76.984 498.361 76.792C498.073 76.6 497.881 76.696 497.689 76.984L497.113 77.656L496.825 78.136C496.633 78.808 496.633 78.808 495.865 78.712ZM478.009 62.008C478.009 62.008 477.913 62.008 477.817 62.008L477.529 63.832C477.529 65.176 477.433 66.424 477.337 67.672C477.241 68.056 477.241 68.44 477.241 68.824V69.88C477.337 70.264 477.337 70.552 477.337 70.84H477.433C477.625 67.864 477.817 64.984 478.009 62.008ZM482.041 28.12C482.041 28.024 482.041 28.024 481.945 27.928C481.369 28.216 480.985 28.6 480.505 28.888C479.929 29.176 479.833 29.656 480.121 30.328L482.041 28.12ZM481.177 38.392C482.041 38.008 482.809 37.24 483.001 36.184C482.041 36.664 481.657 37.624 481.177 38.392ZM478.585 32.44C479.353 31.768 479.257 31 479.161 30.328C478.393 30.712 478.585 31.48 478.585 32.44ZM494.329 36.184C494.233 35.032 493.849 34.36 493.177 33.496C493.273 34.264 493.849 35.8 494.329 36.184ZM498.361 33.88C498.265 33.112 498.073 32.536 497.593 32.152C497.881 32.632 498.073 33.208 498.361 33.88ZM491.257 69.208C491.353 69.208 491.353 69.208 491.353 69.208C491.449 69.112 491.449 69.016 491.449 69.016C491.449 69.016 491.353 68.92 491.257 68.728V69.016C491.257 69.016 491.257 69.112 491.257 69.208ZM480.985 62.68V66.808V62.68ZM557.068 28.888L557.164 28.984V28.6L556.396 28.888C556.3 28.696 556.3 28.6 556.012 28.504L556.3 29.176C556.588 29.848 556.684 29.848 555.916 30.232C555.628 29.944 555.244 29.368 554.956 28.888C554.476 27.736 553.9 26.584 553.516 25.24C552.556 22.744 551.596 20.152 550.252 17.944C549.772 16.984 549.004 16.408 548.332 15.832C547.564 16.12 547.18 16.792 546.7 17.368C545.068 19.48 544.684 21.88 544.396 24.568C544.3 27.064 544.876 29.176 546.124 31.192C547.468 33.496 548.812 35.8 550.348 38.008C552.556 41.368 554.476 44.92 556.3 48.568C556.684 49.24 557.068 50.2 557.356 50.968C558.028 52.888 558.7 54.712 559.372 56.536C560.236 59.128 560.812 61.624 561.1 64.12C561.196 66.712 560.716 69.016 558.988 70.936C558.604 71.512 558.316 71.992 558.028 72.664C557.164 74.776 555.724 76.6 553.42 77.656C552.46 78.136 551.596 78.52 550.732 79C549.676 79.672 548.428 79.864 547.18 79.576C545.644 79.096 544.108 78.424 542.572 77.752C542.476 77.752 542.284 77.56 542.092 77.368C542.38 77.368 542.572 77.368 542.956 77.368C542.092 76.6 541.324 75.832 540.268 75.544C540.268 75.448 540.172 75.448 540.076 75.448C539.308 75.64 538.924 75.16 538.54 74.68C537.772 73.912 537.004 73.144 536.524 72.28C535.564 70.648 534.028 69.112 533.356 67.288C532.492 65.368 531.82 63.256 531.34 61.048C530.764 58.168 530.38 55.288 530.188 52.408C530.092 51.832 530.188 51.256 530.38 50.776C530.38 50.488 530.668 50.2 530.764 50.008C530.86 49.816 531.052 49.624 531.148 49.528C531.628 48.856 532.204 48.568 533.164 48.76C533.548 48.952 533.836 48.952 534.124 48.568C534.508 47.992 535.18 48.184 535.66 48.184C536.044 47.416 536.62 47.224 537.58 47.512C537.676 47.896 537.676 48.184 537.388 48.472C537.484 48.568 537.484 48.568 537.484 48.568L538.348 49.24C538.252 50.008 538.636 50.776 538.348 51.448C538.156 51.64 538.156 51.832 538.156 52.12C538.54 54.424 538.828 56.632 539.308 59.032C539.596 60.568 540.172 62.008 540.748 63.544C541.036 64.408 541.516 65.176 541.996 65.848L542.284 66.328C542.284 66.328 542.38 66.232 542.476 66.232C542.38 66.04 542.38 66.04 542.38 65.848C541.612 63.832 541.228 61.72 541.036 59.8L539.98 54.232L539.212 49.912L538.732 48.088C538.732 47.896 538.636 47.8 538.636 47.512C539.116 47.224 539.5 47.512 539.884 47.416C539.98 47.8 539.98 47.992 540.076 48.184C540.172 48.376 540.268 48.568 540.556 48.76C540.94 48.952 541.132 49.048 540.748 49.432L541.324 49.912C541.708 50.008 541.9 50.2 541.804 50.68C541.708 50.776 541.804 50.872 541.9 50.968C542.86 52.216 542.956 53.656 543.148 55.096L544.012 60.76C544.588 63.16 545.26 65.368 546.508 67.192L547.18 68.248C547.276 67.864 547.468 67.576 547.564 67.288C548.236 65.368 548.332 63.448 548.044 61.432C547.66 57.688 546.604 54.232 545.356 50.776C545.068 50.008 544.684 49.24 544.3 48.664C542.284 45.592 540.268 42.616 538.348 39.544C536.908 37.336 535.66 35.032 534.796 32.536C533.836 29.848 533.356 27.064 533.26 24.088C533.164 22.744 533.068 21.304 533.26 19.96C533.452 17.464 534.124 15.064 535.564 12.856C535.852 12.28 536.044 11.608 535.66 10.84C535.564 10.648 535.66 10.552 535.66 10.36C536.524 8.92 537.388 7.672 538.636 6.712C538.924 6.51999 539.212 6.328 539.596 6.616C539.788 6.808 540.172 6.808 540.364 6.712C540.652 6.712 540.844 6.904 541.036 7.192C539.596 7.86399 538.348 8.72799 537.58 10.072C538.54 9.304 539.5 8.72799 540.652 8.44C541.228 8.248 541.708 7.96 542.092 7.576C542.86 6.904 543.628 6.328 544.684 5.944L545.164 5.65599C544.492 5.368 543.724 5.464 543.052 5.464C543.916 5.17599 544.876 5.17599 545.74 5.272C546.892 5.464 548.044 5.56 549.196 5.56C550.444 5.65599 551.692 6.13599 552.844 6.712C554.092 7.288 555.34 8.248 556.012 9.496C556.108 9.68799 556.3 9.88 556.396 9.88C557.356 10.648 558.028 11.32 558.604 12.184C558.604 12.184 558.7 12.28 558.892 12.376C558.508 11.32 557.74 10.648 557.26 9.88L558.028 10.552V9.88L558.604 10.648C559.564 11.704 560.14 13.144 560.524 14.584L561.004 16.792L561.388 18.808C562.156 21.016 562.348 23.224 561.964 25.432C561.772 26.584 561.388 27.352 560.716 28.312L560.044 29.272C559.948 29.464 559.948 29.56 559.756 29.656C559.372 29.848 559.18 30.04 558.988 30.52C558.892 30.712 558.508 30.712 558.22 30.712C558.124 30.328 558.508 29.752 557.836 29.56L557.644 30.136L557.068 28.888ZM541.036 31.96C540.844 31.768 540.748 31.48 540.652 31.288C540.652 31.288 540.652 31.384 540.556 31.384C541.036 32.056 541.036 32.248 541.036 32.344C542.092 33.976 542.956 35.608 543.916 37.24L544.204 37.336C544.3 37.72 544.588 38.008 544.78 38.392C544.78 38.392 544.78 38.392 544.876 38.296C544.78 38.008 544.588 37.624 544.204 37.336C544.012 36.952 543.916 36.568 543.82 36.28L541.324 32.344C541.228 32.152 541.036 32.152 541.036 31.96ZM553.036 67.48C553.324 67.192 553.42 67.096 553.516 66.808C554.092 66.04 554.188 65.368 553.9 64.408C553.516 63.544 553.42 62.776 553.804 61.72L553.9 61.048C554.188 59.512 554.476 58.072 553.804 56.536V56.248C553.516 54.52 553.036 52.888 552.364 51.448C552.076 50.776 551.788 50.008 551.5 49.336C551.212 49.528 551.308 49.72 551.212 49.912C550.828 50.296 551.116 50.68 551.212 50.968C551.692 52.408 552.076 53.752 552.46 55.096C552.94 56.92 553.132 58.84 553.228 60.664C553.324 61.816 553.42 63.064 553.036 64.12C552.748 65.272 553.036 66.328 553.036 67.48ZM550.348 59.512C550.348 60.568 550.348 61.72 550.444 62.776C550.444 63.832 550.252 64.984 550.444 66.04C550.828 65.368 551.212 64.504 551.02 63.64L550.636 60.472C550.54 60.088 550.444 59.896 550.348 59.512ZM540.268 74.488C539.884 73.624 539.212 73.24 537.868 72.952C538.54 73.72 539.308 74.2 540.268 74.488ZM547.372 42.904C547.084 41.56 546.124 40.504 545.452 39.352C545.356 39.352 545.356 39.448 545.356 39.448C546.124 40.504 546.7 41.656 547.372 42.904ZM555.916 27.352C555.916 27.448 555.82 27.448 555.82 27.544C555.916 27.64 555.916 27.736 555.916 27.928C556.012 27.736 556.108 27.736 556.012 27.736C556.012 27.544 555.916 27.448 555.916 27.352ZM557.068 28.888C557.164 29.176 557.068 29.368 556.78 29.56C556.684 29.176 556.972 28.984 557.164 28.984L557.068 28.888ZM609.732 33.208C609.156 34.264 608.484 35.032 608.004 36.088C606.948 38.008 606.084 40.024 605.892 42.328C605.796 43.48 605.508 44.44 605.316 45.4L604.356 55.288L604.068 57.88C604.068 58.552 604.164 59.32 604.26 59.896C604.356 61.432 604.356 62.776 603.972 64.216C603.588 65.464 603.3 66.904 603.492 68.344C603.588 68.536 603.492 68.632 603.492 68.824C603.492 68.92 603.492 69.016 603.492 69.016C602.436 69.496 602.244 69.4 602.052 68.248C601.86 66.04 601.86 63.832 601.86 61.72C601.956 60.664 601.764 59.608 601.668 58.456C601.668 58.456 601.572 58.456 601.476 58.456C601.476 59.512 601.476 60.568 601.38 61.624C601.188 63.544 601.476 65.464 601.572 67.48C601.668 68.248 601.668 69.016 601.668 69.688C601.764 69.784 601.668 70.072 601.764 70.072C602.34 70.648 602.052 71.32 602.244 71.992L602.34 72.856C602.532 72.28 602.532 71.512 602.82 70.84C602.916 71.896 603.012 72.76 602.916 73.72C602.916 73.816 602.916 73.912 602.82 74.008C602.34 74.2 602.436 74.584 602.532 75.064C602.532 75.832 602.532 75.832 601.668 76.024C601.38 74.488 601.572 72.664 601.86 70.84C601.092 71.416 600.612 71.992 600.036 72.568C600.036 72.664 600.036 72.856 600.036 73.048V74.104C599.652 73.912 599.652 74.104 599.556 74.392L598.884 76.216C598.884 76.312 598.884 76.408 598.692 76.792C598.596 76.312 598.404 76.216 598.404 75.928C598.404 75.16 597.924 74.488 597.54 74.104C597.156 73.432 596.964 72.76 596.772 72.184C596.58 71.8 596.388 71.416 596.196 71.032C596.196 71.128 596.1 71.32 596.196 71.512C596.292 72.664 596.388 73.72 596.58 74.776C596.58 75.16 596.676 75.736 596.388 76.216C596.004 75.544 595.62 75.064 595.716 74.392C595.812 72.952 595.716 71.512 595.62 70.168C595.524 69.304 595.236 68.536 595.14 67.48C595.236 68.248 595.236 69.016 595.236 69.592C595.236 70.264 595.236 70.84 595.14 71.608C595.14 72.28 594.948 72.952 594.948 73.624C593.892 73.72 593.7 73.432 593.411 72.664L593.124 71.992L592.26 70.744C592.068 70.552 592.068 70.36 592.068 70.072L591.012 52.696L589.764 38.296C589.764 36.952 589.284 35.704 588.804 34.36L588.42 33.592L587.748 34.36C585.444 37.432 583.812 40.6 582.756 44.152C581.796 47.224 581.316 50.392 580.932 53.56C580.836 54.04 580.836 54.424 580.932 54.808L582.084 65.656C582.18 67.192 582.18 68.92 582.18 70.456C582.18 70.84 582.084 71.032 581.988 71.416L581.7 72.856C581.7 73.24 581.604 73.72 581.316 74.008C581.124 74.104 581.028 74.392 581.028 74.488C580.74 75.352 580.74 75.352 579.972 75.736L579.299 74.584C579.299 75.544 579.684 76.312 579.492 77.368L575.94 78.328C575.268 77.752 575.46 76.792 575.172 76.024L574.692 76.312L574.308 75.64L573.828 76.6C573.156 76.504 572.868 75.928 572.58 75.256C572.484 74.968 572.292 74.776 572.1 74.488L571.236 72.952C570.948 72.472 570.852 71.896 570.468 71.32C569.796 70.168 569.7 68.824 569.7 67.48C569.22 63.16 568.836 58.936 568.452 54.712C568.164 51.352 568.068 47.992 568.068 44.536C568.068 44.152 568.164 43.672 568.26 43.288C568.355 40.408 568.836 37.624 568.932 34.84C568.932 33.976 569.22 33.112 569.316 32.248L569.796 28.408C570.084 27.352 570.372 26.296 570.66 25.24L570.852 23.992L571.716 20.92C571.908 20.536 572.004 20.056 572.676 19.864L573.444 21.112L574.5 20.536L575.172 21.592C575.268 21.496 575.46 21.208 575.652 21.112L576.324 22.264L576.708 21.88C576.996 21.976 577.284 21.976 577.764 21.976C577.764 22.264 577.859 22.552 577.859 22.744C577.764 23.704 577.956 24.568 578.244 25.432C578.532 26.296 578.532 27.064 578.532 28.024C578.532 28.312 578.628 28.504 578.628 28.888L579.012 28.408L580.644 26.296C581.796 25.048 583.236 24.184 584.772 23.704C586.02 23.32 587.172 23.416 588.036 24.28C588.612 24.856 589.092 25.24 589.572 25.72C589.764 26.008 590.052 26.104 590.531 26.104C591.204 26.104 591.78 25.816 592.356 25.528C594.372 24.856 596.868 26.68 597.06 28.12C596.58 27.928 596.292 27.352 595.908 27.064C595.428 26.68 594.948 26.392 594.372 26.392C594.468 26.488 594.564 26.584 594.66 26.584C595.62 27.064 596.292 27.832 596.772 28.888L597.444 31C597.54 31.192 597.54 31.384 597.732 31.576C597.924 30.904 598.212 30.424 598.5 29.848C598.692 29.08 599.076 28.504 599.364 27.736C599.556 27.544 599.652 27.352 599.94 27.256L601.476 25.912C601.476 25.816 601.572 25.72 601.572 25.624C602.436 23.704 603.78 22.36 605.412 21.208L606.18 20.728C607.044 20.248 608.004 20.344 608.772 21.208C609.156 21.496 609.444 21.592 609.828 21.496C610.212 21.4 610.596 21.592 611.076 21.592C611.364 21.592 611.46 21.688 611.652 21.688C612.516 21.592 613.284 21.784 613.956 22.264L617.028 24.088C617.7 24.472 618.276 25.24 618.756 25.912C620.004 27.736 620.772 29.944 621.444 32.152C621.828 33.304 622.02 34.552 622.404 35.8C622.5 36.184 622.596 36.568 622.596 36.952C624.132 40.792 624.9 44.632 625.284 48.664C625.572 51.832 625.764 55 625.956 58.168C625.956 59.128 625.86 60.088 625.86 61.048C625.764 62.008 625.668 62.872 625.668 63.832C625.572 65.752 625.572 67.672 625.572 69.688C625.572 70.072 625.476 70.456 625.86 70.744L625.956 70.936C625.956 71.8 625.956 72.568 625.668 73.336C625.668 72.664 625.572 71.992 625.572 71.32C624.996 71.8 625.476 72.664 624.516 72.952V74.488C624.612 75.064 624.42 75.352 624.036 75.64C623.748 75.832 623.652 76.024 623.364 76.216C622.884 76.024 622.596 75.64 622.308 75.16V78.136C621.732 78.328 621.635 78.328 621.635 77.848C621.54 77.464 621.54 76.984 621.54 76.6H621.444C621.252 76.984 621.156 77.368 621.156 77.848C620.772 77.176 620.964 76.6 620.964 75.928C620.868 75.256 621.06 74.68 621.06 74.104V71.992L620.292 72.184V79.192L619.236 79.576C619.14 79.192 619.14 79 619.14 78.712C619.332 75.736 619.236 72.664 619.14 69.688C619.14 68.632 619.332 67.384 619.332 66.232C619.427 64.6 619.524 62.968 619.524 61.336C619.524 59.416 619.524 57.496 619.427 55.672C619.332 52.792 619.14 50.008 618.756 47.128C618.756 46.744 618.66 46.456 618.564 46.072C618.468 46.168 618.468 46.264 618.468 46.36C618.372 47.512 618.372 48.856 618.372 50.104C618.372 50.968 618.564 51.928 618.66 52.888C618.852 53.848 618.66 54.808 618.66 55.864C618.66 56.152 618.66 56.344 618.66 56.632C618.948 59.32 618.948 61.912 618.948 64.6C618.948 66.424 618.852 68.152 618.852 69.88C618.852 70.936 618.756 72.184 618.756 73.336C618.756 73.624 618.66 73.816 618.468 74.008C618.372 74.008 618.372 74.008 618.372 74.008C617.988 74.392 617.508 74.68 617.22 75.16C617.124 75.544 617.124 76.12 617.124 76.696C617.124 76.312 617.028 75.928 616.932 75.544H616.836L616.356 77.752H616.164L615.972 76.312C615.684 76.312 615.492 76.312 615.3 76.312C615.012 76.312 614.628 76.024 614.531 75.544C614.436 75.352 614.34 75.16 614.244 74.968C613.38 74.2 613.284 73.048 613.092 71.992C612.708 69.976 612.804 67.864 612.804 65.944C612.804 59.896 612.804 53.656 612.804 47.608C612.708 44.632 612.516 41.656 612.036 38.68C611.748 37.24 611.172 35.8 610.692 34.36C610.596 33.88 610.308 33.496 610.116 32.92C609.828 33.112 609.828 33.208 609.732 33.304C609.828 33.016 609.828 32.824 609.924 32.536L609.06 31.288C608.004 31.768 607.14 32.824 606.756 33.784C605.892 36.088 605.22 38.296 604.74 40.696L604.548 41.464C604.932 40.888 605.124 40.408 605.412 39.832C606.372 37.816 607.62 35.8 609.06 33.88C609.156 33.592 609.54 33.496 609.732 33.208ZM602.916 48.28H603.108L604.356 37.624L604.26 37.72L603.972 38.296C603.3 40.12 602.916 41.944 602.532 43.864C602.34 45.304 602.628 46.84 602.916 48.28ZM604.26 26.008C604.356 26.104 604.356 26.104 604.452 26.104L604.548 26.008C605.316 25.432 606.084 24.952 607.044 24.952C607.14 24.952 607.332 24.856 607.332 24.856L608.292 23.704C607.524 22.744 605.988 23.128 605.124 24.088L605.796 24.472C605.22 25.048 604.74 25.528 604.26 26.008ZM619.332 43.48L617.892 41.176L618.18 43.288C618.18 43.384 618.276 43.48 618.276 43.576L618.756 45.112C618.948 45.4 618.948 45.784 618.948 46.168C619.14 45.784 619.236 45.4 619.332 45.112C619.716 44.536 619.62 43.96 619.332 43.48ZM616.548 32.344L617.412 38.68C617.7 36.856 617.124 33.208 616.548 32.344ZM606.18 22.456C605.028 22.552 604.356 23.416 603.684 24.376C604.74 24.088 605.412 23.032 606.18 22.456ZM572.676 21.688C572.292 21.88 572.1 22.264 572.292 23.032C572.58 22.648 573.06 22.264 572.676 21.688ZM580.932 28.6L580.644 28.504L579.78 29.944C579.876 29.944 579.876 30.04 579.972 30.04C580.356 29.56 580.644 29.08 580.932 28.6ZM616.644 24.856L617.412 25.816C617.412 25.816 617.508 25.72 617.508 25.624C617.316 25.336 617.124 25.048 616.836 24.76C616.836 24.856 616.74 24.856 616.644 24.856ZM578.82 31L579.204 30.04C578.82 30.328 578.724 30.52 578.82 31ZM573.06 20.632C572.964 20.632 572.868 20.728 572.868 20.728C572.868 20.824 572.868 21.016 572.964 21.208C573.348 21.016 573.06 20.824 573.06 20.632ZM644.193 46.552C644.193 47.128 644.193 47.512 644.193 48.184C647.457 45.304 651.201 43.576 655.521 43.192C655.521 43 655.521 42.712 655.521 42.52C655.521 40.504 655.617 38.584 655.521 36.568C655.521 35.704 655.137 34.648 654.945 33.88C654.753 33.4 654.561 32.92 654.369 32.536C653.984 31 652.833 30.136 651.489 29.368C651.105 29.176 650.625 29.176 650.241 29.464C648.801 30.712 647.265 31.864 646.401 33.592C645.729 34.744 645.153 36.088 644.577 37.24C644.193 38.008 643.809 38.968 643.424 39.832C643.233 40.024 643.041 40.216 642.753 40.312C642.369 40.408 642.081 40.504 641.697 40.504C641.312 40.6 641.025 40.696 641.121 41.272C640.353 41.272 639.681 41.272 639.105 41.176C638.913 41.08 638.721 40.984 638.625 40.888C638.241 40.216 637.761 39.736 637.473 39.064C637.281 38.68 637.185 38.296 637.089 38.008C636.417 34.456 636.417 31.096 637.377 27.736C637.953 25.624 638.817 23.704 640.545 22.264C643.041 19.96 646.017 19 649.569 20.152C650.625 20.536 651.873 20.92 652.929 21.304C653.121 21.4 653.312 21.496 653.505 21.496C654.177 21.4 654.945 21.592 655.617 21.88C656.961 22.648 658.209 23.32 659.457 24.088C660.801 24.856 661.761 26.008 662.433 27.448C662.529 27.736 662.721 27.832 662.817 28.024C663.393 28.792 663.873 29.464 664.545 30.232C664.737 30.424 664.833 30.616 665.121 30.808C665.121 30.52 665.025 30.232 665.025 29.944C665.697 31.288 665.793 32.632 666.081 34.168C666.177 34.936 666.369 35.8 666.561 36.568C667.425 39.832 667.521 42.904 667.233 46.072C667.137 45.016 667.137 43.768 667.041 42.712C667.041 42.712 667.041 42.712 666.945 42.712C666.849 45.208 666.753 47.512 666.753 50.008C666.753 50.584 666.753 50.68 667.521 50.776C667.809 50.008 667.617 49.144 667.809 48.376C667.905 50.296 667.905 52.216 667.905 54.232C667.905 57.976 667.905 61.72 667.905 65.368C667.905 67.672 667.905 70.072 667.905 72.472C667.905 73.912 668.577 74.968 669.057 76.312C669.249 76.888 669.345 77.368 669.345 78.04C669.249 78.232 669.345 78.616 669.345 79.096C669.441 79.864 669.249 80.536 668.769 81.208C668.673 81.4 668.577 81.592 668.481 81.784C668.289 82.072 668.097 82.456 668.289 83.032C668.289 83.224 668.385 83.512 668.385 83.608C668.385 83.896 668.289 84.088 667.905 84.28C667.809 83.608 667.809 82.936 667.713 82.168C667.521 81.592 666.945 80.824 666.273 80.632C666.177 80.92 665.985 81.304 665.793 81.688C665.985 83.032 666.657 84.184 666.369 85.624C666.273 85.912 665.889 86.2 665.697 86.392C665.121 85.72 664.833 85.24 664.545 84.568C664.353 85.336 664.353 85.432 663.777 85.528C663.681 85.72 663.681 85.912 663.681 86.104C663.489 86.008 663.297 85.816 663.105 85.624C662.241 86.104 662.145 85.432 661.665 84.856C661.185 84.856 660.705 84.856 660.417 84.28C660.321 84.088 660.225 83.896 660.033 83.992C659.361 83.608 658.593 82.552 658.113 82.072C656.385 80.344 655.809 77.368 655.521 75.64C654.753 76.024 655.233 76.696 654.945 77.272C654.849 76.888 654.753 76.6 654.753 76.312C654.561 76.312 654.369 76.312 654.273 76.504C653.793 76.888 653.312 77.368 652.737 77.752C651.201 79.096 649.473 79.768 647.553 80.248C647.265 80.248 646.881 80.344 646.593 80.536C645.345 81.016 644.193 81.4 642.753 81.4C641.697 81.304 640.929 80.92 640.065 80.248C639.585 79.96 639.105 79.864 638.625 79.48C636.993 78.232 635.457 76.888 634.497 74.968C634.305 74.584 634.017 74.2 633.825 73.816C632.865 71.512 631.809 69.304 631.617 66.808C631.521 65.752 631.617 64.888 632.001 63.928C632.769 62.296 633.633 60.664 634.689 59.32C635.073 58.744 635.265 58.36 635.073 57.784C634.881 57.304 634.977 56.92 635.169 56.44C635.457 56.152 635.553 55.768 635.745 55.384C635.841 55 636.129 54.616 636.129 54.136C636.129 54.04 636.129 53.464 636.705 53.656H636.801C637.281 52.888 637.665 52.216 638.145 51.448C638.337 51.256 638.337 51.064 638.529 50.872C640.065 49.24 641.793 47.992 643.617 46.84C643.809 46.744 644.001 46.744 644.193 46.552ZM645.249 70.744C646.689 69.688 648.225 68.92 649.665 67.864C651.201 66.808 652.833 65.464 654.369 64.408C654.753 64.216 654.753 63.832 654.753 63.544C654.849 59.896 655.041 56.152 655.137 52.408C655.137 52.12 655.137 51.832 655.137 51.448C654.081 51.928 653.505 52.6 652.833 53.272C651.105 55.096 649.473 57.208 648.129 59.416C646.593 61.816 645.249 64.504 644.577 67.288C644.385 67.864 644.289 68.536 644.193 69.016C644.193 69.784 644.481 70.36 645.249 70.744ZM636.321 56.92C637.281 55.768 638.433 54.712 639.297 53.464C639.105 53.272 638.913 53.176 638.721 52.984C637.761 54.328 636.993 55.48 636.321 56.92ZM663.777 36.472C663.585 38.296 664.065 41.944 664.641 42.712C664.449 40.6 664.257 38.68 663.777 36.472ZM660.609 27.448C659.841 26.68 659.169 25.912 658.497 25.816C659.265 27.16 658.785 26.872 660.609 27.448ZM663.681 83.128C663.777 83.128 663.777 83.128 663.777 83.128C663.873 81.976 663.489 81.208 662.817 80.44C662.721 80.44 662.721 80.44 662.625 80.536C663.009 81.496 663.297 82.264 663.681 83.128ZM662.721 34.36C662.817 33.016 662.337 31.96 661.569 31.384C661.953 32.44 662.337 33.4 662.721 34.36ZM650.241 78.232C650.241 78.136 650.241 78.136 650.241 78.136C649.665 78.328 649.089 78.712 648.801 79.288C649.281 79 649.761 78.616 650.241 78.232ZM644.673 27.352C644.001 27.64 643.809 27.736 643.424 28.408C643.905 28.024 644.481 27.832 644.673 27.352ZM640.161 52.792C640.833 52.6 640.833 52.6 640.929 52.024C640.641 52.312 640.449 52.6 640.161 52.792ZM681.582 79.96L681.39 78.232L680.526 78.424C680.43 78.424 680.43 78.424 680.43 78.424C680.334 78.52 680.238 78.808 679.95 79C679.95 78.712 679.758 78.424 679.662 78.232C679.182 78.328 678.894 78.04 678.894 77.464C678.798 76.984 678.606 76.696 678.222 76.504C677.934 76.312 677.742 75.928 677.646 75.544C677.262 74.488 676.974 73.144 677.262 71.896C677.454 70.552 677.262 69.208 677.07 67.864C676.878 65.656 676.59 63.448 676.302 61.144L676.014 58.456C675.918 55.864 675.534 53.272 675.15 50.68C674.958 49.432 674.862 48.184 674.862 47.032C674.862 42.04 674.862 37.24 674.862 32.44C674.958 28.888 675.246 25.432 675.534 21.976C675.63 20.344 675.63 18.616 675.822 16.984C676.014 14.488 676.206 12.088 676.782 9.496L677.454 7.096C677.55 6.904 677.646 6.616 677.742 6.328C677.934 5.848 678.03 5.848 678.51 6.04L678.99 5.752C679.566 5.848 679.566 6.616 679.95 6.99999L680.91 6.616C680.91 6.904 680.91 6.99999 681.006 7.288C681.102 7.288 681.198 7.288 681.294 7.288C681.39 7.384 681.486 7.672 681.582 7.672C681.774 7.576 681.774 7.384 681.87 7.288L682.158 6.99999C682.734 7.096 683.214 7.47999 683.214 8.152C684.174 8.152 684.654 8.824 684.75 9.496C685.038 10.936 685.134 12.472 685.23 14.104L685.422 19.768C685.518 21.88 685.71 24.088 685.902 26.296C686.382 30.712 686.574 35.224 686.478 39.832C686.382 40.696 686.574 41.656 686.574 42.616C686.766 45.112 686.862 47.512 686.958 50.008L687.342 55C688.014 60.28 688.302 65.656 688.686 71.032V72.952C688.686 73.144 688.686 73.336 688.59 73.528L688.11 75.064C688.014 75.736 687.63 76.312 687.054 76.6C686.67 76.888 686.19 77.176 685.806 77.368C685.422 77.656 685.134 77.944 685.23 78.328C685.23 78.808 685.038 79.096 684.558 79.192C683.598 79.48 682.734 79.768 681.582 79.96ZM677.742 55.768L678.414 57.304H678.51V55.864C678.51 55.384 678.606 54.904 678.894 54.424C679.086 54.232 679.086 53.944 679.086 53.656L678.606 47.992C678.51 47.032 678.51 45.976 678.798 44.92C678.99 44.344 678.99 43.672 678.99 43.096L678.606 37.048C678.318 33.592 678.51 30.04 677.742 26.68C677.742 25.912 677.646 25.144 677.454 24.088C677.358 24.856 677.166 25.24 677.166 25.816C677.07 27.256 677.07 28.792 677.07 30.328C677.07 33.496 677.07 36.664 677.07 39.832C677.07 41.272 677.166 42.808 677.262 44.152C677.262 45.304 677.358 46.36 677.454 47.416C677.454 47.8 677.358 48.088 677.262 48.568C677.07 48.28 677.07 48.184 677.07 48.088C677.07 52.216 677.07 56.248 677.454 60.568C677.838 59.992 677.838 59.704 677.838 59.128C677.742 58.072 677.742 56.92 677.742 55.864V55.768ZM684.75 32.536L684.942 34.84C685.038 33.784 685.038 32.824 684.75 32.536ZM701.364 79.96L701.172 78.232L700.308 78.424C700.212 78.424 700.212 78.424 700.212 78.424C700.116 78.52 700.02 78.808 699.732 79C699.732 78.712 699.54 78.424 699.444 78.232C698.964 78.328 698.676 78.04 698.676 77.464C698.58 76.984 698.388 76.696 698.004 76.504C697.716 76.312 697.523 75.928 697.428 75.544C697.044 74.488 696.756 73.144 697.044 71.896C697.236 70.552 697.044 69.208 696.852 67.864C696.66 65.656 696.372 63.448 696.084 61.144L695.796 58.456C695.7 55.864 695.316 53.272 694.932 50.68C694.74 49.432 694.644 48.184 694.644 47.032C694.644 42.04 694.644 37.24 694.644 32.44C694.74 28.888 695.028 25.432 695.316 21.976C695.412 20.344 695.412 18.616 695.604 16.984C695.796 14.488 695.988 12.088 696.564 9.496L697.236 7.096C697.332 6.904 697.428 6.616 697.523 6.328C697.716 5.848 697.812 5.848 698.292 6.04L698.772 5.752C699.348 5.848 699.348 6.616 699.732 6.99999L700.692 6.616C700.692 6.904 700.692 6.99999 700.788 7.288C700.884 7.288 700.98 7.288 701.076 7.288C701.172 7.384 701.268 7.672 701.364 7.672C701.556 7.576 701.556 7.384 701.652 7.288L701.94 6.99999C702.516 7.096 702.996 7.47999 702.996 8.152C703.956 8.152 704.436 8.824 704.532 9.496C704.82 10.936 704.916 12.472 705.012 14.104L705.204 19.768C705.299 21.88 705.492 24.088 705.684 26.296C706.164 30.712 706.356 35.224 706.26 39.832C706.164 40.696 706.356 41.656 706.356 42.616C706.548 45.112 706.644 47.512 706.74 50.008L707.124 55C707.796 60.28 708.084 65.656 708.468 71.032V72.952C708.468 73.144 708.468 73.336 708.372 73.528L707.892 75.064C707.796 75.736 707.412 76.312 706.836 76.6C706.452 76.888 705.972 77.176 705.588 77.368C705.204 77.656 704.916 77.944 705.012 78.328C705.012 78.808 704.82 79.096 704.34 79.192C703.38 79.48 702.516 79.768 701.364 79.96ZM697.523 55.768L698.196 57.304H698.292V55.864C698.292 55.384 698.388 54.904 698.676 54.424C698.868 54.232 698.868 53.944 698.868 53.656L698.388 47.992C698.292 47.032 698.292 45.976 698.58 44.92C698.772 44.344 698.772 43.672 698.772 43.096L698.388 37.048C698.1 33.592 698.292 30.04 697.523 26.68C697.523 25.912 697.428 25.144 697.236 24.088C697.14 24.856 696.948 25.24 696.948 25.816C696.852 27.256 696.852 28.792 696.852 30.328C696.852 33.496 696.852 36.664 696.852 39.832C696.852 41.272 696.948 42.808 697.044 44.152C697.044 45.304 697.14 46.36 697.236 47.416C697.236 47.8 697.14 48.088 697.044 48.568C696.852 48.28 696.852 48.184 696.852 48.088C696.852 52.216 696.852 56.248 697.236 60.568C697.62 59.992 697.62 59.704 697.62 59.128C697.523 58.072 697.523 56.92 697.523 55.864V55.768ZM704.532 32.536L704.724 34.84C704.82 33.784 704.82 32.824 704.532 32.536ZM719.705 79.576C719.705 79.576 719.609 79.48 719.321 79.384C719.705 79.192 719.801 79.192 719.993 79.192C720.089 79 720.185 78.808 720.377 78.52C719.513 78.424 718.841 78.328 717.977 78.136C717.497 78.136 717.209 78.136 716.921 78.52C716.825 78.52 716.825 78.616 716.633 78.712C716.729 78.136 716.441 78.04 716.057 77.752C715.673 77.368 715.577 76.888 715.097 76.6C715.001 76.6 715.001 76.312 715.001 76.216C715.097 76.024 715.289 75.832 715.385 75.64C715.001 75.544 714.617 75.352 714.233 75.16C714.137 75.448 713.945 75.736 713.753 75.928C713.657 75.736 713.561 75.544 713.561 75.448C713.177 75.16 713.177 74.776 713.369 74.488C713.561 73.912 713.753 73.336 713.177 72.76C713.465 72.664 713.561 72.664 713.561 72.664C714.137 72.664 714.137 72.664 713.849 71.992C714.425 71.896 714.521 71.512 714.617 71.128C716.441 66.616 718.457 62.104 720.473 57.688C723.449 51.16 726.329 44.728 728.921 38.104C729.305 37.24 729.689 36.184 730.073 35.32C730.073 35.032 730.265 34.744 730.553 34.648C730.745 34.552 730.937 34.36 731.033 34.264C731.225 34.072 731.321 33.976 731.417 33.976C731.897 33.976 731.897 33.592 731.897 33.208C731.897 32.44 732.185 31.48 732.569 30.712C732.857 29.944 733.241 29.176 733.529 28.504C733.625 28.312 733.625 28.024 733.721 27.736C733.433 27.64 733.145 27.64 732.857 27.544C729.209 27.256 725.657 27.064 722.009 26.68C720.761 26.584 719.321 26.296 718.073 26.008C717.881 26.008 717.785 25.912 717.593 25.912C717.017 25.528 716.921 25.24 717.209 24.664C717.209 24.568 717.305 24.472 717.305 24.376C716.729 24.088 716.441 23.416 716.153 22.84C716.345 22.648 716.537 22.648 716.825 22.456C716.441 22.264 716.057 22.072 715.769 21.88C715.481 21.592 715.385 21.4 715.385 20.92C715.385 20.344 715.289 19.768 715.193 19.384C715.193 19.192 715.193 19.096 715.193 18.904C715.769 18.808 716.153 18.136 716.825 18.136C717.497 18.136 718.073 17.944 718.745 17.944C722.009 17.752 725.369 17.56 728.729 17.752C732.569 17.944 736.409 18.232 740.249 18.712C741.209 18.808 742.265 19.192 743.033 19.768C743.129 19.96 743.417 20.056 743.609 20.056C744.569 20.152 745.337 20.44 746.105 21.016C746.009 21.4 746.009 21.592 746.105 21.976C746.201 22.264 746.009 22.744 746.009 23.128C745.913 23.416 745.721 23.8 745.625 24.28C745.337 24.664 745.529 25.144 745.721 25.24C746.105 25.336 745.721 25.528 745.913 25.624C746.009 25.72 746.297 25.72 746.393 25.72C746.873 25.72 747.065 25.912 747.065 26.392C746.969 26.968 746.873 27.352 746.681 27.928C746.393 30.328 745.241 32.44 744.473 34.552C743.321 37.336 742.361 40.12 741.209 42.904C740.345 45.208 739.385 47.416 738.521 49.624C737.273 52.6 735.737 55.864 734.297 58.84C733.337 61.144 732.185 63.352 731.129 65.56C731.033 65.944 730.841 66.328 730.649 66.808C731.897 67.192 733.145 67.288 734.297 67.192C735.449 67.192 736.505 67.288 737.561 67.288C737.945 67.384 738.329 67.192 738.521 67.672C738.617 67.768 738.905 67.768 739.097 67.768C741.209 67.864 743.225 67.864 745.241 68.248C746.777 68.344 748.313 68.824 749.849 69.304C749.753 69.4 749.753 69.688 749.657 69.88C749.465 69.784 749.273 69.784 748.889 69.688C748.985 69.88 748.985 70.072 749.081 70.072C749.561 70.456 750.041 70.648 750.329 70.84C750.425 70.936 750.521 71.128 750.713 71.416C750.425 71.512 750.329 71.512 750.137 71.608C750.617 72.088 751.097 72.472 751.481 72.856C751.289 73.336 751.001 73.72 750.713 74.2C751.001 74.392 751.097 74.488 751.385 74.584C751.385 75.16 751.097 75.544 750.617 75.832C749.561 76.504 748.505 77.368 747.353 78.04C746.681 78.328 746.009 78.424 745.337 78.616C745.049 78.712 744.761 78.808 744.569 79C744.185 79.192 743.801 79.48 743.321 79.576C741.977 79.96 740.633 79.864 739.193 79.96C735.737 79.96 732.281 79.576 728.825 79.192C727.865 79.192 726.905 78.904 725.945 78.808C725.177 78.808 724.505 78.712 723.737 78.616C722.969 78.616 722.969 78.616 722.585 79.096C722.489 78.904 722.489 78.808 722.393 78.616C722.009 78.52 721.913 78.904 721.721 79.192C721.145 79.864 720.761 80.152 719.897 80.248C719.513 79.96 719.705 79.864 719.705 79.576C720.377 79.576 720.377 79.576 720.569 79.192C720.185 79.288 719.993 79.48 719.705 79.576ZM733.817 33.496C733.529 33.688 733.529 34.168 733.433 34.36C733.433 34.36 733.529 34.36 733.529 34.456C733.625 34.168 733.721 33.784 733.817 33.496C733.913 33.208 733.913 33.112 734.009 32.824H733.913C733.913 33.016 733.817 33.208 733.817 33.496ZM735.449 32.344C734.201 35.608 732.953 38.872 731.705 42.136C730.265 45.4 728.921 48.664 727.673 51.928C727.865 51.736 728.153 51.544 728.249 51.256C728.441 51.064 728.441 50.776 728.633 50.68C729.209 49.432 729.785 48.28 730.265 47.128L730.457 46.84C731.033 47.032 730.937 46.456 731.033 46.264C731.609 45.016 732.089 43.768 732.569 42.616C734.489 37.912 736.313 33.208 738.137 28.504C738.233 28.504 738.233 28.312 738.329 28.12C737.369 28.12 736.697 28.024 735.929 27.928C735.737 28.216 735.641 28.504 735.545 28.792C735.545 28.888 735.449 29.08 735.449 29.176C735.929 29.464 735.545 29.848 735.545 30.136C735.449 30.808 735.353 31.576 735.161 32.248C735.353 32.344 735.449 32.344 735.449 32.344ZM727.673 78.712C729.977 78.904 732.377 78.904 734.681 78.808C734.105 78.424 733.625 78.52 732.953 78.52C732.185 78.424 731.513 78.52 730.745 78.424C729.689 78.136 728.633 78.328 727.673 78.712ZM743.897 24.28C744.089 23.704 744.185 23.416 744.377 23.128C744.377 23.032 744.377 22.744 744.377 22.648C744.281 22.552 744.185 22.456 743.993 22.36C743.897 22.36 743.801 22.552 743.801 22.648C743.609 22.84 743.417 23.032 743.225 23.416C743.417 23.608 743.609 23.8 743.897 24.28ZM716.057 71.896C716.537 71.896 716.537 71.8 716.825 71.032C716.441 71.224 716.057 71.32 716.057 71.896ZM743.801 20.92C743.801 21.016 743.801 21.112 743.801 21.208C744.185 21.208 744.665 21.4 745.049 21.208C744.665 21.112 744.281 21.016 743.801 20.92ZM716.153 72.568C716.153 72.472 716.153 72.376 716.057 72.28C715.961 72.376 715.769 72.376 715.673 72.472C715.673 72.568 715.673 72.568 715.673 72.664C715.865 72.664 716.057 72.664 716.153 72.568ZM734.585 31.384H734.681C734.681 31.288 734.681 31.096 734.777 31C734.681 31 734.681 31 734.681 31.096C734.585 31.192 734.585 31.288 734.585 31.384ZM718.169 80.344C718.073 80.344 717.977 80.44 717.881 80.44C717.881 80.44 717.881 80.344 717.785 80.248C717.785 80.248 717.881 80.248 717.881 80.152C717.977 80.248 718.073 80.248 718.169 80.344Z" fill="white"/>
</svg>
